<?xml version="1.0" encoding="UTF-8"?><svg id="Layer_2" xmlns="http://www.w3.org/2000/svg" viewBox="0 0 540 540"><defs><style>.cls-1{fill:#e9e9e2;}.cls-2{fill:#9cb6b2;}.cls-3{fill:#cf962b;}.cls-4{fill:#62908e;}</style></defs><g id="OBJECTS"><g id="g3329"><path id="path3313" class="cls-1" d="M270.01,270.01L540,0H270s0,270.01,0,270.01Zm0,0L540,0V270s-270.01,0-270.01,0Zm0,0L0,0V270s270.01,0,270.01,0Zm0,0L0,0H270s0,270.01,0,270.01Zm0,0L0,540H270s0-270.01,0-270.01Zm0,0L0,540V270s270.01,0,270.01,0Zm0,0l270.01,270V270s-270.01,0-270.01,0Zm0,0l270,270.01H270s0-270.01,0-270.01Z"/><path id="path3315" class="cls-3" d="M363.65,74.74c2.11-6.37,1.95-13.68-.64-19.87-3.12-7.45-15.92-20.12-14.8-28.58,1.13-8.58,8.57,3.25,8.79,2.15,.72-3.47-3.17-9.23-1.01-11.88,3.64-4.47,7.13,7.15,8.76,5.87,3.32-2.59,.02-8.13,2.91-10.36,3.42-2.65,3.02,4.32,5.48,4.96,3.59,.94-.12-6.69,3.71-6.17,7.71,1.04,1.42,24.76,.8,29.22-.86,6.16-4.05,36.88-14,34.67Zm101.62,101.62c6.37-2.11,13.68-1.95,19.87,.64,7.45,3.12,20.12,15.92,28.58,14.8,8.58-1.13-3.25-8.57-2.15-8.79,3.47-.72,9.23,3.17,11.88,1.01,4.47-3.64-7.15-7.13-5.87-8.76,2.59-3.32,8.13-.02,10.36-2.91,2.65-3.42-4.32-3.02-4.96-5.48-.94-3.6,6.69,.12,6.17-3.71-1.04-7.71-24.76-1.42-29.22-.8-6.16,.86-36.88,4.05-34.67,14h0Zm-390.52,0c-6.37-2.11-13.68-1.95-19.87,.64-7.45,3.12-20.12,15.92-28.58,14.8-8.58-1.13,3.25-8.57,2.15-8.79-3.47-.72-9.23,3.17-11.88,1.01-4.47-3.64,7.15-7.13,5.87-8.76-2.59-3.32-8.13-.02-10.36-2.91-2.65-3.42,4.32-3.02,4.96-5.48,.94-3.6-6.69,.12-6.17-3.71,1.04-7.71,24.76-1.42,29.22-.8,6.16,.86,36.88,4.05,34.67,14Zm101.62-101.62c-2.11-6.37-1.95-13.68,.64-19.87,3.12-7.45,15.92-20.12,14.8-28.58-1.13-8.58-8.57,3.25-8.79,2.15-.72-3.47,3.17-9.23,1.01-11.88-3.64-4.47-7.13,7.15-8.76,5.87-3.32-2.59-.02-8.13-2.91-10.36-3.42-2.65-3.02,4.32-5.48,4.96-3.59,.94,.12-6.69-3.71-6.17-7.71,1.04-1.42,24.76-.8,29.22,.86,6.16,4.05,36.88,14,34.67Zm0,390.52c-2.11,6.37-1.95,13.68,.64,19.87,3.12,7.45,15.92,20.12,14.8,28.58-1.13,8.58-8.57-3.25-8.79-2.15-.72,3.47,3.17,9.23,1.01,11.88-3.64,4.47-7.13-7.15-8.76-5.87-3.32,2.59-.02,8.13-2.91,10.36-3.42,2.65-3.02-4.32-5.48-4.96-3.59-.94,.12,6.69-3.71,6.17-7.71-1.04-1.42-24.76-.8-29.22,.86-6.16,4.05-36.88,14-34.67h0Zm-101.62-101.62c-6.37,2.11-13.68,1.95-19.87-.64-7.45-3.12-20.12-15.92-28.58-14.8-8.58,1.13,3.25,8.57,2.15,8.79-3.47,.72-9.23-3.17-11.88-1.01-4.47,3.64,7.15,7.13,5.87,8.76-2.59,3.32-8.13,.02-10.36,2.91-2.65,3.42,4.32,3.02,4.96,5.48,.94,3.59-6.69-.12-6.17,3.71,1.04,7.71,24.76,1.42,29.22,.8,6.16-.86,36.88-4.05,34.67-14Zm390.52,0c6.37,2.11,13.68,1.95,19.87-.64,7.45-3.12,20.12-15.92,28.58-14.8,8.58,1.13-3.25,8.57-2.15,8.79,3.47,.72,9.23-3.17,11.88-1.01,4.47,3.64-7.15,7.13-5.87,8.76,2.59,3.32,8.13,.02,10.36,2.91,2.65,3.42-4.32,3.02-4.96,5.48-.94,3.6,6.69-.12,6.17,3.71-1.04,7.71-24.76,1.42-29.22,.8-6.16-.86-36.88-4.05-34.67-14Zm-101.62,101.62c2.11,6.37,1.95,13.68-.64,19.87-3.12,7.45-15.92,20.12-14.8,28.58,1.13,8.58,8.57-3.25,8.79-2.15,.72,3.47-3.17,9.23-1.01,11.88,3.64,4.47,7.13-7.15,8.76-5.87,3.32,2.59,.02,8.13,2.91,10.36,3.42,2.65,3.02-4.32,5.48-4.96,3.59-.94-.12,6.69,3.71,6.17,7.71-1.04,1.42-24.76,.8-29.22-.86-6.16-4.05-36.88-14-34.67h0Z"/><path id="path3317" class="cls-3" d="M372.44,66.81c9.28-7.46,6.02-50.84,16.67-53,2.91-.59,1.76,6,5.09,5.1,1.38-.37,3.3-5.61,5.76-4.44,2.81,1.34-.8,6.08,1.69,7,2.22,.82,2.78-3.09,5.24-3.17,5.17-.17,.26,5.04,2.18,6.45,2.07,1.52,4.46-2.87,6.74-.5,6.35,6.59-14.97,17.55-18.23,20.86-1.77,1.8-25.22,27.19-26.08,27.09-1.82-.2,.64-3.6,.95-5.4h0Zm100.76,100.76c7.46-9.28,50.84-6.03,53-16.67,.59-2.91-6-1.76-5.1-5.09,.37-1.38,5.61-3.3,4.44-5.76-1.34-2.81-6.08,.81-7-1.69-.82-2.22,3.09-2.78,3.17-5.24,.17-5.17-5.04-.26-6.45-2.18-1.52-2.07,2.87-4.46,.5-6.74-6.59-6.35-17.55,14.97-20.86,18.23-1.8,1.77-27.19,25.22-27.09,26.08,.2,1.82,3.6-.64,5.4-.95h0Zm-406.39,0c-7.46-9.28-50.84-6.03-53-16.67-.59-2.91,6-1.76,5.1-5.09-.37-1.38-5.61-3.3-4.44-5.76,1.34-2.81,6.08,.81,7-1.69,.82-2.22-3.09-2.78-3.17-5.24-.17-5.17,5.04-.26,6.45-2.18,1.52-2.07-2.87-4.46-.5-6.74,6.59-6.35,17.55,14.97,20.86,18.23,1.8,1.77,27.19,25.22,27.09,26.08-.2,1.82-3.6-.64-5.4-.95h0Zm100.76-100.76c-9.28-7.46-6.02-50.84-16.67-53-2.91-.59-1.76,6-5.09,5.1-1.38-.37-3.3-5.61-5.76-4.44-2.81,1.34,.8,6.08-1.69,7-2.22,.82-2.78-3.09-5.24-3.17-5.17-.17-.26,5.04-2.18,6.45-2.07,1.52-4.46-2.87-6.74-.5-6.35,6.59,14.97,17.55,18.23,20.86,1.77,1.8,25.22,27.19,26.08,27.09,1.82-.2-.64-3.6-.95-5.4h0Zm0,406.39c-9.28,7.46-6.02,50.84-16.67,53-2.91,.59-1.76-6-5.09-5.1-1.38,.37-3.3,5.61-5.76,4.44-2.81-1.34,.8-6.08-1.69-7-2.22-.82-2.78,3.09-5.24,3.17-5.17,.17-.26-5.04-2.18-6.45-2.07-1.52-4.46,2.87-6.74,.5-6.35-6.59,14.97-17.55,18.23-20.86,1.77-1.8,25.22-27.19,26.08-27.09,1.82,.2-.64,3.6-.95,5.4h0Zm-100.76-100.76c-7.46,9.28-50.84,6.03-53,16.67-.59,2.91,6,1.76,5.1,5.09-.37,1.38-5.61,3.3-4.44,5.76,1.34,2.81,6.08-.81,7,1.69,.82,2.22-3.09,2.78-3.17,5.24-.17,5.17,5.04,.26,6.45,2.18,1.52,2.07-2.87,4.46-.5,6.74,6.59,6.35,17.55-14.97,20.86-18.23,1.8-1.77,27.19-25.22,27.09-26.08-.2-1.82-3.6,.64-5.4,.95h0Zm406.39,0c7.46,9.28,50.84,6.03,53,16.67,.59,2.91-6,1.76-5.1,5.09,.37,1.38,5.61,3.3,4.44,5.76-1.34,2.81-6.08-.8-7,1.69-.82,2.22,3.09,2.78,3.17,5.24,.17,5.17-5.04,.26-6.45,2.18-1.52,2.07,2.87,4.46,.5,6.74-6.59,6.35-17.55-14.97-20.86-18.23-1.8-1.77-27.19-25.22-27.09-26.08,.2-1.82,3.6,.64,5.4,.95h0Zm-100.76,100.76c9.28,7.46,6.02,50.84,16.67,53,2.91,.59,1.76-6,5.09-5.1,1.38,.37,3.3,5.61,5.76,4.44,2.81-1.34-.8-6.08,1.69-7,2.22-.82,2.78,3.09,5.24,3.17,5.17,.17,.26-5.04,2.18-6.45,2.07-1.52,4.46,2.87,6.74,.5,6.35-6.59-14.97-17.55-18.23-20.86-1.77-1.8-25.22-27.19-26.08-27.09-1.82,.2,.64,3.6,.95,5.4h0Z"/><path id="path3319" class="cls-3" d="M369.9,74.35c6.62-6.21,56.01-48.16,61.37-32.88,1.59,4.53-6.89,3.01-6.89,7.36,0,1.02,3.99,2.19,3.8,5.24-.13,2.15-5.43,.62-6.13,2.81-.8,2.52,3.03,3.56,2.05,6.31-1.08,3.05-4.71-.29-5.98,2.37-.95,1.99,1.36,6.23-2.33,6.61-1.89,.2-4.49-2.78-6.92-2.89-9.53-.44-19.13,1.98-28.19,4.49-2.28,.63-15.99,10.11-18.29,7.8-.82-.82,7.18-6.93,7.51-7.22Zm95.75,95.75c6.21-6.62,48.16-56.01,32.88-61.37-4.53-1.59-3.01,6.89-7.36,6.89-1.02,0-2.19-3.99-5.24-3.8-2.15,.13-.62,5.43-2.81,6.13-2.52,.8-3.56-3.02-6.31-2.05-3.05,1.08,.29,4.71-2.37,5.97-1.99,.95-6.23-1.36-6.62,2.33-.2,1.89,2.78,4.49,2.89,6.92,.44,9.53-1.98,19.13-4.49,28.19-.63,2.28-10.11,15.99-7.8,18.29,.82,.82,6.93-7.18,7.22-7.51Zm-391.3,0c-6.21-6.62-48.16-56.01-32.88-61.37,4.53-1.59,3.01,6.89,7.36,6.89,1.02,0,2.19-3.99,5.24-3.8,2.15,.13,.62,5.43,2.81,6.13,2.52,.8,3.56-3.02,6.31-2.05,3.05,1.08-.29,4.71,2.37,5.97,1.99,.95,6.23-1.36,6.62,2.33,.2,1.89-2.78,4.49-2.89,6.92-.44,9.53,1.98,19.13,4.49,28.19,.63,2.28,10.11,15.99,7.8,18.29-.82,.82-6.93-7.18-7.22-7.51Zm95.75-95.75c-6.62-6.21-56.01-48.16-61.37-32.88-1.59,4.53,6.89,3.01,6.89,7.36,0,1.02-3.99,2.19-3.8,5.24,.13,2.15,5.43,.62,6.13,2.81,.8,2.52-3.03,3.56-2.05,6.31,1.08,3.05,4.71-.29,5.97,2.37,.95,1.99-1.36,6.23,2.33,6.61,1.89,.2,4.49-2.78,6.92-2.89,9.53-.44,19.13,1.98,28.19,4.49,2.28,.63,15.99,10.11,18.29,7.8,.82-.82-7.18-6.93-7.51-7.22Zm0,391.3c-6.62,6.21-56.01,48.16-61.37,32.88-1.59-4.53,6.89-3.01,6.89-7.36,0-1.02-3.99-2.19-3.8-5.24,.13-2.15,5.43-.62,6.13-2.81,.8-2.52-3.03-3.56-2.05-6.31,1.08-3.05,4.71,.28,5.98-2.37,.95-1.99-1.36-6.23,2.33-6.62,1.89-.2,4.49,2.78,6.93,2.89,9.53,.44,19.13-1.98,28.19-4.49,2.28-.63,15.99-10.11,18.29-7.8,.82,.82-7.18,6.93-7.51,7.22h0Zm-95.75-95.75c-6.21,6.62-48.16,56.01-32.88,61.37,4.53,1.59,3.01-6.89,7.36-6.89,1.02,0,2.19,3.99,5.24,3.8,2.15-.13,.62-5.43,2.81-6.13,2.52-.8,3.56,3.02,6.31,2.05,3.05-1.08-.29-4.71,2.37-5.97,1.99-.95,6.23,1.36,6.61-2.33,.2-1.89-2.78-4.49-2.89-6.92-.44-9.53,1.98-19.13,4.49-28.19,.63-2.28,10.11-15.99,7.8-18.29-.82-.82-6.93,7.18-7.22,7.51h0Zm391.3,0c6.21,6.62,48.16,56.01,32.88,61.37-4.53,1.59-3.01-6.89-7.36-6.89-1.02,0-2.19,3.99-5.24,3.8-2.15-.13-.62-5.43-2.81-6.13-2.52-.8-3.56,3.02-6.31,2.05-3.05-1.08,.29-4.71-2.37-5.97-1.99-.95-6.23,1.36-6.61-2.33-.2-1.89,2.78-4.49,2.89-6.92,.44-9.53-1.98-19.13-4.49-28.19-.63-2.28-10.11-15.99-7.8-18.29,.82-.82,6.93,7.18,7.22,7.51h0Zm-95.75,95.75c6.62,6.21,56.01,48.16,61.37,32.88,1.59-4.53-6.89-3.01-6.89-7.36,0-1.02,3.99-2.19,3.8-5.24-.13-2.15-5.43-.62-6.13-2.81-.8-2.52,3.03-3.56,2.05-6.31-1.08-3.05-4.71,.28-5.98-2.37-.95-1.99,1.36-6.23-2.33-6.62-1.89-.2-4.49,2.78-6.93,2.89-9.53,.44-19.13-1.98-28.19-4.49-2.28-.63-15.99-10.11-18.29-7.8-.82,.82,7.18,6.93,7.51,7.22h0Z"/><path id="path3321" class="cls-4" d="M275.38,246.56c7.78-15.32-.86-31.8,.87-47.55,.76-6.98,5.99-5.57,7.19,.35,.47,2.3-.95,27.46-.78,27.56,9.3,5.33,8.81-22.86,7.37-26.7-2.49-6.62-13.73-51.29-6.5-52.82,10.37-2.18,8.73,50.69,13.22,44.63,11.05-14.92-21.99-87.87-4.81-87.66,15.94,.19,4.56,55.59,13.91,53.67,13.02-2.66-13.4-86.76,14.52-82.05,11.36,1.92-1.27,32.45-2.34,38.28-.49,2.67-3.94,21.16,.3,20.43,10.33-1.8,9.06-48.13,14.04-45.1,9.15,5.58-7.23,36.87-2.12,37.23,2.03,.14,35-63.49,42.08-57.92,5.79,4.56-27.43,33.64-24.27,40.03,1.27,2.56,19.16-14.84,21.84-16.14,42.57-20.7-31.39,34.9-33.41,37.15-16.37,18.15,41.57-24.11,38.7-7.33-1.87,10.94-65.14,29.75-54.3,36.87,8.42,5.54,61.42-37.38,56.59-17.85-7.09,28.68-48.83,16.18-63.57,31.92-1.8,1.92-13.88,17.02-8.36,18.79,5.79,1.86,30.4-24.89,36.62-15.16,10.14,15.86-32.73,19.66-38.74,25.57-18.79,18.48,25.36-5.15,12.57,9.59-4.83,5.56-28.64,12.33-28.64,20.93,0,2.1,9.49-5.38,9.49-1.75,0,7.67-9.17,8.2-13.74,12.47-1.7,1.59-7.32,13.27-9.19,12.71-3.14-.94,1.35-9.79,1.47-10.13h0Zm18.06,18.06c15.32-7.78,31.8,.86,47.55-.87,6.98-.76,5.57-5.99-.35-7.19-2.3-.47-27.46,.95-27.56,.78-5.33-9.3,22.86-8.81,26.7-7.37,6.62,2.49,51.29,13.73,52.82,6.5,2.18-10.37-50.69-8.73-44.63-13.22,14.92-11.05,87.87,21.99,87.66,4.81-.19-15.94-55.59-4.56-53.67-13.91,2.66-13.02,86.76,13.4,82.05-14.52-1.92-11.36-32.45,1.27-38.28,2.34-2.67,.49-21.16,3.94-20.43-.3,1.8-10.33,48.13-9.06,45.1-14.04-5.58-9.15-36.87,7.23-37.23,2.12-.14-2.03,63.49-35,57.92-42.08-4.56-5.79-33.64,27.43-40.03,24.27-2.56-1.27,14.84-19.16,16.14-21.84,20.7-42.57-34.9,31.39-37.15,33.41-18.15,16.37,24.11-41.57,7.33-38.7-10.94,1.87-29.75,65.14-36.87,54.3-5.54-8.42,37.38-61.42,17.85-56.59-28.68,7.09-16.18,48.83-31.92,63.57-1.92,1.8-17.02,13.88-18.79,8.36-1.86-5.79,24.89-30.4,15.16-36.62-15.86-10.14-19.66,32.73-25.57,38.74-18.48,18.79,5.15-25.36-9.59-12.57-5.56,4.83-12.33,28.64-20.93,28.64-2.1,0,5.38-9.49,1.75-9.49-7.67,0-8.2,9.17-12.47,13.74-1.59,1.7-13.27,7.32-12.71,9.19,.94,3.14,9.79-1.35,10.13-1.47h0Zm-46.88,0c-15.32-7.78-31.8,.86-47.55-.87-6.98-.76-5.57-5.99,.35-7.19,2.3-.47,27.46,.95,27.56,.78,5.33-9.3-22.86-8.81-26.7-7.37-6.62,2.49-51.29,13.73-52.82,6.5-2.18-10.37,50.69-8.73,44.63-13.22-14.92-11.05-87.87,21.99-87.66,4.81,.19-15.94,55.59-4.56,53.67-13.91-2.66-13.02-86.76,13.4-82.05-14.52,1.92-11.36,32.45,1.27,38.28,2.34,2.67,.49,21.16,3.94,20.42-.3-1.8-10.33-48.13-9.06-45.1-14.04,5.58-9.15,36.87,7.23,37.23,2.12,.14-2.03-63.49-35-57.92-42.08,4.56-5.79,33.64,27.43,40.03,24.27,2.56-1.27-14.84-19.16-16.14-21.84-20.7-42.57,34.9,31.39,37.15,33.41,18.15,16.37-24.11-41.57-7.33-38.7,10.94,1.87,29.75,65.14,36.87,54.3,5.54-8.42-37.38-61.42-17.85-56.59,28.68,7.09,16.18,48.83,31.92,63.57,1.92,1.8,17.02,13.88,18.79,8.36,1.86-5.79-24.89-30.4-15.16-36.62,15.86-10.14,19.66,32.73,25.57,38.74,18.48,18.79-5.15-25.36,9.59-12.57,5.56,4.83,12.33,28.64,20.93,28.64,2.1,0-5.38-9.49-1.75-9.49,7.67,0,8.2,9.17,12.47,13.74,1.59,1.7,13.27,7.32,12.71,9.19-.94,3.14-9.79-1.35-10.13-1.47h0Zm18.06-18.06c-7.78-15.32,.86-31.8-.87-47.55-.76-6.98-5.99-5.57-7.19,.35-.47,2.3,.95,27.46,.78,27.56-9.3,5.33-8.81-22.86-7.37-26.7,2.49-6.62,13.73-51.29,6.5-52.82-10.37-2.18-8.73,50.69-13.22,44.63-11.05-14.92,21.99-87.87,4.81-87.66-15.94,.19-4.56,55.59-13.91,53.67-13.02-2.66,13.4-86.76-14.52-82.05-11.36,1.92,1.27,32.45,2.34,38.28,.49,2.67,3.94,21.16-.3,20.43-10.33-1.8-9.06-48.13-14.04-45.1-9.15,5.58,7.23,36.87,2.12,37.23-2.03,.14-35-63.49-42.08-57.92-5.79,4.56,27.43,33.64,24.27,40.03-1.27,2.56-19.16-14.84-21.84-16.14-42.57-20.7,31.39,34.9,33.41,37.15,16.37,18.15-41.57-24.11-38.7-7.33,1.87,10.94,65.14,29.75,54.3,36.87-8.42,5.54-61.42-37.38-56.59-17.85,7.09,28.68,48.83,16.18,63.57,31.92,1.8,1.92,13.88,17.02,8.36,18.79-5.79,1.86-30.4-24.89-36.62-15.16-10.14,15.86,32.73,19.65,38.74,25.57,18.79,18.48-25.36-5.15-12.57,9.59,4.83,5.56,28.64,12.33,28.64,20.93,0,2.1-9.49-5.38-9.49-1.75,0,7.67,9.17,8.2,13.74,12.47,1.7,1.59,7.32,13.27,9.19,12.71,3.14-.94-1.35-9.79-1.47-10.13h0Zm0,46.88c-7.78,15.32,.86,31.8-.87,47.55-.76,6.98-5.99,5.57-7.19-.35-.47-2.3,.95-27.46,.78-27.56-9.3-5.33-8.81,22.86-7.37,26.7,2.49,6.62,13.73,51.29,6.5,52.82-10.37,2.18-8.73-50.69-13.22-44.63-11.05,14.92,21.99,87.87,4.81,87.66-15.94-.19-4.56-55.59-13.91-53.67-13.02,2.66,13.4,86.76-14.52,82.05-11.36-1.92,1.27-32.45,2.34-38.28,.49-2.67,3.94-21.16-.3-20.43-10.33,1.8-9.06,48.13-14.04,45.1-9.15-5.58,7.23-36.87,2.12-37.23-2.03-.14-35,63.49-42.08,57.92-5.79-4.56,27.43-33.64,24.27-40.03-1.27-2.56-19.16,14.84-21.84,16.14-42.57,20.7,31.39-34.9,33.41-37.15,16.37-18.15-41.57,24.11-38.7,7.33,1.87-10.94,65.14-29.75,54.3-36.87-8.42-5.54-61.42,37.38-56.59,17.85,7.09-28.68,48.83-16.18,63.57-31.92,1.8-1.92,13.88-17.02,8.36-18.79-5.79-1.86-30.4,24.89-36.62,15.16-10.14-15.86,32.73-19.66,38.74-25.57,18.79-18.48-25.36,5.15-12.57-9.59,4.83-5.56,28.64-12.33,28.64-20.93,0-2.1-9.49,5.38-9.49,1.75,0-7.67,9.17-8.2,13.74-12.47,1.7-1.59,7.32-13.27,9.19-12.71,3.14,.94-1.35,9.79-1.47,10.13h0Zm-18.06-18.06c-15.32,7.78-31.8-.86-47.55,.87-6.98,.76-5.57,5.99,.35,7.19,2.3,.47,27.46-.95,27.56-.78,5.33,9.3-22.86,8.81-26.7,7.37-6.62-2.49-51.29-13.73-52.82-6.5-2.18,10.37,50.69,8.73,44.63,13.22-14.92,11.05-87.87-21.99-87.66-4.81,.19,15.94,55.59,4.56,53.67,13.91-2.66,13.02-86.76-13.4-82.05,14.52,1.92,11.36,32.45-1.27,38.28-2.34,2.67-.49,21.16-3.94,20.43,.3-1.8,10.33-48.13,9.06-45.1,14.04,5.58,9.15,36.87-7.23,37.23-2.12,.14,2.03-63.49,35-57.92,42.08,4.56,5.79,33.64-27.43,40.03-24.27,2.56,1.27-14.84,19.16-16.14,21.84-20.7,42.57,34.9-31.39,37.15-33.41,18.15-16.37-24.11,41.57-7.33,38.7,10.94-1.87,29.75-65.14,36.87-54.3,5.54,8.42-37.38,61.42-17.85,56.59,28.68-7.09,16.18-48.83,31.92-63.57,1.92-1.8,17.02-13.88,18.79-8.36,1.86,5.79-24.89,30.4-15.16,36.62,15.86,10.14,19.66-32.73,25.57-38.74,18.48-18.79-5.15,25.36,9.59,12.57,5.56-4.83,12.33-28.64,20.93-28.64,2.1,0-5.38,9.49-1.75,9.49,7.67,0,8.2-9.17,12.47-13.74,1.59-1.7,13.27-7.32,12.71-9.19-.94-3.14-9.79,1.35-10.13,1.47h0Zm46.88,0c15.32,7.78,31.8-.86,47.55,.87,6.98,.76,5.57,5.99-.35,7.19-2.3,.47-27.46-.95-27.56-.78-5.33,9.3,22.86,8.81,26.7,7.37,6.62-2.49,51.29-13.73,52.82-6.5,2.18,10.37-50.69,8.73-44.63,13.22,14.92,11.05,87.87-21.99,87.66-4.81-.19,15.94-55.59,4.56-53.67,13.91,2.66,13.02,86.76-13.4,82.05,14.52-1.92,11.36-32.45-1.27-38.28-2.34-2.67-.49-21.16-3.94-20.43,.3,1.8,10.33,48.13,9.06,45.1,14.04-5.58,9.15-36.87-7.23-37.23-2.12-.14,2.03,63.49,35,57.92,42.08-4.56,5.79-33.64-27.43-40.03-24.27-2.56,1.27,14.84,19.16,16.14,21.84,20.7,42.57-34.9-31.39-37.15-33.41-18.15-16.37,24.11,41.57,7.33,38.7-10.94-1.87-29.75-65.14-36.87-54.3-5.54,8.42,37.38,61.42,17.85,56.59-28.68-7.09-16.18-48.83-31.92-63.57-1.92-1.8-17.02-13.88-18.79-8.36-1.86,5.79,24.89,30.4,15.16,36.62-15.86,10.14-19.66-32.73-25.57-38.74-18.48-18.79,5.15,25.36-9.59,12.57-5.56-4.83-12.33-28.64-20.93-28.64-2.1,0,5.38,9.49,1.75,9.49-7.67,0-8.2-9.17-12.47-13.74-1.59-1.7-13.27-7.32-12.71-9.19,.94-3.14,9.79,1.35,10.13,1.47h0Zm-18.06,18.06c7.78,15.32-.86,31.8,.87,47.55,.76,6.98,5.99,5.57,7.19-.35,.47-2.3-.95-27.46-.78-27.56,9.3-5.33,8.81,22.86,7.37,26.7-2.49,6.62-13.73,51.29-6.5,52.82,10.37,2.18,8.73-50.69,13.22-44.63,11.05,14.92-21.99,87.87-4.81,87.66,15.94-.19,4.56-55.59,13.91-53.67,13.02,2.66-13.4,86.76,14.52,82.05,11.36-1.92-1.27-32.45-2.34-38.28-.49-2.67-3.94-21.16,.3-20.43,10.33,1.8,9.06,48.13,14.04,45.1,9.15-5.58-7.23-36.87-2.12-37.23,2.03-.14,35,63.49,42.08,57.92,5.79-4.56-27.43-33.64-24.27-40.03,1.27-2.56,19.16,14.84,21.84,16.14,42.57,20.7-31.39-34.9-33.41-37.15-16.37-18.15,41.57,24.11,38.7,7.33-1.87-10.94-65.14-29.75-54.3-36.87,8.42-5.54,61.42,37.38,56.59,17.85-7.09-28.68-48.83-16.18-63.57-31.92-1.8-1.92-13.88-17.02-8.36-18.79,5.79-1.86,30.4,24.89,36.62,15.16,10.14-15.86-32.73-19.66-38.74-25.57-18.79-18.48,25.36,5.15,12.57-9.59-4.83-5.56-28.64-12.33-28.64-20.93,0-2.1,9.49,5.38,9.49,1.75,0-7.67-9.17-8.2-13.74-12.47-1.7-1.59-7.32-13.27-9.19-12.71-3.14,.94,1.35,9.79,1.47,10.13h0Z"/><path id="path3323" class="cls-4" d="M360.35,81.78c-.29-3.12,1.46-16.13,4.7-18.07,1.92-1.15,4.91,.35,6.82,.8,3.33,.77,5.57,2,6.91,5.24,3.36,8.14-11.63,16.43-18.44,12.02Zm97.88,97.88c3.12,.29,16.13-1.46,18.07-4.7,1.15-1.92-.35-4.91-.8-6.82-.77-3.33-2-5.57-5.24-6.91-8.14-3.36-16.43,11.63-12.03,18.44Zm-376.44,0c-3.12,.29-16.13-1.46-18.07-4.7-1.15-1.92,.35-4.91,.8-6.83,.77-3.33,2-5.57,5.24-6.91,8.14-3.36,16.43,11.63,12.03,18.44Zm97.88-97.88c.29-3.12-1.46-16.13-4.7-18.07-1.92-1.15-4.91,.35-6.82,.8-3.33,.77-5.57,2-6.91,5.24-3.36,8.14,11.63,16.43,18.44,12.02Zm0,376.44c.29,3.12-1.46,16.13-4.7,18.07-1.92,1.15-4.91-.35-6.82-.8-3.33-.77-5.57-2-6.91-5.24-3.36-8.14,11.63-16.43,18.44-12.02Zm-97.88-97.88c-3.12-.29-16.13,1.46-18.07,4.7-1.15,1.92,.35,4.91,.8,6.83,.77,3.33,2,5.57,5.24,6.91,8.14,3.36,16.43-11.63,12.03-18.44Zm376.44,0c3.12-.29,16.13,1.46,18.07,4.7,1.15,1.92-.35,4.91-.8,6.82-.77,3.33-2,5.57-5.24,6.91-8.14,3.36-16.43-11.63-12.03-18.44Zm-97.88,97.88c-.29,3.12,1.46,16.13,4.7,18.07,1.92,1.15,4.91-.35,6.82-.8,3.33-.77,5.57-2,6.91-5.24,3.36-8.14-11.63-16.43-18.44-12.03Z"/><path id="path3325" class="cls-2" d="M283.12,256.89L475.5,64.51s-6.35-3.03-16.44,7.24c-10.1,10.27-25.05,30.74-29.94,32.51-4.9,1.77-2.27-4.85-8.1-9.02-5.83-4.17-8.88,.53-9.97,7.37-1.08,6.84-1.04,16.9-5.52,22.35-4.48,5.46-7.5,5.11-9.29-.57-1.8-5.67-4.94-8.15-8.06-4.07-3.12,4.07-2.4,17.13-6.28,25.12-3.88,7.99-13.8,18.5-23.14,21.34-9.34,2.85-9.4,4.25-9.77,10.06-.37,5.81-4.16,13.99-11.29,17.93-7.13,3.94-15.1,3.68-15.19,7.31-.09,3.63,2.56,6.1-1.58,10.43-4.14,4.33-13.45,9.1-17.42,12.04-3.97,2.94-1.37,3.37-2.43,7.15-1.06,3.78-6.41,8.95-9.58,10.91-3.16,1.97-8.37,14.28-8.37,14.28h0Zm0,0L475.5,64.5s3.03,6.35-7.24,16.44c-10.27,10.1-30.74,25.05-32.51,29.94-1.77,4.9,4.85,2.27,9.02,8.1,4.17,5.83-.53,8.88-7.37,9.97-6.84,1.08-16.9,1.04-22.35,5.52-5.46,4.49-5.11,7.5,.57,9.29,5.67,1.8,8.15,4.94,4.07,8.06s-17.13,2.41-25.12,6.28c-7.99,3.88-18.5,13.8-21.34,23.14-2.85,9.34-4.25,9.4-10.06,9.77-5.81,.37-13.99,4.16-17.93,11.29-3.94,7.13-3.68,15.1-7.31,15.19-3.62,.09-6.1-2.56-10.43,1.58-4.33,4.14-9.1,13.45-12.04,17.42-2.94,3.97-3.37,1.37-7.15,2.43-3.78,1.06-8.95,6.41-10.91,9.58-1.97,3.16-14.28,8.37-14.28,8.37h0Zm-26.22,0L64.51,64.5s-3.03,6.35,7.24,16.44c10.27,10.1,30.74,25.05,32.51,29.94,1.77,4.9-4.85,2.27-9.02,8.1-4.17,5.83,.53,8.88,7.37,9.97,6.84,1.08,16.9,1.04,22.35,5.53,5.46,4.48,5.11,7.5-.57,9.29-5.67,1.8-8.15,4.94-4.07,8.06,4.07,3.12,17.13,2.41,25.12,6.28,7.99,3.88,18.5,13.8,21.34,23.14,2.85,9.34,4.25,9.4,10.06,9.77,5.81,.37,13.99,4.16,17.93,11.29,3.94,7.13,3.68,15.1,7.31,15.19,3.63,.09,6.1-2.56,10.43,1.58s9.1,13.45,12.04,17.42c2.94,3.96,3.37,1.36,7.15,2.43,3.78,1.06,8.95,6.41,10.91,9.58,1.97,3.16,14.28,8.37,14.28,8.37h0Zm0,0L64.5,64.5s6.35-3.03,16.44,7.24c10.1,10.27,25.05,30.74,29.94,32.51,4.9,1.77,2.27-4.85,8.1-9.02,5.83-4.17,8.88,.53,9.97,7.37,1.08,6.84,1.04,16.9,5.53,22.35,4.48,5.46,7.5,5.11,9.29-.57,1.8-5.67,4.94-8.15,8.06-4.07,3.12,4.07,2.4,17.13,6.28,25.12,3.88,7.99,13.8,18.5,23.14,21.34,9.34,2.85,9.4,4.25,9.77,10.06,.37,5.81,4.16,13.99,11.29,17.93,7.13,3.94,15.1,3.68,15.19,7.31,.09,3.63-2.56,6.1,1.58,10.43,4.14,4.33,13.45,9.1,17.42,12.04,3.96,2.94,1.36,3.37,2.43,7.15,1.06,3.78,6.41,8.95,9.58,10.91,3.16,1.97,8.37,14.28,8.37,14.28h0Zm0,26.22L64.5,475.5s6.35,3.03,16.44-7.24c10.1-10.27,25.05-30.74,29.94-32.51,4.9-1.77,2.28,4.85,8.1,9.02,5.83,4.17,8.88-.53,9.97-7.37s1.04-16.9,5.52-22.35c4.48-5.46,7.5-5.11,9.29,.57,1.8,5.67,4.94,8.15,8.06,4.07,3.12-4.07,2.4-17.13,6.28-25.12,3.88-7.99,13.8-18.5,23.14-21.34,9.34-2.85,9.4-4.25,9.77-10.06,.37-5.81,4.16-13.99,11.29-17.93,7.13-3.94,15.1-3.68,15.19-7.31,.09-3.63-2.56-6.1,1.58-10.43,4.14-4.33,13.45-9.1,17.42-12.04,3.97-2.94,1.37-3.37,2.43-7.15,1.06-3.78,6.41-8.95,9.58-10.91,3.16-1.97,8.37-14.28,8.37-14.28h0Zm0,0L64.5,475.5s-3.03-6.35,7.24-16.44c10.27-10.1,30.74-25.05,32.51-29.94,1.77-4.9-4.85-2.27-9.02-8.1-4.17-5.83,.53-8.88,7.37-9.97,6.84-1.08,16.9-1.04,22.35-5.52,5.46-4.49,5.11-7.5-.57-9.29-5.67-1.8-8.15-4.94-4.07-8.06,4.07-3.12,17.13-2.41,25.12-6.28,7.99-3.88,18.5-13.8,21.34-23.14,2.85-9.34,4.25-9.4,10.06-9.77s13.99-4.16,17.93-11.29c3.94-7.13,3.68-15.1,7.31-15.19,3.62-.09,6.1,2.56,10.43-1.58s9.1-13.45,12.04-17.42c2.94-3.97,3.37-1.37,7.15-2.43,3.78-1.06,8.95-6.41,10.91-9.58,1.97-3.16,14.28-8.37,14.28-8.37h0Zm26.22,0l192.39,192.39s3.03-6.35-7.24-16.44c-10.27-10.1-30.74-25.05-32.51-29.94-1.77-4.9,4.85-2.27,9.02-8.1,4.17-5.83-.53-8.88-7.37-9.97-6.84-1.08-16.9-1.04-22.35-5.53-5.46-4.48-5.11-7.5,.57-9.29,5.67-1.8,8.15-4.94,4.07-8.06-4.07-3.12-17.13-2.41-25.12-6.28-7.99-3.88-18.5-13.8-21.34-23.14-2.85-9.34-4.25-9.4-10.06-9.77-5.81-.37-13.99-4.16-17.93-11.29-3.94-7.13-3.68-15.1-7.31-15.19-3.63-.09-6.1,2.56-10.43-1.58-4.33-4.14-9.1-13.45-12.04-17.42-2.94-3.96-3.37-1.36-7.15-2.43-3.78-1.06-8.95-6.41-10.91-9.58-1.97-3.16-14.28-8.37-14.28-8.37h0Zm0,0l192.38,192.39s-6.35,3.03-16.44-7.24c-10.1-10.27-25.05-30.74-29.94-32.51-4.9-1.77-2.28,4.85-8.1,9.02-5.83,4.17-8.88-.53-9.97-7.37-1.08-6.84-1.04-16.9-5.52-22.35-4.48-5.46-7.5-5.11-9.29,.57-1.8,5.67-4.94,8.15-8.06,4.07-3.12-4.07-2.4-17.13-6.28-25.12-3.88-7.99-13.8-18.5-23.14-21.34-9.34-2.85-9.4-4.25-9.77-10.06-.37-5.81-4.16-13.99-11.29-17.93-7.13-3.94-15.1-3.68-15.19-7.31-.09-3.63,2.56-6.1-1.58-10.43-4.14-4.33-13.45-9.1-17.42-12.04-3.96-2.94-1.36-3.37-2.43-7.15-1.06-3.78-6.41-8.95-9.58-10.91-3.16-1.97-8.37-14.28-8.37-14.28h0Z"/><path id="path3327" class="cls-2" d="M270.01,20.63V248.78s6.11-9.12,4.98-23.39-2.93-28.83-.72-33.27,5.68-4.18,6.2-12.14c.52-7.97-4.74-24.44-3.36-32.95,1.38-8.5,4.98-4.44,6.62-11.44,1.64-7-2.47-20.66-2.56-28.51-.09-7.86,3.98-9.94,9.21-10.52,5.22-.58,6.7,2.6,9.96-3.75,3.26-6.35,2.38-11.86-3.99-18.19-6.37-6.34-17.22-11.22-11.49-18.27s11.18,13.75,19.64,14.25c8.46,.5,11.83-1.16,11.4-8.49-.43-7.33-4.78-9.92-14.71-17.14-9.93-7.22-8.18-9.65-11.95-15.24s-15.29,.07-19.23-9.1h0Zm249.37,249.37h-228.15s9.12-6.11,23.39-4.98c14.26,1.13,28.83,2.93,33.27,.72,4.44-2.21,4.18-5.68,12.14-6.2,7.97-.52,24.44,4.74,32.95,3.36,8.5-1.38,4.44-4.98,11.44-6.62,7-1.64,20.66,2.47,28.51,2.56,7.86,.09,9.94-3.98,10.51-9.21,.58-5.22-2.6-6.69,3.75-9.96,6.35-3.26,11.86-2.38,18.19,3.99,6.34,6.37,11.22,17.22,18.27,11.49,7.06-5.73-13.75-11.18-14.25-19.64-.5-8.46,1.16-11.83,8.49-11.4,7.33,.43,9.92,4.78,17.14,14.71,7.22,9.93,9.65,8.18,15.24,11.95,5.6,3.77-.07,15.29,9.1,19.23h0Zm-498.75,0H248.78s-9.12-6.11-23.39-4.98c-14.26,1.13-28.83,2.93-33.27,.72-4.44-2.21-4.18-5.68-12.14-6.2-7.97-.52-24.44,4.74-32.95,3.36-8.5-1.38-4.44-4.98-11.44-6.62-7-1.64-20.66,2.47-28.51,2.56-7.86,.09-9.94-3.98-10.51-9.21-.58-5.22,2.6-6.69-3.75-9.96-6.35-3.26-11.86-2.38-18.19,3.99-6.34,6.37-11.22,17.22-18.27,11.49-7.06-5.73,13.75-11.18,14.25-19.64,.5-8.46-1.16-11.83-8.49-11.4-7.33,.43-9.92,4.78-17.14,14.71-7.22,9.93-9.65,8.18-15.24,11.95-5.6,3.77,.07,15.29-9.1,19.23h0ZM270,20.63V248.78s-6.11-9.12-4.98-23.39,2.93-28.83,.72-33.27c-2.21-4.44-5.68-4.18-6.2-12.14-.52-7.97,4.74-24.44,3.36-32.95-1.38-8.5-4.98-4.44-6.62-11.44-1.64-7,2.47-20.66,2.56-28.51,.09-7.86-3.98-9.94-9.21-10.52-5.22-.58-6.7,2.6-9.96-3.75-3.26-6.35-2.38-11.86,3.99-18.19,6.37-6.34,17.22-11.22,11.49-18.27-5.73-7.06-11.18,13.75-19.64,14.25-8.46,.5-11.83-1.16-11.4-8.49,.43-7.33,4.78-9.92,14.71-17.14,9.93-7.22,8.18-9.65,11.95-15.24s15.29,.07,19.23-9.1h0Zm0,498.75v-228.15s-6.11,9.12-4.98,23.39c1.13,14.26,2.93,28.83,.72,33.27-2.21,4.44-5.68,4.18-6.2,12.14s4.74,24.44,3.36,32.95c-1.38,8.5-4.98,4.44-6.62,11.44-1.64,7,2.47,20.66,2.56,28.51,.09,7.86-3.98,9.94-9.21,10.52-5.22,.58-6.7-2.6-9.96,3.75s-2.38,11.86,3.99,18.19c6.37,6.34,17.22,11.22,11.49,18.27-5.73,7.06-11.18-13.75-19.64-14.25-8.46-.5-11.83,1.16-11.4,8.49,.43,7.33,4.78,9.92,14.71,17.14,9.93,7.22,8.18,9.65,11.95,15.24,3.77,5.6,15.29-.07,19.23,9.1h0ZM20.63,270H248.78s-9.12,6.11-23.39,4.98c-14.26-1.13-28.83-2.93-33.27-.72-4.44,2.21-4.18,5.68-12.14,6.2-7.97,.52-24.44-4.74-32.94-3.36-8.5,1.38-4.44,4.98-11.44,6.62-7,1.64-20.66-2.47-28.51-2.56-7.86-.09-9.94,3.98-10.51,9.21s2.6,6.7-3.75,9.96c-6.35,3.26-11.86,2.38-18.19-3.99-6.34-6.37-11.22-17.22-18.27-11.49-7.06,5.73,13.75,11.18,14.25,19.64,.5,8.46-1.16,11.83-8.49,11.4-7.33-.43-9.92-4.78-17.14-14.71-7.22-9.93-9.65-8.18-15.24-11.95-5.6-3.77,.07-15.29-9.1-19.23h0Zm498.75,0h-228.15s9.12,6.11,23.39,4.98c14.26-1.13,28.83-2.93,33.27-.72,4.44,2.21,4.18,5.68,12.14,6.2,7.97,.52,24.44-4.74,32.94-3.36,8.5,1.38,4.44,4.98,11.44,6.62,7,1.64,20.66-2.47,28.51-2.56,7.86-.09,9.94,3.98,10.51,9.21s-2.6,6.7,3.75,9.96c6.35,3.26,11.86,2.38,18.19-3.99,6.34-6.37,11.22-17.22,18.27-11.49,7.06,5.73-13.75,11.18-14.25,19.64-.5,8.46,1.16,11.83,8.49,11.4,7.33-.43,9.92-4.78,17.14-14.71,7.22-9.93,9.65-8.18,15.24-11.95,5.6-3.77-.07-15.29,9.1-19.23h0Zm-249.37,249.37v-228.15s6.11,9.12,4.98,23.39c-1.13,14.26-2.93,28.83-.72,33.27,2.21,4.44,5.68,4.18,6.2,12.14s-4.74,24.44-3.36,32.95c1.38,8.5,4.98,4.44,6.62,11.44,1.64,7-2.47,20.66-2.56,28.51-.09,7.86,3.98,9.94,9.21,10.52,5.22,.58,6.69-2.6,9.96,3.75,3.26,6.35,2.38,11.86-3.99,18.19-6.37,6.34-17.22,11.22-11.49,18.27,5.73,7.06,11.18-13.75,19.64-14.25,8.46-.5,11.83,1.16,11.4,8.49-.43,7.33-4.78,9.92-14.71,17.14-9.93,7.22-8.18,9.65-11.95,15.24-3.77,5.6-15.29-.07-19.23,9.1h0Z"/></g></g></svg>