<?xml version="1.0" encoding="UTF-8"?><svg id="Layer_2" xmlns="http://www.w3.org/2000/svg" viewBox="0 0 540 540"><defs><style>.cls-1{fill:#e9e9e2;}.cls-2{fill:#cf962b;}.cls-3{fill:#605277;}</style></defs><g id="OBJECTS"><g id="g3663"><g id="path3629"><path class="cls-1" d="M270,270L540,0H270s0,270,0,270Zm0,0L540,0V270s-270.01,0-270.01,0Zm0,0L0,0V270s270,0,270,0Zm0,0L0,0H270s0,270,0,270Zm0,0L0,540H270s0-270,0-270Zm0,0L0,540V270s270,0,270,0Zm0,0l270.01,270V270s-270.01,0-270.01,0Zm0,0l270,270H270s0-270,0-270Z"/></g><g id="path3631"><path class="cls-3" d="M276.4,249.08s-5.59-37.97,10.1-49.97c15.69-12.01,53.3-10.99,63.83-23.58,10.53-12.59,19.28-57.92-11.74-67.71-31.03-9.78-51.57,25.18-39.61,46.5-.04-18.55,6.59-33.41,23.4-36.87,16.81-3.47,27.65,7.68,28.64,21.59,1,13.92-4.68,29.51-12.18,33.41-7.5,3.9-22.27,6.55-30.72,10.13,9.75-7.13,6.02-15.4-8.06-11.93-14.08,3.47-39.13,28.84-23.66,78.43h0Zm14.53,14.53s37.97,5.59,49.97-10.1c12.01-15.69,10.99-53.3,23.58-63.83,12.59-10.53,57.92-19.28,67.71,11.74,9.78,31.03-25.18,51.57-46.5,39.61,18.55,.04,33.41-6.59,36.87-23.4,3.47-16.81-7.68-27.65-21.59-28.64-13.92-1-29.51,4.68-33.41,12.18-3.9,7.5-6.55,22.27-10.13,30.72,7.13-9.75,15.4-6.02,11.93,8.06-3.47,14.08-28.84,39.13-78.43,23.66Zm-41.85,0s-37.97,5.59-49.97-10.1c-12.01-15.69-10.99-53.3-23.58-63.83-12.59-10.53-57.92-19.28-67.71,11.74-9.78,31.03,25.18,51.57,46.5,39.61-18.55,.04-33.41-6.59-36.87-23.4-3.47-16.81,7.68-27.65,21.59-28.64,13.92-1,29.51,4.68,33.41,12.18,3.9,7.5,6.55,22.27,10.13,30.72-7.13-9.75-15.4-6.02-11.93,8.06,3.47,14.08,28.84,39.13,78.43,23.66h0Zm14.53-14.53s5.59-37.97-10.1-49.97c-15.69-12.01-53.3-10.99-63.83-23.58-10.53-12.59-19.28-57.92,11.74-67.71,31.03-9.78,51.57,25.18,39.61,46.5,.04-18.55-6.59-33.41-23.4-36.87-16.81-3.47-27.65,7.68-28.64,21.59-1,13.92,4.68,29.51,12.18,33.41,7.5,3.9,22.27,6.55,30.72,10.13-9.75-7.13-6.02-15.4,8.06-11.93,14.08,3.47,39.13,28.84,23.66,78.43Zm0,41.85s5.59,37.97-10.1,49.97c-15.69,12.01-53.3,10.99-63.83,23.58-10.53,12.59-19.28,57.92,11.74,67.71,31.03,9.78,51.57-25.18,39.61-46.5,.04,18.55-6.59,33.41-23.4,36.87s-27.65-7.68-28.64-21.59c-1-13.92,4.68-29.51,12.18-33.41,7.5-3.9,22.27-6.55,30.72-10.13-9.75,7.13-6.02,15.4,8.06,11.93,14.08-3.47,39.13-28.84,23.66-78.43h0Zm-14.53-14.53s-37.97-5.59-49.97,10.1c-12.01,15.69-10.99,53.3-23.58,63.83-12.59,10.53-57.92,19.28-67.71-11.74-9.78-31.03,25.18-51.57,46.5-39.61-18.55-.04-33.41,6.59-36.87,23.4-3.47,16.81,7.68,27.65,21.59,28.64,13.92,1,29.51-4.68,33.41-12.18,3.9-7.5,6.55-22.27,10.13-30.72-7.13,9.75-15.4,6.02-11.93-8.06,3.47-14.08,28.84-39.13,78.43-23.66h0Zm41.85,0s37.97-5.59,49.97,10.1c12.01,15.69,10.99,53.3,23.58,63.83,12.59,10.53,57.92,19.28,67.71-11.74s-25.18-51.57-46.5-39.61c18.55-.04,33.41,6.59,36.87,23.4,3.47,16.81-7.68,27.65-21.59,28.64-13.92,1-29.51-4.68-33.41-12.18-3.9-7.5-6.55-22.27-10.13-30.72,7.13,9.75,15.4,6.02,11.93-8.06-3.47-14.08-28.84-39.13-78.43-23.66h0Zm-14.53,14.53s-5.59,37.97,10.1,49.97c15.69,12.01,53.3,10.99,63.83,23.58,10.53,12.59,19.28,57.92-11.74,67.71-31.03,9.78-51.57-25.18-39.61-46.5-.04,18.55,6.59,33.41,23.4,36.87,16.81,3.47,27.65-7.68,28.64-21.59,1-13.92-4.68-29.51-12.18-33.41-7.5-3.9-22.27-6.55-30.72-10.13,9.75,7.13,6.02,15.4-8.06,11.93-14.08-3.47-39.13-28.84-23.66-78.43h0Z"/></g><g id="path3633"><path class="cls-2" d="M280.63,220.84s1.03-12.49,13.5-19.18c12.47-6.7,30.53-9.26,37.86-10.78,7.32-1.52,10.89-2.54,15.75-6.04,4.86-3.5,9.95-9,14.36-22.36,4.41-13.35,2.97-20.58,8.21-21.4,5.24-.83,5.03,8.12,3.55,11.48,5.87-6.08,15.17-1.59,7.9,5.67-13.93,13.93-83.65,83.65-83.65,83.65,0,0-18.03-15.89-17.49-21.05Zm38.53,38.53s12.49-1.03,19.18-13.5c6.7-12.47,9.26-30.53,10.78-37.86,1.52-7.32,2.54-10.89,6.04-15.75s9-9.95,22.36-14.36c13.35-4.41,20.58-2.97,21.4-8.21,.83-5.24-8.12-5.03-11.48-3.55,6.08-5.87,1.59-15.17-5.67-7.9-13.93,13.93-83.65,83.65-83.65,83.65,0,0,15.89,18.03,21.05,17.49Zm-98.32,0s-12.49-1.03-19.18-13.5c-6.7-12.47-9.26-30.53-10.78-37.86-1.52-7.32-2.54-10.89-6.04-15.75s-9-9.95-22.36-14.36c-13.35-4.41-20.58-2.97-21.4-8.21-.83-5.24,8.12-5.03,11.48-3.55-6.08-5.87-1.59-15.17,5.67-7.9,13.93,13.93,83.65,83.65,83.65,83.65,0,0-15.89,18.03-21.05,17.49Zm38.53-38.53s-1.03-12.49-13.5-19.18c-12.47-6.7-30.53-9.26-37.86-10.78s-10.89-2.54-15.75-6.04c-4.86-3.5-9.95-9-14.36-22.36-4.41-13.35-2.97-20.58-8.21-21.4-5.24-.83-5.03,8.12-3.55,11.48-5.87-6.08-15.17-1.59-7.9,5.67,13.93,13.93,83.65,83.65,83.65,83.65,0,0,18.03-15.89,17.49-21.05Zm0,98.32s-1.03,12.49-13.5,19.18-30.53,9.26-37.86,10.78c-7.32,1.52-10.89,2.54-15.75,6.04-4.86,3.5-9.95,9-14.36,22.36-4.41,13.35-2.97,20.58-8.21,21.4-5.24,.83-5.03-8.12-3.55-11.48-5.87,6.08-15.17,1.59-7.9-5.67,13.93-13.93,83.65-83.65,83.65-83.65,0,0,18.03,15.89,17.49,21.05Zm-38.53-38.53s-12.49,1.03-19.18,13.5c-6.7,12.47-9.26,30.53-10.78,37.86-1.52,7.32-2.54,10.89-6.04,15.75-3.5,4.86-9,9.95-22.36,14.36-13.35,4.41-20.58,2.97-21.4,8.21-.83,5.24,8.12,5.03,11.48,3.55-6.08,5.87-1.59,15.17,5.67,7.9,13.93-13.93,83.65-83.65,83.65-83.65,0,0-15.89-18.03-21.05-17.49Zm98.32,0s12.49,1.03,19.18,13.5c6.7,12.47,9.26,30.53,10.78,37.86,1.52,7.32,2.54,10.89,6.04,15.75,3.5,4.86,9,9.95,22.36,14.36,13.35,4.41,20.58,2.97,21.4,8.21,.83,5.24-8.12,5.03-11.48,3.55,6.08,5.87,1.59,15.17-5.67,7.9-13.93-13.93-83.65-83.65-83.65-83.65,0,0,15.89-18.03,21.05-17.49h0Zm-38.53,38.53s1.03,12.49,13.5,19.18c12.47,6.7,30.53,9.26,37.86,10.78,7.32,1.52,10.89,2.54,15.75,6.04,4.86,3.5,9.95,9,14.36,22.36,4.41,13.35,2.97,20.58,8.21,21.4,5.24,.83,5.03-8.12,3.55-11.48,5.87,6.08,15.17,1.59,7.9-5.67-13.93-13.93-83.65-83.65-83.65-83.65,0,0-18.03,15.89-17.49,21.05h0Z"/></g><g id="path3635"><path class="cls-3" d="M279.81,250.77c-1.92-5.81-6.43-27.01,3.59-38.06,10.02-11.05,7.11,8.49,7.11,8.49,0,0,6.59-8.24,11.31-3.58,4.72,4.66-3.28,11.91-3.28,11.91,0,0,9.38-11.85,15.86-3.9l-31.02,31.03s-2.86-3.76-3.56-5.88h0Zm9.43,9.42c5.81,1.92,27.01,6.43,38.06-3.58,11.05-10.02-8.49-7.11-8.49-7.11,0,0,8.24-6.59,3.58-11.31-4.66-4.72-11.91,3.28-11.91,3.28,0,0,11.85-9.38,3.9-15.86l-31.03,31.02s3.76,2.86,5.88,3.56h0Zm-38.46,0c-5.81,1.92-27.01,6.43-38.06-3.58-11.05-10.02,8.49-7.11,8.49-7.11,0,0-8.24-6.59-3.58-11.31,4.66-4.72,11.91,3.28,11.91,3.28,0,0-11.85-9.38-3.9-15.86l31.03,31.02s-3.76,2.86-5.88,3.56h0Zm9.43-9.43c1.92-5.81,6.43-27.01-3.59-38.06-10.02-11.05-7.11,8.49-7.11,8.49,0,0-6.59-8.24-11.31-3.58-4.72,4.66,3.28,11.91,3.28,11.91,0,0-9.38-11.85-15.86-3.9l31.02,31.03s2.86-3.76,3.56-5.88h0Zm0,38.46c1.92,5.81,6.43,27.01-3.59,38.06-10.02,11.05-7.11-8.49-7.11-8.49,0,0-6.59,8.24-11.31,3.58-4.72-4.66,3.28-11.91,3.28-11.91,0,0-9.38,11.85-15.86,3.9l31.02-31.03s2.86,3.76,3.56,5.88h0Zm-9.43-9.42c-5.81-1.92-27.01-6.43-38.06,3.58-11.05,10.02,8.49,7.11,8.49,7.11,0,0-8.24,6.59-3.58,11.31,4.66,4.72,11.91-3.28,11.91-3.28,0,0-11.85,9.38-3.9,15.86l31.03-31.02s-3.76-2.86-5.88-3.56h0Zm38.46,0c5.81-1.92,27.01-6.43,38.06,3.58,11.05,10.02-8.49,7.11-8.49,7.11,0,0,8.24,6.59,3.58,11.31-4.66,4.72-11.91-3.28-11.91-3.28,0,0,11.85,9.38,3.9,15.86l-31.03-31.02s3.76-2.86,5.88-3.56h0Zm-9.43,9.42c-1.92,5.81-6.43,27.01,3.59,38.06s7.11-8.49,7.11-8.49c0,0,6.59,8.24,11.31,3.58,4.72-4.66-3.28-11.91-3.28-11.91,0,0,9.38,11.85,15.86,3.9l-31.02-31.03s-2.86,3.76-3.56,5.88h0Z"/></g><g id="path3637"><path class="cls-3" d="M292.96,216.14s1.06-9.25,13.79-14.97c12.73-5.72,29-7.26,35.76-8.72-10.79,4.77-25.72,8.12-32.08,11.08-6.36,2.96-14.92,8.92-17.47,12.61Zm30.9,30.9s9.25-1.06,14.97-13.79c5.72-12.73,7.26-29,8.72-35.76-4.77,10.79-8.12,25.72-11.08,32.08-2.96,6.36-8.92,14.92-12.61,17.47Zm-107.72,0s-9.25-1.06-14.97-13.79c-5.72-12.73-7.26-29-8.72-35.76,4.77,10.79,8.12,25.72,11.08,32.08,2.96,6.36,8.92,14.92,12.61,17.47Zm30.9-30.9s-1.06-9.25-13.79-14.97c-12.73-5.72-29-7.26-35.76-8.72,10.79,4.77,25.72,8.12,32.08,11.08,6.36,2.96,14.92,8.92,17.47,12.61Zm0,107.72s-1.06,9.25-13.79,14.97c-12.73,5.72-29,7.26-35.76,8.72,10.79-4.77,25.72-8.12,32.08-11.08,6.36-2.96,14.92-8.92,17.47-12.61Zm-30.9-30.9s-9.25,1.06-14.97,13.79c-5.72,12.73-7.26,29-8.72,35.76,4.77-10.79,8.12-25.72,11.08-32.08,2.96-6.36,8.92-14.92,12.61-17.47Zm107.72,0s9.25,1.06,14.97,13.79c5.72,12.73,7.26,29,8.72,35.76-4.77-10.79-8.12-25.72-11.08-32.08-2.96-6.36-8.92-14.92-12.61-17.47Zm-30.9,30.9s1.06,9.25,13.79,14.97c12.73,5.72,29,7.26,35.76,8.72-10.79-4.77-25.72-8.12-32.08-11.08-6.36-2.96-14.92-8.92-17.47-12.61Z"/></g><g id="path3639"><path class="cls-3" d="M305.07,220.5s6.33-7.84,11.6-11.19c5.27-3.35,23.67-12.87,23.67-12.87,0,0-17.99,13.11-22.92,16.51s-12.35,7.55-12.35,7.55Zm14.44,14.44s7.84-6.33,11.19-11.6c3.35-5.27,12.87-23.67,12.87-23.67,0,0-13.11,17.99-16.51,22.92-3.4,4.93-7.55,12.35-7.55,12.35Zm-99.01,0s-7.84-6.33-11.19-11.6c-3.35-5.27-12.87-23.67-12.87-23.67,0,0,13.11,17.99,16.51,22.92,3.4,4.93,7.55,12.35,7.55,12.35Zm14.44-14.44s-6.33-7.84-11.6-11.19c-5.27-3.35-23.67-12.87-23.67-12.87,0,0,17.99,13.11,22.92,16.51s12.35,7.55,12.35,7.55Zm0,99.01s-6.33,7.84-11.6,11.19c-5.27,3.35-23.67,12.87-23.67,12.87,0,0,17.99-13.11,22.92-16.51s12.35-7.55,12.35-7.55Zm-14.44-14.44s-7.84,6.33-11.19,11.6c-3.35,5.27-12.87,23.67-12.87,23.67,0,0,13.11-17.99,16.51-22.92,3.4-4.93,7.55-12.35,7.55-12.35Zm99.01,0s7.84,6.33,11.19,11.6c3.35,5.27,12.87,23.67,12.87,23.67,0,0-13.11-17.99-16.51-22.92-3.4-4.93-7.55-12.35-7.55-12.35Zm-14.44,14.44s6.33,7.84,11.6,11.19c5.27,3.35,23.67,12.87,23.67,12.87,0,0-17.99-13.11-22.92-16.51s-12.35-7.55-12.35-7.55Z"/></g><g id="path3641"><path class="cls-3" d="M370.99,155.4s-9.94,17.98-14.28,23.06c7.83-5.72,14.34-17.45,14.28-23.06Zm13.62,13.62s-17.98,9.94-23.06,14.28c5.72-7.83,17.45-14.34,23.06-14.28Zm-229.21,0s17.98,9.94,23.06,14.28c-5.72-7.83-17.45-14.34-23.06-14.28Zm13.62-13.62s9.94,17.98,14.28,23.06c-7.83-5.72-14.34-17.45-14.28-23.06Zm0,229.21s9.94-17.98,14.28-23.06c-7.83,5.72-14.34,17.45-14.28,23.06Zm-13.62-13.62s17.98-9.94,23.06-14.28c-5.72,7.83-17.45,14.34-23.06,14.28Zm229.21,0s-17.98-9.94-23.06-14.28c5.72,7.83,17.45,14.34,23.06,14.28Zm-13.62,13.62s-9.94-17.98-14.28-23.06c7.83,5.72,14.34,17.45,14.28,23.06Z"/></g><g id="path3643"><path class="cls-3" d="M316.97,175.63s14.43-1.38,22.25-10.72c7.81-9.34,7.84-26.93,2.02-34.76-5.82-7.83-23.81-7.3-30.06,4.52-6.25,11.82,3.37,19.13,9.25,16.9,5.88-2.23,6.74-14.8-1.23-13.34,1.29-6.95,11.37-7.28,15.44-.61,4.08,6.67,3.74,14,.34,20.53-2.82-8.46-7.26-7.86-9.47-3.11-2.21,4.74-1.35,17.14-8.55,20.59h0Zm47.41,47.41s1.38-14.43,10.72-22.25c9.34-7.81,26.93-7.84,34.76-2.02,7.83,5.82,7.3,23.81-4.52,30.06-11.82,6.25-19.13-3.37-16.9-9.25,2.23-5.88,14.8-6.74,13.34,1.23,6.95-1.29,7.28-11.37,.61-15.44-6.67-4.08-14-3.74-20.53-.34,8.46,2.82,7.86,7.26,3.11,9.47-4.74,2.21-17.14,1.35-20.59,8.55h0Zm-188.75,0s-1.38-14.43-10.72-22.25c-9.34-7.81-26.93-7.84-34.76-2.02-7.83,5.82-7.3,23.81,4.52,30.06,11.82,6.25,19.13-3.37,16.9-9.25-2.23-5.88-14.8-6.74-13.34,1.23-6.95-1.29-7.28-11.37-.61-15.44,6.67-4.08,14-3.74,20.53-.34-8.46,2.82-7.86,7.26-3.11,9.47,4.74,2.21,17.14,1.35,20.59,8.55h0Zm47.41-47.41s-14.43-1.38-22.25-10.72c-7.81-9.34-7.84-26.93-2.02-34.76,5.82-7.83,23.81-7.3,30.06,4.52,6.25,11.82-3.37,19.13-9.25,16.9-5.88-2.23-6.74-14.8,1.23-13.34-1.29-6.95-11.37-7.28-15.44-.61-4.08,6.67-3.74,14-.34,20.53,2.82-8.46,7.26-7.86,9.47-3.11,2.21,4.74,1.35,17.14,8.55,20.59h0Zm0,188.75s-14.43,1.38-22.25,10.72c-7.81,9.34-7.84,26.93-2.02,34.76,5.82,7.83,23.81,7.3,30.06-4.52,6.25-11.82-3.37-19.13-9.25-16.9-5.88,2.23-6.74,14.8,1.23,13.34-1.29,6.95-11.37,7.28-15.44,.61-4.08-6.67-3.74-14-.34-20.53,2.82,8.46,7.26,7.86,9.47,3.11,2.21-4.74,1.35-17.14,8.55-20.59h0Zm-47.41-47.41s-1.38,14.43-10.72,22.25-26.93,7.84-34.76,2.02c-7.83-5.82-7.3-23.81,4.52-30.06,11.82-6.25,19.13,3.37,16.9,9.25-2.23,5.88-14.8,6.74-13.34-1.23-6.95,1.29-7.28,11.37-.61,15.44,6.67,4.08,14,3.74,20.53,.34-8.46-2.82-7.86-7.26-3.11-9.47,4.74-2.21,17.14-1.35,20.59-8.55h0Zm188.75,0s1.38,14.43,10.72,22.25c9.34,7.81,26.93,7.84,34.76,2.02,7.83-5.82,7.3-23.81-4.52-30.06-11.82-6.25-19.13,3.37-16.9,9.25,2.23,5.88,14.8,6.74,13.34-1.23,6.95,1.29,7.28,11.37,.61,15.44-6.67,4.08-14,3.74-20.53,.34,8.46-2.82,7.86-7.26,3.11-9.47-4.74-2.21-17.14-1.35-20.59-8.55h0Zm-47.41,47.41s14.43,1.38,22.25,10.72c7.81,9.34,7.84,26.93,2.02,34.76-5.82,7.83-23.81,7.3-30.06-4.52-6.25-11.82,3.37-19.13,9.25-16.9,5.88,2.23,6.74,14.8-1.23,13.34,1.29,6.95,11.37,7.28,15.44,.61,4.08-6.67,3.74-14,.34-20.53-2.82,8.46-7.26,7.86-9.47,3.11-2.21-4.74-1.35-17.14-8.55-20.59h0Z"/></g><g id="path3645"><path class="cls-3" d="M270,28.84v13.48s5.77,19.38,18.67,27.48c12.9,8.1,21.08,16.9,20.9,24.5-.18,7.61-9.53,9.12-11.86,4.74-2.33-4.38-10.08-2.92-10.2,4.08-.12,7,16.45,10.56,26.23,3.06,9.77-7.5,6.65-23.55-2.94-31.97-10.06-8.84-31.26-8.87-40.79-45.37Zm241.16,241.16h-13.48s-19.38-5.77-27.48-18.67c-8.1-12.9-16.9-21.08-24.5-20.9s-9.12,9.53-4.74,11.86c4.38,2.33,2.92,10.08-4.08,10.2-7,.12-10.56-16.45-3.06-26.23,7.5-9.77,23.55-6.65,31.97,2.94,8.84,10.06,8.87,31.26,45.37,40.79h0Zm-482.32,0h13.48s19.38-5.77,27.48-18.67c8.1-12.9,16.9-21.08,24.5-20.9,7.61,.18,9.12,9.53,4.74,11.86-4.38,2.33-2.92,10.08,4.08,10.2,7,.12,10.56-16.45,3.06-26.23-7.5-9.77-23.55-6.65-31.97,2.94-8.84,10.06-8.87,31.26-45.37,40.79h0ZM270,28.84v13.48s-5.77,19.38-18.67,27.48c-12.9,8.1-21.08,16.9-20.9,24.5,.18,7.61,9.53,9.12,11.86,4.74,2.33-4.38,10.08-2.92,10.2,4.08,.12,7-16.45,10.56-26.23,3.06-9.77-7.5-6.65-23.55,2.94-31.97,10.06-8.84,31.26-8.87,40.79-45.37h0Zm0,482.32v-13.48s-5.77-19.38-18.67-27.48c-12.9-8.1-21.08-16.9-20.9-24.5,.18-7.61,9.53-9.12,11.86-4.74s10.08,2.92,10.2-4.08c.12-7-16.45-10.56-26.23-3.06-9.77,7.5-6.65,23.55,2.94,31.97,10.06,8.84,31.26,8.87,40.79,45.37h0ZM28.84,270h13.48s19.38,5.77,27.48,18.67c8.1,12.9,16.9,21.08,24.5,20.9,7.61-.18,9.12-9.53,4.74-11.86-4.38-2.33-2.92-10.08,4.08-10.2,7-.12,10.56,16.45,3.06,26.23-7.5,9.77-23.55,6.65-31.97-2.94-8.84-10.06-8.87-31.26-45.37-40.79h0Zm482.32,0h-13.48s-19.38,5.77-27.48,18.67c-8.1,12.9-16.9,21.08-24.5,20.9-7.61-.18-9.12-9.53-4.74-11.86,4.38-2.33,2.92-10.08-4.08-10.2-7-.12-10.56,16.45-3.06,26.23,7.5,9.77,23.55,6.65,31.97-2.94,8.84-10.06,8.87-31.26,45.37-40.79h0Zm-241.16,241.16v-13.48s5.77-19.38,18.67-27.48c12.9-8.1,21.08-16.9,20.9-24.5-.18-7.61-9.53-9.12-11.86-4.74s-10.08,2.92-10.2-4.08c-.12-7,16.45-10.56,26.23-3.06,9.77,7.5,6.65,23.55-2.94,31.97-10.06,8.84-31.26,8.87-40.79,45.37h0Z"/></g><g id="path3647"><path class="cls-3" d="M275.14,63.6s5.68,10.23,13.78,14.73c8.1,4.5,14.49,6.22,15.9,12.94s-3.73,7.72-5.96,3.61c-2.23-4.11-7.24-6.67-11.31-3.45-4.07,3.22-6.56,5.34-7.08-.99s-6.67-13.49-5.33-26.84Zm201.27,201.27s-10.23-5.68-14.73-13.78c-4.5-8.1-6.22-14.49-12.94-15.9-6.72-1.41-7.72,3.73-3.61,5.96,4.11,2.23,6.67,7.24,3.45,11.31-3.22,4.07-5.34,6.56,.99,7.08,6.33,.52,13.49,6.67,26.84,5.33Zm-412.8,0s10.23-5.68,14.73-13.78,6.22-14.49,12.94-15.9c6.72-1.41,7.72,3.73,3.61,5.96-4.11,2.23-6.67,7.24-3.45,11.31,3.22,4.07,5.34,6.56-.99,7.08-6.33,.52-13.49,6.67-26.84,5.33ZM264.87,63.6s-5.68,10.23-13.78,14.73c-8.1,4.5-14.49,6.22-15.9,12.94s3.73,7.72,5.96,3.61c2.23-4.11,7.24-6.67,11.31-3.45,4.07,3.22,6.56,5.34,7.08-.99s6.67-13.49,5.33-26.84Zm0,412.8s-5.68-10.23-13.78-14.73-14.49-6.22-15.9-12.94,3.73-7.72,5.96-3.61,7.24,6.67,11.31,3.45c4.07-3.22,6.57-5.34,7.08,.99,.52,6.33,6.67,13.49,5.33,26.84ZM63.6,275.14s10.23,5.68,14.73,13.78,6.22,14.49,12.94,15.9c6.72,1.41,7.72-3.73,3.61-5.96-4.11-2.23-6.67-7.24-3.45-11.31,3.22-4.07,5.34-6.57-.99-7.09-6.33-.52-13.49-6.67-26.84-5.33Zm412.8,0s-10.23,5.68-14.73,13.78c-4.5,8.1-6.22,14.49-12.94,15.9-6.72,1.41-7.72-3.73-3.61-5.96,4.11-2.23,6.67-7.24,3.45-11.31-3.22-4.07-5.34-6.57,.99-7.09,6.33-.52,13.49-6.67,26.84-5.33Zm-201.27,201.27s5.68-10.23,13.78-14.73,14.49-6.22,15.9-12.94-3.73-7.72-5.96-3.61c-2.23,4.11-7.24,6.67-11.31,3.45-4.07-3.22-6.56-5.34-7.08,.99-.52,6.33-6.67,13.49-5.33,26.84Z"/></g><g id="path3649"><path class="cls-2" d="M289.52,119.93c-5.15-5.4-10.6-3.78-14,6.92-3.4,10.69,4.63,31.89,23.65,37.82-15.08-15.79-13.88-22.77-13.11-27.53,.77-4.77,4.99-11.47,3.46-17.2Zm130.55,130.55c5.4,5.15,3.78,10.6-6.92,14-10.69,3.4-31.89-4.63-37.82-23.65,15.79,15.08,22.77,13.88,27.53,13.11s11.47-4.99,17.2-3.46h0Zm-300.14,0c-5.4,5.15-3.78,10.6,6.92,14,10.69,3.4,31.89-4.63,37.82-23.65-15.79,15.08-22.77,13.88-27.53,13.11s-11.47-4.99-17.2-3.46h0ZM250.48,119.93c5.15-5.4,10.6-3.78,14,6.92,3.4,10.69-4.63,31.89-23.65,37.82,15.08-15.79,13.88-22.77,13.11-27.53-.77-4.77-4.99-11.47-3.46-17.2Zm0,300.14c5.15,5.4,10.6,3.78,14-6.92,3.4-10.69-4.63-31.89-23.65-37.82,15.08,15.79,13.88,22.77,13.11,27.54-.77,4.77-4.99,11.47-3.46,17.2h0ZM119.93,289.52c-5.4-5.15-3.78-10.6,6.92-14s31.89,4.63,37.82,23.65c-15.79-15.08-22.77-13.88-27.53-13.11s-11.47,4.99-17.2,3.46Zm300.14,0c5.4-5.15,3.78-10.6-6.92-14-10.69-3.4-31.89,4.63-37.82,23.65,15.79-15.08,22.77-13.88,27.53-13.11s11.47,4.99,17.2,3.46Zm-130.55,130.55c-5.15,5.4-10.6,3.78-14-6.92-3.4-10.69,4.63-31.89,23.65-37.82-15.08,15.79-13.88,22.77-13.11,27.54,.77,4.77,4.99,11.47,3.46,17.2h0Z"/></g><g id="path3651"><path class="cls-2" d="M274.66,152.59v38.57s4.03-17.48,18.5-21.75c-14.65-5.52-18.5-16.82-18.5-16.82Zm112.75,112.75h-38.57s17.48-4.03,21.75-18.5c5.52,14.65,16.82,18.5,16.82,18.5Zm-234.82,0h38.57s-17.48-4.03-21.75-18.5c-5.52,14.65-16.82,18.5-16.82,18.5Zm112.75-112.75v38.57s-4.03-17.48-18.5-21.75c14.65-5.52,18.5-16.82,18.5-16.82h0Zm0,234.82v-38.57s-4.03,17.48-18.5,21.75c14.65,5.52,18.5,16.82,18.5,16.82Zm-112.75-112.75h38.57s-17.48,4.03-21.75,18.5c-5.52-14.65-16.82-18.5-16.82-18.5h0Zm234.82,0h-38.57s17.48,4.03,21.75,18.5c5.52-14.65,16.82-18.5,16.82-18.5Zm-112.75,112.75v-38.57s4.03,17.48,18.5,21.75c-14.65,5.52-18.5,16.82-18.5,16.82Z"/></g><g id="path3653"><path class="cls-3" d="M377.83,146.59s9.92-1.79,7.93-16.29-16.51-19.45-5.24-44.55c11.27-25.1,145.34-73.52,145.34-73.52,0,0-98.93,49.89-114.57,57.46-15.64,7.56-26.09,17.35-25.35,29.78,.74,12.43,9.06,18.55,8.54,27.48-.52,8.93,.13,12.55-16.64,19.65Zm15.59,15.59s1.79-9.92,16.29-7.93c14.5,1.99,19.45,16.51,44.55,5.24,25.1-11.27,73.52-145.34,73.52-145.34,0,0-49.89,98.93-57.46,114.57-7.56,15.64-17.35,26.09-29.78,25.35-12.43-.74-18.55-9.06-27.48-8.54-8.93,.52-12.55-.13-19.65,16.64Zm-246.82,0s-1.79-9.92-16.29-7.93c-14.5,1.99-19.45,16.51-44.55,5.24C60.64,148.22,12.23,14.15,12.23,14.15c0,0,49.89,98.93,57.46,114.57,7.56,15.64,17.35,26.09,29.78,25.35,12.43-.74,18.55-9.06,27.48-8.54,8.93,.52,12.55-.13,19.65,16.64Zm15.58-15.59s-9.92-1.79-7.93-16.29c1.99-14.5,16.51-19.45,5.24-44.55C148.22,60.64,14.15,12.23,14.15,12.23c0,0,98.93,49.89,114.57,57.46s26.09,17.35,25.35,29.78c-.74,12.43-9.06,18.55-8.54,27.48,.52,8.93-.13,12.55,16.64,19.65Zm0,246.82s-9.92,1.79-7.93,16.29c1.99,14.5,16.51,19.45,5.24,44.55-11.27,25.1-145.34,73.51-145.34,73.51,0,0,98.93-49.89,114.57-57.46s26.09-17.35,25.35-29.78c-.74-12.43-9.06-18.55-8.54-27.48,.52-8.93-.13-12.55,16.64-19.65h0Zm-15.58-15.58s-1.79,9.92-16.29,7.93c-14.5-1.99-19.45-16.51-44.55-5.24-25.1,11.27-73.51,145.34-73.51,145.34,0,0,49.89-98.93,57.46-114.57,7.56-15.64,17.35-26.09,29.78-25.35,12.43,.74,18.55,9.06,27.48,8.54,8.93-.52,12.55,.13,19.65-16.64h0Zm246.82,0s1.79,9.92,16.29,7.93c14.5-1.99,19.45-16.51,44.55-5.24,25.1,11.27,73.52,145.34,73.52,145.34,0,0-49.89-98.93-57.46-114.57-7.56-15.64-17.35-26.09-29.78-25.35-12.43,.74-18.55,9.06-27.48,8.54-8.93-.52-12.55,.13-19.65-16.64h0Zm-15.59,15.58s9.92,1.79,7.93,16.29c-1.99,14.5-16.51,19.45-5.24,44.55,11.27,25.1,145.34,73.51,145.34,73.51,0,0-98.93-49.89-114.57-57.46-15.64-7.56-26.09-17.35-25.35-29.78,.74-12.43,9.06-18.55,8.54-27.48-.52-8.93,.13-12.55-16.64-19.65h0Z"/></g><g id="path3655"><path class="cls-3" d="M389.48,120.18s4.47-2.51,4.38-14.03c-.09-11.52,1.81-15.05,10.23-22.55,8.43-7.5,102.8-56.14,102.8-56.14,0,0-86.53,52.01-96.03,59.67s-8.3,10.64-10.69,19.79c-2.39,9.15-9.44,17.14-9.44,17.14l-1.26-3.89Zm30.34,30.34s2.51-4.47,14.03-4.38c11.52,.09,15.05-1.81,22.55-10.23,7.5-8.43,56.14-102.8,56.14-102.8,0,0-52.01,86.53-59.67,96.03-7.66,9.5-10.64,8.3-19.79,10.69s-17.14,9.44-17.14,9.44l3.89,1.26Zm-299.63,0s-2.51-4.47-14.03-4.38c-11.52,.09-15.05-1.81-22.55-10.23-7.5-8.43-56.15-102.8-56.15-102.8,0,0,52.01,86.53,59.67,96.03,7.66,9.5,10.64,8.3,19.79,10.69s17.14,9.44,17.14,9.44l-3.89,1.26Zm30.34-30.34s-4.47-2.51-4.38-14.03c.09-11.52-1.81-15.05-10.23-22.55-8.43-7.5-102.8-56.14-102.8-56.14,0,0,86.53,52.01,96.03,59.67,9.5,7.66,8.3,10.64,10.69,19.79,2.39,9.15,9.44,17.14,9.44,17.14l1.26-3.89Zm0,299.63s-4.47,2.51-4.38,14.03c.09,11.52-1.81,15.05-10.23,22.55-8.43,7.5-102.8,56.14-102.8,56.14,0,0,86.53-52.01,96.03-59.67,9.5-7.66,8.3-10.64,10.69-19.79,2.39-9.15,9.44-17.14,9.44-17.14l1.26,3.89Zm-30.34-30.34s-2.51,4.47-14.03,4.38-15.05,1.81-22.55,10.23c-7.5,8.43-56.14,102.8-56.14,102.8,0,0,52.01-86.53,59.67-96.03,7.66-9.5,10.64-8.3,19.79-10.69,9.15-2.39,17.14-9.44,17.14-9.44l-3.89-1.26Zm299.63,0s2.51,4.47,14.03,4.38,15.05,1.81,22.55,10.23c7.5,8.43,56.14,102.8,56.14,102.8,0,0-52.01-86.53-59.67-96.03-7.66-9.5-10.64-8.3-19.79-10.69s-17.14-9.44-17.14-9.44l3.89-1.26Zm-30.34,30.34s4.47,2.51,4.38,14.03c-.09,11.52,1.81,15.05,10.23,22.55,8.43,7.5,102.8,56.14,102.8,56.14,0,0-86.53-52.01-96.03-59.67-9.5-7.66-8.3-10.64-10.69-19.79-2.39-9.15-9.44-17.14-9.44-17.14l-1.26,3.89Z"/></g><g id="path3657"><path class="cls-3" d="M388.63,130.25s11.18-6.89,14.68-13.95,3.37-13.17,9.71-19.96c6.34-6.78,72.93-49.09,72.93-49.09,0,0-65.85,50.36-70.11,56.31-4.26,5.95-4.01,10.5-8.98,17.39-4.96,6.89-17.62,15.55-17.62,15.55l-.61-6.26Zm21.13,21.13s6.89-11.18,13.95-14.68c7.06-3.49,13.17-3.37,19.96-9.71,6.78-6.34,49.09-72.93,49.09-72.93,0,0-50.36,65.85-56.31,70.11-5.95,4.26-10.5,4.01-17.39,8.98-6.89,4.96-15.55,17.62-15.55,17.62l6.26,.61Zm-279.51,0s-6.89-11.18-13.95-14.68c-7.06-3.49-13.17-3.37-19.96-9.71-6.78-6.34-49.09-72.93-49.09-72.93,0,0,50.36,65.85,56.31,70.11,5.95,4.26,10.5,4.01,17.39,8.98,6.89,4.96,15.55,17.62,15.55,17.62l-6.26,.61Zm21.13-21.13s-11.18-6.89-14.68-13.95-3.37-13.17-9.71-19.96c-6.34-6.78-72.93-49.09-72.93-49.09,0,0,65.85,50.36,70.11,56.31,4.26,5.95,4.01,10.5,8.98,17.39,4.96,6.89,17.62,15.55,17.62,15.55l.61-6.26Zm0,279.51s-11.18,6.89-14.68,13.95-3.37,13.17-9.71,19.96c-6.34,6.78-72.93,49.09-72.93,49.09,0,0,65.85-50.36,70.11-56.31,4.26-5.95,4.01-10.5,8.98-17.39,4.96-6.89,17.62-15.55,17.62-15.55l.61,6.26Zm-21.13-21.13s-6.89,11.18-13.95,14.68c-7.06,3.49-13.17,3.37-19.96,9.71-6.78,6.34-49.09,72.93-49.09,72.93,0,0,50.36-65.85,56.31-70.11,5.95-4.26,10.5-4.01,17.39-8.98,6.89-4.96,15.55-17.62,15.55-17.62l-6.26-.61Zm279.51,0s6.89,11.18,13.95,14.68c7.06,3.49,13.17,3.37,19.96,9.71,6.78,6.34,49.09,72.93,49.09,72.93,0,0-50.36-65.85-56.31-70.11-5.95-4.26-10.5-4.01-17.39-8.98-6.89-4.96-15.55-17.62-15.55-17.62l6.26-.61Zm-21.13,21.13s11.18,6.89,14.68,13.95c3.49,7.06,3.37,13.18,9.71,19.96s72.93,49.09,72.93,49.09c0,0-65.85-50.36-70.11-56.31-4.26-5.95-4.01-10.5-8.98-17.39-4.96-6.89-17.62-15.55-17.62-15.55l-.61,6.26Z"/></g><g id="path3659"><path class="cls-3" d="M365.75,125.9s-2.33,5.32,1.35,7.39c3.68,2.07,10.69,3.58,11.61-1.57,.92-5.15-2.45-19.9-10.36-27.04-7.91-7.14-22.25-13.51-44.28-3.64,31.28-.94,38.94,6.81,41.67,24.86Zm48.36,48.36s-5.32,2.33-7.39-1.35c-2.07-3.68-3.58-10.69,1.57-11.61,5.15-.92,19.9,2.45,27.04,10.36,7.14,7.91,13.51,22.25,3.64,44.28,.94-31.28-6.81-38.94-24.86-41.67Zm-288.21,0s5.32,2.33,7.39-1.35c2.07-3.68,3.58-10.69-1.57-11.61-5.15-.92-19.9,2.45-27.04,10.36-7.14,7.91-13.51,22.25-3.64,44.28-.94-31.28,6.81-38.94,24.86-41.67Zm48.36-48.36s2.33,5.32-1.35,7.39-10.69,3.58-11.61-1.57c-.92-5.15,2.45-19.9,10.36-27.04,7.91-7.14,22.25-13.51,44.28-3.64-31.28-.94-38.94,6.81-41.67,24.86Zm0,288.21s2.33-5.32-1.35-7.39c-3.68-2.07-10.69-3.58-11.61,1.57-.92,5.15,2.45,19.9,10.36,27.04,7.91,7.14,22.25,13.51,44.28,3.64-31.28,.94-38.94-6.81-41.67-24.86h0Zm-48.36-48.36s5.32-2.33,7.39,1.35,3.58,10.69-1.57,11.61c-5.15,.92-19.9-2.45-27.04-10.36-7.14-7.91-13.51-22.25-3.64-44.28-.94,31.28,6.81,38.94,24.86,41.67h0Zm288.21,0s-5.32-2.33-7.39,1.35c-2.07,3.68-3.58,10.69,1.57,11.61,5.15,.92,19.9-2.45,27.04-10.36,7.14-7.91,13.51-22.25,3.64-44.28,.94,31.28-6.81,38.94-24.86,41.67h0Zm-48.36,48.36s-2.33-5.32,1.35-7.39c3.68-2.07,10.69-3.58,11.61,1.57,.92,5.15-2.45,19.9-10.36,27.04-7.91,7.14-22.25,13.51-44.28,3.64,31.28,.94,38.94-6.81,41.67-24.86h0Z"/></g><g id="path3661"><path class="cls-3" d="M367.77,96.36s-10.66-7.56-21.15-5.46c5.5-7.68,18.72-6.16,18.72-6.16,0,0,5.5-12.4,18.85-11.93-11.4,9.9-18.76,14.54-16.42,23.54h0Zm75.87,75.87s7.56,10.66,5.46,21.15c7.68-5.5,6.16-18.72,6.16-18.72,0,0,12.4-5.5,11.93-18.85-9.9,11.4-14.54,18.76-23.54,16.42h0Zm-347.28,0s-7.56,10.66-5.46,21.15c-7.68-5.5-6.16-18.72-6.16-18.72,0,0-12.4-5.5-11.93-18.85,9.9,11.4,14.54,18.76,23.54,16.42h0Zm75.87-75.87s10.66-7.56,21.15-5.46c-5.5-7.68-18.72-6.16-18.72-6.16,0,0-5.5-12.4-18.85-11.93,11.4,9.9,18.76,14.54,16.42,23.54h0Zm0,347.28s10.66,7.56,21.15,5.46c-5.5,7.68-18.72,6.16-18.72,6.16,0,0-5.5,12.4-18.85,11.93,11.4-9.9,18.76-14.54,16.42-23.54Zm-75.87-75.87s-7.56-10.66-5.46-21.15c-7.68,5.5-6.16,18.72-6.16,18.72,0,0-12.4,5.5-11.93,18.85,9.9-11.4,14.54-18.76,23.54-16.42Zm347.28,0s7.56-10.66,5.46-21.15c7.68,5.5,6.16,18.72,6.16,18.72,0,0,12.4,5.5,11.93,18.85-9.9-11.4-14.54-18.76-23.54-16.42Zm-75.87,75.87s-10.66,7.56-21.15,5.46c5.5,7.68,18.72,6.16,18.72,6.16,0,0,5.5,12.4,18.85,11.93-11.4-9.9-18.76-14.54-16.42-23.54Z"/></g></g></g></svg>