<?xml version="1.0" encoding="UTF-8"?><svg id="Layer_2" xmlns="http://www.w3.org/2000/svg" viewBox="0 0 540 540"><defs><style>.cls-1{fill:#e9e9e2;}.cls-2{fill:#9cb6b2;}.cls-3{fill:#cf962b;}.cls-4{fill:#62908e;}</style></defs><g id="OBJECTS"><g id="g4088"><path id="path4049" class="cls-1" d="M270.01,270.01L540,0H270s0,270.01,0,270.01Zm0,0L540,0V270s-270.01,0-270.01,0Zm0,0L0,0V270s270.01,0,270.01,0Zm0,0L0,0H270s0,270.01,0,270.01Zm0,0L0,540H270s0-270.01,0-270.01Zm0,0L0,540V270s270.01,0,270.01,0Zm0,0l270.01,270V270s-270.01,0-270.01,0Zm0,0l270,270.01H270s0-270.01,0-270.01Z"/><path id="path4051" class="cls-4" d="M298,163.4c-12.23-.63-20.84,11.49-19,21.31,.34,1.79,1.74,3.2,3.37,3.86,13.51,5.5,5.42-23.54,18.57-12.4,10.7,9.06,6.48,25.69-5.61,31.48-4.82,2.31-8.32,4.58-12.01,8.43-7.37,7.7-15.27,34.37-8.95,46.14,25.76-25.43,54.09-60.78,45.26-84.09-4.12-9.71-13.28-14.29-21.63-14.72Zm78.6,78.6c.63,12.23-11.49,20.84-21.31,19-1.79-.34-3.2-1.74-3.86-3.37-5.5-13.51,23.54-5.42,12.4-18.57-9.06-10.7-25.69-6.48-31.48,5.61-2.31,4.82-4.58,8.32-8.43,12.01-7.7,7.37-34.37,15.27-46.14,8.95,25.43-25.76,60.78-54.09,84.09-45.26,9.71,4.12,14.29,13.28,14.72,21.63Zm-213.21,0c-.63,12.23,11.49,20.84,21.31,19,1.79-.34,3.2-1.74,3.86-3.37,5.5-13.51-23.54-5.42-12.4-18.57,9.06-10.7,25.69-6.48,31.48,5.61,2.3,4.82,4.58,8.32,8.43,12.01,7.7,7.37,34.37,15.27,46.14,8.95-25.43-25.76-60.78-54.09-84.09-45.26-9.71,4.12-14.29,13.28-14.72,21.63Zm78.6-78.6c12.23-.63,20.84,11.49,19,21.31-.34,1.79-1.74,3.2-3.37,3.86-13.51,5.5-5.42-23.54-18.57-12.4-10.7,9.06-6.48,25.69,5.61,31.48,4.82,2.31,8.32,4.58,12.01,8.43,7.37,7.7,15.27,34.37,8.95,46.14-25.76-25.43-54.09-60.78-45.26-84.09,4.12-9.71,13.28-14.29,21.63-14.72Zm0,213.21c12.23,.63,20.84-11.49,19-21.31-.34-1.79-1.74-3.2-3.37-3.86-13.51-5.5-5.42,23.54-18.57,12.4-10.7-9.06-6.48-25.69,5.61-31.48,4.82-2.31,8.32-4.58,12.01-8.43,7.37-7.7,15.27-34.37,8.95-46.14-25.76,25.43-54.09,60.78-45.26,84.09,4.12,9.71,13.28,14.29,21.63,14.72Zm-78.6-78.6c-.63-12.23,11.49-20.84,21.31-19,1.79,.34,3.2,1.74,3.86,3.37,5.5,13.51-23.54,5.42-12.4,18.57,9.06,10.7,25.69,6.48,31.48-5.61,2.3-4.82,4.58-8.32,8.43-12.01,7.7-7.37,34.37-15.27,46.14-8.95-25.43,25.76-60.78,54.09-84.09,45.26-9.71-4.12-14.29-13.28-14.72-21.63Zm213.21,0c.63-12.23-11.49-20.84-21.31-19-1.79,.34-3.2,1.74-3.86,3.37-5.5,13.51,23.54,5.42,12.4,18.57-9.06,10.7-25.69,6.48-31.48-5.61-2.3-4.82-4.58-8.32-8.43-12.01-7.7-7.37-34.37-15.27-46.14-8.95,25.43,25.76,60.78,54.09,84.09,45.26,9.71-4.12,14.29-13.28,14.72-21.63Zm-78.6,78.6c-12.23,.63-20.84-11.49-19-21.31,.34-1.79,1.74-3.2,3.37-3.86,13.51-5.5,5.42,23.54,18.57,12.4,10.7-9.06,6.48-25.69-5.61-31.48-4.82-2.31-8.32-4.58-12.01-8.43-7.37-7.7-15.27-34.37-8.95-46.14,25.76,25.43,54.09,60.78,45.26,84.09-4.12,9.71-13.28,14.29-21.63,14.72Z"/><path id="path4053" class="cls-2" d="M319.18,213.03s8.67-13.21,8.19-29.59c-.48-16.37-1.3-28.34,8.41-33.21,9.71-4.87,17.77,6.9,17.77,6.9,0,0-1.47-19.06,8.54-26.51,10.01-7.44,16.68,7.02,16.68,7.02,0,0,3.34-24.01,17.33-28.45,14-4.44,22.97,4.95,36.27-11.69,13.3-16.64,44.68-34.54,44.68-34.54l-170.51,170.51,12.65-20.44Zm7.79,7.79s13.21-8.67,29.59-8.19c16.37,.48,28.34,1.3,33.21-8.41,4.87-9.71-6.9-17.77-6.9-17.77,0,0,19.06,1.47,26.51-8.54,7.45-10.01-7.02-16.68-7.02-16.68,0,0,24.01-3.34,28.45-17.33s-4.95-22.97,11.69-36.27c16.64-13.3,34.54-44.68,34.54-44.68l-170.51,170.51,20.44-12.65Zm-113.95,0s-13.21-8.67-29.59-8.19c-16.37,.48-28.34,1.3-33.21-8.41-4.87-9.71,6.9-17.77,6.9-17.77,0,0-19.06,1.47-26.51-8.54-7.45-10.01,7.02-16.68,7.02-16.68,0,0-24.01-3.34-28.45-17.33-4.44-14,4.95-22.97-11.69-36.27-16.64-13.3-34.54-44.68-34.54-44.68L233.47,233.48l-20.44-12.65Zm7.79-7.79s-8.67-13.21-8.19-29.59c.48-16.37,1.3-28.34-8.41-33.21-9.71-4.87-17.77,6.9-17.77,6.9,0,0,1.47-19.06-8.54-26.51-10.01-7.44-16.68,7.02-16.68,7.02,0,0-3.34-24.01-17.33-28.45-14-4.44-22.97,4.95-36.27-11.69-13.3-16.64-44.68-34.54-44.68-34.54L233.48,233.47l-12.65-20.44Zm0,113.95s-8.67,13.21-8.19,29.59c.48,16.37,1.3,28.34-8.41,33.21-9.71,4.87-17.77-6.9-17.77-6.9,0,0,1.47,19.06-8.54,26.51-10.01,7.45-16.68-7.02-16.68-7.02,0,0-3.34,24.01-17.33,28.45-14,4.44-22.97-4.95-36.27,11.69-13.3,16.64-44.68,34.54-44.68,34.54l170.51-170.51-12.65,20.44Zm-7.79-7.79s-13.21,8.67-29.59,8.19c-16.37-.48-28.34-1.3-33.21,8.41-4.87,9.71,6.9,17.77,6.9,17.77,0,0-19.06-1.47-26.51,8.54-7.44,10.01,7.02,16.68,7.02,16.68,0,0-24.01,3.34-28.45,17.33-4.44,14,4.95,22.97-11.69,36.27-16.64,13.3-34.54,44.68-34.54,44.68l170.51-170.51-20.44,12.65Zm113.95,0s13.21,8.67,29.59,8.19c16.37-.48,28.34-1.3,33.21,8.41,4.87,9.71-6.9,17.77-6.9,17.77,0,0,19.06-1.47,26.51,8.54,7.45,10.01-7.02,16.68-7.02,16.68,0,0,24.01,3.34,28.45,17.33s-4.95,22.97,11.69,36.27c16.64,13.3,34.54,44.68,34.54,44.68l-170.51-170.51,20.44,12.65Zm-7.79,7.79s8.67,13.21,8.19,29.59c-.48,16.37-1.3,28.34,8.41,33.21,9.71,4.87,17.77-6.9,17.77-6.9,0,0-1.47,19.06,8.54,26.51,10.01,7.44,16.68-7.02,16.68-7.02,0,0,3.34,24.01,17.33,28.45,14,4.44,22.97-4.95,36.27,11.69,13.3,16.64,44.68,34.54,44.68,34.54l-170.51-170.51,12.65,20.44Z"/><path id="path4055" class="cls-3" d="M273.62,220.68s-.78-13.26,2.47-17.7,12.21-4.37,15.34-8.45c3.13-4.08,1.73-10.24,6.36-11.29,4.63-1.05,7.6,7.98,.98,15.42-6.62,7.44-11.69,7.01-16.85,10.27-5.16,3.25-8.29,11.74-8.29,11.74h0Zm45.71,45.71s13.26,.78,17.7-2.47c4.44-3.25,4.37-12.21,8.45-15.34s10.24-1.73,11.29-6.36c1.05-4.63-7.98-7.6-15.42-.98-7.44,6.62-7.01,11.69-10.27,16.85-3.25,5.16-11.74,8.29-11.74,8.29h0Zm-98.65,0s-13.26,.78-17.7-2.47c-4.44-3.25-4.37-12.21-8.45-15.34-4.08-3.13-10.24-1.73-11.29-6.36-1.05-4.63,7.98-7.6,15.42-.98,7.44,6.62,7.01,11.69,10.27,16.85,3.25,5.16,11.74,8.29,11.74,8.29h0Zm45.71-45.71s.78-13.26-2.47-17.7c-3.25-4.44-12.21-4.37-15.34-8.45-3.13-4.08-1.73-10.24-6.36-11.29-4.63-1.05-7.6,7.98-.98,15.42,6.62,7.44,11.69,7.01,16.85,10.27,5.16,3.25,8.29,11.74,8.29,11.74h0Zm0,98.65s.78,13.26-2.47,17.7c-3.25,4.44-12.21,4.37-15.34,8.45-3.13,4.08-1.73,10.24-6.36,11.29-4.63,1.05-7.6-7.98-.98-15.42,6.62-7.44,11.69-7.01,16.85-10.27,5.16-3.25,8.29-11.74,8.29-11.74h0Zm-45.71-45.71s-13.26-.78-17.7,2.47c-4.44,3.25-4.37,12.21-8.45,15.34-4.08,3.13-10.24,1.73-11.29,6.36-1.05,4.63,7.98,7.6,15.42,.98,7.44-6.62,7.01-11.69,10.27-16.85,3.25-5.16,11.74-8.29,11.74-8.29h0Zm98.65,0s13.26-.78,17.7,2.47c4.44,3.25,4.37,12.21,8.45,15.34s10.24,1.73,11.29,6.36c1.05,4.63-7.98,7.6-15.42,.98-7.44-6.62-7.01-11.69-10.27-16.85-3.25-5.16-11.74-8.29-11.74-8.29h0Zm-45.71,45.71s-.78,13.26,2.47,17.7,12.21,4.37,15.34,8.45c3.13,4.08,1.73,10.24,6.36,11.29,4.63,1.05,7.6-7.98,.98-15.42-6.62-7.44-11.69-7.01-16.85-10.27-5.16-3.25-8.29-11.74-8.29-11.74h0Z"/><path id="path4057" class="cls-4" d="M316.2,194.77c3.16-17.31,1.82-24.83,3.38-50.67,1.56-25.84-1.39-55,29.21-74.37,30.59-19.37,53.47,2.07,56.59,16.61-1.95-23.78-17.33-34.42-41.69-29.04-24.35,5.38-36.88,24.17-43.25,37.85-6.37,13.68-8.54,82.91-8.54,82.91l4.29,16.72Zm29.04,29.04c17.31-3.16,24.83-1.82,50.67-3.38,25.84-1.56,55,1.39,74.37-29.21,19.37-30.59-2.07-53.47-16.6-56.59,23.78,1.95,34.42,17.33,29.04,41.69-5.38,24.35-24.17,36.88-37.85,43.25-13.68,6.37-82.91,8.54-82.91,8.54l-16.72-4.29Zm-150.47,0c-17.31-3.16-24.83-1.82-50.67-3.38s-55,1.39-74.37-29.21c-19.37-30.59,2.07-53.47,16.61-56.59-23.78,1.95-34.42,17.33-29.04,41.69,5.38,24.35,24.17,36.88,37.85,43.25,13.68,6.37,82.91,8.54,82.91,8.54l16.72-4.29Zm29.04-29.04c-3.16-17.31-1.82-24.83-3.38-50.67-1.56-25.84,1.39-55-29.21-74.37-30.59-19.37-53.47,2.07-56.59,16.61,1.95-23.78,17.33-34.42,41.69-29.04,24.35,5.38,36.88,24.17,43.25,37.85,6.37,13.68,8.54,82.91,8.54,82.91l-4.29,16.72Zm0,150.47c-3.16,17.31-1.82,24.83-3.38,50.67s1.39,55-29.21,74.37c-30.59,19.37-53.47-2.07-56.59-16.61,1.95,23.78,17.33,34.42,41.69,29.04,24.35-5.38,36.88-24.17,43.25-37.85,6.37-13.68,8.54-82.91,8.54-82.91l-4.29-16.72Zm-29.04-29.04c-17.31,3.16-24.83,1.82-50.67,3.38-25.84,1.56-55-1.39-74.37,29.21-19.37,30.59,2.07,53.47,16.61,56.59-23.78-1.95-34.42-17.33-29.04-41.69,5.38-24.35,24.17-36.88,37.85-43.25,13.68-6.37,82.91-8.54,82.91-8.54l16.72,4.29Zm150.47,0c17.31,3.16,24.83,1.82,50.67,3.38,25.84,1.56,55-1.39,74.37,29.21,19.37,30.59-2.07,53.47-16.61,56.59,23.78-1.95,34.42-17.33,29.04-41.69-5.38-24.35-24.17-36.88-37.85-43.25-13.68-6.37-82.91-8.54-82.91-8.54l-16.72,4.29Zm-29.04,29.04c3.16,17.31,1.82,24.83,3.38,50.67,1.56,25.84-1.39,55,29.21,74.37,30.59,19.37,53.47-2.07,56.59-16.61-1.95,23.78-17.33,34.42-41.69,29.04-24.35-5.38-36.88-24.17-43.25-37.85-6.37-13.68-8.54-82.91-8.54-82.91l4.29-16.72Z"/><path id="path4060" class="cls-4" d="M317.84,144.55s11.67-26.71,30.49-23.1c-1.53,16.76-31.01,26.43-31.01,26.43l.52-3.33Zm77.62,77.62s26.71-11.67,23.1-30.49c-16.76,1.53-26.43,31.01-26.43,31.01l3.34-.52Zm-250.9,0s-26.71-11.67-23.1-30.49c16.76,1.53,26.43,31.01,26.43,31.01l-3.34-.52Zm77.62-77.62s-11.67-26.71-30.49-23.1c1.53,16.76,31.01,26.43,31.01,26.43l-.52-3.33Zm0,250.9s-11.67,26.71-30.49,23.1c1.53-16.76,31.01-26.43,31.01-26.43l-.52,3.33Zm-77.62-77.61s-26.71,11.67-23.1,30.49c16.76-1.53,26.43-31.01,26.43-31.01l-3.34,.52Zm250.9,0s26.71,11.67,23.1,30.49c-16.76-1.53-26.43-31.01-26.43-31.01l3.34,.52Zm-77.62,77.61s11.67,26.71,30.49,23.1c-1.53-16.76-31.01-26.43-31.01-26.43l.52,3.33Z"/><path id="path4062" class="cls-4" d="M316.03,141.3s-3.58-17.89-15.44-25.19c-9.01,15.35,14.74,30.93,14.74,30.93l.7-5.73Zm82.68,82.68s17.89,3.59,25.19,15.44c-15.35,9.01-30.93-14.74-30.93-14.74l5.73-.7Zm-257.41,0s-17.89,3.59-25.19,15.44c15.35,9.01,30.93-14.74,30.93-14.74l-5.73-.7Zm82.68-82.68s3.59-17.89,15.44-25.19c9.01,15.35-14.74,30.93-14.74,30.93l-.7-5.73Zm0,257.41s3.59,17.89,15.44,25.19c9.01-15.35-14.74-30.93-14.74-30.93l-.7,5.73Zm-82.68-82.68s-17.89-3.58-25.19-15.44c15.35-9.01,30.93,14.74,30.93,14.74l-5.73,.7Zm257.41,0s17.89-3.58,25.19-15.44c-15.35-9.01-30.93,14.74-30.93,14.74l5.73,.7Zm-82.68,82.68s-3.58,17.89-15.44,25.19c-9.01-15.35,14.74-30.93,14.74-30.93l.7,5.73Z"/><path id="path4064" class="cls-4" d="M316.49,113.85s-15.29-15.41-9.74-30.98c11,10.06,12.87,26.38,12.87,26.38l-3.13,4.6Zm109.67,109.67s15.41,15.29,30.98,9.74c-10.06-11-26.38-12.87-26.38-12.87l-4.6,3.13Zm-312.31,0s-15.41,15.29-30.98,9.74c10.06-11,26.38-12.87,26.38-12.87l4.6,3.13Zm109.67-109.67s15.29-15.41,9.74-30.98c-11,10.06-12.87,26.38-12.87,26.38l3.13,4.6Zm0,312.31s15.29,15.41,9.74,30.98c-11-10.06-12.87-26.38-12.87-26.38l3.13-4.6Zm-109.67-109.67s-15.41-15.29-30.98-9.74c10.06,11,26.38,12.87,26.38,12.87l4.6-3.13Zm312.31,0s15.41-15.29,30.98-9.74c-10.06,11-26.38,12.87-26.38,12.87l-4.6-3.13Zm-109.67,109.67s-15.29,15.41-9.74,30.98c11-10.06,12.87-26.38,12.87-26.38l-3.13-4.6Z"/><path id="path4066" class="cls-4" d="M320.17,111.64s11.7-23.81,27.06-21.28c-1.23,19.38-27.42,26.65-27.42,26.65l.37-5.37Zm108.2,108.2s23.81-11.7,21.28-27.06c-19.38,1.23-26.65,27.42-26.65,27.42l5.37-.37Zm-316.72,0s-23.81-11.7-21.28-27.06c19.38,1.23,26.65,27.42,26.65,27.42l-5.37-.37Zm108.2-108.2s-11.7-23.81-27.06-21.28c1.23,19.38,27.42,26.65,27.42,26.65l-.37-5.37Zm0,316.72s-11.7,23.81-27.06,21.28c1.23-19.38,27.42-26.65,27.42-26.65l-.37,5.37Zm-108.2-108.2s-23.81,11.7-21.28,27.06c19.38-1.23,26.65-27.42,26.65-27.42l-5.37,.37Zm316.72,0s23.81,11.7,21.28,27.06c-19.38-1.23-26.65-27.42-26.65-27.42l5.37,.37Zm-108.2,108.2s11.7,23.81,27.06,21.28c-1.23-19.38-27.42-26.65-27.42-26.65l.37,5.37Z"/><path id="path4068" class="cls-4" d="M329.3,80.72s-4.69-18.03,9.28-27.4c1.59,15.85-.95,21.25-9.28,27.4Zm129.99,129.99s18.03,4.69,27.4-9.28c-15.85-1.59-21.25,.95-27.4,9.28Zm-378.57,0s-18.03,4.69-27.4-9.28c15.85-1.59,21.25,.95,27.4,9.28ZM210.71,80.72s4.69-18.03-9.28-27.4c-1.59,15.85,.95,21.25,9.28,27.4Zm0,378.57s4.69,18.03-9.28,27.4c-1.59-15.85,.95-21.25,9.28-27.4ZM80.72,329.3s-18.03-4.69-27.4,9.28c15.85,1.59,21.25-.95,27.4-9.28Zm378.57,0s18.03-4.69,27.4,9.28c-15.85,1.59-21.25-.95-27.4-9.28Zm-129.99,129.99s-4.69,18.03,9.28,27.4c1.59-15.85-.95-21.25-9.28-27.4Z"/><path id="path4070" class="cls-4" d="M333.77,78.59s17.8-15.08,30.27-8.08c-11.74,12.87-32.79,12.62-32.79,12.62l2.51-4.55Zm127.64,127.64s15.08-17.8,8.08-30.27c-12.87,11.74-12.62,32.79-12.62,32.79l4.55-2.51Zm-382.82,0s-15.08-17.8-8.08-30.27c12.87,11.74,12.62,32.79,12.62,32.79l-4.55-2.51Zm127.64-127.64s-17.8-15.08-30.27-8.08c11.74,12.87,32.79,12.62,32.79,12.62l-2.51-4.55Zm0,382.82s-17.8,15.08-30.27,8.08c11.74-12.87,32.79-12.62,32.79-12.62l-2.51,4.55Zm-127.64-127.64s-15.08,17.8-8.08,30.27c12.87-11.74,12.62-32.79,12.62-32.79l-4.55,2.51Zm382.82,0s15.08,17.8,8.08,30.27c-12.87-11.74-12.62-32.79-12.62-32.79l4.55,2.51Zm-127.64,127.64s17.8,15.08,30.27,8.08c-11.74-12.87-32.79-12.62-32.79-12.62l2.51,4.55Z"/><path id="path4072" class="cls-4" d="M354.85,60.79s1.01-13.64,16.85-16.43c15.84-2.78,18.66,.14,18.66,.14,0,0-17.47,15.49-35.51,16.29h0Zm124.36,124.36s13.64-1.01,16.43-16.85c2.78-15.84-.14-18.66-.14-18.66,0,0-15.49,17.47-16.29,35.51h0Zm-418.43,0s-13.64-1.01-16.43-16.85c-2.78-15.84,.14-18.66,.14-18.66,0,0,15.49,17.47,16.29,35.51h0ZM185.15,60.79s-1.01-13.64-16.85-16.43c-15.84-2.78-18.66,.14-18.66,.14,0,0,17.47,15.49,35.51,16.29h0Zm0,418.43s-1.01,13.64-16.85,16.43c-15.84,2.78-18.66-.14-18.66-.14,0,0,17.47-15.49,35.51-16.29h0Zm-124.36-124.36s-13.64,1.01-16.43,16.85c-2.78,15.84,.14,18.66,.14,18.66,0,0,15.49-17.47,16.29-35.51h0Zm418.43,0s13.64,1.01,16.43,16.85c2.78,15.84-.14,18.66-.14,18.66,0,0-15.49-17.47-16.29-35.51h0Zm-124.36,124.36s1.01,13.64,16.85,16.43c15.84,2.78,18.66-.14,18.66-.14,0,0-17.47-15.49-35.51-16.29h0Z"/><path id="path4074" class="cls-4" d="M366.71,58.36s18.6,3.5,22.71,12.65c4.11,9.15,3.22,11.52,3.22,11.52,0,0-25-8.08-30.33-22.22,1.5-1.76,4.41-1.96,4.41-1.96Zm114.93,114.93s-3.5-18.6-12.65-22.7c-9.15-4.11-11.52-3.22-11.52-3.22,0,0,8.08,25,22.22,30.33,1.76-1.5,1.96-4.41,1.96-4.41Zm-423.28,0s3.5-18.6,12.65-22.7,11.52-3.22,11.52-3.22c0,0-8.08,25-22.22,30.33-1.76-1.5-1.96-4.41-1.96-4.41ZM173.29,58.36s-18.6,3.5-22.7,12.65c-4.11,9.15-3.22,11.52-3.22,11.52,0,0,25-8.08,30.33-22.22-1.5-1.76-4.41-1.96-4.41-1.96Zm0,423.28s-18.6-3.5-22.7-12.65c-4.11-9.15-3.22-11.52-3.22-11.52,0,0,25,8.08,30.33,22.22-1.5,1.76-4.41,1.96-4.41,1.96Zm-114.93-114.93s3.5,18.6,12.65,22.7,11.52,3.22,11.52,3.22c0,0-8.08-25-22.22-30.33-1.76,1.5-1.96,4.41-1.96,4.41Zm423.28,0s-3.5,18.6-12.65,22.7c-9.15,4.11-11.52,3.22-11.52,3.22,0,0,8.08-25,22.22-30.33,1.76,1.5,1.96,4.41,1.96,4.41Zm-114.93,114.93s18.6-3.5,22.7-12.65c4.11-9.15,3.22-11.52,3.22-11.52,0,0-25,8.08-30.33,22.22,1.5,1.76,4.41,1.96,4.41,1.96Z"/><path id="path4076" class="cls-4" d="M394.44,65.94s1.65,21.39,14.22,30.7c1.75-22.6-4.93-25.47-14.22-30.7Zm79.62,79.62s-21.39-1.65-30.7-14.22c22.6-1.75,25.47,4.93,30.7,14.22Zm-408.12,0s21.39-1.65,30.7-14.22c-22.6-1.75-25.47,4.93-30.7,14.22Zm79.62-79.62s-1.65,21.39-14.22,30.7c-1.75-22.6,4.93-25.47,14.22-30.7Zm0,408.12s-1.65-21.39-14.22-30.7c-1.75,22.6,4.93,25.47,14.22,30.7Zm-79.62-79.62s21.39,1.65,30.7,14.22c-22.6,1.75-25.47-4.93-30.7-14.22Zm408.12,0s-21.39,1.65-30.7,14.22c22.6,1.75,25.47-4.93,30.7-14.22Zm-79.62,79.62s1.65-21.39,14.22-30.7c1.75,22.6-4.93,25.47-14.22,30.7Z"/><path id="path4078" class="cls-4" d="M330.34,209.66c2.39-2.39,102.19-102.19,102.19-102.19,0,0-30.44,23.96-36.38,32.88-1.28-10.8,3.49-20.64,4.87-23.13-8.04,7.25-9.03,25.8-9.03,25.8l-21.84,22.49s-5.59-17.5-3.42-28.05c-3.51,6.98-.69,30.87-.69,30.87l-21.54,22.22s1.82-23.84-5.39-34.42c2.82,8.69,3.79,30.56,1.43,39.29-5.13,5.75-8.39,11.98-10.19,14.23Zm0,0c2.39-2.39,102.19-102.19,102.19-102.19,0,0-23.96,30.44-32.89,36.38,10.8,1.28,20.64-3.49,23.13-4.87-7.25,8.04-25.8,9.03-25.8,9.03l-22.49,21.84s17.5,5.59,28.05,3.42c-6.98,3.51-30.87,.69-30.87,.69l-22.22,21.54s23.84-1.82,34.42,5.39c-8.69-2.82-30.56-3.79-39.29-1.43-5.75,5.13-11.98,8.39-14.23,10.19Zm-120.69,0c-2.39-2.39-102.19-102.19-102.19-102.19,0,0,23.96,30.44,32.89,36.38-10.8,1.28-20.64-3.49-23.13-4.87,7.25,8.04,25.8,9.03,25.8,9.03l22.49,21.84s-17.5,5.59-28.05,3.42c6.98,3.51,30.87,.69,30.87,.69l22.22,21.54s-23.84-1.82-34.42,5.39c8.69-2.82,30.56-3.79,39.29-1.43,5.75,5.14,11.98,8.39,14.23,10.19h0Zm0,0c-2.39-2.39-102.19-102.19-102.19-102.19,0,0,30.44,23.96,36.38,32.89,1.28-10.8-3.49-20.64-4.88-23.13,8.04,7.25,9.03,25.8,9.03,25.8l21.84,22.49s5.59-17.5,3.42-28.05c3.51,6.98,.69,30.87,.69,30.87l21.54,22.22s-1.82-23.84,5.39-34.42c-2.82,8.69-3.79,30.56-1.43,39.29,5.14,5.75,8.39,11.98,10.19,14.23h0Zm0,120.69c-2.39,2.39-102.19,102.19-102.19,102.19,0,0,30.44-23.96,36.38-32.89,1.28,10.8-3.49,20.64-4.88,23.13,8.04-7.25,9.04-25.8,9.04-25.8l21.84-22.49s5.59,17.5,3.42,28.05c3.51-6.98,.69-30.87,.69-30.87l21.54-22.22s-1.82,23.84,5.39,34.42c-2.82-8.69-3.79-30.56-1.43-39.29,5.13-5.75,8.39-11.98,10.19-14.23h0Zm0,0c-2.39,2.39-102.19,102.19-102.19,102.19,0,0,23.96-30.44,32.89-36.38-10.8-1.28-20.64,3.49-23.13,4.87,7.25-8.04,25.8-9.03,25.8-9.03l22.49-21.84s-17.5-5.59-28.05-3.42c6.98-3.51,30.87-.69,30.87-.69l22.22-21.54s-23.84,1.82-34.42-5.39c8.69,2.82,30.56,3.79,39.29,1.43,5.75-5.13,11.98-8.39,14.23-10.19h0Zm120.69,0c2.39,2.39,102.19,102.19,102.19,102.19,0,0-23.96-30.44-32.89-36.38,10.8-1.28,20.64,3.49,23.13,4.87-7.25-8.04-25.8-9.03-25.8-9.03l-22.49-21.84s17.5-5.59,28.05-3.42c-6.98-3.51-30.87-.69-30.87-.69l-22.22-21.54s23.84,1.82,34.42-5.39c-8.69,2.82-30.56,3.79-39.29,1.43-5.75-5.14-11.98-8.39-14.23-10.19h0Zm0,0c2.39,2.39,102.19,102.19,102.19,102.19,0,0-30.44-23.96-36.38-32.88-1.28,10.8,3.49,20.64,4.88,23.13-8.04-7.25-9.04-25.8-9.04-25.8l-21.84-22.49s-5.59,17.5-3.42,28.05c-3.51-6.98-.69-30.87-.69-30.87l-21.54-22.22s1.82,23.84-5.4,34.42c2.82-8.69,3.79-30.56,1.43-39.29-5.13-5.75-8.39-11.98-10.19-14.23h0Z"/><path id="path4080" class="cls-3" d="M270,114.81V62.99s6.21-.18,7.25,5.54c1.04,5.72-4.66,43.15-4.66,43.15l-2.59,3.12Zm155.19,155.19h51.82s.18-6.21-5.54-7.25c-5.72-1.04-43.15,4.66-43.15,4.66l-3.12,2.59Zm-310.39,0H62.99s-.18-6.21,5.54-7.25c5.72-1.04,43.15,4.66,43.15,4.66l3.12,2.59ZM270,114.81V62.99s-6.21-.18-7.25,5.54c-1.04,5.72,4.66,43.15,4.66,43.15l2.59,3.12Zm0,310.38v51.82s-6.21,.18-7.25-5.54c-1.04-5.72,4.66-43.15,4.66-43.15l2.59-3.12ZM114.81,270H62.99s-.18,6.21,5.54,7.25c5.72,1.04,43.15-4.66,43.15-4.66l3.12-2.59Zm310.39,0h51.82s.18,6.21-5.54,7.25c-5.72,1.04-43.15-4.66-43.15-4.66l-3.12-2.59Zm-155.19,155.19v51.82s6.21,.18,7.25-5.54c1.04-5.72-4.66-43.15-4.66-43.15l-2.59-3.12Z"/><path id="path4082" class="cls-3" d="M273.16,111.54s5.32-39.06,7.75-42.8,7.28-5.06,10.85-1.41c3.57,3.65-15.4,46.55-15.4,46.55l-3.2-2.34Zm155.3,155.3s39.06-5.32,42.8-7.75c3.75-2.44,5.06-7.28,1.41-10.85s-46.55,15.4-46.55,15.4l2.34,3.2Zm-316.92,0s-39.06-5.32-42.8-7.75c-3.75-2.44-5.06-7.28-1.41-10.85s46.55,15.4,46.55,15.4l-2.34,3.2ZM266.85,111.54s-5.32-39.06-7.75-42.8-7.28-5.06-10.85-1.41c-3.57,3.65,15.4,46.55,15.4,46.55l3.2-2.34Zm0,316.92s-5.32,39.06-7.75,42.8-7.28,5.06-10.85,1.41c-3.57-3.65,15.4-46.55,15.4-46.55l3.2,2.34ZM111.54,273.16s-39.06,5.32-42.8,7.75c-3.75,2.44-5.06,7.28-1.41,10.85s46.55-15.4,46.55-15.4l-2.34-3.2Zm316.92,0s39.06,5.32,42.8,7.75c3.75,2.44,5.06,7.28,1.41,10.85s-46.55-15.4-46.55-15.4l2.34-3.2Zm-155.3,155.3s5.32,39.06,7.75,42.8c2.44,3.75,7.28,5.06,10.85,1.41,3.57-3.65-15.4-46.55-15.4-46.55l-3.2,2.34Z"/><path id="path4084" class="cls-3" d="M279.06,109.28s13.24-31.04,15.98-35.34c2.74-4.3,5.53-3.73,9.16-2.07,3.63,1.67,.4,8.3-1.76,11.77s-18.02,27.29-18.02,27.29l-5.36-1.65Zm151.67,151.67s31.04-13.24,35.34-15.98c4.3-2.74,3.73-5.53,2.07-9.16-1.67-3.63-8.3-.4-11.77,1.76-3.47,2.16-27.29,18.02-27.29,18.02l1.65,5.36Zm-321.44,0s-31.04-13.24-35.34-15.98c-4.3-2.74-3.73-5.53-2.07-9.16,1.67-3.63,8.3-.4,11.77,1.76,3.47,2.16,27.29,18.02,27.29,18.02l-1.65,5.36ZM260.95,109.28s-13.24-31.04-15.98-35.34c-2.74-4.3-5.53-3.73-9.16-2.07s-.4,8.3,1.76,11.77c2.16,3.47,18.02,27.29,18.02,27.29l5.36-1.65Zm0,321.44s-13.24,31.04-15.98,35.34-5.53,3.73-9.16,2.07-.4-8.3,1.76-11.77,18.02-27.29,18.02-27.29l5.36,1.65ZM109.28,279.06s-31.04,13.24-35.34,15.98c-4.3,2.74-3.73,5.53-2.07,9.16,1.67,3.63,8.3,.4,11.77-1.76,3.47-2.16,27.29-18.02,27.29-18.02l-1.65-5.36Zm321.44,0s31.04,13.24,35.34,15.98c4.3,2.74,3.73,5.53,2.07,9.16-1.67,3.63-8.3,.4-11.77-1.76-3.47-2.16-27.29-18.02-27.29-18.02l1.65-5.36Zm-151.67,151.67s13.24,31.04,15.98,35.34c2.74,4.3,5.53,3.73,9.16,2.07s.4-8.3-1.76-11.77-18.02-27.29-18.02-27.29l-5.36,1.65Z"/><path id="path4086" class="cls-4" d="M270,108.28v57.63s13.49,.55,15.18-9.32c1.69-9.87-6.37-20.15-7.05-28.86-.67-8.71,8.89-16.43,10.36-19.27,1.47-2.84-8.55-5.76-12.23,.11-1.93-4.85-6.26-4.19-6.26-4.19v3.89Zm161.72,161.72h-57.63s-.55-13.49,9.32-15.18c9.87-1.69,20.15,6.37,28.86,7.05,8.71,.67,16.43-8.89,19.27-10.36,2.84-1.47,5.76,8.55-.11,12.23,4.85,1.93,4.19,6.26,4.19,6.26h-3.89Zm-323.44,0h57.63s.55-13.49-9.32-15.18c-9.87-1.69-20.15,6.37-28.86,7.05-8.71,.67-16.43-8.89-19.27-10.36-2.84-1.47-5.76,8.55,.11,12.23-4.85,1.93-4.19,6.26-4.19,6.26h3.89ZM270,108.28v57.63s-13.49,.55-15.18-9.32c-1.69-9.87,6.37-20.15,7.05-28.86,.67-8.71-8.89-16.43-10.36-19.27-1.47-2.84,8.55-5.76,12.23,.11,1.93-4.85,6.26-4.19,6.26-4.19v3.89Zm0,323.44v-57.63s-13.49-.55-15.18,9.32c-1.69,9.87,6.37,20.15,7.05,28.86,.67,8.71-8.89,16.43-10.36,19.27-1.47,2.84,8.55,5.76,12.23-.11,1.93,4.85,6.26,4.19,6.26,4.19v-3.89ZM108.28,270h57.63s.55,13.49-9.32,15.18c-9.87,1.69-20.15-6.37-28.86-7.05-8.71-.67-16.43,8.89-19.27,10.36-2.84,1.47-5.76-8.55,.11-12.23-4.85-1.93-4.19-6.26-4.19-6.26h3.89Zm323.44,0h-57.63s-.55,13.49,9.32,15.18c9.87,1.69,20.15-6.37,28.86-7.05,8.71-.67,16.43,8.89,19.27,10.36,2.84,1.47,5.76-8.55-.11-12.23,4.85-1.93,4.19-6.26,4.19-6.26h-3.89Zm-161.72,161.72v-57.63s13.49-.55,15.18,9.32c1.69,9.87-6.37,20.15-7.05,28.86-.67,8.71,8.89,16.43,10.36,19.27,1.47,2.84-8.55,5.76-12.23-.11-1.93,4.85-6.26,4.19-6.26,4.19v-3.89Z"/></g></g></svg>