<?xml version="1.0" encoding="UTF-8"?><svg id="Layer_2" xmlns="http://www.w3.org/2000/svg" viewBox="0 0 540 540"><defs><style>.cls-1{fill:#e9e9e2;}.cls-2{fill:#62908e;}</style></defs><g id="OBJECTS"><g id="g4101"><path id="path4059" class="cls-1" d="M540,0L270,270V0h270Zm0,0L270,270h269.99V0ZM0,0L270,270H0V0Zm0,0L270,270V0H0ZM0,540L270,270v269.99H0Zm0,0L270,270H0v270Zm539.99,0L270,270h269.99v270Zm0,0L270,270v269.99h270Z"/><path id="path4061" class="cls-2" d="M496.39,43.61l-208.34,208.34s-3.46-16.85-18.04-8.58V18.03s4.18,28.61,4.7,37.19c.52,8.58-1.04,168.55,.48,173.96,1.52,5.42,7.93,5.07,12.35-.86,4.42-5.92,18.03-28.61,12.35-50.21-5.68-21.59-5.07-49.5,20.11-59.83,25.18-10.33,44.29-10.8,37.27-31.22-7.02-20.43-2.6-36.91,14.13-45.72-11.96,12.82-14.47,24.4-9.49,40.5,4.98,16.1,5.2,28.22-8.49,31.57-13.69,3.35-39.56,10.06-46.15,26.78-6.59,16.72,1.6,36.84,2.56,49.82,.95,12.98-19.24,39.68-18.07,43.66,1.17,3.98,11.4-1.95,20.37-12.94,8.97-10.99,166.95-171.37,184.29-177.11Zm0,0l-208.34,208.34s16.85,3.46,8.58,18.04h225.34s-28.61-4.18-37.19-4.7c-8.58-.52-168.55,1.04-173.96-.48-5.42-1.52-5.07-7.93,.86-12.35,5.92-4.42,28.61-18.03,50.21-12.35,21.59,5.68,49.5,5.07,59.83-20.11,10.33-25.18,10.8-44.29,31.22-37.27s36.91,2.6,45.72-14.13c-12.82,11.96-24.4,14.47-40.5,9.49-16.1-4.98-28.22-5.2-31.57,8.49-3.35,13.69-10.06,39.56-26.78,46.15-16.72,6.59-36.84-1.6-49.82-2.56-12.98-.95-39.68,19.24-43.66,18.07s1.95-11.4,12.94-20.37c10.99-8.97,171.37-166.95,177.11-184.29Zm-452.77,0L251.96,251.96s-16.85,3.46-8.58,18.04H18.03s28.61-4.18,37.19-4.7c8.58-.52,168.55,1.04,173.96-.48,5.42-1.52,5.07-7.93-.86-12.35-5.93-4.42-28.61-18.03-50.21-12.35-21.59,5.68-49.5,5.07-59.83-20.11-10.33-25.18-10.8-44.29-31.22-37.27-20.43,7.02-36.91,2.6-45.72-14.13,12.82,11.96,24.4,14.47,40.5,9.49,16.1-4.98,28.22-5.2,31.57,8.49,3.35,13.69,10.06,39.56,26.78,46.15,16.72,6.59,36.84-1.6,49.82-2.56,12.98-.95,39.68,19.24,43.66,18.07s-1.95-11.4-12.94-20.37C209.73,218.93,49.35,60.95,43.61,43.61h0Zm0,0L251.96,251.96s3.46-16.85,18.04-8.58V18.03s-4.18,28.61-4.7,37.19c-.52,8.58,1.04,168.55-.48,173.96-1.52,5.42-7.93,5.07-12.35-.86-4.42-5.92-18.03-28.61-12.35-50.21,5.68-21.59,5.07-49.5-20.11-59.83-25.18-10.33-44.29-10.8-37.27-31.22,7.02-20.43,2.6-36.91-14.13-45.72,11.96,12.82,14.47,24.4,9.49,40.5-4.98,16.1-5.2,28.22,8.49,31.57,13.69,3.35,39.56,10.06,46.15,26.78,6.59,16.72-1.6,36.84-2.56,49.82-.95,12.98,19.24,39.68,18.07,43.66-1.17,3.98-11.4-1.95-20.37-12.94C218.93,209.73,60.95,49.35,43.61,43.61Zm0,452.77l208.34-208.34s3.46,16.85,18.04,8.58v225.34s-4.18-28.61-4.7-37.19c-.52-8.58,1.04-168.55-.48-173.96-1.52-5.42-7.93-5.07-12.35,.86s-18.03,28.61-12.35,50.21c5.68,21.59,5.07,49.5-20.11,59.83-25.18,10.33-44.29,10.8-37.27,31.22s2.6,36.91-14.13,45.72c11.96-12.82,14.47-24.4,9.49-40.5-4.98-16.1-5.2-28.22,8.49-31.57,13.69-3.35,39.56-10.06,46.15-26.78,6.59-16.72-1.6-36.84-2.56-49.82-.95-12.98,19.24-39.68,18.07-43.66-1.17-3.98-11.4,1.95-20.37,12.94-8.97,10.99-166.95,171.37-184.29,177.11Zm0,0l208.34-208.34s-16.85-3.46-8.58-18.04H18.03s28.61,4.18,37.19,4.7c8.58,.52,168.55-1.04,173.97,.48,5.42,1.52,5.07,7.93-.86,12.35-5.92,4.42-28.61,18.03-50.21,12.35-21.59-5.68-49.5-5.07-59.83,20.11-10.33,25.18-10.8,44.29-31.22,37.27-20.43-7.02-36.91-2.6-45.72,14.13,12.82-11.96,24.4-14.47,40.5-9.49,16.1,4.98,28.22,5.2,31.57-8.49s10.06-39.56,26.78-46.15c16.72-6.59,36.84,1.6,49.82,2.56,12.98,.95,39.68-19.24,43.66-18.07s-1.95,11.4-12.94,20.37c-10.99,8.97-171.37,166.95-177.11,184.29Zm452.77,0l-208.34-208.34s16.85-3.46,8.58-18.04h225.34s-28.61,4.18-37.19,4.7-168.55-1.04-173.96,.48c-5.42,1.52-5.07,7.93,.86,12.35,5.93,4.42,28.61,18.03,50.21,12.35,21.59-5.68,49.5-5.07,59.83,20.11,10.33,25.18,10.8,44.29,31.22,37.27s36.91-2.6,45.72,14.13c-12.82-11.96-24.4-14.47-40.5-9.49-16.1,4.98-28.22,5.2-31.57-8.49-3.35-13.69-10.06-39.56-26.78-46.15-16.72-6.59-36.84,1.6-49.82,2.56-12.98,.95-39.68-19.24-43.66-18.07s1.95,11.4,12.94,20.37c10.99,8.97,171.37,166.95,177.11,184.29Zm0,0l-208.34-208.34s-3.46,16.85-18.04,8.58v225.34s4.18-28.61,4.7-37.19c.52-8.58-1.04-168.55,.48-173.96,1.52-5.42,7.93-5.07,12.35,.86,4.42,5.92,18.03,28.61,12.35,50.21-5.68,21.59-5.07,49.5,20.11,59.83,25.18,10.33,44.29,10.8,37.27,31.22-7.02,20.43-2.6,36.91,14.13,45.72-11.96-12.82-14.47-24.4-9.49-40.5,4.98-16.1,5.2-28.22-8.49-31.57-13.69-3.35-39.56-10.06-46.15-26.78-6.59-16.72,1.6-36.84,2.56-49.82,.95-12.98-19.24-39.68-18.07-43.66,1.17-3.98,11.4,1.95,20.37,12.94,8.97,10.99,166.95,171.37,184.29,177.11Z"/><path id="path4063" class="cls-2" d="M304.41,183.48s2.04-9.16,15.23-11.56c13.19-2.4,26.28-2.77,33.67-13.35-3.16,9.82-16.73,15.4-24.42,16.27-7.69,.88-19.91,4.89-24.03,14.79-.3-3.72-.46-6.16-.46-6.16h0Zm52.11,52.11s9.16-2.04,11.56-15.23c2.4-13.19,2.77-26.28,13.35-33.67-9.82,3.16-15.4,16.73-16.27,24.42-.88,7.69-4.89,19.91-14.79,24.03,3.72,.3,6.16,.45,6.16,.45h0Zm-173.04,0s-9.16-2.04-11.56-15.23c-2.4-13.19-2.77-26.28-13.35-33.67,9.82,3.16,15.4,16.73,16.27,24.42,.88,7.69,4.89,19.91,14.79,24.03-3.72,.3-6.16,.45-6.16,.45Zm52.11-52.11s-2.04-9.16-15.23-11.56c-13.19-2.4-26.28-2.77-33.67-13.35,3.16,9.82,16.73,15.4,24.42,16.27,7.69,.88,19.91,4.89,24.03,14.79,.3-3.72,.45-6.16,.45-6.16Zm0,173.04s-2.04,9.16-15.23,11.56-26.28,2.77-33.67,13.35c3.16-9.82,16.73-15.4,24.42-16.27,7.69-.88,19.91-4.89,24.03-14.79,.3,3.72,.46,6.16,.46,6.16Zm-52.11-52.11s-9.16,2.04-11.56,15.23c-2.4,13.19-2.77,26.28-13.35,33.67,9.82-3.16,15.4-16.73,16.27-24.42,.88-7.69,4.89-19.91,14.79-24.03-3.72-.3-6.16-.46-6.16-.46Zm173.04,0s9.16,2.04,11.56,15.23c2.4,13.19,2.77,26.28,13.35,33.67-9.82-3.16-15.4-16.73-16.27-24.42-.88-7.69-4.89-19.91-14.79-24.03,3.72-.3,6.16-.46,6.16-.46Zm-52.11,52.11s2.04,9.16,15.23,11.56,26.28,2.77,33.67,13.35c-3.16-9.82-16.73-15.4-24.42-16.27-7.69-.88-19.91-4.89-24.03-14.79-.3,3.72-.46,6.16-.46,6.16Z"/><path id="path4065" class="cls-2" d="M322.16,121.6s-9.97-32.59,8.75-52.74c-8.58,19.57-7.06,40.03-3.25,49.15-1.86,1.72-5.5,3.59-5.5,3.59Zm96.24,96.24s32.59,9.97,52.74-8.75c-19.57,8.58-40.03,7.06-49.15,3.25-1.72,1.86-3.59,5.5-3.59,5.5h0Zm-296.8,0s-32.59,9.97-52.74-8.75c19.57,8.58,40.03,7.06,49.15,3.25,1.72,1.86,3.59,5.5,3.59,5.5Zm96.24-96.24s9.97-32.59-8.75-52.74c8.58,19.57,7.06,40.03,3.25,49.15,1.86,1.72,5.5,3.59,5.5,3.59Zm0,296.8s9.97,32.59-8.75,52.74c8.58-19.57,7.06-40.03,3.25-49.15,1.86-1.72,5.5-3.59,5.5-3.59h0Zm-96.24-96.24s-32.59-9.97-52.74,8.75c19.57-8.58,40.03-7.06,49.15-3.25,1.72-1.86,3.59-5.5,3.59-5.5h0Zm296.8,0s32.59-9.97,52.74,8.75c-19.57-8.58-40.03-7.06-49.15-3.25-1.72-1.86-3.59-5.5-3.59-5.5Zm-96.24,96.24s-9.97,32.59,8.75,52.74c-8.58-19.57-7.06-40.03-3.25-49.15-1.86-1.72-5.5-3.59-5.5-3.59Z"/><path id="path4067" class="cls-2" d="M365.12,168.13s7.15-8.19,8.32-27.6c1.17-19.41,.26-34.22,8.84-43.66-4.59,12.04-4.77,27.25-4.59,36.25,.17,9-2.21,26-2.21,26l-10.36,9Zm6.75,6.75s8.19-7.15,27.6-8.32c19.41-1.17,34.22-.26,43.66-8.84-12.04,4.59-27.25,4.77-36.25,4.59-9-.17-26,2.21-26,2.21l-9,10.36Zm-203.75,0s-8.19-7.15-27.6-8.32c-19.41-1.17-34.22-.26-43.66-8.84,12.04,4.59,27.25,4.77,36.25,4.59,9-.17,26,2.21,26,2.21l9,10.36Zm6.75-6.75s-7.15-8.19-8.32-27.6c-1.17-19.41-.26-34.22-8.84-43.66,4.59,12.04,4.77,27.25,4.59,36.25-.17,9,2.21,26,2.21,26l10.36,9Zm0,203.75s-7.15,8.19-8.32,27.6c-1.17,19.41-.26,34.22-8.84,43.66,4.59-12.04,4.77-27.25,4.59-36.25-.17-9,2.21-26,2.21-26l10.36-9Zm-6.75-6.75s-8.19,7.15-27.6,8.32c-19.41,1.17-34.22,.26-43.66,8.84,12.04-4.59,27.25-4.77,36.25-4.59,9,.17,26-2.21,26-2.21l9-10.36Zm203.75,0s8.19,7.15,27.6,8.32c19.41,1.17,34.22,.26,43.66,8.84-12.04-4.59-27.25-4.77-36.25-4.59-9,.17-26-2.21-26-2.21l-9-10.36Zm-6.75,6.75s7.15,8.19,8.32,27.6c1.17,19.41,.26,34.22,8.84,43.66-4.59-12.04-4.77-27.25-4.59-36.25,.17-9-2.21-26-2.21-26l-10.36-9Z"/><path id="path4069" class="cls-2" d="M418.03,115.66s-12.13-30.33-2.08-51.3c10.05-20.97,24.14-24.4,36.23-25.18-19.37,7.17-32.76,19.14-35.1,33.05s6.02,38.59,6.02,38.59l-5.07,4.83Zm6.31,6.31s30.33,12.13,51.3,2.08c20.97-10.05,24.4-24.14,25.18-36.23-7.17,19.37-19.14,32.76-33.05,35.1s-38.59-6.02-38.59-6.02l-4.83,5.07Zm-308.68,0s-30.33,12.13-51.3,2.08c-20.97-10.05-24.4-24.14-25.18-36.23,7.17,19.37,19.14,32.76,33.05,35.1s38.59-6.02,38.59-6.02l4.83,5.07Zm6.31-6.31s12.13-30.33,2.08-51.3c-10.05-20.97-24.14-24.4-36.23-25.18,19.37,7.17,32.76,19.14,35.1,33.05s-6.02,38.59-6.02,38.59l5.07,4.83Zm0,308.68s12.13,30.33,2.08,51.3c-10.05,20.97-24.14,24.4-36.23,25.18,19.37-7.17,32.76-19.14,35.1-33.05,2.34-13.92-6.02-38.59-6.02-38.59l5.07-4.83Zm-6.31-6.31s-30.33-12.13-51.3-2.08c-20.97,10.05-24.4,24.14-25.18,36.23,7.17-19.37,19.14-32.76,33.05-35.1s38.59,6.02,38.59,6.02l4.83-5.07Zm308.68,0s30.33-12.13,51.3-2.08c20.97,10.05,24.4,24.14,25.18,36.23-7.17-19.37-19.14-32.76-33.05-35.1s-38.59,6.02-38.59,6.02l-4.83-5.07Zm-6.31,6.31s-12.13,30.33-2.08,51.3c10.05,20.97,24.14,24.4,36.23,25.18-19.37-7.17-32.76-19.14-35.1-33.05-2.34-13.92,6.02-38.59,6.02-38.59l-5.07-4.83Z"/><path id="path4071" class="cls-2" d="M418.66,61.64c18.29,4.59,31.11-20.73,43.79-29.85-20.7-3.49-40.98,5.21-43.79,29.85Zm59.7,59.7c-4.59-18.29,20.73-31.11,29.85-43.79,3.49,20.7-5.21,40.98-29.85,43.79Zm-416.72,0c4.59-18.29-20.73-31.11-29.85-43.79-3.49,20.7,5.21,40.98,29.85,43.79Zm59.7-59.7c-18.29,4.59-31.11-20.73-43.79-29.85,20.7-3.49,40.98,5.21,43.79,29.85Zm0,416.72c-18.29-4.59-31.11,20.73-43.79,29.85,20.7,3.49,40.98-5.21,43.79-29.85h0Zm-59.7-59.7c4.59,18.29-20.73,31.11-29.85,43.79-3.49-20.7,5.21-40.98,29.85-43.79h0Zm416.72,0c-4.59,18.29,20.73,31.11,29.85,43.79,3.49-20.7-5.21-40.98-29.85-43.79h0Zm-59.7,59.7c18.29-4.59,31.11,20.73,43.79,29.85-20.7,3.49-40.98-5.21-43.79-29.85h0Z"/><path id="path4073" class="cls-2" d="M378.09,113.22c16.18-9.68,10.43-32.14,12.94-47.55-17.11,12.16-28.38,28.15-12.94,47.55Zm48.69,48.69c9.69-16.18,32.14-10.43,47.55-12.94-12.16,17.11-28.15,28.38-47.55,12.94Zm-313.56,0c-9.69-16.18-32.14-10.43-47.55-12.94,12.16,17.11,28.15,28.38,47.55,12.94Zm48.69-48.69c-16.18-9.68-10.43-32.14-12.94-47.55,17.11,12.16,28.38,28.15,12.94,47.55Zm0,313.56c-16.18,9.69-10.43,32.14-12.94,47.55,17.11-12.16,28.38-28.15,12.94-47.55Zm-48.69-48.69c-9.69,16.18-32.14,10.43-47.55,12.94,12.16-17.11,28.15-28.38,47.55-12.94Zm313.56,0c9.69,16.18,32.14,10.43,47.55,12.94-12.16-17.11-28.15-28.38-47.55-12.94Zm-48.69,48.69c16.18,9.69,10.43,32.14,12.94,47.55-17.11-12.16-28.38-28.15-12.94-47.55Z"/><path id="path4075" class="cls-2" d="M356.37,64.49c18.14-5.17,18.39-28.35,24.81-42.58-19.67,7.32-34.7,19.84-24.81,42.58Zm119.13,119.13c5.17-18.14,28.35-18.39,42.58-24.81-7.32,19.67-19.84,34.7-42.58,24.81Zm-411.01,0c-5.17-18.14-28.35-18.39-42.58-24.81,7.32,19.67,19.84,34.7,42.58,24.81Zm119.13-119.13c-18.14-5.17-18.39-28.35-24.81-42.58,19.67,7.32,34.7,19.84,24.81,42.58Zm0,411.01c-18.14,5.17-18.39,28.35-24.81,42.58,19.67-7.32,34.7-19.84,24.81-42.58Zm-119.13-119.13c-5.17,18.14-28.35,18.39-42.58,24.81,7.32-19.67,19.84-34.7,42.58-24.81Zm411.01,0c5.17,18.14,28.35,18.39,42.58,24.81-7.32-19.67-19.84-34.7-42.58-24.81Zm-119.13,119.13c18.14,5.17,18.39,28.35,24.81,42.58-19.67-7.32-34.7-19.84-24.81-42.58Z"/><path id="path4077" class="cls-2" d="M325.58,79.27c18.14-5.17,15.26-30.17,21.68-44.4-19.67,7.32-31.57,21.66-21.68,44.4Zm135.15,135.15c5.17-18.14,30.17-15.26,44.4-21.68-7.32,19.67-21.66,31.57-44.4,21.68Zm-381.46,0c-5.17-18.14-30.17-15.26-44.4-21.68,7.32,19.67,21.66,31.57,44.4,21.68ZM214.42,79.27c-18.14-5.17-15.26-30.17-21.68-44.4,19.67,7.32,31.57,21.66,21.68,44.4Zm0,381.46c-18.14,5.17-15.26,30.17-21.68,44.4,19.67-7.32,31.57-21.66,21.68-44.4ZM79.27,325.58c-5.17,18.14-30.17,15.26-44.4,21.68,7.32-19.67,21.66-31.57,44.4-21.68Zm381.46,0c5.17,18.14,30.17,15.26,44.4,21.68-7.32-19.67-21.66-31.57-44.4-21.68Zm-135.15,135.15c18.14,5.17,15.26,30.17,21.68,44.4-19.67-7.32-31.57-21.66-21.68-44.4Z"/><path id="path4079" class="cls-2" d="M321.48,114.86c4.59-18.29-12.9-23.66-22.02-36.33-3.49,20.7-2.62,33.53,22.02,36.33Zm103.66,103.66c18.29-4.59,23.66,12.9,36.33,22.02-20.7,3.49-33.53,2.62-36.33-22.02Zm-310.27,0c-18.29-4.59-23.66,12.9-36.33,22.02,20.7,3.49,33.53,2.62,36.33-22.02Zm103.66-103.66c-4.59-18.29,12.9-23.66,22.02-36.33,3.49,20.7,2.62,33.53-22.02,36.33Zm0,310.27c-4.59,18.29,12.9,23.66,22.02,36.33,3.49-20.7,2.62-33.53-22.02-36.33Zm-103.66-103.66c-18.29,4.59-23.66-12.9-36.33-22.02,20.7-3.49,33.53-2.62,36.33,22.02Zm310.27,0c18.29,4.59,23.66-12.9,36.33-22.02-20.7-3.49-33.53-2.62-36.33,22.02Zm-103.66,103.66c4.59,18.29-12.9,23.66-22.02,36.33-3.49-20.7-2.62-33.53,22.02-36.33Z"/><path id="path4081" class="cls-2" d="M323.1,106.43c-4.59-18.29,12.9-23.66,22.02-36.33,3.49,20.7,2.62,33.53-22.02,36.33Zm110.47,110.47c18.29,4.59,23.66-12.9,36.33-22.02-20.7-3.49-33.53-2.62-36.33,22.02Zm-327.14,0c-18.29,4.59-23.66-12.9-36.33-22.02,20.7-3.49,33.53-2.62,36.33,22.02Zm110.47-110.47c4.59-18.29-12.9-23.66-22.02-36.33-3.49,20.7-2.62,33.53,22.02,36.33Zm0,327.14c4.59,18.29-12.9,23.66-22.02,36.33-3.49-20.7-2.62-33.53,22.02-36.33Zm-110.47-110.47c-18.29-4.59-23.66,12.9-36.33,22.02,20.7,3.49,33.53,2.62,36.33-22.02Zm327.14,0c18.29-4.59,23.66,12.9,36.33,22.02-20.7,3.49-33.53,2.62-36.33-22.02Zm-110.47,110.47c-4.59,18.29,12.9,23.66,22.02,36.33,3.49-20.7,2.62-33.53-22.02-36.33Z"/><path id="path4083" class="cls-2" d="M376.66,134.43c-4.59-18.29,18.23-20.87,27.35-33.55,3.49,20.7-2.71,30.75-27.35,33.55Zm28.9,28.9c18.29,4.59,20.87-18.23,33.55-27.35-20.7-3.49-30.75,2.71-33.55,27.35Zm-271.14,0c-18.29,4.59-20.87-18.23-33.55-27.35,20.7-3.49,30.75,2.71,33.55,27.35Zm28.9-28.9c4.59-18.29-18.23-20.87-27.35-33.55-3.49,20.7,2.71,30.75,27.35,33.55Zm0,271.14c4.59,18.29-18.23,20.87-27.35,33.55-3.49-20.7,2.71-30.75,27.35-33.55Zm-28.9-28.9c-18.29-4.59-20.87,18.23-33.55,27.35,20.7,3.49,30.75-2.71,33.55-27.35Zm271.14,0c18.29-4.59,20.87,18.23,33.55,27.35-20.7,3.49-30.75-2.71-33.55-27.35Zm-28.9,28.9c-4.59,18.29,18.23,20.87,27.35,33.55,3.49-20.7-2.71-30.75-27.35-33.55Z"/><path id="path4085" class="cls-2" d="M416.2,92.25c.3-18.86,21.92-16.18,34.01-26.06-1.98,20.9-9.49,29.73-34.01,26.06Zm31.55,31.55c18.86-.3,16.18-21.92,26.06-34.01-20.9,1.98-29.73,9.49-26.06,34.01Zm-355.5,0c-18.86-.3-16.18-21.92-26.06-34.01,20.9,1.98,29.73,9.49,26.06,34.01Zm31.55-31.55c-.3-18.86-21.92-16.18-34.01-26.06,1.98,20.9,9.49,29.73,34.01,26.06Zm0,355.5c-.3,18.86-21.92,16.18-34.01,26.06,1.98-20.9,9.49-29.73,34.01-26.06Zm-31.55-31.55c-18.86,.3-16.18,21.92-26.06,34.01,20.9-1.98,29.73-9.49,26.06-34.01Zm355.5,0c18.86,.3,16.18,21.92,26.06,34.01-20.9-1.98-29.73-9.49-26.06-34.01Zm-31.55,31.55c.3,18.86,21.92,16.18,34.01,26.06-1.98-20.9-9.49-29.73-34.01-26.06Z"/><path id="path4087" class="cls-2" d="M376.01,146.27c-.3-18.86-18.58-19.51-30.67-29.4,1.98,20.9,6.15,33.07,30.67,29.4Zm17.71,17.71c18.86,.3,19.51,18.58,29.4,30.67-20.9-1.98-33.07-6.15-29.4-30.67Zm-247.45,0c-18.86,.3-19.51,18.58-29.4,30.67,20.9-1.98,33.06-6.15,29.4-30.67Zm17.71-17.71c.3-18.86,18.58-19.51,30.67-29.4-1.98,20.9-6.15,33.07-30.67,29.4Zm0,247.45c.3,18.86,18.58,19.51,30.67,29.4-1.98-20.9-6.15-33.07-30.67-29.4Zm-17.71-17.71c-18.86-.3-19.51-18.58-29.4-30.67,20.9,1.98,33.06,6.15,29.4,30.67Zm247.45,0c18.86-.3,19.51-18.58,29.4-30.67-20.9,1.98-33.07,6.15-29.4,30.67Zm-17.71,17.71c-.3,18.86-18.58,19.51-30.67,29.4,1.98-20.9,6.15-33.07,30.67-29.4Z"/><path id="path4089" class="cls-2" d="M322.04,174.89c4.25-18.37,22.27-15.18,36.16-22.3-6.33,20.01-12.95,31.04-36.16,22.3Zm43.07,43.07c18.37-4.25,15.18-22.27,22.3-36.16-20.01,6.33-31.04,12.95-22.3,36.16Zm-190.22,0c-18.37-4.25-15.18-22.27-22.3-36.16,20.01,6.33,31.04,12.95,22.3,36.16Zm43.07-43.07c-4.25-18.37-22.27-15.18-36.16-22.3,6.33,20.01,12.95,31.04,36.16,22.3Zm0,190.22c-4.25,18.37-22.27,15.18-36.16,22.3,6.33-20.01,12.95-31.04,36.16-22.3Zm-43.07-43.07c-18.37,4.25-15.18,22.26-22.3,36.16,20.01-6.33,31.04-12.95,22.3-36.16Zm190.22,0c18.37,4.25,15.18,22.26,22.3,36.16-20.01-6.33-31.04-12.95-22.3-36.16Zm-43.07,43.07c4.25,18.37,22.27,15.18,36.16,22.3-6.33-20.01-12.95-31.04-36.16-22.3Z"/><path id="path4091" class="cls-2" d="M314.84,173.53c17.27-7.57,10.8-24.69,15.23-39.66-18.5,9.92-28.11,18.47-15.23,39.66Zm51.63,51.63c7.57-17.27,24.69-10.8,39.66-15.23-9.92,18.5-18.47,28.11-39.66,15.23Zm-192.93,0c-7.57-17.27-24.69-10.8-39.66-15.23,9.92,18.5,18.47,28.11,39.66,15.23Zm51.63-51.63c-17.27-7.57-10.8-24.69-15.23-39.66,18.5,9.92,28.11,18.47,15.23,39.66Zm0,192.93c-17.27,7.57-10.8,24.69-15.23,39.66,18.5-9.92,28.11-18.47,15.23-39.66Zm-51.63-51.63c-7.57,17.27-24.69,10.8-39.66,15.23,9.92-18.5,18.47-28.11,39.66-15.23Zm192.93,0c7.57,17.27,24.69,10.8,39.66,15.23-9.92-18.5-18.47-28.11-39.66-15.23Zm-51.63,51.63c17.27,7.57,10.8,24.69,15.23,39.66-18.5-9.92-28.11-18.47-15.23-39.66Z"/><path id="path4093" class="cls-2" d="M272.21,191.38c-4.59-18.29,12.9-23.66,22.02-36.33,3.49,20.7,2.62,33.53-22.02,36.33Zm76.41,76.41c18.29,4.59,23.66-12.9,36.33-22.02-20.7-3.49-33.53-2.62-36.33,22.02Zm-157.25,0c-18.29,4.59-23.66-12.9-36.33-22.02,20.7-3.49,33.53-2.62,36.33,22.02Zm76.41-76.41c4.59-18.29-12.9-23.66-22.02-36.33-3.49,20.7-2.62,33.53,22.02,36.33Zm0,157.25c4.59,18.29-12.9,23.66-22.02,36.33-3.49-20.7-2.62-33.53,22.02-36.33Zm-76.41-76.41c-18.29-4.59-23.66,12.9-36.33,22.02,20.7,3.49,33.53,2.62,36.33-22.02Zm157.25,0c18.29-4.59,23.66,12.9,36.33,22.02-20.7,3.49-33.53,2.62-36.33-22.02Zm-76.41,76.41c-4.59,18.29,12.9,23.66,22.02,36.33,3.49-20.7,2.62-33.53-22.02-36.33Z"/><path id="path4095" class="cls-2" d="M274.05,155.35c-4.59-18.29,6-29.64,15.13-42.31,3.49,20.7,9.52,39.51-15.13,42.31Zm110.6,110.6c18.29,4.59,29.64-6,42.31-15.13-20.7-3.49-39.51-9.52-42.31,15.13Zm-229.3,0c-18.29,4.59-29.64-6-42.31-15.13,20.7-3.49,39.51-9.52,42.31,15.13Zm110.6-110.6c4.59-18.29-6-29.64-15.13-42.31-3.49,20.7-9.52,39.51,15.13,42.31Zm0,229.3c4.59,18.29-6,29.64-15.13,42.31-3.49-20.7-9.52-39.51,15.13-42.31Zm-110.6-110.6c-18.29-4.59-29.64,6-42.31,15.13,20.7,3.49,39.51,9.52,42.31-15.13Zm229.3,0c18.29-4.59,29.64,6,42.31,15.13-20.7,3.49-39.51,9.52-42.31-15.13Zm-110.6,110.6c-4.59,18.29,6,29.64,15.13,42.31,3.49-20.7,9.52-39.51-15.13-42.31Z"/><path id="path4097" class="cls-2" d="M272.5,100.67c.3-18.86,13.47-27.07,25.56-36.96-1.98,20.9-1.04,40.63-25.56,36.96Zm166.83,166.83c18.86-.3,27.07-13.47,36.96-25.56-20.9,1.98-40.63,1.03-36.96,25.56Zm-338.65,0c-18.86-.3-27.07-13.47-36.96-25.56,20.9,1.98,40.63,1.03,36.96,25.56ZM267.5,100.67c-.3-18.86-13.47-27.07-25.56-36.96,1.98,20.9,1.03,40.63,25.56,36.96Zm0,338.65c-.3,18.86-13.47,27.07-25.56,36.96,1.98-20.9,1.03-40.63,25.56-36.96ZM100.67,272.5c-18.86,.3-27.07,13.47-36.96,25.56,20.9-1.98,40.63-1.04,36.96-25.56Zm338.65,0c18.86,.3,27.07,13.47,36.96,25.56-20.9-1.98-40.63-1.04-36.96-25.56Zm-166.83,166.83c.3,18.86,13.47,27.07,25.56,36.96-1.98-20.9-1.04-40.63-25.56-36.96Z"/><path id="path4099" class="cls-2" d="M273.66,64.96c-5.65-17.99,4.26-29.94,12.63-43.13,4.7,20.46,11.81,38.89-12.63,43.13Zm201.38,201.38c17.99,5.65,29.94-4.26,43.13-12.63-20.46-4.7-38.89-11.81-43.13,12.63Zm-410.08,0c-17.99,5.65-29.94-4.26-43.13-12.63,20.46-4.7,38.89-11.81,43.13,12.63ZM266.34,64.96c5.65-17.99-4.26-29.94-12.63-43.13-4.7,20.46-11.81,38.89,12.63,43.13Zm0,410.08c5.65,17.99-4.26,29.94-12.63,43.13-4.7-20.46-11.81-38.89,12.63-43.13ZM64.96,273.66c-17.99-5.65-29.94,4.26-43.13,12.63,20.46,4.7,38.89,11.81,43.13-12.63Zm410.08,0c17.99-5.65,29.94,4.26,43.13,12.63-20.46,4.7-38.89,11.81-43.13-12.63Zm-201.38,201.38c-5.65,17.99,4.26,29.94,12.63,43.13,4.7-20.46,11.81-38.89-12.63-43.13Z"/></g></g></svg>