<?xml version="1.0" encoding="UTF-8"?><svg id="Layer_2" xmlns="http://www.w3.org/2000/svg" viewBox="0 0 540 540"><defs><style>.cls-1{fill:#e9e9e2;}.cls-2{fill:#cf962b;}.cls-3{fill:#62908e;}</style></defs><g id="OBJECTS"><g id="g4133"><path id="path2162" class="cls-1" d="M540,0L270,270V0h270Zm0,0L270,270h269.99V0ZM0,0L270,270H0V0Zm0,0L270,270V0H0ZM0,540L270,270v269.99H0Zm0,0L270,270H0v270Zm539.99,0L270,270h269.99v270Zm0,0L270,270v269.99h270Z"/><path id="path2164" class="cls-3" d="M327.2,152.27s-6.87,24.47-21.83,20.45c-23.15-6.21-8.63-30.37-1.98-53.57s-2.64-33.79-2.64-33.79c0,0,35.74,23.01,45.67,41.08,16.26,29.6,4.68,45.5-19.22,25.82Zm60.53,60.53s-24.47,6.87-20.46,21.83c6.21,23.15,30.37,8.63,53.57,1.98,23.2-6.65,33.79,2.64,33.79,2.64,0,0-23.01-35.74-41.08-45.67-29.6-16.25-45.5-4.68-25.82,19.22Zm-235.46,0s24.47,6.87,20.45,21.83c-6.21,23.15-30.37,8.63-53.57,1.98s-33.79,2.64-33.79,2.64c0,0,23.01-35.74,41.08-45.67,29.6-16.25,45.5-4.68,25.82,19.22Zm60.53-60.53s6.87,24.47,21.83,20.45c23.15-6.21,8.63-30.37,1.98-53.57-6.65-23.2,2.64-33.79,2.64-33.79,0,0-35.74,23.01-45.67,41.08-16.25,29.6-4.68,45.5,19.22,25.82Zm0,235.46s6.87-24.47,21.83-20.46c23.15,6.21,8.63,30.37,1.98,53.57-6.65,23.2,2.64,33.79,2.64,33.79,0,0-35.74-23.01-45.67-41.08-16.25-29.6-4.68-45.5,19.22-25.82h0Zm-60.53-60.53s24.47-6.87,20.45-21.83c-6.21-23.15-30.37-8.63-53.57-1.98-23.2,6.65-33.79-2.64-33.79-2.64,0,0,23.01,35.74,41.08,45.67,29.6,16.25,45.5,4.68,25.82-19.22h0Zm235.46,0s-24.47-6.87-20.46-21.83c6.21-23.15,30.37-8.63,53.57-1.98,23.2,6.65,33.79-2.64,33.79-2.64,0,0-23.01,35.74-41.08,45.67-29.6,16.25-45.5,4.68-25.82-19.22h0Zm-60.53,60.53s-6.87-24.47-21.83-20.46c-23.15,6.21-8.63,30.37-1.98,53.57,6.65,23.2-2.64,33.79-2.64,33.79,0,0,35.74-23.01,45.67-41.08,16.26-29.6,4.68-45.5-19.22-25.82h0Z"/><path id="path2166" class="cls-3" d="M322.64,143s4.73,8.93,2.94,30.52-7.95,29.26-25.35,40.12c-17.4,10.86-30.23,30.79-30.23,56.36,9.69-9.69,16.3-16.3,16.3-16.3,0,0-4.63-10.63,2.49-21.44,7.12-10.81,33.1-20.55,39.07-42.54,5.97-21.99,6.02-34.82,4.21-45.48-5.06-5.14-9.43-1.24-9.43-1.24h0Zm74.36,74.36s-8.93-4.73-30.52-2.94c-21.59,1.79-29.26,7.95-40.12,25.35-10.86,17.4-30.79,30.23-56.36,30.23,9.69-9.69,16.3-16.3,16.3-16.3,0,0,10.63,4.63,21.44-2.49,10.81-7.12,20.55-33.1,42.54-39.07,21.99-5.97,34.82-6.02,45.48-4.21,5.14,5.06,1.24,9.43,1.24,9.43h0Zm-254,0s8.93-4.73,30.52-2.94c21.59,1.79,29.26,7.95,40.12,25.35,10.86,17.4,30.79,30.23,56.36,30.23l-16.3-16.3s-10.63,4.63-21.44-2.49c-10.81-7.12-20.55-33.1-42.54-39.07-21.99-5.97-34.82-6.02-45.48-4.21-5.14,5.06-1.24,9.43-1.24,9.43Zm74.36-74.36s-4.73,8.93-2.94,30.52c1.79,21.59,7.95,29.26,25.35,40.12,17.4,10.86,30.23,30.79,30.23,56.36l-16.3-16.3s4.63-10.63-2.49-21.44c-7.12-10.81-33.1-20.55-39.07-42.54-5.97-21.99-6.02-34.82-4.21-45.48,5.06-5.14,9.43-1.24,9.43-1.24Zm0,254s-4.73-8.93-2.94-30.52c1.79-21.59,7.95-29.26,25.35-40.12,17.4-10.86,30.23-30.79,30.23-56.36-9.69,9.69-16.3,16.3-16.3,16.3,0,0,4.63,10.63-2.49,21.44-7.12,10.81-33.1,20.55-39.07,42.54-5.97,21.99-6.02,34.82-4.21,45.48,5.06,5.14,9.43,1.24,9.43,1.24Zm-74.36-74.36s8.93,4.73,30.52,2.94,29.26-7.95,40.12-25.35c10.86-17.4,30.79-30.23,56.36-30.23-9.69,9.69-16.3,16.3-16.3,16.3,0,0-10.63-4.63-21.44,2.49-10.81,7.12-20.55,33.1-42.54,39.07-21.99,5.97-34.82,6.02-45.48,4.21-5.14-5.06-1.24-9.43-1.24-9.43Zm254,0s-8.93,4.73-30.52,2.94c-21.59-1.79-29.26-7.95-40.12-25.35-10.86-17.4-30.79-30.23-56.36-30.23l16.3,16.3s10.63-4.63,21.44,2.49c10.81,7.12,20.55,33.1,42.54,39.07,21.99,5.97,34.82,6.02,45.48,4.21,5.14-5.06,1.24-9.43,1.24-9.43Zm-74.36,74.36s4.73-8.93,2.94-30.52c-1.79-21.59-7.95-29.26-25.35-40.12-17.4-10.86-30.23-30.79-30.23-56.36l16.3,16.3s-4.63,10.63,2.49,21.44c7.12,10.81,33.1,20.55,39.07,42.54,5.97,21.99,6.02,34.82,4.21,45.48-5.06,5.14-9.43,1.24-9.43,1.24Z"/><path id="path2168" class="cls-3" d="M495.21,44.79l-208.92,208.92-8.3-1.86s9.84-8.71,18.9-14.76c9.06-6.05,42.27-40.22,48.22-48.65,5.95-8.43,21.74-20.43,24.77-26.86,3.03-6.44,11.94-24.27-6.8-54.78-18.74-30.5-3.65-49.91,13.1-58.41-10.81,12.14-19.13,19.55-15.44,35.71,3.69,16.16,16.88,33.02,20.18,43.06,3.3,10.04,3.89,17.24,1.4,23.82,18.16-19.48,48.29-44.18,51.72-51.73,3.42-7.56,3.81-23.54-2.57-34.1-6.38-10.56-22.44-14.03-22.44-14.03,0,0,17.15,1.4,23.91,8.99,6.77,7.59,8.13,22.77,7.27,33.05,8.44-10.32,45.75-46.35,54.99-48.36h0Zm0,0l-208.92,208.92,1.86,8.3s8.71-9.84,14.76-18.9c6.05-9.06,40.22-42.27,48.65-48.22,8.43-5.95,20.43-21.74,26.86-24.77,6.44-3.03,24.27-11.94,54.78,6.8,30.5,18.74,49.91,3.66,58.41-13.1-12.14,10.81-19.55,19.13-35.71,15.44-16.16-3.69-33.02-16.88-43.06-20.18-10.04-3.31-17.24-3.89-23.82-1.4,19.48-18.16,44.18-48.29,51.73-51.72,7.56-3.42,23.54-3.81,34.1,2.57s14.03,22.44,14.03,22.44c0,0-1.4-17.15-8.99-23.91-7.59-6.77-22.77-8.13-33.05-7.27,10.32-8.44,46.35-45.75,48.36-54.99h0Zm-450.43,0L253.7,253.7l-1.86,8.3s-8.71-9.84-14.76-18.9c-6.05-9.06-40.22-42.27-48.65-48.22-8.43-5.95-20.43-21.74-26.86-24.77-6.44-3.03-24.27-11.94-54.78,6.8-30.5,18.74-49.91,3.66-58.41-13.1,12.14,10.81,19.55,19.13,35.71,15.44,16.16-3.69,33.02-16.88,43.06-20.18,10.04-3.31,17.24-3.89,23.82-1.4-19.48-18.16-44.18-48.29-51.73-51.72-7.56-3.42-23.54-3.81-34.1,2.57-10.56,6.38-14.03,22.44-14.03,22.44,0,0,1.4-17.15,8.99-23.91,7.59-6.77,22.77-8.13,33.05-7.27-10.32-8.44-46.35-45.75-48.36-54.99h0Zm0,0L253.7,253.7l8.3-1.86s-9.84-8.71-18.9-14.76c-9.06-6.05-42.27-40.22-48.22-48.65-5.95-8.43-21.74-20.43-24.77-26.86-3.03-6.44-11.94-24.27,6.8-54.78,18.74-30.5,3.66-49.91-13.1-58.41,10.81,12.14,19.13,19.55,15.44,35.71-3.69,16.16-16.88,33.02-20.18,43.06-3.31,10.04-3.89,17.24-1.4,23.82-18.16-19.48-48.29-44.18-51.72-51.73-3.42-7.56-3.81-23.54,2.57-34.1,6.38-10.56,22.44-14.03,22.44-14.03,0,0-17.15,1.4-23.91,8.99-6.77,7.59-8.13,22.77-7.27,33.05-8.44-10.32-45.75-46.35-54.99-48.36h0Zm0,450.43l208.92-208.92,8.3,1.86s-9.84,8.71-18.9,14.76c-9.06,6.05-42.27,40.22-48.22,48.65-5.95,8.43-21.74,20.43-24.77,26.86-3.03,6.44-11.94,24.27,6.8,54.78,18.74,30.5,3.66,49.91-13.1,58.41,10.81-12.14,19.13-19.55,15.44-35.71-3.69-16.16-16.88-33.02-20.18-43.06-3.31-10.04-3.89-17.24-1.4-23.82-18.16,19.48-48.29,44.18-51.72,51.73-3.42,7.56-3.81,23.54,2.57,34.1,6.38,10.56,22.44,14.03,22.44,14.03,0,0-17.15-1.4-23.91-8.99-6.77-7.59-8.13-22.77-7.27-33.05-8.44,10.32-45.75,46.35-54.99,48.36h0Zm0,0l208.92-208.92-1.86-8.3s-8.71,9.84-14.76,18.9-40.22,42.27-48.65,48.22c-8.43,5.95-20.43,21.74-26.86,24.77-6.44,3.03-24.27,11.94-54.78-6.8-30.5-18.74-49.91-3.66-58.41,13.1,12.14-10.81,19.55-19.13,35.71-15.44,16.16,3.69,33.02,16.88,43.06,20.18,10.04,3.31,17.24,3.89,23.82,1.4-19.48,18.16-44.18,48.29-51.73,51.72-7.56,3.42-23.54,3.81-34.1-2.57-10.56-6.38-14.03-22.44-14.03-22.44,0,0,1.4,17.15,8.99,23.91,7.59,6.77,22.77,8.13,33.05,7.27-10.32,8.44-46.35,45.75-48.36,54.99h0Zm450.43,0l-208.92-208.92,1.86-8.3s8.71,9.84,14.76,18.9c6.05,9.06,40.22,42.27,48.65,48.22,8.43,5.95,20.43,21.74,26.86,24.77,6.44,3.03,24.27,11.94,54.78-6.8s49.91-3.66,58.41,13.1c-12.14-10.81-19.55-19.13-35.71-15.44-16.16,3.69-33.02,16.88-43.06,20.18-10.04,3.31-17.24,3.89-23.82,1.4,19.48,18.16,44.18,48.29,51.73,51.72,7.56,3.42,23.54,3.81,34.1-2.57,10.56-6.38,14.03-22.44,14.03-22.44,0,0-1.4,17.15-8.99,23.91s-22.77,8.13-33.05,7.27c10.32,8.44,46.35,45.75,48.36,54.99h0Zm0,0l-208.92-208.92-8.3,1.86s9.84,8.71,18.9,14.76,42.27,40.22,48.22,48.65c5.95,8.43,21.74,20.43,24.77,26.86,3.03,6.44,11.94,24.27-6.8,54.78-18.74,30.5-3.65,49.91,13.1,58.41-10.81-12.14-19.13-19.55-15.44-35.71,3.69-16.16,16.88-33.02,20.18-43.06,3.3-10.04,3.89-17.24,1.4-23.82,18.16,19.48,48.29,44.18,51.72,51.73,3.42,7.56,3.81,23.54-2.57,34.1-6.38,10.56-22.44,14.03-22.44,14.03,0,0,17.15-1.4,23.91-8.99,6.77-7.59,8.13-22.77,7.27-33.05,8.44,10.32,45.75,46.35,54.99,48.36h0Z"/><path id="path2170" class="cls-3" d="M376.52,51.84s-14.02,12-13.69,24.56,9.84,28.02,13.97,32.55,17.35,3.34,17.82-12.54c.47-15.88-30.85-14.15-18.09-44.57h0Zm111.65,111.65s-12,14.02-24.56,13.69-28.02-9.84-32.55-13.97c-4.53-4.12-3.34-17.35,12.54-17.82,15.88-.47,14.15,30.85,44.57,18.09h0Zm-436.33,0s12,14.02,24.56,13.69,28.02-9.84,32.55-13.97c4.53-4.12,3.34-17.35-12.54-17.82-15.88-.47-14.15,30.85-44.57,18.09h0ZM163.48,51.84s14.02,12,13.69,24.56-9.84,28.02-13.97,32.55c-4.12,4.53-17.35,3.34-17.82-12.54-.47-15.88,30.85-14.15,18.09-44.57h0Zm0,436.33s14.02-12,13.69-24.56c-.33-12.56-9.84-28.02-13.97-32.55-4.12-4.53-17.35-3.34-17.82,12.54-.47,15.88,30.85,14.15,18.09,44.57h0Zm-111.65-111.65s12-14.02,24.56-13.69,28.02,9.84,32.55,13.97c4.53,4.12,3.34,17.35-12.54,17.82-15.88,.47-14.15-30.85-44.57-18.09h0Zm436.33,0s-12-14.02-24.56-13.69-28.02,9.84-32.55,13.97c-4.53,4.12-3.34,17.35,12.54,17.82,15.88,.47,14.15-30.85,44.57-18.09Zm-111.65,111.65s-14.02-12-13.69-24.56c.33-12.56,9.84-28.02,13.97-32.55,4.12-4.53,17.35-3.34,17.82,12.54,.47,15.88-30.85,14.15-18.09,44.57h0Z"/><path id="path2172" class="cls-3" d="M370.41,48.13s-14.79,7.47-18.83,22.46c-4.04,14.99,8.69,34.77,7.73,40.09-.96,5.32-15.2,12.69-24.2-8.41-8.99-21.1,10.39-52.14,35.3-54.14Zm121.46,121.46s-7.47,14.79-22.46,18.83c-14.99,4.04-34.77-8.69-40.09-7.73-5.32,.96-12.69,15.21,8.41,24.2,21.1,8.99,52.14-10.39,54.14-35.3Zm-443.75,0s7.47,14.79,22.46,18.83c14.99,4.04,34.77-8.69,40.09-7.73,5.32,.96,12.69,15.21-8.41,24.2-21.1,8.99-52.14-10.39-54.14-35.3ZM169.59,48.13s14.79,7.47,18.83,22.46-8.69,34.77-7.73,40.09c.96,5.32,15.21,12.69,24.2-8.41,8.99-21.1-10.39-52.14-35.3-54.14Zm0,443.75s14.79-7.47,18.83-22.46c4.04-14.99-8.69-34.78-7.73-40.09,.96-5.32,15.21-12.69,24.2,8.41,8.99,21.1-10.39,52.14-35.3,54.14Zm-121.46-121.46s7.47-14.79,22.46-18.83c14.99-4.04,34.77,8.69,40.09,7.73,5.32-.96,12.69-15.2-8.41-24.2-21.1-8.99-52.14,10.39-54.14,35.3Zm443.75,0s-7.47-14.79-22.46-18.83c-14.99-4.04-34.77,8.69-40.09,7.73s-12.69-15.2,8.41-24.2c21.1-8.99,52.14,10.39,54.14,35.3Zm-121.46,121.46s-14.79-7.47-18.83-22.46c-4.04-14.99,8.69-34.77,7.73-40.09-.96-5.32-15.2-12.69-24.2,8.41-8.99,21.1,10.39,52.14,35.3,54.14Z"/><path id="path2174" class="cls-3" d="M410.2,53.47s11.88,3.09,17.76,12.12,7.53,22.68-1.04,26.12c-8.58,3.44-.16-26.37-16.72-38.24Zm76.33,76.33s-3.09-11.88-12.12-17.76c-9.03-5.88-22.68-7.53-26.12,1.04-3.44,8.58,26.37,.16,38.24,16.72Zm-433.06,0s3.09-11.88,12.12-17.76,22.68-7.53,26.12,1.04c3.44,8.58-26.37,.16-38.24,16.72ZM129.8,53.47s-11.88,3.09-17.76,12.12-7.53,22.68,1.04,26.12c8.58,3.44,.16-26.37,16.72-38.24Zm0,433.06s-11.88-3.09-17.76-12.12-7.53-22.68,1.04-26.12c8.58-3.44,.16,26.37,16.72,38.24h0Zm-76.33-76.33s3.09,11.88,12.12,17.76,22.68,7.53,26.12-1.04c3.44-8.58-26.37-.16-38.24-16.72h0Zm433.06,0s-3.09,11.88-12.12,17.76c-9.03,5.88-22.68,7.53-26.12-1.04-3.44-8.58,26.37-.16,38.24-16.72h0Zm-76.33,76.33s11.88-3.09,17.76-12.12,7.53-22.68-1.04-26.12c-8.58-3.44-.16,26.37-16.72,38.24h0Z"/><path id="path2176" class="cls-3" d="M414.07,48.97s14.22,.54,20.68,8.95c6.46,8.41,6.35,18.2,10.06,17.71,3.71-.49,9.87-3.86,6.13-15.21-3.74-11.35-19.85-15.51-36.87-11.45Zm76.96,76.96s-.54-14.22-8.95-20.68c-8.41-6.46-18.2-6.35-17.71-10.06,.49-3.71,3.86-9.87,15.21-6.13,11.35,3.74,15.51,19.85,11.45,36.87Zm-442.06,0s.54-14.22,8.95-20.68c8.41-6.46,18.2-6.35,17.71-10.06-.49-3.71-3.86-9.87-15.21-6.13-11.35,3.74-15.51,19.85-11.45,36.87ZM125.92,48.97s-14.22,.54-20.68,8.95c-6.46,8.41-6.35,18.2-10.06,17.71s-9.87-3.86-6.13-15.21c3.74-11.35,19.85-15.51,36.87-11.45Zm0,442.06s-14.22-.54-20.68-8.95c-6.46-8.41-6.35-18.2-10.06-17.71-3.71,.49-9.87,3.86-6.13,15.21,3.74,11.35,19.85,15.51,36.87,11.45h0Zm-76.96-76.96s.54,14.22,8.95,20.68c8.41,6.46,18.2,6.35,17.71,10.06-.49,3.71-3.86,9.87-15.21,6.13-11.35-3.74-15.51-19.85-11.45-36.87h0Zm442.06,0s-.54,14.22-8.95,20.68c-8.41,6.46-18.2,6.35-17.71,10.06,.49,3.71,3.86,9.87,15.21,6.13,11.35-3.74,15.51-19.85,11.45-36.87h0Zm-76.96,76.96s14.22-.54,20.68-8.95c6.46-8.41,6.35-18.2,10.06-17.71,3.71,.49,9.87,3.86,6.13,15.21-3.74,11.35-19.85,15.51-36.87,11.45h0Z"/><path id="path2178" class="cls-3" d="M405.17,92.67s1.77,3.38,3.66,4.02,3.01-.93,3.48,2.08c.47,3.01,5.64,14.43-.93,26.3,5.33-4.2,5.17-5.04,5.17-5.04,0,0,2.02-16.09-2.78-23.91,2.97-2.22,1.03-6.75,1.03-6.75l-9.62,3.29Zm42.17,42.17s-3.38-1.77-4.02-3.65c-.65-1.89,.93-3.01-2.08-3.48-3.01-.47-14.43-5.64-26.3,.93,4.2-5.33,5.04-5.17,5.04-5.17,0,0,16.09-2.02,23.91,2.78,2.22-2.97,6.75-1.03,6.75-1.03l-3.29,9.62Zm-354.67,0s3.38-1.77,4.02-3.65c.65-1.89-.93-3.01,2.08-3.48,3.01-.47,14.43-5.64,26.3,.93-4.2-5.33-5.04-5.17-5.04-5.17,0,0-16.09-2.02-23.91,2.78-2.22-2.97-6.75-1.03-6.75-1.03l3.29,9.62Zm42.17-42.17s-1.77,3.38-3.66,4.02c-1.89,.65-3.01-.93-3.48,2.08-.47,3.01-5.64,14.43,.93,26.3-5.33-4.2-5.17-5.04-5.17-5.04,0,0-2.02-16.09,2.78-23.91-2.97-2.22-1.03-6.75-1.03-6.75l9.62,3.29Zm0,354.67s-1.77-3.38-3.66-4.02c-1.89-.65-3.01,.93-3.48-2.08-.47-3.01-5.64-14.43,.93-26.3-5.33,4.2-5.17,5.04-5.17,5.04,0,0-2.02,16.09,2.78,23.91-2.97,2.22-1.03,6.75-1.03,6.75l9.62-3.29Zm-42.17-42.17s3.38,1.77,4.02,3.66c.65,1.89-.93,3.01,2.08,3.48,3.01,.47,14.43,5.64,26.3-.93-4.2,5.33-5.04,5.17-5.04,5.17,0,0-16.09,2.02-23.91-2.78-2.22,2.97-6.75,1.03-6.75,1.03l3.29-9.62Zm354.67,0s-3.38,1.77-4.02,3.66c-.65,1.89,.93,3.01-2.08,3.48-3.01,.47-14.43,5.64-26.3-.93,4.2,5.33,5.04,5.17,5.04,5.17,0,0,16.09,2.02,23.91-2.78,2.22,2.97,6.75,1.03,6.75,1.03l-3.29-9.62Zm-42.17,42.17s1.77-3.38,3.66-4.02c1.89-.65,3.01,.93,3.48-2.08,.47-3.01,5.64-14.43-.93-26.3,5.33,4.2,5.17,5.04,5.17,5.04,0,0,2.02,16.09-2.78,23.91,2.97,2.22,1.03,6.75,1.03,6.75l-9.62-3.29Z"/><path id="path2180" class="cls-2" d="M383.16,56.74s-6.05,6.49-2.18,14.04c3.87,7.56,17.17,11.89,19.54,18.49,2.37,6.59,12.99,5.11,15.9,1.19s-1.22-20.15-5.15-27.81c-3.93-7.66-8.28-12.08-12.05-10.42-3.77,1.66-3.21,5.26-.49,8.17s12.11,15.27,12.79,21.56c-4.59-5.72-14.11-18.99-14.93-21.13-.82-2.13-2.66-6.17-4.84-5.7-2.18,.47-3.95,3.08-3.77,6.87,.17,3.8,15.32,16.96,17.05,22.26-8.32-6.37-15.09-13.26-17.52-17.82-2.43-4.56-.51-7.1-.99-8.66-.49-1.56-1.54-2.03-3.36-1.05Zm100.1,100.1s-6.49,6.05-14.04,2.18c-7.56-3.87-11.89-17.17-18.49-19.54-6.59-2.37-5.11-12.99-1.19-15.9,3.92-2.92,20.15,1.22,27.81,5.15,7.66,3.93,12.09,8.28,10.42,12.05-1.66,3.77-5.26,3.21-8.17,.49s-15.27-12.11-21.56-12.79c5.72,4.59,18.99,14.12,21.13,14.93,2.13,.82,6.17,2.66,5.7,4.84-.47,2.18-3.08,3.95-6.87,3.77-3.8-.18-16.96-15.32-22.26-17.05,6.37,8.32,13.26,15.09,17.82,17.52,4.56,2.43,7.1,.51,8.66,.99,1.56,.49,2.03,1.54,1.05,3.36Zm-426.52,0s6.49,6.05,14.04,2.18c7.56-3.87,11.89-17.17,18.49-19.54,6.59-2.37,5.11-12.99,1.19-15.9-3.92-2.92-20.15,1.22-27.81,5.15-7.66,3.93-12.08,8.28-10.42,12.05,1.66,3.77,5.26,3.21,8.17,.49s15.27-12.11,21.56-12.79c-5.72,4.59-18.99,14.12-21.13,14.93-2.13,.82-6.17,2.66-5.7,4.84,.47,2.18,3.08,3.95,6.87,3.77,3.8-.18,16.96-15.32,22.26-17.05-6.37,8.32-13.26,15.09-17.82,17.52-4.56,2.43-7.1,.51-8.66,.99-1.56,.49-2.03,1.54-1.05,3.36ZM156.84,56.74s6.05,6.49,2.18,14.04c-3.87,7.56-17.17,11.89-19.54,18.49-2.37,6.59-12.99,5.11-15.9,1.19-2.92-3.92,1.22-20.15,5.15-27.81,3.93-7.66,8.28-12.08,12.05-10.42,3.77,1.66,3.21,5.26,.49,8.17-2.72,2.9-12.11,15.27-12.79,21.56,4.59-5.72,14.12-18.99,14.93-21.13,.82-2.13,2.66-6.17,4.84-5.7,2.18,.47,3.95,3.08,3.77,6.87-.18,3.8-15.32,16.96-17.05,22.26,8.32-6.37,15.09-13.26,17.52-17.82,2.43-4.56,.51-7.1,.99-8.66,.49-1.56,1.54-2.03,3.36-1.05Zm0,426.52s6.05-6.49,2.18-14.04c-3.87-7.56-17.17-11.89-19.54-18.49-2.37-6.59-12.99-5.11-15.9-1.19-2.92,3.92,1.22,20.15,5.15,27.81,3.93,7.66,8.28,12.09,12.05,10.42,3.77-1.66,3.21-5.26,.49-8.17-2.72-2.9-12.11-15.27-12.79-21.56,4.59,5.72,14.12,18.99,14.93,21.13,.82,2.13,2.66,6.17,4.84,5.7,2.18-.47,3.95-3.08,3.77-6.87-.18-3.8-15.32-16.96-17.05-22.26,8.32,6.37,15.09,13.26,17.52,17.82,2.43,4.56,.51,7.1,.99,8.66,.49,1.56,1.54,2.03,3.36,1.05h0Zm-100.1-100.1s6.49-6.05,14.04-2.18c7.56,3.87,11.89,17.17,18.49,19.54,6.59,2.37,5.11,12.99,1.19,15.9-3.92,2.92-20.15-1.22-27.81-5.15-7.66-3.93-12.08-8.28-10.42-12.05,1.66-3.77,5.26-3.21,8.17-.49,2.9,2.72,15.27,12.11,21.56,12.79-5.72-4.59-18.99-14.11-21.13-14.93-2.13-.82-6.17-2.66-5.7-4.84,.47-2.18,3.08-3.95,6.87-3.77,3.8,.17,16.96,15.32,22.26,17.05-6.37-8.32-13.26-15.09-17.82-17.52-4.56-2.43-7.1-.51-8.66-.99-1.56-.49-2.03-1.54-1.05-3.36h0Zm426.52,0s-6.49-6.05-14.04-2.18c-7.56,3.87-11.89,17.17-18.49,19.54-6.59,2.37-5.11,12.99-1.19,15.9,3.92,2.92,20.15-1.22,27.81-5.15,7.66-3.93,12.08-8.28,10.42-12.05-1.66-3.77-5.26-3.21-8.17-.49-2.9,2.72-15.27,12.11-21.56,12.79,5.72-4.59,18.99-14.11,21.13-14.93,2.13-.82,6.17-2.66,5.7-4.84-.47-2.18-3.08-3.95-6.87-3.77-3.8,.17-16.96,15.32-22.26,17.05,6.37-8.32,13.26-15.09,17.82-17.52,4.56-2.43,7.1-.51,8.66-.99s2.03-1.54,1.05-3.36h0Zm-100.1,100.1s-6.05-6.49-2.18-14.04c3.87-7.56,17.17-11.89,19.54-18.49,2.37-6.59,12.99-5.11,15.9-1.19,2.92,3.92-1.22,20.15-5.15,27.81-3.93,7.66-8.28,12.09-12.05,10.42-3.77-1.66-3.21-5.26-.49-8.17,2.72-2.9,12.11-15.27,12.79-21.56-4.59,5.72-14.11,18.99-14.93,21.13-.82,2.13-2.66,6.17-4.84,5.7s-3.95-3.08-3.77-6.87c.17-3.8,15.32-16.96,17.05-22.26-8.32,6.37-15.09,13.26-17.52,17.82-2.43,4.56-.51,7.1-.99,8.66-.49,1.56-1.54,2.03-3.36,1.05h0Z"/><path id="path2182" class="cls-3" d="M286.19,126.9s1.01,4.35,3.64,3.94c2.62-.42,3.13-2.9,2.16-5.81-3.01,.84-5.79,1.87-5.79,1.87h0Zm126.91,126.91s-4.35-1.01-3.93-3.64c.42-2.62,2.9-3.13,5.81-2.16-.84,3.01-1.87,5.79-1.87,5.79Zm-286.19,0s4.35-1.01,3.94-3.64c-.42-2.62-2.9-3.13-5.81-2.16,.84,3.01,1.87,5.79,1.87,5.79Zm126.91-126.91s-1.01,4.35-3.64,3.94-3.13-2.9-2.16-5.81c3.01,.84,5.79,1.87,5.79,1.87h0Zm0,286.19s-1.01-4.35-3.64-3.93c-2.62,.42-3.13,2.9-2.16,5.81,3.01-.84,5.79-1.87,5.79-1.87Zm-126.91-126.91s4.35,1.01,3.94,3.64c-.42,2.62-2.9,3.13-5.81,2.16,.84-3.01,1.87-5.79,1.87-5.79Zm286.19,0s-4.35,1.01-3.93,3.64c.42,2.62,2.9,3.13,5.81,2.16-.84-3.01-1.87-5.79-1.87-5.79Zm-126.91,126.91s1.01-4.35,3.64-3.93c2.62,.42,3.13,2.9,2.16,5.81-3.01-.84-5.79-1.87-5.79-1.87Z"/><path id="path2184" class="cls-2" d="M292.53,93.37s6.38,1.7,6.93,8c.55,6.3-6.12,14.3-5.01,19.39,1.11,5.1-6.17,8.36-9.56,7.04-3.39-1.32-7.2-13.19-7.76-19.58-.55-6.39,.44-10.9,3.48-11.35,3.04-.44,4.11,2.05,3.54,4.96-.57,2.91-1.6,14.42,.47,18.67,.63-5.42,1.39-17.57,1.06-19.24-.33-1.67-.76-4.95,.8-5.51,1.56-.56,3.71,.38,5.1,2.84,1.39,2.46-2.95,16.76-1.94,20.79,2.73-7.31,4.27-14.33,4-18.17-.27-3.84-2.49-4.68-2.8-5.85-.31-1.17,.17-1.89,1.71-1.99Zm154.09,154.09s-1.7-6.38-8-6.93c-6.3-.55-14.3,6.12-19.39,5.01-5.1-1.11-8.36,6.17-7.04,9.56,1.32,3.39,13.19,7.2,19.58,7.76,6.39,.55,10.9-.44,11.35-3.48,.44-3.04-2.05-4.11-4.96-3.54-2.91,.57-14.42,1.6-18.66-.47,5.42-.63,17.57-1.39,19.24-1.06,1.67,.33,4.95,.76,5.51-.8,.56-1.56-.38-3.71-2.84-5.1-2.46-1.39-16.76,2.95-20.79,1.94,7.31-2.73,14.33-4.27,18.17-4,3.84,.27,4.68,2.49,5.85,2.8,1.17,.31,1.89-.17,1.99-1.71h0Zm-353.25,0s1.7-6.38,8-6.93,14.3,6.12,19.39,5.01c5.1-1.11,8.36,6.17,7.04,9.56-1.32,3.39-13.19,7.2-19.58,7.76-6.39,.55-10.9-.44-11.35-3.48-.44-3.04,2.05-4.11,4.96-3.54,2.91,.57,14.42,1.6,18.67-.47-5.42-.63-17.57-1.39-19.24-1.06-1.67,.33-4.95,.76-5.51-.8-.56-1.56,.38-3.71,2.84-5.1,2.46-1.39,16.76,2.95,20.79,1.94-7.31-2.73-14.33-4.27-18.17-4-3.84,.27-4.68,2.49-5.85,2.8s-1.89-.17-1.99-1.71h0ZM247.47,93.37s-6.38,1.7-6.93,8c-.55,6.3,6.12,14.3,5.01,19.39-1.11,5.1,6.17,8.36,9.56,7.04s7.2-13.19,7.76-19.58-.44-10.9-3.48-11.35-4.11,2.05-3.54,4.96c.57,2.91,1.6,14.42-.47,18.67-.63-5.42-1.39-17.57-1.06-19.24,.33-1.67,.76-4.95-.8-5.51s-3.71,.38-5.1,2.84,2.95,16.76,1.94,20.79c-2.73-7.31-4.27-14.33-4-18.17,.27-3.84,2.49-4.68,2.8-5.85,.31-1.17-.17-1.89-1.71-1.99h0Zm0,353.25s-6.38-1.7-6.93-8c-.55-6.3,6.12-14.3,5.01-19.39-1.11-5.1,6.17-8.36,9.56-7.04,3.39,1.32,7.2,13.19,7.76,19.58,.55,6.39-.44,10.9-3.48,11.35s-4.11-2.05-3.54-4.96c.57-2.91,1.6-14.42-.47-18.66-.63,5.42-1.39,17.57-1.06,19.24,.33,1.67,.76,4.95-.8,5.51s-3.71-.38-5.1-2.84c-1.39-2.46,2.95-16.76,1.94-20.79-2.73,7.31-4.27,14.33-4,18.17,.27,3.84,2.49,4.68,2.8,5.85,.31,1.17-.17,1.89-1.71,1.99h0ZM93.37,292.53s1.7,6.38,8,6.93c6.3,.55,14.3-6.12,19.39-5.01,5.1,1.11,8.36-6.17,7.04-9.56-1.32-3.39-13.19-7.2-19.58-7.76-6.39-.55-10.9,.44-11.35,3.48-.44,3.04,2.05,4.11,4.96,3.54,2.91-.57,14.42-1.6,18.67,.47-5.42,.63-17.57,1.39-19.24,1.06-1.67-.33-4.95-.76-5.51,.8s.38,3.71,2.84,5.1c2.46,1.39,16.76-2.95,20.79-1.94-7.31,2.73-14.33,4.27-18.17,4-3.84-.27-4.68-2.49-5.85-2.8-1.17-.31-1.89,.17-1.99,1.71Zm353.25,0s-1.7,6.38-8,6.93c-6.3,.55-14.3-6.12-19.39-5.01-5.1,1.11-8.36-6.17-7.04-9.56,1.32-3.39,13.19-7.2,19.58-7.76,6.39-.55,10.9,.44,11.35,3.48,.44,3.04-2.05,4.11-4.96,3.54-2.91-.57-14.42-1.6-18.66,.47,5.42,.63,17.57,1.39,19.24,1.06,1.67-.33,4.95-.76,5.51,.8s-.38,3.71-2.84,5.1c-2.46,1.39-16.76-2.95-20.79-1.94,7.31,2.73,14.33,4.27,18.17,4,3.84-.27,4.68-2.49,5.85-2.8,1.17-.31,1.89,.17,1.99,1.71Zm-154.09,154.09s6.38-1.7,6.93-8c.55-6.3-6.12-14.3-5.01-19.39,1.11-5.1-6.17-8.36-9.56-7.04-3.39,1.32-7.2,13.19-7.76,19.58-.55,6.39,.44,10.9,3.48,11.35,3.04,.44,4.11-2.05,3.54-4.96-.57-2.91-1.6-14.42,.47-18.66,.63,5.42,1.39,17.57,1.06,19.24-.33,1.67-.76,4.95,.8,5.51,1.56,.56,3.71-.38,5.1-2.84,1.39-2.46-2.95-16.76-1.94-20.79,2.73,7.31,4.27,14.33,4,18.17-.27,3.84-2.49,4.68-2.8,5.85-.31,1.17,.17,1.89,1.71,1.99h0Z"/><path id="path2186" class="cls-3" d="M289.72,129.34s2.7,5.39,1.36,9.58c-1.34,4.2-14.02,11.72-15.46,27.74-1.44,16.02,18.24,19.64,23.29,28.3,5.05,8.66-3.05,24.26-3.05,24.26l4.26-1.84s4.55-11,2.61-20.55c-1.94-9.55-11.8-11.86-17.96-19.43-6.16-7.57-7.49-13.66-3.44-19.92,4.04-6.26,11.35-11.68,12.44-18.8,1.09-7.12-2.14-10.58-2.14-10.58l-1.91,1.24Zm120.93,120.93s-5.39-2.7-9.58-1.36c-4.2,1.34-11.72,14.02-27.74,15.46-16.02,1.44-19.64-18.24-28.3-23.29-8.66-5.06-24.26,3.05-24.26,3.05l1.84-4.26s11-4.55,20.55-2.61c9.55,1.94,11.86,11.8,19.43,17.96s13.66,7.49,19.92,3.44c6.26-4.04,11.68-11.35,18.8-12.44,7.12-1.09,10.58,2.14,10.58,2.14l-1.24,1.91Zm-281.31,0s5.39-2.7,9.58-1.36c4.2,1.34,11.72,14.02,27.74,15.46s19.64-18.24,28.3-23.29c8.66-5.06,24.26,3.05,24.26,3.05l-1.84-4.26s-11-4.55-20.55-2.61c-9.55,1.94-11.86,11.8-19.43,17.96-7.57,6.16-13.66,7.49-19.92,3.44-6.26-4.04-11.68-11.35-18.8-12.44-7.12-1.09-10.58,2.14-10.58,2.14l1.24,1.91Zm120.93-120.93s-2.7,5.39-1.36,9.58c1.34,4.2,14.02,11.72,15.46,27.74s-18.24,19.64-23.29,28.3c-5.05,8.66,3.05,24.26,3.05,24.26l-4.26-1.84s-4.55-11-2.61-20.55c1.94-9.55,11.8-11.86,17.96-19.43,6.16-7.57,7.49-13.66,3.44-19.92-4.04-6.26-11.35-11.68-12.44-18.8-1.09-7.12,2.14-10.58,2.14-10.58l1.91,1.24Zm0,281.31s-2.7-5.39-1.36-9.58c1.34-4.2,14.02-11.72,15.46-27.74,1.44-16.02-18.24-19.64-23.29-28.3-5.05-8.66,3.05-24.26,3.05-24.26l-4.26,1.84s-4.55,11-2.61,20.55c1.94,9.55,11.8,11.86,17.96,19.43s7.49,13.66,3.44,19.92c-4.04,6.26-11.35,11.68-12.44,18.8-1.09,7.12,2.14,10.58,2.14,10.58l1.91-1.24Zm-120.93-120.93s5.39,2.7,9.58,1.36c4.2-1.34,11.72-14.02,27.74-15.46,16.02-1.44,19.64,18.24,28.3,23.29,8.66,5.06,24.26-3.05,24.26-3.05l-1.84,4.26s-11,4.55-20.55,2.61c-9.55-1.94-11.86-11.8-19.43-17.96-7.57-6.16-13.66-7.49-19.92-3.44-6.26,4.04-11.68,11.35-18.8,12.44-7.12,1.09-10.58-2.14-10.58-2.14l1.24-1.91Zm281.31,0s-5.39,2.7-9.58,1.36c-4.2-1.34-11.72-14.02-27.74-15.46-16.02-1.44-19.64,18.24-28.3,23.29-8.66,5.06-24.26-3.05-24.26-3.05l1.84,4.26s11,4.55,20.55,2.61c9.55-1.94,11.86-11.8,19.43-17.96,7.57-6.16,13.66-7.49,19.92-3.44,6.26,4.04,11.68,11.35,18.8,12.44,7.12,1.09,10.58-2.14,10.58-2.14l-1.24-1.91Zm-120.93,120.93s2.7-5.39,1.36-9.58c-1.34-4.2-14.02-11.72-15.46-27.74-1.44-16.02,18.24-19.64,23.29-28.3,5.05-8.66-3.05-24.26-3.05-24.26l4.26,1.84s4.55,11,2.61,20.55c-1.94,9.55-11.8,11.86-17.96,19.43s-7.49,13.66-3.44,19.92,11.35,11.68,12.44,18.8c1.09,7.12-2.14,10.58-2.14,10.58l-1.91-1.24Z"/></g></g></svg>