<?xml version="1.0" encoding="UTF-8"?><svg id="Layer_2" xmlns="http://www.w3.org/2000/svg" viewBox="0 0 540 540"><defs><style>.cls-1{fill:#e9e9e2;}.cls-2{fill:#cf962b;}.cls-3{fill:#62908e;}</style></defs><g id="OBJECTS"><g id="g5218"><g><polygon class="cls-1" points="0 540 270 540 270 270.01 91.22 448.79 0 540"/><polygon class="cls-1" points="270.01 270.01 270.01 270 270.01 270.01 270.01 270.01"/><polygon class="cls-1" points="0 0 0 270 269.99 270 88.77 88.77 0 0"/><polygon class="cls-1" points="0 270 0 540 91.22 448.79 269.99 270.01 0 270"/><polygon class="cls-1" points="270 540 540 540 448.79 448.79 270.01 270.01 270 540"/><polygon class="cls-1" points="270 0 0 0 88.77 88.77 270 269.99 270 0"/><polygon class="cls-1" points="269.99 270 270 270 270 270 269.99 270"/><polygon class="cls-1" points="540 0 270 0 270.01 269.99 451.24 88.77 540 0"/><polygon class="cls-1" points="540 270 540 0 451.24 88.77 270.01 270 540 270"/><polygon class="cls-1" points="270 270.01 270 270.01 270 270.01 270 270.01"/><polygon class="cls-1" points="270.01 270 270.01 270 270.01 270 270.01 270"/><polygon class="cls-1" points="270 270 270 269.99 270 270 270 270"/><polygon class="cls-1" points="270 270 269.99 270.01 270 270.01 270 270"/><polygon class="cls-1" points="270.01 269.99 270 270 270.01 270 270.01 269.99"/><polygon class="cls-1" points="540 270 270.01 270.01 448.79 448.79 540 540 540 270"/><polygon class="cls-1" points="270 270.01 270.01 270.01 270.01 270.01 270 270.01"/></g><path id="path5204" class="cls-3" d="M270,270L518.72,21.29s-33.14,22.25-46.66,27.36c-13.52,5.11-26.26,12.79-29.86,23.11-3.6,10.33-9.19,5.03-8.23-1.09,.95-6.12,1.34-10.21,8.06-11.89-14.86-.27-22.88,6.94-22.32,17.19,.56,10.25-1.82,18.01-6.63,13.76-4.81-4.25-8.93-12.75-1.6-18.2-12.65,2.49-17.94,15.71-15.51,24.13,2.43,8.42,2.21,18.9-5.5,17.27s-10.31-11.34-5.37-17.46c-12.87,4.09-20.37,17.07-15.77,27.44,4.59,10.37,8.49,22.34-.61,23.78-9.1,1.44-13.91-8.22-8.93-15.09-16.64,5.61-17.51,19.72-16.21,32.39,1.3,12.67-1.56,22.06-7.89,19.45-6.33-2.61-9.75-10.8-4.59-19.57-16.6,4.79-16.55,27.95-16.08,37.23,.48,9.28-37.18,41.34-45.02,68.91h0Zm0,0L518.72,21.29s-22.25,33.14-27.36,46.66c-5.11,13.52-12.79,26.26-23.11,29.86-10.33,3.6-5.03,9.19,1.09,8.23s10.21-1.34,11.89-8.06c.27,14.86-6.94,22.88-17.19,22.32-10.25-.56-18.01,1.82-13.76,6.63s12.75,8.93,18.2,1.6c-2.49,12.65-15.71,17.94-24.13,15.51-8.42-2.43-18.91-2.21-17.27,5.5,1.64,7.71,11.34,10.31,17.46,5.37-4.09,12.87-17.07,20.37-27.44,15.77-10.37-4.59-22.34-8.49-23.78,.61-1.44,9.1,8.22,13.91,15.08,8.93-5.61,16.64-19.72,17.51-32.39,16.21-12.67-1.3-22.06,1.56-19.45,7.89,2.61,6.33,10.8,9.75,19.57,4.59-4.79,16.6-27.95,16.55-37.23,16.08-9.28-.48-41.34,37.18-68.91,45.02h0Zm0,0L21.29,21.29s22.25,33.14,27.36,46.66c5.11,13.52,12.79,26.26,23.11,29.86,10.33,3.6,5.03,9.19-1.09,8.23-6.12-.95-10.21-1.34-11.89-8.06-.27,14.86,6.94,22.88,17.19,22.32,10.25-.56,18.01,1.82,13.76,6.63-4.25,4.81-12.75,8.93-18.2,1.6,2.49,12.65,15.71,17.94,24.13,15.51,8.42-2.43,18.91-2.21,17.27,5.5-1.64,7.71-11.34,10.31-17.46,5.37,4.09,12.87,17.07,20.37,27.44,15.77,10.37-4.59,22.34-8.49,23.78,.61,1.44,9.1-8.22,13.91-15.08,8.93,5.61,16.64,19.72,17.51,32.39,16.21,12.67-1.3,22.06,1.56,19.45,7.89-2.61,6.33-10.8,9.75-19.57,4.59,4.79,16.6,27.95,16.55,37.23,16.08,9.28-.48,41.34,37.18,68.91,45.02h0Zm0,0L21.29,21.29s33.14,22.25,46.66,27.36c13.52,5.11,26.26,12.79,29.86,23.11,3.6,10.33,9.19,5.03,8.23-1.09-.95-6.12-1.34-10.21-8.06-11.89,14.86-.27,22.88,6.94,22.32,17.19-.56,10.25,1.82,18.01,6.63,13.76s8.93-12.75,1.6-18.2c12.65,2.49,17.94,15.71,15.51,24.13-2.43,8.42-2.21,18.91,5.5,17.27s10.31-11.34,5.37-17.46c12.87,4.09,20.37,17.07,15.77,27.44-4.59,10.37-8.49,22.34,.61,23.78,9.1,1.44,13.91-8.22,8.93-15.08,16.64,5.61,17.51,19.72,16.21,32.39-1.3,12.67,1.56,22.06,7.89,19.45,6.33-2.61,9.75-10.8,4.59-19.57,16.6,4.79,16.55,27.95,16.08,37.23-.48,9.28,37.18,41.34,45.02,68.91h0Zm0,0L21.29,518.72s33.14-22.25,46.66-27.36c13.52-5.11,26.26-12.79,29.86-23.11,3.6-10.33,9.19-5.03,8.23,1.09-.95,6.12-1.34,10.21-8.06,11.89,14.86,.27,22.88-6.94,22.32-17.19-.56-10.25,1.82-18.01,6.63-13.76,4.81,4.25,8.93,12.75,1.6,18.2,12.65-2.49,17.94-15.71,15.51-24.13-2.43-8.42-2.21-18.9,5.5-17.27,7.71,1.64,10.31,11.34,5.37,17.46,12.87-4.09,20.37-17.07,15.77-27.44-4.59-10.37-8.49-22.34,.61-23.78,9.1-1.44,13.91,8.22,8.93,15.09,16.64-5.61,17.51-19.72,16.21-32.39-1.3-12.67,1.56-22.06,7.89-19.45,6.33,2.61,9.75,10.8,4.59,19.57,16.6-4.79,16.55-27.95,16.08-37.23-.48-9.28,37.18-41.34,45.02-68.91h0Zm0,0L21.29,518.72s22.25-33.14,27.36-46.66c5.11-13.52,12.79-26.26,23.11-29.86,10.33-3.6,5.03-9.19-1.09-8.23-6.12,.95-10.21,1.34-11.89,8.06-.27-14.86,6.94-22.88,17.19-22.32,10.25,.56,18.01-1.82,13.76-6.63-4.25-4.81-12.75-8.93-18.2-1.6,2.49-12.65,15.71-17.94,24.13-15.51,8.42,2.43,18.91,2.21,17.27-5.5-1.64-7.71-11.34-10.31-17.46-5.37,4.09-12.87,17.07-20.37,27.44-15.77,10.37,4.59,22.34,8.49,23.78-.61,1.44-9.1-8.22-13.91-15.08-8.93,5.61-16.64,19.72-17.51,32.39-16.21,12.67,1.3,22.06-1.56,19.45-7.89-2.61-6.33-10.8-9.75-19.57-4.59,4.79-16.6,27.95-16.55,37.23-16.08,9.28,.48,41.34-37.18,68.91-45.02h0Zm0,0l248.71,248.72s-22.25-33.14-27.36-46.66c-5.11-13.52-12.79-26.26-23.11-29.86-10.33-3.6-5.03-9.19,1.09-8.23,6.12,.95,10.21,1.34,11.89,8.06,.27-14.86-6.94-22.88-17.19-22.32-10.25,.56-18.01-1.82-13.76-6.63,4.25-4.81,12.75-8.93,18.2-1.6-2.49-12.65-15.71-17.94-24.13-15.51-8.42,2.43-18.91,2.21-17.27-5.5,1.64-7.71,11.34-10.31,17.46-5.37-4.09-12.87-17.07-20.37-27.44-15.77-10.37,4.59-22.34,8.49-23.78-.61-1.44-9.1,8.22-13.91,15.08-8.93-5.61-16.64-19.72-17.51-32.39-16.21-12.67,1.3-22.06-1.56-19.45-7.89,2.61-6.33,10.8-9.75,19.57-4.59-4.79-16.6-27.95-16.55-37.23-16.08-9.28,.48-41.34-37.18-68.91-45.02h0Zm0,0l248.72,248.71s-33.14-22.25-46.66-27.36c-13.52-5.11-26.26-12.79-29.86-23.11-3.6-10.33-9.19-5.03-8.23,1.09,.95,6.12,1.34,10.21,8.06,11.89-14.86,.27-22.88-6.94-22.32-17.19,.56-10.25-1.82-18.01-6.63-13.76s-8.93,12.75-1.6,18.2c-12.65-2.49-17.94-15.71-15.51-24.13,2.43-8.42,2.21-18.9-5.5-17.27-7.71,1.64-10.31,11.34-5.37,17.46-12.87-4.09-20.37-17.07-15.77-27.44,4.59-10.37,8.49-22.34-.61-23.78-9.1-1.44-13.91,8.22-8.93,15.09-16.64-5.61-17.51-19.72-16.21-32.39,1.3-12.67-1.56-22.06-7.89-19.45-6.33,2.61-9.75,10.8-4.59,19.57-16.6-4.79-16.55-27.95-16.08-37.23,.48-9.28-37.18-41.34-45.02-68.91h0Z"/><path id="path5206" class="cls-2" d="M270.01,270s19.16-32.19,20.59-44.97c1.43-12.79-14.3-95.23-8.71-111.4s34.28-27.87,46.28-25.65c12,2.22,16.64-3.2,12.96-12.55-3.68-9.36-11.35-8.19-18.03-6.9,4.46-15.67-10.96-22.92-21.28-12.28-.74-13.99-17.46-16.06-21.1-5.15,0-12.32-10.71-13.97-10.71-13.97v232.86Zm0,0s32.19-19.16,44.97-20.59,95.23,14.3,111.4,8.71c16.18-5.59,27.87-34.28,25.65-46.28-2.22-12,3.2-16.64,12.55-12.96,9.36,3.68,8.19,11.35,6.9,18.03,15.67-4.46,22.92,10.96,12.28,21.28,13.99,.74,16.06,17.46,5.15,21.1,12.32,0,13.97,10.72,13.97,10.72h-232.86Zm0,0s-32.19-19.16-44.97-20.59c-12.79-1.43-95.23,14.3-111.4,8.71s-27.87-34.28-25.65-46.28c2.22-12-3.2-16.64-12.55-12.96-9.36,3.68-8.19,11.35-6.9,18.03-15.67-4.46-22.92,10.96-12.28,21.28-13.99,.74-16.06,17.46-5.15,21.1-12.32,0-13.97,10.72-13.97,10.72h232.86Zm0,0s-19.16-32.19-20.59-44.97c-1.43-12.79,14.3-95.23,8.71-111.4-5.59-16.18-34.28-27.87-46.28-25.65-12,2.22-16.64-3.2-12.96-12.55,3.68-9.36,11.35-8.19,18.03-6.9-4.46-15.67,10.96-22.92,21.28-12.28,.74-13.99,17.46-16.06,21.1-5.15,0-12.32,10.72-13.97,10.72-13.97v232.86Zm0,0s-19.16,32.19-20.59,44.97c-1.43,12.79,14.3,95.23,8.71,111.4-5.59,16.18-34.28,27.87-46.28,25.65-12-2.22-16.64,3.2-12.96,12.55,3.68,9.36,11.35,8.19,18.03,6.9-4.46,15.67,10.96,22.92,21.28,12.28,.74,13.99,17.46,16.06,21.1,5.15,0,12.32,10.72,13.97,10.72,13.97v-232.86Zm0,0s-32.19,19.16-44.97,20.59c-12.79,1.43-95.23-14.3-111.4-8.71-16.18,5.59-27.87,34.28-25.65,46.28,2.22,12-3.2,16.64-12.55,12.96-9.35-3.68-8.19-11.35-6.9-18.03-15.67,4.46-22.92-10.96-12.28-21.28-13.99-.74-16.06-17.46-5.15-21.1-12.32,0-13.97-10.72-13.97-10.72h232.86Zm0,0s32.19,19.16,44.97,20.59,95.23-14.3,111.4-8.71c16.18,5.59,27.87,34.28,25.65,46.28-2.22,12,3.2,16.64,12.55,12.96,9.36-3.68,8.19-11.35,6.9-18.03,15.67,4.46,22.92-10.96,12.28-21.28,13.99-.74,16.06-17.46,5.15-21.1,12.32,0,13.97-10.72,13.97-10.72h-232.86Zm0,0s19.16,32.19,20.59,44.97c1.43,12.79-14.3,95.23-8.71,111.4,5.59,16.18,34.28,27.87,46.28,25.65,12-2.22,16.64,3.2,12.96,12.55-3.68,9.36-11.35,8.19-18.03,6.9,4.46,15.67-10.96,22.92-21.28,12.28-.74,13.99-17.46,16.06-21.1,5.15,0,12.32-10.72,13.97-10.72,13.97v-232.86Z"/><path id="path5208" class="cls-3" d="M270,270s0-67.7,0-92.53,11.34-30.36,17.23-35.28c-4.07,8.5-4.07,16.88-4.07,16.88,0,0,5.03-13.29,18.29-16.37-4.55,11.77-4.77,17.7-5.37,37.19-.61,19.49,3.93,57.33-26.07,90.12h0Zm0,0s67.7,0,92.53,0,30.36-11.34,35.28-17.23c-8.5,4.07-16.88,4.07-16.88,4.07,0,0,13.29-5.03,16.37-18.29-11.77,4.55-17.7,4.77-37.19,5.37-19.49,.61-57.33-3.93-90.12,26.07h0Zm0,0s-67.7,0-92.53,0-30.36-11.34-35.28-17.23c8.5,4.07,16.88,4.07,16.88,4.07,0,0-13.29-5.03-16.37-18.29,11.77,4.55,17.7,4.77,37.19,5.37,19.49,.61,57.33-3.93,90.12,26.07h0Zm0,0s0-67.7,0-92.53-11.34-30.37-17.23-35.28c4.07,8.5,4.07,16.88,4.07,16.88,0,0-5.03-13.29-18.29-16.37,4.55,11.77,4.77,17.7,5.37,37.19,.61,19.49-3.93,57.33,26.07,90.12h0Zm0,0s0,67.7,0,92.53-11.34,30.36-17.23,35.28c4.07-8.5,4.07-16.88,4.07-16.88,0,0-5.03,13.29-18.29,16.37,4.55-11.77,4.77-17.7,5.37-37.19,.61-19.49-3.93-57.33,26.07-90.12h0Zm0,0s-67.7,0-92.53,0-30.37,11.34-35.28,17.23c8.5-4.07,16.88-4.07,16.88-4.07,0,0-13.29,5.03-16.37,18.29,11.77-4.55,17.7-4.77,37.19-5.37,19.49-.61,57.33,3.93,90.12-26.07h0Zm0,0s67.7,0,92.53,0,30.36,11.34,35.28,17.23c-8.5-4.07-16.88-4.07-16.88-4.07,0,0,13.29,5.03,16.37,18.29-11.77-4.55-17.7-4.77-37.19-5.37-19.49-.61-57.33,3.93-90.12-26.07h0Zm0,0s0,67.7,0,92.53,11.34,30.36,17.23,35.28c-4.07-8.5-4.07-16.88-4.07-16.88,0,0,5.03,13.29,18.29,16.37-4.55-11.77-4.77-17.7-5.37-37.19-.61-19.49,3.93-57.33-26.07-90.12h0Z"/><path id="path5210" class="cls-3" d="M305.18,176.37s11.61-21.14,7.87-32c-3.74-10.86-12.23-30.43,1.5-40.79,13.73-10.36,31.68,2.81,39.8-11.85,8.12-14.66-4.04-31.15-13.97-30.32,26.75-4.13,34.13,25.14,26.72,38.15-7.42,13.01-20.47,15.27-31.32,17.5-10.85,2.23-8.64,8.35-6.1,20.56,2.54,12.21-15.11,33.41-24.51,38.75Zm58.45,58.45s21.14-11.61,32-7.87c10.86,3.74,30.43,12.23,40.79-1.5,10.36-13.73-2.81-31.68,11.85-39.8,14.66-8.12,31.15,4.04,30.32,13.97,4.13-26.75-25.14-34.13-38.15-26.72-13.01,7.42-15.27,20.47-17.5,31.32-2.23,10.85-8.35,8.64-20.56,6.1-12.21-2.54-33.41,15.11-38.75,24.51Zm-187.26,0s-21.14-11.61-32-7.87c-10.86,3.74-30.43,12.23-40.79-1.5-10.36-13.73,2.81-31.68-11.85-39.8-14.66-8.12-31.15,4.04-30.32,13.97-4.13-26.75,25.14-34.13,38.15-26.72,13.01,7.42,15.27,20.47,17.5,31.32,2.23,10.85,8.35,8.64,20.56,6.1,12.21-2.54,33.41,15.11,38.75,24.51h0Zm58.45-58.45s-11.61-21.14-7.87-32c3.74-10.86,12.23-30.43-1.5-40.79-13.73-10.36-31.68,2.81-39.8-11.85-8.12-14.66,4.04-31.15,13.97-30.32-26.75-4.13-34.13,25.14-26.72,38.15,7.42,13.01,20.47,15.27,31.31,17.5,10.85,2.23,8.64,8.35,6.1,20.56-2.54,12.21,15.11,33.41,24.51,38.75h0Zm0,187.26s-11.61,21.14-7.87,32c3.74,10.86,12.23,30.43-1.5,40.79-13.73,10.36-31.68-2.81-39.8,11.85-8.12,14.66,4.04,31.15,13.97,30.32-26.75,4.13-34.13-25.14-26.72-38.15,7.42-13.01,20.47-15.27,31.31-17.5,10.85-2.23,8.64-8.35,6.1-20.56-2.54-12.21,15.11-33.41,24.51-38.75Zm-58.45-58.45s-21.14,11.61-32,7.87c-10.86-3.74-30.43-12.23-40.79,1.5-10.36,13.73,2.81,31.68-11.85,39.8-14.66,8.12-31.15-4.04-30.32-13.97-4.13,26.75,25.14,34.13,38.15,26.72,13.01-7.42,15.27-20.47,17.5-31.32,2.23-10.85,8.35-8.64,20.56-6.1,12.21,2.54,33.41-15.11,38.75-24.51Zm187.26,0s21.14,11.61,32,7.87c10.86-3.74,30.43-12.23,40.79,1.5,10.36,13.73-2.81,31.68,11.85,39.8,14.66,8.12,31.15-4.04,30.32-13.97,4.13,26.75-25.14,34.13-38.15,26.72-13.01-7.42-15.27-20.47-17.5-31.32-2.23-10.85-8.35-8.64-20.56-6.1-12.21,2.54-33.41-15.11-38.75-24.51Zm-58.45,58.45s11.61,21.14,7.87,32c-3.74,10.86-12.23,30.43,1.5,40.79,13.73,10.36,31.68-2.81,39.8,11.85,8.12,14.66-4.04,31.15-13.97,30.32,26.75,4.13,34.13-25.14,26.72-38.15-7.42-13.01-20.47-15.27-31.32-17.5-10.85-2.23-8.64-8.35-6.1-20.56,2.54-12.21-15.11-33.41-24.51-38.75Z"/><path id="path5212" class="cls-3" d="M339.28,51.22s38.96-1.25,40.65,32.9c7.5-21.67,19.67-22.1,32.5-20.54-4.25-12.82-23.27-13.1-29.47-9.55-8.49-13.72-34.88-11.38-43.68-2.81Zm149.51,149.51s1.25-38.96-32.9-40.65c21.67-7.5,22.1-19.67,20.54-32.5,12.82,4.25,13.1,23.27,9.55,29.47,13.72,8.49,11.38,34.88,2.81,43.68Zm-437.57,0s-1.25-38.96,32.9-40.65c-21.67-7.5-22.1-19.67-20.54-32.5-12.82,4.25-13.1,23.27-9.55,29.47-13.72,8.49-11.38,34.88-2.81,43.68ZM200.73,51.22s-38.96-1.25-40.65,32.9c-7.5-21.67-19.67-22.1-32.5-20.54,4.25-12.82,23.27-13.1,29.47-9.55,8.49-13.72,34.88-11.38,43.68-2.81Zm0,437.57s-38.96,1.25-40.65-32.9c-7.5,21.67-19.67,22.1-32.5,20.54,4.25,12.82,23.27,13.1,29.47,9.55,8.49,13.72,34.88,11.38,43.68,2.81h0ZM51.22,339.28s-1.25,38.96,32.9,40.65c-21.67,7.5-22.1,19.67-20.54,32.5-12.82-4.25-13.1-23.27-9.55-29.47-13.72-8.49-11.38-34.88-2.81-43.68h0Zm437.57,0s1.25,38.96-32.9,40.65c21.67,7.5,22.1,19.67,20.54,32.5,12.82-4.25,13.1-23.27,9.55-29.47,13.72-8.49,11.38-34.88,2.81-43.68h0Zm-149.51,149.51s38.96,1.25,40.65-32.9c7.5,21.67,19.67,22.1,32.5,20.54-4.25,12.82-23.27,13.1-29.47,9.55-8.49,13.72-34.88,11.38-43.68,2.81h0Z"/><path id="path5214" class="cls-2" d="M282.45,170.25s-7.45,10.56-6.07,26.78c1.39,16.22,3.9,47.52-2.3,61.98,14.04-23.74,11.96-39.25,12.44-51.45,.48-12.2-5.42-27.99-4.07-37.3h0Zm87.3,87.3s-10.56,7.45-26.78,6.07c-16.22-1.39-47.52-3.9-61.98,2.3,23.74-14.04,39.25-11.96,51.45-12.44,12.2-.48,27.99,5.42,37.3,4.07Zm-199.5,0s10.56,7.45,26.78,6.07c16.22-1.39,47.52-3.9,61.98,2.3-23.74-14.04-39.25-11.96-51.45-12.44-12.2-.48-27.99,5.42-37.3,4.07Zm87.3-87.3s7.45,10.56,6.07,26.78c-1.39,16.22-3.9,47.52,2.3,61.98-14.04-23.74-11.96-39.25-12.44-51.45-.48-12.2,5.42-27.99,4.07-37.3h0Zm0,199.5s7.45-10.56,6.07-26.78c-1.39-16.22-3.9-47.52,2.3-61.98-14.04,23.74-11.96,39.25-12.44,51.45-.48,12.2,5.42,27.99,4.07,37.3Zm-87.3-87.3s10.56-7.45,26.78-6.07c16.22,1.39,47.52,3.9,61.98-2.3-23.74,14.04-39.25,11.96-51.45,12.44-12.2,.48-27.99-5.42-37.3-4.07h0Zm199.5,0s-10.56-7.45-26.78-6.07c-16.22,1.39-47.52,3.9-61.98-2.3,23.74,14.04,39.25,11.96,51.45,12.44,12.2,.48,27.99-5.42,37.3-4.07Zm-87.3,87.3s-7.45-10.56-6.07-26.78c1.39-16.22,3.9-47.52-2.3-61.98,14.04,23.74,11.96,39.25,12.44,51.45,.48,12.2-5.42,27.99-4.07,37.3Z"/><path id="path5216" class="cls-2" d="M292.29,247.71l-22.29,22.29v-31.28s12.02-.89,22.29,9h0Zm0,0l-22.29,22.29h31.28s.89-12.02-9-22.29h0Zm-44.58,0l22.29,22.29h-31.28s-.89-12.02,9-22.29h0Zm0,0l22.29,22.29v-31.28s-12.02-.89-22.29,9h0Zm0,44.58l22.29-22.29v31.28s-12.02,.89-22.29-9h0Zm0,0l22.29-22.29h-31.28s-.89,12.02,9,22.29h0Zm44.58,0l-22.29-22.29h31.28s.89,12.02-9,22.29h0Zm0,0l-22.29-22.29v31.28s12.02,.89,22.29-9h0Z"/></g></g></svg>