<?xml version="1.0" encoding="UTF-8"?><svg id="Layer_2" xmlns="http://www.w3.org/2000/svg" viewBox="0 0 540 540"><defs><style>.cls-1{fill:#e9e9e2;}.cls-2{fill:#cf962b;}.cls-3{fill:#605277;}</style></defs><g id="OBJECTS"><g id="g7286"><g id="path7244"><path class="cls-1" d="M270,270L540,0H270s0,270,0,270Zm0,0L540,0V270s-270.01,0-270.01,0Zm0,0L0,0V270s270,0,270,0Zm0,0L0,0H270s0,270,0,270Zm0,0L0,540H270s0-270,0-270Zm0,0L0,540V270s270,0,270,0Zm0,0l270.01,270V270s-270.01,0-270.01,0Zm0,0l270,270H270s0-270,0-270Z"/></g><g id="path7246"><path class="cls-3" d="M270,270V22.96s6.71,23.17,20.74,31.51c16.82,9.99,17.71,27.94,14.49,37.31-3.22,9.37,4.73,10.08,8.26,23.25,3.52,13.17,3.55,18.55-2.54,27.87-6.1,9.32-8.45,20.54-3.24,31.84,5.21,11.3,7.69,18.96,0,27.12-7.69,8.16-32.92,35.9-29,42.85,3.92,6.95,47.47-39.94,51.3-44.96,3.83-5.02,3.97-17.5-4.24-30.09-8.21-12.6-10.11-21.55-1.9-31.92,8.21-10.36,11.43-14.75,3.62-26.57-7.81-11.82-12.44-14.75-5.33-23.1,7.11-8.35,8.36-18.85,3.77-30.84,11.58,10.36,6.4,25.85,2.48,31.97-3.92,6.12,1.01,16.26,7.14,23.04,6.13,6.78,1.9,19.24-3.65,30.7-5.55,11.47-1.13,12.38,4.35,25.22,5.48,12.84,3.29,15.1,1.33,23.51,25.22-25.58,35.24-32.13,37.36-39.21,2.11-7.08,1.87-22.19-4.53-30.18-6.4-7.99-15.93-14.53-11.67-25.52,4.26-11,6.47-25.11-6.47-35.8,17.04,4.49,16.06,23.9,13.36,33.02s-3.74,12.32,6.53,20.67c10.26,8.35,14.22,21.06,11.52,28.91,20.31-17.5,38.57-34.83,40.2-39.68,1.62-4.85-.64-2.15-8.27-15.85-7.63-13.7-10.66-24.31,1.65-32.63-4.47,12.9-5.73,20.42,1.01,27.54,6.74,7.11,12.81,15.19,12.81,15.19l47.59-36.76-208.65,208.66Zm0,0h247.05s-23.17-6.71-31.51-20.74c-9.99-16.82-27.94-17.71-37.31-14.49-9.37,3.22-10.08-4.73-23.25-8.26s-18.55-3.55-27.87,2.54c-9.32,6.1-20.54,8.45-31.84,3.24-11.3-5.21-18.96-7.69-27.12,0-8.16,7.69-35.9,32.92-42.85,29-6.95-3.92,39.94-47.47,44.96-51.3s17.5-3.97,30.09,4.24c12.6,8.21,21.55,10.11,31.92,1.9,10.36-8.21,14.75-11.43,26.57-3.62,11.82,7.81,14.75,12.44,23.1,5.33,8.35-7.11,18.85-8.36,30.84-3.77-10.36-11.58-25.85-6.4-31.97-2.48s-16.26-1.01-23.04-7.14c-6.78-6.13-19.24-1.9-30.7,3.65-11.47,5.55-12.38,1.13-25.22-4.35-12.84-5.48-15.1-3.29-23.51-1.33,25.58-25.22,32.13-35.24,39.21-37.36,7.08-2.11,22.19-1.87,30.18,4.54,7.99,6.4,14.53,15.93,25.52,11.67,11-4.26,25.11-6.47,35.8,6.47-4.49-17.04-23.9-16.06-33.02-13.36-9.12,2.7-12.32,3.74-20.67-6.53-8.35-10.26-21.06-14.22-28.91-11.52,17.5-20.31,34.83-38.57,39.68-40.2,4.85-1.62,2.15,.64,15.85,8.27,13.7,7.63,24.31,10.66,32.63-1.65-12.9,4.47-20.42,5.73-27.54-1.01-7.11-6.74-15.19-12.81-15.19-12.81l36.76-47.59-208.66,208.65Zm0,0H22.96s23.17-6.71,31.51-20.74c9.99-16.82,27.94-17.71,37.31-14.49,9.37,3.22,10.08-4.73,23.25-8.26s18.55-3.55,27.87,2.54c9.32,6.1,20.54,8.45,31.84,3.24,11.3-5.21,18.96-7.69,27.12,0,8.16,7.69,35.9,32.92,42.85,29,6.95-3.92-39.94-47.47-44.96-51.3s-17.5-3.97-30.09,4.24c-12.6,8.21-21.55,10.11-31.92,1.9-10.36-8.21-14.75-11.43-26.57-3.62-11.82,7.81-14.75,12.44-23.1,5.33-8.35-7.11-18.85-8.36-30.84-3.77,10.36-11.58,25.85-6.4,31.97-2.48,6.12,3.92,16.26-1.01,23.04-7.14,6.78-6.13,19.24-1.9,30.7,3.65s12.38,1.13,25.22-4.35c12.84-5.48,15.1-3.29,23.51-1.33-25.58-25.22-32.13-35.24-39.21-37.36-7.08-2.11-22.19-1.87-30.18,4.54-7.99,6.4-14.53,15.93-25.52,11.67-11-4.26-25.11-6.47-35.8,6.47,4.49-17.04,23.9-16.06,33.02-13.36,9.12,2.7,12.32,3.74,20.67-6.53,8.35-10.26,21.06-14.22,28.91-11.52-17.5-20.31-34.83-38.57-39.68-40.2-4.85-1.62-2.15,.64-15.85,8.27-13.7,7.63-24.31,10.66-32.63-1.65,12.9,4.47,20.42,5.73,27.54-1.01,7.11-6.74,15.19-12.81,15.19-12.81L61.35,61.35l208.66,208.65Zm0,0V22.96s-6.71,23.17-20.74,31.51c-16.82,9.99-17.71,27.94-14.49,37.31,3.22,9.37-4.73,10.08-8.26,23.25-3.52,13.17-3.55,18.55,2.54,27.87,6.1,9.32,8.45,20.54,3.24,31.84-5.21,11.3-7.69,18.96,0,27.12,7.69,8.16,32.92,35.9,29,42.85-3.92,6.95-47.47-39.94-51.3-44.96-3.83-5.02-3.97-17.5,4.24-30.09,8.21-12.6,10.11-21.55,1.9-31.92-8.21-10.36-11.43-14.75-3.62-26.57,7.81-11.82,12.44-14.75,5.33-23.1-7.11-8.35-8.36-18.85-3.77-30.84-11.58,10.36-6.4,25.85-2.48,31.97,3.92,6.12-1.01,16.26-7.14,23.04-6.13,6.78-1.9,19.24,3.65,30.7,5.55,11.47,1.13,12.38-4.35,25.22-5.48,12.84-3.29,15.1-1.33,23.51-25.22-25.58-35.24-32.13-37.36-39.21-2.11-7.08-1.87-22.19,4.53-30.18,6.4-7.99,15.93-14.53,11.67-25.52-4.26-11-6.47-25.11,6.47-35.8-17.04,4.49-16.06,23.9-13.36,33.02s3.74,12.32-6.53,20.67c-10.26,8.35-14.22,21.06-11.52,28.91-20.31-17.5-38.57-34.83-40.2-39.68-1.62-4.85,.64-2.15,8.27-15.85,7.63-13.7,10.66-24.31-1.65-32.63,4.47,12.9,5.73,20.42-1.01,27.54-6.74,7.11-12.81,15.19-12.81,15.19L61.35,61.35l208.65,208.66Zm0,0v247.05s-6.71-23.17-20.74-31.51c-16.82-9.99-17.71-27.94-14.49-37.31,3.22-9.37-4.73-10.08-8.26-23.25-3.52-13.17-3.55-18.55,2.54-27.87,6.1-9.32,8.45-20.54,3.24-31.84-5.21-11.3-7.69-18.96,0-27.12,7.69-8.16,32.92-35.9,29-42.85-3.92-6.95-47.47,39.94-51.3,44.96-3.83,5.02-3.97,17.5,4.24,30.09,8.21,12.6,10.11,21.55,1.9,31.92-8.21,10.36-11.43,14.75-3.62,26.57,7.81,11.82,12.44,14.75,5.33,23.1-7.11,8.35-8.36,18.85-3.77,30.84-11.58-10.36-6.4-25.85-2.48-31.97,3.92-6.12-1.01-16.26-7.14-23.04-6.13-6.78-1.9-19.24,3.65-30.7,5.55-11.47,1.13-12.38-4.35-25.22-5.48-12.84-3.29-15.1-1.33-23.51-25.22,25.58-35.24,32.13-37.36,39.21-2.11,7.08-1.87,22.19,4.54,30.18,6.4,7.99,15.93,14.53,11.67,25.52-4.26,11-6.47,25.11,6.47,35.8-17.04-4.49-16.06-23.9-13.36-33.02s3.74-12.32-6.53-20.67c-10.26-8.35-14.22-21.06-11.52-28.91-20.31,17.5-38.57,34.83-40.2,39.68-1.62,4.85,.64,2.15,8.27,15.85,7.63,13.7,10.66,24.31-1.65,32.63,4.47-12.9,5.73-20.42-1.01-27.54-6.74-7.11-12.81-15.19-12.81-15.19l-47.59,36.76,208.65-208.66Zm0,0H22.96s23.17,6.71,31.51,20.74c9.99,16.82,27.94,17.71,37.31,14.49,9.37-3.22,10.08,4.73,23.25,8.26s18.55,3.55,27.87-2.54c9.32-6.1,20.54-8.45,31.84-3.24,11.3,5.21,18.96,7.69,27.12,0,8.16-7.69,35.9-32.92,42.85-29,6.95,3.92-39.94,47.47-44.96,51.3s-17.5,3.97-30.09-4.24c-12.6-8.21-21.55-10.11-31.92-1.9-10.36,8.21-14.75,11.43-26.57,3.62-11.82-7.81-14.75-12.44-23.1-5.33-8.35,7.11-18.85,8.36-30.84,3.77,10.36,11.58,25.85,6.4,31.97,2.48,6.12-3.92,16.26,1.01,23.04,7.14,6.78,6.13,19.24,1.9,30.7-3.65,11.47-5.55,12.38-1.13,25.22,4.35,12.84,5.48,15.1,3.3,23.51,1.33-25.58,25.22-32.13,35.24-39.21,37.36-7.08,2.11-22.19,1.87-30.18-4.53-7.99-6.4-14.53-15.93-25.52-11.67-11,4.26-25.11,6.47-35.8-6.47,4.49,17.04,23.9,16.06,33.02,13.36,9.12-2.7,12.32-3.74,20.67,6.53,8.35,10.26,21.06,14.22,28.91,11.52-17.5,20.31-34.83,38.57-39.68,40.2-4.85,1.62-2.15-.64-15.85-8.27-13.7-7.63-24.31-10.66-32.63,1.65,12.9-4.47,20.42-5.73,27.54,1.01,7.11,6.74,15.19,12.81,15.19,12.81l-36.76,47.59,208.66-208.65Zm0,0h247.05s-23.17,6.71-31.51,20.74c-9.99,16.82-27.94,17.71-37.31,14.49-9.37-3.22-10.08,4.73-23.25,8.26s-18.55,3.55-27.87-2.54c-9.32-6.1-20.54-8.45-31.84-3.24-11.3,5.21-18.96,7.69-27.12,0-8.16-7.69-35.9-32.92-42.85-29-6.95,3.92,39.94,47.47,44.96,51.3s17.5,3.97,30.09-4.24c12.6-8.21,21.55-10.11,31.92-1.9,10.36,8.21,14.75,11.43,26.57,3.62,11.82-7.81,14.75-12.44,23.1-5.33,8.35,7.11,18.85,8.36,30.84,3.77-10.36,11.58-25.85,6.4-31.97,2.48-6.12-3.92-16.26,1.01-23.04,7.14-6.78,6.13-19.24,1.9-30.7-3.65s-12.38-1.13-25.22,4.35c-12.84,5.48-15.1,3.3-23.51,1.33,25.58,25.22,32.13,35.24,39.21,37.36,7.08,2.11,22.19,1.87,30.18-4.53,7.99-6.4,14.53-15.93,25.52-11.67,11,4.26,25.11,6.47,35.8-6.47-4.49,17.04-23.9,16.06-33.02,13.36-9.12-2.7-12.32-3.74-20.67,6.53-8.35,10.26-21.06,14.22-28.91,11.52,17.5,20.31,34.83,38.57,39.68,40.2,4.85,1.62,2.15-.64,15.85-8.27,13.7-7.63,24.31-10.66,32.63,1.65-12.9-4.47-20.42-5.73-27.54,1.01-7.11,6.74-15.19,12.81-15.19,12.81l36.76,47.59-208.66-208.65Zm0,0v247.05s6.71-23.17,20.74-31.51c16.82-9.99,17.71-27.94,14.49-37.31-3.22-9.37,4.73-10.08,8.26-23.25,3.52-13.17,3.55-18.55-2.54-27.87-6.1-9.32-8.45-20.54-3.24-31.84,5.21-11.3,7.69-18.96,0-27.12-7.69-8.16-32.92-35.9-29-42.85,3.92-6.95,47.47,39.94,51.3,44.96,3.83,5.02,3.97,17.5-4.24,30.09-8.21,12.6-10.11,21.55-1.9,31.92,8.21,10.36,11.43,14.75,3.62,26.57-7.81,11.82-12.44,14.75-5.33,23.1,7.11,8.35,8.36,18.85,3.77,30.84,11.58-10.36,6.4-25.85,2.48-31.97-3.92-6.12,1.01-16.26,7.14-23.04,6.13-6.78,1.9-19.24-3.65-30.7-5.55-11.47-1.13-12.38,4.35-25.22,5.48-12.84,3.29-15.1,1.33-23.51,25.22,25.58,35.24,32.13,37.36,39.21,2.11,7.08,1.87,22.19-4.54,30.18-6.4,7.99-15.93,14.53-11.67,25.52,4.26,11,6.47,25.11-6.47,35.8,17.04-4.49,16.06-23.9,13.36-33.02-2.7-9.12-3.74-12.32,6.53-20.67,10.26-8.35,14.22-21.06,11.52-28.91,20.31,17.5,38.57,34.83,40.2,39.68,1.62,4.85-.64,2.15-8.27,15.85-7.63,13.7-10.66,24.31,1.65,32.63-4.47-12.9-5.73-20.42,1.01-27.54,6.74-7.11,12.81-15.19,12.81-15.19l47.59,36.76-208.65-208.66Z"/></g><g id="path7248"><path class="cls-1" d="M270,38.1V229.19s4.65-92.89,0-191.09Zm231.91,231.91h-191.09s92.89-4.65,191.09,0Zm-463.81,0H229.19s-92.89-4.65-191.09,0ZM270.01,38.1V229.19s-4.65-92.89,0-191.09Zm0,463.81v-191.09s-4.65,92.89,0,191.09h0ZM38.1,270H229.19s-92.89,4.65-191.09,0Zm463.81,0h-191.09s92.89,4.65,191.09,0Zm-231.91,231.91v-191.09s4.65,92.89,0,191.09Z"/></g><g id="path7250"><path class="cls-1" d="M271.31,97.45s9.01-19.31,23.46-22.51c-8.45,5.2-18.29,14.42-23.85,30.42-.11-3.64,.39-7.91,.39-7.91Zm171.24,171.24s19.31-9.01,22.51-23.46c-5.2,8.45-14.42,18.29-30.42,23.85,3.64,.11,7.91-.39,7.91-.39Zm-345.1,0s-19.31-9.01-22.51-23.46c5.2,8.45,14.42,18.29,30.42,23.85-3.64,.11-7.91-.39-7.91-.39ZM268.69,97.45s-9.01-19.31-23.46-22.51c8.45,5.2,18.29,14.42,23.85,30.42,.11-3.64-.39-7.91-.39-7.91Zm0,345.1s-9.01,19.31-23.46,22.51c8.45-5.2,18.29-14.42,23.85-30.42,.11,3.64-.39,7.91-.39,7.91ZM97.45,271.31s-19.31,9.01-22.51,23.46c5.2-8.45,14.42-18.29,30.42-23.85-3.64-.11-7.91,.39-7.91,.39Zm345.1,0s19.31,9.01,22.51,23.46c-5.2-8.45-14.42-18.29-30.42-23.85,3.64-.11,7.91,.39,7.91,.39Zm-171.24,171.24s9.01,19.31,23.46,22.51c-8.45-5.2-18.29-14.42-23.85-30.42-.11,3.64,.39,7.91,.39,7.91Z"/></g><g id="path7252"><path class="cls-1" d="M270.62,69.63s6.53-15.14,14.74-14.73c-5.16,1.58-12.88,9.14-14.84,20.58,.02-3.11,.1-5.85,.1-5.85h0Zm199.76,199.76s15.14-6.53,14.73-14.74c-1.58,5.16-9.14,12.88-20.58,14.84,3.11-.02,5.85-.1,5.85-.1h0Zm-400.74,0s-15.14-6.53-14.73-14.74c1.58,5.16,9.14,12.88,20.58,14.84-3.11-.02-5.85-.1-5.85-.1h0ZM269.39,69.63s-6.53-15.14-14.74-14.73c5.16,1.58,12.88,9.14,14.84,20.58-.02-3.11-.1-5.85-.1-5.85h0Zm0,400.74s-6.53,15.14-14.74,14.73c5.16-1.58,12.88-9.14,14.84-20.58-.02,3.11-.1,5.85-.1,5.85h0ZM69.63,270.62s-15.14,6.53-14.73,14.74c1.58-5.16,9.14-12.88,20.58-14.84-3.11,.02-5.85,.1-5.85,.1h0Zm400.74,0s15.14,6.53,14.73,14.74c-1.58-5.16-9.14-12.88-20.58-14.84,3.11,.02,5.85,.1,5.85,.1h0Zm-199.76,199.76s6.53,15.14,14.74,14.73c-5.16-1.58-12.88-9.14-14.84-20.58,.02,3.11,.1,5.85,.1,5.85h0Z"/></g><g id="path7254"><path class="cls-1" d="M271.31,136.76s16.62-25.36,31.07-28.55c-8.45,5.2-25.89,20.46-31.46,36.47-.11-3.64,.39-7.91,.39-7.91Zm131.92,131.92s25.36-16.62,28.55-31.07c-5.2,8.45-20.46,25.89-36.47,31.46,3.64,.11,7.91-.39,7.91-.39Zm-266.47,0s-25.36-16.62-28.55-31.07c5.2,8.45,20.46,25.89,36.47,31.46-3.64,.11-7.91-.39-7.91-.39Zm131.92-131.92s-16.62-25.36-31.07-28.55c8.45,5.2,25.89,20.46,31.46,36.47,.11-3.64-.39-7.91-.39-7.91Zm0,266.47s-16.62,25.36-31.07,28.55c8.45-5.2,25.89-20.46,31.46-36.47,.11,3.64-.39,7.91-.39,7.91Zm-131.92-131.92s-25.36,16.62-28.55,31.07c5.2-8.45,20.46-25.89,36.47-31.46-3.64-.11-7.91,.39-7.91,.39Zm266.47,0s25.36,16.62,28.55,31.07c-5.2-8.45-20.46-25.89-36.47-31.46,3.64-.11,7.91,.39,7.91,.39Zm-131.92,131.92s16.62,25.36,31.07,28.55c-8.45-5.2-25.89-20.46-31.46-36.47-.11,3.64,.39,7.91,.39,7.91Z"/></g><g id="path7256"><path class="cls-1" d="M271.31,173.25s16.62-25.36,31.07-28.55c-8.45,5.2-25.89,20.46-31.46,36.47-.11-3.64,.39-7.91,.39-7.91Zm95.44,95.44s25.36-16.62,28.55-31.07c-5.2,8.45-20.46,25.89-36.46,31.46,3.64,.11,7.91-.39,7.91-.39Zm-193.51,0s-25.36-16.62-28.55-31.07c5.2,8.45,20.46,25.89,36.46,31.46-3.64,.11-7.91-.39-7.91-.39Zm95.44-95.44s-16.62-25.36-31.07-28.55c8.45,5.2,25.89,20.46,31.46,36.47,.11-3.64-.39-7.91-.39-7.91Zm0,193.51s-16.62,25.36-31.07,28.55c8.45-5.2,25.89-20.46,31.46-36.47,.11,3.64-.39,7.91-.39,7.91Zm-95.44-95.44s-25.36,16.62-28.55,31.07c5.2-8.45,20.46-25.89,36.46-31.46-3.64-.11-7.91,.39-7.91,.39Zm193.51,0s25.36,16.62,28.55,31.07c-5.2-8.45-20.46-25.89-36.47-31.46,3.64-.11,7.91,.39,7.91,.39Zm-95.44,95.44s16.62,25.36,31.07,28.55c-8.45-5.2-25.89-20.46-31.46-36.47-.11,3.64,.39,7.91,.39,7.91Z"/></g><g id="path7258"><path class="cls-1" d="M271.31,203.42s5.81-19.76,20.26-22.96c-8.45,5.2-15.08,14.87-20.65,30.87-.11-3.64,.39-7.91,.39-7.91Zm65.27,65.27s19.76-5.81,22.96-20.26c-5.2,8.45-14.87,15.08-30.87,20.65,3.64,.11,7.91-.39,7.91-.39Zm-133.17,0s-19.76-5.81-22.96-20.26c5.2,8.45,14.87,15.08,30.87,20.65-3.64,.11-7.91-.39-7.91-.39Zm65.27-65.27s-5.81-19.76-20.26-22.96c8.45,5.2,15.08,14.87,20.65,30.87,.11-3.64-.39-7.91-.39-7.91Zm0,133.17s-5.81,19.76-20.26,22.96c8.45-5.2,15.08-14.87,20.65-30.87,.11,3.64-.39,7.91-.39,7.91Zm-65.27-65.27s-19.76,5.81-22.96,20.26c5.2-8.45,14.87-15.08,30.87-20.65-3.64-.11-7.91,.39-7.91,.39Zm133.17,0s19.76,5.81,22.96,20.26c-5.2-8.45-14.87-15.08-30.87-20.65,3.64-.11,7.91,.39,7.91,.39Zm-65.27,65.27s5.81,19.76,20.26,22.96c-8.45-5.2-15.08-14.87-20.65-30.87-.11,3.64,.39,7.91,.39,7.91Z"/></g><g id="path7260"><path class="cls-2" d="M350.4,132.64c-2.65-4.13-5.78-2.07-8.63,3.89s-3.4,11.4,.72,15.24c4.12,3.85,13.5,3.96,18.29-1.78,4.8-5.73,4.89-13.59,1.61-17.12-3.28-3.53-5.87-4.41-6.79-.61-.92,3.8,1.44,4.11,1.98,9.8,.54,5.69-.66,8.9-5.35,9-4.69,.1-6.28-4.63-4.84-7.61s4.06-6.42,3-10.82h0Zm56.97,56.97c4.13,2.65,2.07,5.78-3.89,8.63-5.95,2.85-11.4,3.4-15.24-.72-3.85-4.12-3.96-13.5,1.78-18.29,5.73-4.8,13.59-4.89,17.12-1.61,3.53,3.28,4.41,5.87,.61,6.79s-4.11-1.44-9.8-1.98c-5.69-.54-8.9,.66-9,5.35-.1,4.69,4.63,6.28,7.61,4.84,2.98-1.44,6.42-4.06,10.82-3h0Zm-274.72,0c-4.13,2.65-2.07,5.78,3.89,8.63,5.95,2.85,11.4,3.4,15.24-.72,3.84-4.12,3.96-13.5-1.78-18.29-5.73-4.8-13.59-4.89-17.12-1.61-3.53,3.28-4.41,5.87-.61,6.79s4.11-1.44,9.8-1.98c5.69-.54,8.9,.66,9,5.35,.1,4.69-4.63,6.28-7.61,4.84-2.98-1.44-6.42-4.06-10.82-3h0Zm56.97-56.97c2.65-4.13,5.78-2.07,8.63,3.89s3.4,11.4-.72,15.24c-4.12,3.85-13.5,3.96-18.29-1.78-4.8-5.73-4.89-13.59-1.61-17.12,3.28-3.53,5.87-4.41,6.79-.61s-1.44,4.11-1.98,9.8c-.54,5.69,.66,8.9,5.35,9,4.69,.1,6.28-4.63,4.84-7.61s-4.06-6.42-3-10.82h0Zm0,274.72c2.65,4.13,5.78,2.07,8.63-3.89s3.4-11.4-.72-15.24c-4.12-3.84-13.5-3.96-18.29,1.78-4.8,5.73-4.89,13.59-1.61,17.12,3.28,3.53,5.87,4.41,6.79,.61s-1.44-4.11-1.98-9.8,.66-8.9,5.35-9c4.69-.1,6.28,4.63,4.84,7.61-1.44,2.98-4.06,6.42-3,10.82h0Zm-56.97-56.97c-4.13-2.65-2.07-5.78,3.89-8.63,5.95-2.85,11.4-3.4,15.24,.72,3.84,4.12,3.96,13.5-1.78,18.29-5.73,4.8-13.59,4.89-17.12,1.61-3.53-3.28-4.41-5.87-.61-6.79s4.11,1.44,9.8,1.98c5.69,.54,8.9-.66,9-5.35s-4.63-6.28-7.61-4.84c-2.98,1.44-6.42,4.06-10.82,3h0Zm274.72,0c4.13-2.65,2.07-5.78-3.89-8.63-5.95-2.85-11.4-3.4-15.24,.72-3.84,4.12-3.96,13.5,1.78,18.29,5.73,4.8,13.59,4.89,17.12,1.61,3.53-3.28,4.41-5.87,.61-6.79-3.8-.92-4.11,1.44-9.8,1.98-5.69,.54-8.9-.66-9-5.35-.1-4.69,4.63-6.28,7.61-4.84,2.98,1.44,6.42,4.06,10.82,3h0Zm-56.97,56.97c-2.65,4.13-5.78,2.07-8.63-3.89s-3.4-11.4,.72-15.24c4.12-3.84,13.5-3.96,18.29,1.78,4.8,5.73,4.89,13.59,1.61,17.12-3.28,3.53-5.87,4.41-6.79,.61-.92-3.8,1.44-4.11,1.98-9.8,.54-5.69-.66-8.9-5.35-9-4.69-.1-6.28,4.63-4.84,7.61,1.44,2.98,4.06,6.42,3,10.82h0Z"/></g><g id="path7262"><path class="cls-2" d="M354.01,135.7c-1.59,.24-5.18,6.08-5.19,9.59-.02,3.51,1.14,5.22,4.31,4.7,3.16-.52,3.36-4.04,3.13-6.58-.23-2.54-1.09-7.64-2.24-7.71h0Zm50.29,50.29c-.24,1.59-6.08,5.18-9.59,5.19-3.51,.02-5.22-1.14-4.7-4.31,.52-3.16,4.04-3.36,6.58-3.13,2.54,.23,7.64,1.09,7.71,2.24h0Zm-268.61,0c.24,1.59,6.08,5.18,9.59,5.19,3.51,.02,5.22-1.14,4.7-4.31-.52-3.16-4.04-3.36-6.58-3.13-2.54,.23-7.64,1.09-7.71,2.24h0Zm50.29-50.29c1.59,.24,5.18,6.08,5.19,9.59,.02,3.51-1.14,5.22-4.3,4.7-3.16-.52-3.36-4.04-3.13-6.58,.23-2.54,1.09-7.64,2.24-7.71h0Zm0,268.61c1.59-.24,5.18-6.08,5.19-9.59,.02-3.51-1.14-5.22-4.3-4.7s-3.36,4.04-3.13,6.58c.23,2.54,1.09,7.64,2.24,7.71h0Zm-50.29-50.29c.24-1.59,6.08-5.18,9.59-5.19,3.51-.02,5.22,1.14,4.7,4.3-.52,3.16-4.04,3.36-6.58,3.13-2.54-.23-7.64-1.09-7.71-2.24h0Zm268.61,0c-.24-1.59-6.08-5.18-9.59-5.19-3.51-.02-5.22,1.14-4.7,4.3,.52,3.16,4.04,3.36,6.58,3.13,2.54-.23,7.64-1.09,7.71-2.24h0Zm-50.29,50.29c-1.59-.24-5.18-6.08-5.19-9.59-.02-3.51,1.14-5.22,4.31-4.7s3.36,4.04,3.13,6.58c-.23,2.54-1.09,7.64-2.24,7.71h0Z"/></g><g id="path7264"><path class="cls-2" d="M387.11,82.08c-4.81-2.46-10.72,4.76-8.32,13.56,2.4,8.81,12.74,13.08,18.89,9.71s12.63-10.89,9.49-18.63c-3.14-7.74-4.85-12.26-8.69-9.78s-4.16,6.43-.63,10.99c3.53,4.56,3.81,12.94-2.04,14.23-5.85,1.29-10.75-4.64-10.4-8.5,.35-3.86,3.38-6.98,1.69-11.58Zm70.82,70.82c2.46,4.81-4.76,10.72-13.56,8.32-8.81-2.41-13.08-12.74-9.71-18.89,3.37-6.15,10.89-12.63,18.63-9.49,7.74,3.14,12.26,4.85,9.78,8.69s-6.43,4.16-10.99,.63c-4.56-3.53-12.94-3.81-14.23,2.04-1.29,5.85,4.64,10.75,8.5,10.4,3.86-.35,6.98-3.38,11.58-1.69Zm-375.85,0c-2.46,4.81,4.76,10.72,13.56,8.32,8.81-2.41,13.08-12.74,9.71-18.89-3.37-6.15-10.89-12.63-18.63-9.49-7.74,3.14-12.26,4.85-9.78,8.69s6.43,4.16,10.99,.63,12.94-3.81,14.23,2.04c1.29,5.85-4.64,10.75-8.5,10.4-3.86-.35-6.98-3.38-11.58-1.69Zm70.82-70.82c4.81-2.46,10.72,4.76,8.32,13.56-2.4,8.81-12.74,13.08-18.89,9.71s-12.63-10.89-9.49-18.63c3.14-7.74,4.85-12.26,8.69-9.78,3.84,2.48,4.16,6.43,.63,10.99-3.53,4.56-3.81,12.94,2.04,14.23s10.75-4.64,10.4-8.5c-.35-3.86-3.38-6.98-1.69-11.58Zm0,375.85c4.81,2.46,10.73-4.76,8.32-13.56-2.4-8.81-12.74-13.08-18.89-9.71-6.15,3.37-12.63,10.89-9.49,18.63,3.14,7.74,4.85,12.26,8.69,9.78,3.84-2.48,4.16-6.43,.63-10.99-3.53-4.56-3.81-12.94,2.04-14.23,5.85-1.29,10.75,4.64,10.4,8.5-.35,3.86-3.38,6.98-1.69,11.58Zm-70.82-70.82c-2.46-4.81,4.76-10.72,13.56-8.32,8.81,2.4,13.08,12.74,9.71,18.89-3.37,6.15-10.89,12.63-18.63,9.49-7.74-3.14-12.26-4.85-9.78-8.69,2.48-3.84,6.43-4.16,10.99-.63,4.56,3.53,12.94,3.81,14.23-2.04,1.29-5.85-4.64-10.75-8.5-10.4-3.86,.35-6.98,3.38-11.58,1.69Zm375.85,0c2.46-4.81-4.76-10.72-13.56-8.32-8.81,2.4-13.08,12.74-9.71,18.89,3.37,6.15,10.89,12.63,18.63,9.49,7.74-3.14,12.26-4.85,9.78-8.69-2.48-3.83-6.43-4.16-10.99-.63-4.56,3.53-12.94,3.81-14.23-2.04-1.29-5.85,4.64-10.75,8.5-10.4,3.86,.35,6.98,3.38,11.58,1.69Zm-70.82,70.82c-4.81,2.46-10.72-4.76-8.32-13.56s12.74-13.08,18.89-9.71c6.15,3.37,12.63,10.89,9.49,18.63-3.14,7.74-4.85,12.26-8.69,9.78s-4.16-6.43-.63-10.99c3.53-4.56,3.81-12.94-2.04-14.23-5.85-1.29-10.75,4.64-10.4,8.5,.35,3.86,3.38,6.98,1.69,11.58Z"/></g><g id="path7266"><path class="cls-2" d="M392.29,82.05c-1.22,.22-6.19,8.07-4.59,12.77,1.59,4.7,5.62,6.88,7.93,6.19,2.31-.69,3.79-3.56,2.88-7.3s-5.02-12.23-6.22-11.65Zm65.66,65.66c-.22,1.22-8.07,6.19-12.77,4.59-4.7-1.59-6.88-5.62-6.19-7.93s3.56-3.79,7.3-2.88,12.23,5.02,11.65,6.22Zm-375.91,0c.22,1.22,8.07,6.19,12.77,4.59,4.7-1.59,6.88-5.62,6.19-7.93-.69-2.31-3.56-3.79-7.3-2.88s-12.23,5.02-11.65,6.22Zm65.66-65.66c1.22,.22,6.19,8.07,4.59,12.77-1.59,4.7-5.62,6.88-7.93,6.19-2.31-.69-3.79-3.56-2.88-7.3s5.02-12.23,6.22-11.65Zm0,375.91c1.22-.22,6.19-8.07,4.59-12.77-1.59-4.7-5.62-6.88-7.93-6.19-2.31,.69-3.79,3.56-2.88,7.3s5.02,12.23,6.22,11.65h0Zm-65.66-65.66c.22-1.22,8.07-6.19,12.77-4.59,4.7,1.59,6.88,5.62,6.19,7.93-.69,2.31-3.56,3.79-7.3,2.88s-12.23-5.02-11.65-6.22h0Zm375.91,0c-.22-1.22-8.07-6.19-12.77-4.59-4.7,1.59-6.88,5.62-6.19,7.93,.69,2.31,3.56,3.79,7.3,2.88s12.23-5.02,11.65-6.22h0Zm-65.66,65.66c-1.22-.22-6.19-8.07-4.59-12.77,1.59-4.7,5.62-6.88,7.93-6.19,2.31,.69,3.79,3.56,2.88,7.3s-5.02,12.23-6.22,11.65h0Z"/></g><g id="path7268"><path class="cls-3" d="M346.49,153.9s.61,3.01,4.28,2.77c6.43,7.05-.22,23.99-.22,23.99l3.88-2.48s4.45-16.7-2.04-21.48c3.59-.95,4.35-4.08,4.35-4.08,0,0-6.51,1.52-10.26,1.28h0Zm39.62,39.62s-3.01-.61-2.77-4.28c-7.05-6.43-23.99,.22-23.99,.22l2.48-3.88s16.7-4.45,21.48,2.04c.95-3.59,4.08-4.35,4.08-4.35,0,0-1.52,6.51-1.28,10.26h0Zm-232.21,0s3.01-.61,2.77-4.28c7.05-6.43,23.99,.22,23.99,.22l-2.48-3.88s-16.7-4.45-21.48,2.04c-.95-3.59-4.08-4.35-4.08-4.35,0,0,1.52,6.51,1.28,10.26h0Zm39.62-39.62s-.61,3.01-4.28,2.77c-6.43,7.05,.22,23.99,.22,23.99l-3.88-2.48s-4.45-16.7,2.04-21.48c-3.59-.95-4.36-4.08-4.36-4.08,0,0,6.51,1.52,10.26,1.28h0Zm0,232.21s-.61-3.01-4.28-2.77c-6.43-7.05,.22-23.99,.22-23.99l-3.88,2.48s-4.45,16.7,2.04,21.48c-3.59,.95-4.36,4.08-4.36,4.08,0,0,6.51-1.52,10.26-1.28h0Zm-39.62-39.62s3.01,.61,2.77,4.28c7.05,6.43,23.99-.22,23.99-.22l-2.48,3.88s-16.7,4.45-21.48-2.04c-.95,3.59-4.08,4.35-4.08,4.35,0,0,1.52-6.51,1.28-10.26h0Zm232.21,0s-3.01,.61-2.77,4.28c-7.05,6.43-23.99-.22-23.99-.22l2.47,3.88s16.7,4.45,21.48-2.04c.95,3.59,4.08,4.35,4.08,4.35,0,0-1.52-6.51-1.28-10.26h0Zm-39.62,39.62s.61-3.01,4.28-2.77c6.43-7.05-.22-23.99-.22-23.99l3.88,2.48s4.45,16.7-2.04,21.48c3.59,.95,4.36,4.08,4.36,4.08,0,0-6.51-1.52-10.26-1.28h0Z"/></g><g id="path7270"><path class="cls-3" d="M395.22,105.94s2.55,1.63,6.32-.79c8.17,2.28,7.32,16.66,7.32,16.66l2.81-2.02s-.8-14.17-8.07-15.95c1.84-2.23,1.18-5.09,1.18-5.09,0,0-6.42,6.6-9.55,7.18Zm38.84,38.84s-1.63-2.55,.79-6.32c-2.28-8.17-16.66-7.32-16.66-7.32l2.02-2.81s14.17,.8,15.95,8.07c2.23-1.84,5.09-1.18,5.09-1.18,0,0-6.6,6.42-7.18,9.55Zm-328.12,0s1.63-2.55-.79-6.32c2.28-8.17,16.66-7.32,16.66-7.32l-2.02-2.81s-14.17,.8-15.95,8.07c-2.23-1.84-5.09-1.18-5.09-1.18,0,0,6.6,6.42,7.18,9.55Zm38.84-38.84s-2.55,1.63-6.32-.79c-8.17,2.28-7.32,16.66-7.32,16.66l-2.81-2.02s.8-14.17,8.07-15.95c-1.84-2.23-1.18-5.09-1.18-5.09,0,0,6.42,6.6,9.55,7.18Zm0,328.12s-2.55-1.63-6.32,.79c-8.17-2.28-7.32-16.66-7.32-16.66l-2.81,2.02s.8,14.17,8.07,15.95c-1.84,2.23-1.18,5.09-1.18,5.09,0,0,6.42-6.6,9.55-7.18h0Zm-38.84-38.84s1.63,2.55-.79,6.32c2.28,8.17,16.66,7.32,16.66,7.32l-2.02,2.81s-14.17-.8-15.95-8.07c-2.23,1.84-5.09,1.18-5.09,1.18,0,0,6.6-6.42,7.18-9.55h0Zm328.12,0s-1.63,2.55,.79,6.32c-2.28,8.17-16.66,7.32-16.66,7.32l2.02,2.81s14.17-.8,15.95-8.07c2.23,1.84,5.09,1.18,5.09,1.18,0,0-6.6-6.42-7.18-9.55h0Zm-38.84,38.84s2.55-1.63,6.32,.79c8.17-2.28,7.32-16.66,7.32-16.66l2.81,2.02s-.8,14.17-8.07,15.95c1.84,2.23,1.18,5.09,1.18,5.09,0,0-6.42-6.6-9.55-7.18h0Z"/></g><g id="path7272"><path class="cls-3" d="M334.26,116.55s-1.26-13.08,5.29-17.85c6.54-4.77,17.44,2.85,14.49,10.76-2.95,7.91-9.92,4.66-9.92,4.66,0,0,6.33,1.01,7.13-2.98s1.19-9.61-4.46-9.86c-5.66-.25-7.24-.9-8.06,3.94s-1.84,13.6-1.84,13.6l-2.62-2.26Zm89.19,89.19s13.08,1.26,17.85-5.29c4.77-6.54-2.85-17.44-10.76-14.49-7.91,2.95-4.66,9.92-4.66,9.92,0,0-1.01-6.33,2.98-7.13,4-.8,9.61-1.19,9.86,4.46,.25,5.65,.9,7.24-3.94,8.06-4.83,.82-13.6,1.84-13.6,1.84l2.26,2.62Zm-306.9,0s-13.08,1.26-17.85-5.29c-4.78-6.54,2.85-17.44,10.76-14.49,7.91,2.95,4.66,9.92,4.66,9.92,0,0,1.01-6.33-2.98-7.13-4-.8-9.61-1.19-9.86,4.46s-.9,7.24,3.94,8.06c4.83,.82,13.6,1.84,13.6,1.84l-2.26,2.62Zm89.19-89.19s1.26-13.08-5.29-17.85c-6.54-4.77-17.44,2.85-14.49,10.76s9.92,4.66,9.92,4.66c0,0-6.33,1.01-7.13-2.98-.8-4-1.19-9.61,4.46-9.86,5.65-.25,7.24-.9,8.06,3.94,.82,4.83,1.84,13.6,1.84,13.6l2.62-2.26Zm0,306.9s1.26,13.08-5.29,17.85c-6.54,4.78-17.44-2.85-14.49-10.76,2.95-7.91,9.92-4.66,9.92-4.66,0,0-6.33-1.01-7.13,2.98-.8,4-1.19,9.61,4.46,9.86,5.65,.25,7.24,.9,8.06-3.94,.82-4.83,1.84-13.6,1.84-13.6l2.62,2.26Zm-89.19-89.19s-13.08-1.26-17.85,5.29c-4.78,6.54,2.85,17.44,10.76,14.49,7.91-2.95,4.66-9.92,4.66-9.92,0,0,1.01,6.33-2.98,7.13-4,.8-9.61,1.19-9.86-4.46s-.9-7.24,3.94-8.06c4.83-.82,13.6-1.84,13.6-1.84l-2.26-2.62Zm306.9,0s13.08-1.26,17.85,5.29c4.77,6.54-2.85,17.44-10.76,14.49-7.91-2.95-4.66-9.92-4.66-9.92,0,0-1.01,6.33,2.98,7.13,4,.8,9.61,1.19,9.86-4.46,.25-5.65,.9-7.24-3.94-8.06-4.83-.82-13.6-1.84-13.6-1.84l2.26-2.62Zm-89.19,89.19s-1.26,13.08,5.29,17.85c6.54,4.78,17.44-2.85,14.49-10.76-2.95-7.91-9.92-4.66-9.92-4.66,0,0,6.33-1.01,7.13,2.98,.8,4,1.19,9.61-4.46,9.86-5.66,.25-7.24,.9-8.06-3.94-.82-4.83-1.84-13.6-1.84-13.6l-2.62,2.26Z"/></g><g id="path7274"><path class="cls-3" d="M375.58,122.82s-.45-10.35,9.69-9.65c10.14,.7,9.97,11.03,8.21,13.39-1.75,2.36-6.43,1.09-6.43,1.09,0,0,4.85-1.38,4.68-4.68-.17-3.29-3.79-6.26-7.8-5.96-4.01,.29-6.04,9.16-6.04,9.16l-2.3-3.35Zm41.61,41.6s10.35,.46,9.65-9.68c-.7-10.14-11.03-9.97-13.39-8.21-2.36,1.75-1.09,6.43-1.09,6.43,0,0,1.38-4.85,4.68-4.68,3.29,.17,6.26,3.79,5.96,7.8-.29,4.01-9.16,6.04-9.16,6.04l3.35,2.3Zm-294.37,0s-10.35,.46-9.65-9.68c.7-10.14,11.03-9.97,13.39-8.21,2.36,1.75,1.09,6.43,1.09,6.43,0,0-1.38-4.85-4.68-4.68s-6.26,3.79-5.96,7.8c.29,4.01,9.16,6.04,9.16,6.04l-3.35,2.3Zm41.61-41.6s.45-10.35-9.68-9.65c-10.14,.7-9.97,11.03-8.21,13.39,1.75,2.36,6.43,1.09,6.43,1.09,0,0-4.85-1.38-4.68-4.68,.17-3.29,3.79-6.26,7.8-5.96s6.05,9.16,6.05,9.16l2.3-3.35Zm0,294.37s.45,10.35-9.68,9.65c-10.14-.7-9.97-11.03-8.21-13.39,1.75-2.36,6.43-1.09,6.43-1.09,0,0-4.85,1.38-4.68,4.68,.17,3.29,3.79,6.26,7.8,5.96,4.01-.29,6.05-9.16,6.05-9.16l2.3,3.35Zm-41.61-41.6s-10.35-.45-9.65,9.68c.7,10.14,11.03,9.97,13.39,8.21,2.36-1.76,1.09-6.43,1.09-6.43,0,0-1.38,4.85-4.68,4.68-3.29-.17-6.26-3.79-5.96-7.8,.29-4.01,9.16-6.05,9.16-6.05l-3.35-2.3Zm294.37,0s10.35-.45,9.65,9.68c-.7,10.14-11.03,9.97-13.39,8.21-2.36-1.76-1.09-6.43-1.09-6.43,0,0,1.38,4.85,4.68,4.68,3.29-.17,6.26-3.79,5.96-7.8-.29-4.01-9.16-6.05-9.16-6.05l3.35-2.3Zm-41.61,41.61s-.45,10.35,9.68,9.65c10.14-.7,9.97-11.03,8.21-13.39-1.75-2.36-6.43-1.09-6.43-1.09,0,0,4.85,1.38,4.68,4.68-.17,3.29-3.79,6.26-7.8,5.96-4.01-.29-6.04-9.16-6.04-9.16l-2.3,3.35Z"/></g><g id="path7276"><path class="cls-3" d="M364.97,76.92s7.54-.16,7.91-5.09c.37-4.93-2.67-11.91-2.67-11.91,0,0,4.94,1.52,5.44,7,.5,5.48-.32,10.27-3.01,11.73s-7.6,2.94-7.6,2.94l-.07-4.68Zm98.12,98.12s.16-7.54,5.09-7.91c4.93-.37,11.91,2.66,11.91,2.66,0,0-1.52-4.94-7-5.44-5.48-.5-10.27,.32-11.73,3.01-1.46,2.69-2.94,7.6-2.94,7.6l4.68,.07Zm-386.17,0s-.16-7.54-5.09-7.91c-4.93-.37-11.91,2.66-11.91,2.66,0,0,1.52-4.94,7-5.44,5.48-.5,10.27,.32,11.73,3.01,1.46,2.69,2.94,7.6,2.94,7.6l-4.68,.07Zm98.12-98.12s-7.54-.16-7.91-5.09c-.37-4.93,2.66-11.91,2.66-11.91,0,0-4.94,1.52-5.44,7-.5,5.48,.32,10.27,3.01,11.73s7.61,2.94,7.61,2.94l.06-4.68Zm0,386.17s-7.54,.16-7.91,5.09c-.37,4.93,2.67,11.91,2.67,11.91,0,0-4.94-1.52-5.44-7-.5-5.48,.32-10.27,3.01-11.73,2.69-1.46,7.6-2.94,7.6-2.94l.07,4.68Zm-98.12-98.12s-.16,7.54-5.09,7.91c-4.93,.37-11.91-2.66-11.91-2.66,0,0,1.52,4.94,7,5.44,5.48,.5,10.27-.32,11.73-3.01,1.46-2.69,2.94-7.6,2.94-7.6l-4.68-.07Zm386.17,0s.16,7.54,5.09,7.91c4.93,.37,11.91-2.66,11.91-2.66,0,0-1.52,4.94-7,5.44-5.48,.5-10.27-.32-11.73-3.01-1.46-2.69-2.94-7.6-2.94-7.6l4.68-.07Zm-98.12,98.12s7.54,.16,7.91,5.09c.37,4.93-2.67,11.91-2.67,11.91,0,0,4.94-1.52,5.44-7,.5-5.48-.32-10.27-3.01-11.73-2.69-1.46-7.6-2.94-7.6-2.94l-.07,4.68Z"/></g><g id="path7278"><path class="cls-3" d="M363.08,84.09s-7.67-14.23-14.95-12.63c-7.28,1.6-9.32,15.12-9.32,15.12,0,0,4.72-11.58,9.36-11.4,4.64,.18,14.93,15.34,14.93,15.34l-.02-6.43Zm92.83,92.83s14.23,7.67,12.63,14.95c-1.6,7.28-15.12,9.32-15.12,9.32,0,0,11.58-4.72,11.4-9.36-.18-4.64-15.34-14.93-15.34-14.93l6.43,.02Zm-371.83,0s-14.23,7.67-12.63,14.95c1.6,7.28,15.12,9.32,15.12,9.32,0,0-11.58-4.72-11.4-9.36,.18-4.64,15.34-14.93,15.34-14.93l-6.43,.02Zm92.83-92.83s7.67-14.23,14.95-12.63,9.32,15.12,9.32,15.12c0,0-4.72-11.58-9.36-11.4-4.64,.18-14.93,15.34-14.93,15.34l.02-6.43Zm0,371.83s7.67,14.23,14.95,12.63c7.28-1.6,9.32-15.12,9.32-15.12,0,0-4.72,11.58-9.36,11.4-4.64-.18-14.93-15.34-14.93-15.34l.02,6.43Zm-92.83-92.83s-14.23-7.67-12.63-14.95c1.6-7.28,15.12-9.32,15.12-9.32,0,0-11.58,4.72-11.4,9.36,.18,4.64,15.34,14.93,15.34,14.93l-6.43-.02Zm371.83,0s14.23-7.67,12.63-14.95c-1.6-7.28-15.12-9.32-15.12-9.32,0,0,11.58,4.72,11.4,9.36-.18,4.64-15.34,14.93-15.34,14.93l6.43-.02Zm-92.83,92.83s-7.67,14.23-14.95,12.63c-7.28-1.6-9.32-15.12-9.32-15.12,0,0,4.72,11.58,9.36,11.4,4.64-.18,14.93-15.34,14.93-15.34l-.02,6.43Z"/></g><g id="path7280"><path class="cls-3" d="M330.62,73.62s-9.36,.99-12.09-6.78c-2.73-7.78,.74-19.16,5.37-20.85,4.64-1.7,7.93,2.67,7.93,2.67,0,0,.11-5.32-3.62-5.91-3.73-.58-9.68,.21-12.35,4.64-2.66,4.42-5.83,20.31-.22,24.93,5.61,4.62,13.39,4.93,13.39,4.93l1.58-3.63Zm135.76,135.76s-.99,9.36,6.78,12.09c7.78,2.73,19.16-.74,20.85-5.37,1.7-4.64-2.67-7.93-2.67-7.93,0,0,5.32-.11,5.91,3.62,.58,3.73-.21,9.68-4.64,12.35-4.42,2.67-20.31,5.83-24.93,.22-4.62-5.61-4.93-13.39-4.93-13.39l3.62-1.58Zm-392.76,0s.99,9.36-6.78,12.09-19.16-.74-20.85-5.37c-1.7-4.64,2.67-7.93,2.67-7.93,0,0-5.32-.11-5.91,3.62s.21,9.68,4.64,12.35c4.42,2.67,20.31,5.83,24.93,.22,4.62-5.61,4.93-13.39,4.93-13.39l-3.62-1.58ZM209.38,73.62s9.36,.99,12.09-6.78-.74-19.16-5.37-20.85c-4.64-1.7-7.93,2.67-7.93,2.67,0,0-.11-5.32,3.62-5.91,3.73-.58,9.68,.21,12.35,4.64,2.66,4.42,5.83,20.31,.22,24.93-5.61,4.62-13.39,4.93-13.39,4.93l-1.58-3.63Zm0,392.76s9.36-.99,12.09,6.78-.74,19.16-5.37,20.85c-4.64,1.7-7.93-2.67-7.93-2.67,0,0-.11,5.32,3.62,5.91,3.73,.58,9.68-.21,12.35-4.64,2.66-4.42,5.83-20.31,.22-24.93-5.61-4.62-13.39-4.93-13.39-4.93l-1.58,3.62ZM73.62,330.62s.99-9.36-6.78-12.09c-7.78-2.73-19.16,.74-20.85,5.37-1.7,4.64,2.67,7.93,2.67,7.93,0,0-5.32,.11-5.91-3.62-.58-3.73,.21-9.68,4.64-12.35,4.42-2.66,20.31-5.83,24.93-.22,4.62,5.61,4.93,13.39,4.93,13.39l-3.62,1.58Zm392.76,0s-.99-9.36,6.78-12.09c7.78-2.73,19.16,.74,20.85,5.37,1.7,4.64-2.67,7.93-2.67,7.93,0,0,5.32,.11,5.91-3.62,.58-3.73-.21-9.68-4.64-12.35-4.42-2.66-20.31-5.83-24.93-.22-4.62,5.61-4.93,13.39-4.93,13.39l3.62,1.58Zm-135.76,135.76s-9.36-.99-12.09,6.78c-2.73,7.78,.74,19.16,5.37,20.85,4.64,1.7,7.93-2.67,7.93-2.67,0,0,.11,5.32-3.62,5.91s-9.68-.21-12.35-4.64c-2.67-4.42-5.83-20.31-.22-24.93,5.61-4.62,13.39-4.93,13.39-4.93l1.58,3.62Z"/></g><g id="path7282"><path class="cls-3" d="M425.23,94.44s6.13-4.08,4.67-9.11c-1.46-5.03-5.13-6.75-4-12.04,1.13-5.29,2.27-11.01,7.42-12.64,5.15-1.63,14.69,8.24,14.69,8.24,0,0-7.05-5.91-11.67-4.84-4.63,1.08-5.27,2.66-5.65,7.17s-.09,5.29,1.06,8.86c1.15,3.57,2.53,4.73,1.38,7.9-1.15,3.17-5.58,8.39-5.58,8.39l-1.42-3.4-.89,1.47Zm20.34,20.34s4.08-6.13,9.11-4.67,6.75,5.13,12.04,4c5.29-1.13,11.01-2.27,12.64-7.42,1.63-5.15-8.24-14.69-8.24-14.69,0,0,5.91,7.05,4.84,11.67-1.08,4.63-2.66,5.27-7.17,5.65s-5.29,.09-8.86-1.06c-3.57-1.15-4.73-2.53-7.9-1.38-3.17,1.15-8.39,5.58-8.39,5.58l3.4,1.42-1.47,.89Zm-351.12,0s-4.08-6.13-9.11-4.67c-5.03,1.46-6.75,5.13-12.04,4-5.29-1.13-11.01-2.27-12.64-7.42-1.63-5.15,8.24-14.69,8.24-14.69,0,0-5.91,7.05-4.84,11.67,1.07,4.63,2.66,5.27,7.17,5.65,4.51,.38,5.29,.09,8.86-1.06s4.73-2.53,7.9-1.38c3.17,1.15,8.39,5.58,8.39,5.58l-3.4,1.42,1.47,.89Zm20.34-20.34s-6.13-4.08-4.67-9.11c1.46-5.03,5.13-6.75,4-12.04s-2.27-11.01-7.42-12.64c-5.15-1.63-14.69,8.24-14.69,8.24,0,0,7.05-5.91,11.67-4.84,4.63,1.08,5.27,2.66,5.65,7.17,.38,4.51,.09,5.29-1.06,8.86-1.15,3.57-2.53,4.73-1.38,7.9,1.15,3.17,5.58,8.39,5.58,8.39l1.42-3.4,.89,1.47Zm0,351.12s-6.13,4.08-4.67,9.11c1.46,5.03,5.13,6.75,4,12.04s-2.27,11.01-7.42,12.64c-5.15,1.63-14.69-8.24-14.69-8.24,0,0,7.05,5.91,11.67,4.84,4.63-1.07,5.27-2.66,5.65-7.17,.38-4.51,.09-5.29-1.06-8.86-1.15-3.57-2.53-4.73-1.38-7.9,1.15-3.17,5.58-8.39,5.58-8.39l1.42,3.4,.89-1.47Zm-20.34-20.34s-4.08,6.13-9.11,4.67c-5.03-1.46-6.75-5.13-12.04-4s-11.01,2.27-12.64,7.42c-1.63,5.15,8.24,14.69,8.24,14.69,0,0-5.91-7.05-4.84-11.67,1.07-4.63,2.66-5.27,7.17-5.65,4.51-.38,5.29-.09,8.86,1.06,3.57,1.15,4.73,2.53,7.9,1.38,3.17-1.15,8.39-5.58,8.39-5.58l-3.4-1.42,1.47-.89Zm351.12,0s4.08,6.13,9.11,4.67c5.03-1.46,6.75-5.13,12.04-4s11.01,2.27,12.64,7.42c1.63,5.15-8.24,14.69-8.24,14.69,0,0,5.91-7.05,4.84-11.67-1.08-4.63-2.66-5.27-7.17-5.65-4.51-.38-5.29-.09-8.86,1.06-3.57,1.15-4.73,2.53-7.9,1.38-3.17-1.15-8.39-5.58-8.39-5.58l3.4-1.42-1.47-.89Zm-20.34,20.34s6.13,4.08,4.67,9.11c-1.46,5.03-5.13,6.75-4,12.04,1.13,5.29,2.27,11.01,7.42,12.64,5.15,1.63,14.69-8.24,14.69-8.24,0,0-7.05,5.91-11.67,4.84-4.63-1.07-5.27-2.66-5.65-7.17-.38-4.51-.09-5.29,1.06-8.86,1.15-3.57,2.53-4.73,1.38-7.9-1.15-3.17-5.58-8.39-5.58-8.39l-1.42,3.4-.89-1.47Z"/></g><g id="path7284"><path class="cls-3" d="M443.06,89.04s-4.21-6.12-2.08-10.4c2.13-4.29,5.78-2.84,9.67-6.12,3.89-3.28,5.35-6.79,4.38-10.36-.97-3.57-11.2-5.75-11.2-5.75,0,0,7.66-3.27,11.4,.06,3.74,3.32,5.41,11.89,1.64,15.38-3.77,3.49-9.38,3.75-10.72,7.47-1.35,3.72,1.87,8.86,1.87,8.86l-5.35,2.09,.4-1.23Zm7.91,7.91s6.12,4.21,10.4,2.08c4.29-2.13,2.84-5.78,6.12-9.67,3.28-3.89,6.79-5.35,10.36-4.38,3.57,.97,5.75,11.2,5.75,11.2,0,0,3.27-7.66-.06-11.4-3.32-3.74-11.89-5.41-15.38-1.64-3.49,3.77-3.75,9.38-7.47,10.72-3.72,1.35-8.86-1.87-8.86-1.87l-2.09,5.35,1.23-.4Zm-361.93,0s-6.12,4.21-10.4,2.08c-4.29-2.13-2.84-5.78-6.12-9.67-3.28-3.89-6.79-5.35-10.36-4.38-3.57,.97-5.75,11.2-5.75,11.2,0,0-3.27-7.66,.06-11.4,3.32-3.74,11.89-5.41,15.38-1.64,3.49,3.77,3.75,9.38,7.47,10.72,3.72,1.35,8.86-1.87,8.86-1.87l2.09,5.35-1.23-.4Zm7.91-7.91s4.21-6.12,2.08-10.4-5.78-2.84-9.67-6.12c-3.89-3.28-5.35-6.79-4.38-10.36,.97-3.57,11.2-5.75,11.2-5.75,0,0-7.66-3.27-11.4,.06-3.74,3.32-5.41,11.89-1.64,15.38,3.77,3.49,9.38,3.75,10.72,7.47,1.35,3.72-1.87,8.86-1.87,8.86l5.35,2.09-.4-1.23Zm0,361.93s4.21,6.12,2.08,10.4-5.78,2.84-9.67,6.12c-3.89,3.28-5.35,6.79-4.38,10.36,.97,3.57,11.2,5.75,11.2,5.75,0,0-7.66,3.27-11.4-.06-3.74-3.32-5.41-11.89-1.64-15.38,3.77-3.49,9.38-3.75,10.72-7.47,1.35-3.72-1.87-8.86-1.87-8.86l5.35-2.09-.4,1.23Zm-7.91-7.91s-6.12-4.21-10.4-2.08c-4.29,2.13-2.84,5.78-6.12,9.67-3.28,3.89-6.79,5.35-10.36,4.38-3.57-.97-5.75-11.2-5.75-11.2,0,0-3.27,7.66,.06,11.4s11.89,5.41,15.38,1.64c3.49-3.77,3.75-9.38,7.47-10.72,3.72-1.35,8.86,1.87,8.86,1.87l2.09-5.35-1.23,.4Zm361.93,0s6.12-4.21,10.4-2.08c4.29,2.13,2.84,5.78,6.12,9.67,3.28,3.89,6.79,5.35,10.36,4.38,3.57-.97,5.75-11.2,5.75-11.2,0,0,3.27,7.66-.06,11.4-3.32,3.74-11.89,5.41-15.38,1.64-3.49-3.77-3.75-9.38-7.47-10.72-3.72-1.35-8.86,1.87-8.86,1.87l-2.09-5.35,1.23,.4Zm-7.91,7.91s-4.21,6.12-2.08,10.4,5.78,2.84,9.67,6.12c3.89,3.28,5.35,6.79,4.38,10.36-.97,3.57-11.2,5.75-11.2,5.75,0,0,7.66,3.27,11.4-.06,3.74-3.32,5.41-11.89,1.64-15.38-3.77-3.49-9.38-3.75-10.72-7.47-1.35-3.72,1.87-8.86,1.87-8.86l-5.35-2.09,.4,1.23Z"/></g></g></g></svg>