<?xml version="1.0" encoding="UTF-8"?><svg id="Layer_2" xmlns="http://www.w3.org/2000/svg" viewBox="0 0 540 540"><defs><style>.cls-1{fill:#e9e9e2;}.cls-2{fill:#cf962b;}.cls-3{fill:#605277;}</style></defs><g id="OBJECTS"><g id="g8435"><g id="path8413"><path class="cls-1" d="M270,270L540,0H270s0,270,0,270Zm0,0L540,0V270s-270,0-270,0Zm0,0L0,0V270s270,0,270,0Zm0,0L0,0H270s0,270,0,270Zm0,0L0,540H270s0-270,0-270Zm0,0L0,540V270s270,0,270,0Zm0,0l270,270V270s-270,0-270,0Zm0,0l270,270H270s0-270,0-270Z"/></g><g id="path8415"><path class="cls-2" d="M329.3,111.9c-6.86-19.57-25.35-19.23-33.44-10.96s.92,10.47,10.17,9.37c9.25-1.1,16.51,1.4,17.92,5.95,1.41,4.55-13.07-4.08-19.88,1.88s-4.99,13.01,1.32,13.51,11.12-5.57,16.64-7.22c5.52-1.65,7.23,2.07,3.92,5.84-3.31,3.78-12.01,9.98-7.11,15.16,4.9,5.18,14.89,2.54,14.37-4.71-.52-7.25-3.77-14.91,1.2-11.88,4.96,3.03,.86,15.13,7.66,16.18,6.8,1.05,10.51-1.82,7.94-7.14-2.57-5.32-11.8-9.12-11.83-13.26-.03-4.13,9.07,1.41,14.09,7.25s10.36,7.69,12.04,3.47c1.69-4.22,1.19-10.23-7.66-13.59-8.86-3.36-16.47-1.43-16.04-3.44,.43-2.01,10.71,1.93,15.49,.13s5.12-5.46,1.26-8.82c-3.86-3.36-15.6-.88-19.15,1.57-3.55,2.45,.95-4.22-.18-11.85-1.13-7.63-10.97-9.45-14.92-6.81-3.95,2.65,.86,2.26,4.32,7.5,3.46,5.24,5.13,10.63,1.88,11.87h0Zm98.8,98.8c19.57,6.86,19.23,25.35,10.96,33.44-8.27,8.09-10.47-.92-9.37-10.17,1.1-9.25-1.4-16.51-5.95-17.92-4.55-1.41,4.08,13.07-1.88,19.88-5.95,6.8-13.01,4.99-13.51-1.32-.5-6.31,5.57-11.12,7.22-16.64,1.65-5.52-2.07-7.23-5.84-3.92-3.78,3.31-9.98,12.01-15.16,7.11-5.18-4.9-2.54-14.89,4.71-14.37,7.25,.52,14.91,3.77,11.88-1.2-3.03-4.96-15.13-.86-16.18-7.66-1.05-6.8,1.82-10.51,7.14-7.94,5.32,2.57,9.12,11.8,13.26,11.83,4.13,.03-1.41-9.07-7.25-14.09-5.84-5.03-7.69-10.36-3.47-12.04,4.22-1.69,10.23-1.19,13.59,7.66,3.36,8.86,1.43,16.47,3.44,16.04,2.01-.43-1.93-10.71-.13-15.49s5.46-5.12,8.82-1.26c3.36,3.86,.88,15.6-1.57,19.15-2.45,3.55,4.22-.95,11.85,.18s9.45,10.97,6.81,14.92c-2.65,3.95-2.26-.86-7.5-4.32-5.24-3.46-10.63-5.13-11.87-1.88h0Zm-316.19,0c-19.57,6.86-19.23,25.35-10.96,33.44,8.27,8.09,10.47-.92,9.37-10.17-1.1-9.25,1.4-16.51,5.95-17.92,4.55-1.41-4.08,13.07,1.88,19.88,5.95,6.8,13.01,4.99,13.51-1.32,.5-6.31-5.57-11.12-7.22-16.64-1.65-5.52,2.07-7.23,5.84-3.92,3.78,3.31,9.98,12.01,15.16,7.11,5.18-4.9,2.54-14.89-4.71-14.37-7.25,.52-14.91,3.77-11.88-1.2,3.03-4.96,15.13-.86,16.18-7.66,1.05-6.8-1.82-10.51-7.14-7.94-5.32,2.57-9.12,11.8-13.26,11.83-4.13,.03,1.41-9.07,7.25-14.09,5.84-5.03,7.69-10.36,3.47-12.04-4.22-1.69-10.23-1.19-13.59,7.66-3.36,8.86-1.43,16.47-3.44,16.04-2.01-.43,1.93-10.71,.13-15.49s-5.46-5.12-8.82-1.26c-3.36,3.86-.88,15.6,1.57,19.15s-4.22-.95-11.85,.18-9.45,10.97-6.81,14.92c2.65,3.95,2.26-.86,7.5-4.32s10.63-5.13,11.87-1.88h0Zm98.8-98.8c6.86-19.57,25.35-19.23,33.44-10.96,8.09,8.27-.92,10.47-10.17,9.37-9.25-1.1-16.51,1.4-17.92,5.95-1.41,4.55,13.07-4.08,19.88,1.88,6.8,5.95,4.99,13.01-1.32,13.51s-11.12-5.57-16.64-7.22c-5.52-1.65-7.23,2.07-3.92,5.84,3.31,3.78,12.01,9.98,7.11,15.16-4.9,5.18-14.89,2.54-14.37-4.71,.52-7.25,3.77-14.91-1.2-11.88-4.96,3.03-.86,15.13-7.66,16.18-6.8,1.05-10.51-1.82-7.94-7.14,2.57-5.32,11.8-9.12,11.83-13.26,.03-4.13-9.07,1.41-14.09,7.25-5.02,5.84-10.36,7.69-12.04,3.47-1.69-4.22-1.2-10.23,7.66-13.59,8.86-3.36,16.47-1.43,16.04-3.44s-10.71,1.93-15.49,.13-5.12-5.46-1.26-8.82c3.86-3.36,15.6-.88,19.15,1.57,3.55,2.45-.95-4.22,.18-11.85s10.97-9.45,14.92-6.81c3.95,2.65-.86,2.26-4.32,7.5-3.46,5.24-5.13,10.63-1.88,11.87h0Zm0,316.19c6.86,19.57,25.35,19.23,33.44,10.96,8.09-8.27-.92-10.47-10.17-9.37-9.25,1.1-16.51-1.4-17.92-5.95-1.41-4.55,13.08,4.08,19.88-1.88,6.8-5.95,4.99-13.01-1.32-13.51-6.31-.5-11.12,5.57-16.64,7.22-5.52,1.65-7.23-2.07-3.92-5.84,3.31-3.78,12.01-9.98,7.11-15.16-4.9-5.18-14.89-2.54-14.37,4.71,.52,7.25,3.77,14.91-1.2,11.88-4.96-3.03-.86-15.13-7.66-16.18-6.8-1.05-10.51,1.82-7.94,7.14,2.57,5.32,11.8,9.12,11.83,13.26,.03,4.13-9.07-1.41-14.09-7.25-5.02-5.84-10.36-7.69-12.04-3.47-1.69,4.22-1.2,10.23,7.66,13.59,8.86,3.36,16.47,1.43,16.04,3.44-.43,2.01-10.71-1.93-15.49-.13-4.78,1.79-5.12,5.46-1.26,8.82,3.86,3.36,15.6,.88,19.15-1.57s-.95,4.22,.18,11.85c1.13,7.63,10.97,9.45,14.92,6.81,3.95-2.65-.86-2.26-4.32-7.5s-5.13-10.63-1.88-11.87Zm-98.8-98.8c-19.57-6.86-19.23-25.35-10.96-33.44,8.27-8.09,10.47,.92,9.37,10.17-1.1,9.25,1.4,16.51,5.95,17.92,4.55,1.41-4.08-13.07,1.88-19.88,5.95-6.8,13.01-4.99,13.51,1.32,.5,6.31-5.57,11.12-7.22,16.64-1.65,5.52,2.07,7.23,5.84,3.92,3.78-3.31,9.98-12.01,15.16-7.11,5.18,4.9,2.54,14.89-4.71,14.37-7.25-.52-14.91-3.77-11.88,1.2,3.03,4.96,15.13,.86,16.18,7.66,1.05,6.8-1.82,10.51-7.14,7.94-5.32-2.57-9.12-11.8-13.26-11.83-4.13-.03,1.41,9.07,7.25,14.09,5.84,5.02,7.69,10.36,3.47,12.04-4.22,1.69-10.23,1.2-13.59-7.66-3.36-8.86-1.43-16.47-3.44-16.04-2.01,.43,1.93,10.71,.13,15.49-1.79,4.78-5.46,5.12-8.82,1.26-3.36-3.86-.88-15.6,1.57-19.15s-4.22,.95-11.85-.18c-7.63-1.13-9.45-10.97-6.81-14.92,2.65-3.95,2.26,.86,7.5,4.32,5.24,3.46,10.63,5.13,11.87,1.88Zm316.19,0c19.57-6.86,19.23-25.35,10.96-33.44-8.27-8.09-10.47,.92-9.37,10.17,1.1,9.25-1.4,16.51-5.95,17.92-4.55,1.41,4.08-13.07-1.88-19.88-5.95-6.8-13.01-4.99-13.51,1.32-.5,6.31,5.57,11.12,7.22,16.64,1.65,5.52-2.07,7.23-5.84,3.92-3.78-3.31-9.98-12.01-15.16-7.11-5.18,4.9-2.54,14.89,4.71,14.37s14.91-3.77,11.88,1.2c-3.03,4.96-15.13,.86-16.18,7.66-1.05,6.8,1.82,10.51,7.14,7.94,5.32-2.57,9.12-11.8,13.26-11.83,4.13-.03-1.41,9.07-7.25,14.09-5.84,5.02-7.69,10.36-3.47,12.04,4.22,1.69,10.23,1.2,13.59-7.66,3.36-8.86,1.43-16.47,3.44-16.04,2.01,.43-1.93,10.71-.13,15.49s5.46,5.12,8.82,1.26c3.36-3.86,.88-15.6-1.57-19.15-2.45-3.55,4.22,.95,11.85-.18,7.63-1.13,9.45-10.97,6.81-14.92-2.65-3.95-2.26,.86-7.5,4.32-5.24,3.46-10.63,5.13-11.87,1.88Zm-98.8,98.8c-6.86,19.57-25.35,19.23-33.44,10.96-8.09-8.27,.92-10.47,10.17-9.37,9.25,1.1,16.51-1.4,17.92-5.95,1.41-4.55-13.07,4.08-19.88-1.88-6.8-5.95-4.99-13.01,1.32-13.51s11.12,5.57,16.64,7.22c5.52,1.65,7.23-2.07,3.92-5.84s-12.01-9.98-7.11-15.16c4.9-5.18,14.89-2.54,14.37,4.71-.52,7.25-3.77,14.91,1.19,11.88,4.96-3.03,.86-15.13,7.66-16.18,6.8-1.05,10.51,1.82,7.94,7.14-2.57,5.32-11.8,9.12-11.83,13.26-.03,4.13,9.07-1.41,14.09-7.25,5.03-5.84,10.36-7.69,12.04-3.47,1.69,4.22,1.19,10.23-7.66,13.59-8.86,3.36-16.47,1.43-16.04,3.44,.43,2.01,10.71-1.93,15.49-.13s5.12,5.46,1.26,8.82c-3.86,3.36-15.6,.88-19.15-1.57-3.55-2.45,.95,4.22-.18,11.85-1.13,7.63-10.97,9.45-14.92,6.81s.86-2.26,4.32-7.5,5.13-10.63,1.88-11.87h0Z"/></g><g id="path8417"><path class="cls-3" d="M334.31,114.24c-3.96-.41-6.81,1.2-6.92,5.15-.11,3.95,2.3,7.05,5.21,5.95,2.91-1.09,4.5-1.99,4.65-5.11,.15-3.12-.91-5.89-2.94-5.99Zm91.46,91.46c.41,3.96-1.2,6.81-5.15,6.92-3.95,.11-7.05-2.3-5.95-5.21,1.09-2.91,1.99-4.5,5.11-4.65,3.12-.15,5.89,.91,5.99,2.94Zm-311.53,0c-.41,3.96,1.2,6.81,5.15,6.92,3.95,.11,7.05-2.3,5.95-5.21-1.09-2.91-1.99-4.5-5.11-4.65-3.12-.15-5.89,.91-5.99,2.94Zm91.46-91.46c3.97-.41,6.81,1.2,6.92,5.15,.11,3.95-2.3,7.05-5.21,5.95-2.91-1.09-4.5-1.99-4.65-5.11-.15-3.12,.91-5.89,2.94-5.99Zm0,311.53c3.97,.41,6.81-1.2,6.92-5.15,.11-3.95-2.3-7.05-5.21-5.95-2.91,1.09-4.5,1.99-4.65,5.11-.15,3.12,.91,5.89,2.94,5.99Zm-91.46-91.46c-.41-3.97,1.2-6.81,5.15-6.92,3.95-.11,7.05,2.3,5.95,5.21-1.09,2.91-1.99,4.5-5.11,4.65-3.12,.15-5.89-.91-5.99-2.94Zm311.53,0c.41-3.97-1.2-6.81-5.15-6.92-3.95-.11-7.05,2.3-5.95,5.21,1.09,2.91,1.99,4.5,5.11,4.65,3.12,.15,5.89-.91,5.99-2.94Zm-91.46,91.46c-3.96,.41-6.81-1.2-6.92-5.15-.11-3.95,2.3-7.05,5.21-5.95,2.91,1.09,4.5,1.99,4.65,5.11,.15,3.12-.91,5.89-2.94,5.99Z"/></g><g id="path8419"><path class="cls-3" d="M322.77,125.91s-13.67,6.39-23.59,27.95c-9.93,21.55,6.4,42.8,3.16,59.31-3.25,16.51-20.53,18.25-22.15,6.04-1.62-12.21,6.83-14.25,9.71-12.65,2.88,1.6-5.21,4.02-2.54,8.19,2.67,4.16,8.12,.72,8.7-5.48,.58-6.2-2.18-11.16-9.81-8.65-7.63,2.51-17.16,11.6-11,24.34,6.16,12.73,22.77,8.96,30.18-2.92,7.42-11.88,3.62-28.28-.58-43.03-4.2-14.75-2.27-20.92,2.08-29.52,4.35-8.6,7.87-14.5,11.83-17.64,3.95-3.14,4.44-3.89,4.01-5.93Zm91.32,91.32s-6.39,13.67-27.95,23.59c-21.55,9.93-42.8-6.4-59.31-3.16-16.51,3.25-18.25,20.53-6.04,22.15,12.21,1.62,14.25-6.83,12.65-9.71-1.6-2.88-4.02,5.21-8.19,2.54-4.16-2.67-.72-8.12,5.49-8.7,6.2-.58,11.16,2.18,8.65,9.81-2.51,7.63-11.6,17.16-24.34,11-12.73-6.16-8.96-22.77,2.92-30.18s28.28-3.62,43.03,.58c14.75,4.2,20.92,2.27,29.52-2.08,8.6-4.35,14.5-7.87,17.64-11.83,3.14-3.95,3.89-4.44,5.93-4.01h0Zm-288.18,0s6.39,13.67,27.95,23.59,42.8-6.4,59.31-3.16c16.51,3.25,18.25,20.53,6.04,22.15-12.21,1.62-14.25-6.83-12.65-9.71,1.6-2.88,4.02,5.21,8.19,2.54,4.16-2.67,.72-8.12-5.48-8.7-6.2-.58-11.16,2.18-8.65,9.81,2.51,7.63,11.6,17.16,24.34,11,12.73-6.16,8.96-22.77-2.92-30.18-11.88-7.42-28.28-3.62-43.02,.58-14.75,4.2-20.92,2.27-29.52-2.08-8.6-4.35-14.5-7.87-17.64-11.83s-3.89-4.44-5.93-4.01Zm91.32-91.32s13.67,6.39,23.59,27.95c9.93,21.55-6.4,42.8-3.16,59.31,3.25,16.51,20.53,18.25,22.15,6.04,1.62-12.21-6.83-14.25-9.71-12.65-2.88,1.6,5.21,4.02,2.54,8.19-2.67,4.16-8.12,.72-8.7-5.48-.58-6.2,2.18-11.16,9.8-8.65,7.63,2.51,17.16,11.6,11,24.34-6.16,12.73-22.77,8.96-30.18-2.92-7.41-11.88-3.62-28.28,.58-43.03,4.2-14.75,2.27-20.92-2.08-29.52-4.35-8.6-7.87-14.5-11.83-17.64-3.95-3.14-4.44-3.89-4.01-5.93h0Zm0,288.18s13.67-6.39,23.59-27.95c9.93-21.55-6.4-42.8-3.16-59.31,3.25-16.51,20.53-18.25,22.15-6.04,1.62,12.21-6.83,14.25-9.71,12.65-2.88-1.6,5.21-4.02,2.54-8.19-2.67-4.16-8.12-.72-8.7,5.48-.58,6.2,2.18,11.16,9.8,8.65,7.63-2.51,17.16-11.6,11-24.34-6.16-12.73-22.77-8.96-30.18,2.92-7.41,11.88-3.62,28.28,.58,43.03,4.2,14.75,2.27,20.92-2.08,29.52-4.35,8.6-7.87,14.5-11.83,17.64-3.95,3.14-4.44,3.89-4.01,5.93h0Zm-91.32-91.32s6.39-13.67,27.95-23.59,42.8,6.4,59.31,3.16c16.51-3.25,18.25-20.53,6.04-22.15-12.21-1.62-14.25,6.83-12.65,9.71,1.6,2.88,4.02-5.21,8.19-2.54,4.16,2.67,.72,8.12-5.48,8.7-6.2,.58-11.16-2.18-8.65-9.8,2.51-7.63,11.6-17.16,24.34-11,12.73,6.16,8.96,22.77-2.92,30.18-11.88,7.41-28.28,3.62-43.03-.58-14.75-4.2-20.92-2.27-29.52,2.08-8.6,4.35-14.5,7.87-17.64,11.83-3.14,3.95-3.89,4.44-5.93,4.01h0Zm288.18,0s-6.39-13.67-27.95-23.59c-21.55-9.93-42.8,6.4-59.31,3.16-16.51-3.25-18.25-20.53-6.04-22.15,12.21-1.62,14.25,6.83,12.65,9.71-1.6,2.88-4.02-5.21-8.19-2.54-4.16,2.67-.72,8.12,5.49,8.7,6.2,.58,11.16-2.18,8.65-9.8-2.51-7.63-11.6-17.16-24.34-11-12.73,6.16-8.96,22.77,2.92,30.18,11.88,7.41,28.28,3.62,43.03-.58,14.75-4.2,20.92-2.27,29.52,2.08,8.6,4.35,14.5,7.87,17.64,11.83,3.14,3.95,3.89,4.44,5.93,4.01h0Zm-91.32,91.32s-13.67-6.39-23.59-27.95,6.4-42.8,3.16-59.31c-3.25-16.51-20.53-18.25-22.15-6.04-1.62,12.21,6.83,14.25,9.71,12.65,2.88-1.6-5.21-4.02-2.54-8.19,2.67-4.16,8.12-.72,8.7,5.48,.58,6.2-2.18,11.16-9.81,8.65-7.63-2.51-17.16-11.6-11-24.34,6.16-12.73,22.77-8.96,30.18,2.92,7.42,11.88,3.62,28.28-.58,43.03-4.2,14.75-2.27,20.92,2.08,29.52,4.35,8.6,7.87,14.5,11.83,17.64,3.95,3.14,4.44,3.89,4.01,5.93h0Z"/></g><g id="path8421"><path class="cls-3" d="M274.63,230.97s10.42,13,30.04-1.45c-7.08,13.85-27.24,20.89-30.04,1.45Zm34.4,34.4s-13-10.42,1.45-30.04c-13.85,7.08-20.89,27.24-1.45,30.04Zm-78.06,0s13-10.42-1.45-30.04c13.85,7.08,20.89,27.24,1.45,30.04Zm34.4-34.4s-10.42,13-30.04-1.45c7.08,13.85,27.24,20.89,30.04,1.45Zm0,78.06s-10.42-13-30.04,1.45c7.08-13.85,27.24-20.89,30.04-1.45Zm-34.4-34.4s13,10.42-1.45,30.04c13.85-7.08,20.89-27.24,1.45-30.04Zm78.06,0s-13,10.42,1.45,30.04c-13.85-7.08-20.89-27.24-1.45-30.04Zm-34.4,34.4s10.42-13,30.04,1.45c-7.08-13.85-27.24-20.89-30.04-1.45Z"/></g><g id="path8423"><path class="cls-3" d="M273.75,234.81s.37,6.85,4.44,9.7c4.08,2.85,9.76-.63,10.36,1.58,.6,2.22-1.46,7.07-6.66,6.89-5.21-.18-10.83-6.22-8.14-18.18h0Zm31.45,31.45s-6.85-.37-9.7-4.44c-2.85-4.08,.63-9.76-1.58-10.36-2.22-.6-7.07,1.46-6.89,6.66,.18,5.21,6.22,10.83,18.18,8.14h0Zm-70.39,0s6.85-.37,9.7-4.44c2.85-4.08-.63-9.76,1.58-10.36,2.22-.6,7.07,1.46,6.89,6.66-.18,5.21-6.22,10.83-18.18,8.14h0Zm31.45-31.45s-.37,6.85-4.44,9.7c-4.08,2.85-9.76-.63-10.36,1.58-.6,2.22,1.46,7.07,6.66,6.89,5.21-.18,10.83-6.22,8.14-18.18h0Zm0,70.39s-.37-6.85-4.44-9.7c-4.08-2.85-9.76,.63-10.36-1.58-.6-2.22,1.46-7.07,6.66-6.89,5.21,.18,10.83,6.22,8.14,18.18h0Zm-31.45-31.45s6.85,.37,9.7,4.44c2.85,4.08-.63,9.76,1.58,10.36,2.22,.6,7.07-1.46,6.89-6.66-.18-5.21-6.22-10.83-18.18-8.14h0Zm70.39,0s-6.85,.37-9.7,4.44c-2.85,4.08,.63,9.76-1.58,10.36-2.22,.6-7.07-1.46-6.89-6.66,.18-5.21,6.22-10.83,18.18-8.14h0Zm-31.45,31.45s.37-6.85,4.44-9.7c4.08-2.85,9.76,.63,10.36-1.58,.6-2.22-1.46-7.07-6.66-6.89-5.21,.18-10.83,6.22-8.14,18.18h0Z"/></g><g id="path8425"><path class="cls-3" d="M272.88,249.79s-3.13,11.95-.57,12.21c2.56,.26,7.4-4.33,6.04-6.41s-5.56-4.18-5.47-5.8Zm17.34,17.34s-11.95,3.13-12.21,.57c-.26-2.56,4.33-7.4,6.41-6.04,2.08,1.36,4.18,5.56,5.8,5.47Zm-40.43,0s11.95,3.13,12.21,.57c.26-2.56-4.33-7.4-6.41-6.04-2.08,1.36-4.18,5.56-5.8,5.47Zm17.34-17.34s3.13,11.95,.57,12.21c-2.56,.26-7.4-4.33-6.04-6.41s5.56-4.18,5.47-5.8Zm0,40.43s3.13-11.95,.57-12.21c-2.56-.26-7.4,4.33-6.04,6.41,1.36,2.08,5.56,4.18,5.47,5.8Zm-17.34-17.34s11.95-3.13,12.21-.57c.26,2.56-4.33,7.4-6.41,6.04-2.08-1.36-4.18-5.56-5.8-5.47Zm40.43,0s-11.95-3.13-12.21-.57c-.26,2.56,4.33,7.4,6.41,6.04,2.08-1.36,4.18-5.56,5.8-5.47Zm-17.34,17.34s-3.13-11.95-.57-12.21c2.56-.26,7.4,4.33,6.04,6.41-1.36,2.08-5.56,4.18-5.47,5.8Z"/></g><g id="path8427"><path class="cls-3" d="M315.14,214.13s6.72-5.07,4.72-24.05c-1.99-18.98-2.43-28.26,9.79-32.27,12.22-4.01,37.44,3.12,45.76-20,8.32-23.11-3.25-34.5,15.21-52.7,18.46-18.2,89.14-30.6,89.14-30.6,0,0-76.53,26.86-84.41,34.85-7.89,7.99-10.14,24.01-8.93,29.86,1.21,5.85,21.19-1.29,23.92-10.76s-7.67-8.46-7.67-8.46c0,0,2.6,5.54-.74,7.33-3.34,1.79-4.68,.58-4.85-2.81-.17-3.39,2.56-8.93,8.88-10.1,6.33-1.17,15.08,5.54,12.52,11.15,6.24-.62,7.5-5.69,9.14-12.9,1.65-7.21,7.15-12.82,14.86-15.55s16.99-2.85,12.83,.82-7.32,2.38-12,4.72c-4.68,2.34-9.06,9.47-12.09,16.49-3.03,7.02-3.73,12.28-16.34,20.04-12.61,7.76-21.84,7.83-27.34,12.79s-2.99,5.46-7.24,14.23c-4.25,8.77-7.11,17.74-17.51,18.36-10.4,.62-25.05-3.66-30.2,3.08-5.16,6.74-7.19,12.59-2.99,16.37s10.31,4.79,13.56-.51,1.26-9.82-2.08-9.08c-3.34,.74-3.86,7.25-6.28,3.04-2.43-4.21,4.98-9.51,10.44-8.38,5.46,1.13,6.63,15.2-1,19.68-7.63,4.48-10.66,2.42-13.95,3.12-3.29,.7-2.12,1.09-2.99,7.45-.87,6.35-12.18,14.81-12.18,14.81h0Zm10.74,10.74s5.07-6.72,24.05-4.72c18.98,1.99,28.26,2.43,32.27-9.79,4.01-12.22-3.12-37.44,20-45.76,23.11-8.32,34.5,3.25,52.7-15.21,18.2-18.46,30.6-89.14,30.6-89.14,0,0-26.86,76.53-34.85,84.41-7.99,7.89-24.01,10.14-29.86,8.93-5.85-1.21,1.29-21.19,10.76-23.92,9.47-2.73,8.46,7.67,8.46,7.67,0,0-5.54-2.6-7.33,.74-1.79,3.34-.58,4.68,2.81,4.85,3.39,.17,8.93-2.56,10.1-8.88,1.17-6.33-5.54-15.08-11.15-12.52,.62-6.24,5.69-7.5,12.9-9.14,7.21-1.65,12.82-7.15,15.55-14.86s2.85-16.99-.82-12.83c-3.66,4.16-2.38,7.32-4.72,12-2.34,4.68-9.47,9.06-16.49,12.09-7.02,3.03-12.28,3.73-20.04,16.34-7.76,12.61-7.83,21.84-12.79,27.34-4.95,5.5-5.46,2.99-14.23,7.24-8.77,4.25-17.74,7.11-18.36,17.51-.62,10.4,3.66,25.05-3.08,30.2-6.74,5.16-12.59,7.19-16.37,2.99-3.78-4.2-4.79-10.31,.51-13.56s9.82-1.26,9.08,2.08c-.74,3.34-7.25,3.86-3.04,6.28,4.21,2.43,9.51-4.98,8.38-10.44s-15.2-6.63-19.68,1c-4.48,7.63-2.42,10.66-3.12,13.95-.7,3.29-1.09,2.12-7.44,2.99-6.35,.87-14.81,12.18-14.81,12.18h0Zm-111.75,0s-5.07-6.72-24.05-4.72c-18.98,1.99-28.26,2.43-32.27-9.79-4.01-12.22,3.12-37.44-20-45.76-23.11-8.32-34.5,3.25-52.7-15.21-18.2-18.46-30.6-89.14-30.6-89.14,0,0,26.86,76.53,34.85,84.41,7.99,7.89,24.01,10.14,29.86,8.93,5.85-1.21-1.29-21.19-10.76-23.92-9.47-2.73-8.46,7.67-8.46,7.67,0,0,5.53-2.6,7.33,.74,1.79,3.34,.58,4.68-2.81,4.85-3.39,.17-8.93-2.56-10.1-8.88-1.17-6.33,5.54-15.08,11.15-12.52-.62-6.24-5.69-7.5-12.9-9.14-7.21-1.65-12.82-7.15-15.55-14.86-2.73-7.71-2.85-16.99,.82-12.83s2.38,7.32,4.72,12c2.34,4.68,9.47,9.06,16.49,12.09,7.02,3.03,12.28,3.73,20.04,16.34,7.76,12.61,7.83,21.84,12.79,27.34,4.95,5.5,5.46,2.99,14.23,7.24,8.77,4.25,17.74,7.11,18.36,17.51,.62,10.4-3.66,25.05,3.08,30.2,6.74,5.16,12.59,7.19,16.37,2.99,3.78-4.2,4.79-10.31-.51-13.56s-9.82-1.26-9.08,2.08c.74,3.34,7.25,3.86,3.04,6.28-4.21,2.43-9.51-4.98-8.38-10.44s15.2-6.63,19.68,1c4.48,7.63,2.42,10.66,3.12,13.95,.7,3.29,1.09,2.12,7.45,2.99,6.35,.87,14.81,12.18,14.81,12.18h0Zm10.74-10.74s-6.72-5.07-4.72-24.05c1.99-18.98,2.43-28.26-9.79-32.27s-37.44,3.12-45.76-20c-8.32-23.11,3.25-34.5-15.21-52.7-18.46-18.2-89.14-30.6-89.14-30.6,0,0,76.53,26.86,84.41,34.85,7.89,7.99,10.14,24.01,8.93,29.86-1.21,5.85-21.19-1.29-23.92-10.76-2.73-9.47,7.67-8.46,7.67-8.46,0,0-2.6,5.54,.74,7.33,3.34,1.79,4.68,.58,4.85-2.81s-2.56-8.93-8.88-10.1c-6.33-1.17-15.08,5.54-12.52,11.15-6.24-.62-7.5-5.69-9.14-12.9-1.65-7.21-7.15-12.82-14.86-15.55s-16.99-2.85-12.83,.82,7.32,2.38,12,4.72c4.68,2.34,9.06,9.47,12.09,16.49,3.03,7.02,3.73,12.28,16.34,20.04,12.61,7.76,21.84,7.83,27.34,12.79s2.99,5.46,7.24,14.23c4.25,8.77,7.11,17.74,17.51,18.36,10.4,.62,25.05-3.66,30.2,3.08,5.16,6.74,7.19,12.59,2.99,16.37s-10.31,4.79-13.56-.51c-3.25-5.3-1.26-9.82,2.08-9.08,3.34,.74,3.86,7.25,6.28,3.04,2.43-4.21-4.98-9.51-10.44-8.38-5.46,1.13-6.63,15.2,1,19.68,7.63,4.48,10.66,2.42,13.95,3.12,3.29,.7,2.12,1.09,2.99,7.45s12.18,14.81,12.18,14.81h0Zm0,111.75s-6.72,5.07-4.72,24.05c1.99,18.98,2.43,28.26-9.79,32.27-12.22,4.01-37.44-3.12-45.76,20-8.32,23.11,3.25,34.5-15.21,52.7-18.46,18.2-89.14,30.6-89.14,30.6,0,0,76.53-26.86,84.41-34.85,7.89-7.99,10.14-24.01,8.93-29.86-1.21-5.85-21.19,1.29-23.92,10.76-2.73,9.47,7.67,8.46,7.67,8.46,0,0-2.6-5.53,.74-7.33,3.34-1.79,4.68-.58,4.85,2.81s-2.56,8.93-8.88,10.1c-6.33,1.17-15.08-5.53-12.52-11.15-6.24,.62-7.5,5.69-9.14,12.9-1.65,7.21-7.15,12.82-14.86,15.55-7.71,2.73-16.99,2.85-12.83-.82s7.32-2.38,12-4.72c4.68-2.34,9.06-9.47,12.09-16.49,3.03-7.02,3.73-12.28,16.34-20.04,12.61-7.76,21.84-7.83,27.34-12.79s2.99-5.46,7.24-14.23c4.25-8.77,7.11-17.74,17.51-18.36,10.4-.62,25.05,3.66,30.2-3.08,5.16-6.74,7.19-12.59,2.99-16.37-4.2-3.78-10.31-4.79-13.56,.51-3.25,5.3-1.26,9.82,2.08,9.08,3.34-.74,3.86-7.25,6.28-3.04,2.43,4.21-4.98,9.51-10.44,8.38-5.46-1.13-6.63-15.2,1-19.68,7.63-4.48,10.66-2.42,13.95-3.12,3.29-.7,2.12-1.09,2.99-7.45s12.18-14.81,12.18-14.81h0Zm-10.74-10.74s-5.07,6.72-24.05,4.72c-18.98-1.99-28.26-2.43-32.27,9.79-4.01,12.22,3.12,37.44-20,45.76-23.11,8.32-34.5-3.25-52.7,15.21-18.2,18.46-30.6,89.14-30.6,89.14,0,0,26.86-76.53,34.85-84.41,7.99-7.89,24.01-10.14,29.86-8.93,5.85,1.21-1.29,21.19-10.76,23.92-9.47,2.73-8.46-7.67-8.46-7.67,0,0,5.53,2.6,7.33-.74,1.79-3.34,.58-4.68-2.81-4.85-3.39-.17-8.93,2.56-10.1,8.88-1.17,6.33,5.54,15.08,11.15,12.52-.62,6.24-5.69,7.5-12.9,9.14-7.21,1.65-12.82,7.15-15.55,14.86-2.73,7.71-2.85,16.99,.82,12.83,3.66-4.16,2.38-7.32,4.72-12s9.47-9.06,16.49-12.09c7.02-3.03,12.28-3.73,20.04-16.34,7.76-12.61,7.83-21.84,12.79-27.34,4.95-5.5,5.46-2.99,14.23-7.24,8.77-4.25,17.74-7.11,18.36-17.51,.62-10.4-3.66-25.05,3.08-30.2,6.74-5.16,12.59-7.19,16.37-2.99,3.78,4.2,4.79,10.31-.51,13.56s-9.82,1.26-9.08-2.08c.74-3.34,7.25-3.86,3.04-6.28-4.21-2.43-9.51,4.98-8.38,10.44s15.2,6.63,19.68-1c4.48-7.63,2.42-10.66,3.12-13.95s1.09-2.12,7.45-2.99c6.35-.87,14.81-12.18,14.81-12.18h0Zm111.75,0s5.07,6.72,24.05,4.72c18.98-1.99,28.26-2.43,32.27,9.79,4.01,12.22-3.12,37.44,20,45.76,23.11,8.32,34.5-3.25,52.7,15.21,18.2,18.46,30.6,89.14,30.6,89.14,0,0-26.86-76.53-34.85-84.41-7.99-7.89-24.01-10.14-29.86-8.93-5.85,1.21,1.29,21.19,10.76,23.92,9.47,2.73,8.46-7.67,8.46-7.67,0,0-5.54,2.6-7.33-.74-1.79-3.34-.58-4.68,2.81-4.85,3.39-.17,8.93,2.56,10.1,8.88,1.17,6.33-5.54,15.08-11.15,12.52,.62,6.24,5.69,7.5,12.9,9.14,7.21,1.65,12.82,7.15,15.55,14.86,2.73,7.71,2.85,16.99-.82,12.83-3.66-4.16-2.38-7.32-4.72-12s-9.47-9.06-16.49-12.09c-7.02-3.03-12.28-3.73-20.04-16.34-7.76-12.61-7.83-21.84-12.79-27.34-4.95-5.5-5.46-2.99-14.23-7.24-8.77-4.25-17.74-7.11-18.36-17.51-.62-10.4,3.66-25.05-3.08-30.2-6.74-5.16-12.59-7.19-16.37-2.99-3.78,4.2-4.79,10.31,.51,13.56,5.3,3.25,9.82,1.26,9.08-2.08-.74-3.34-7.25-3.86-3.04-6.28,4.21-2.43,9.51,4.98,8.38,10.44-1.13,5.46-15.2,6.63-19.68-1-4.48-7.63-2.42-10.66-3.12-13.95-.7-3.29-1.09-2.12-7.45-2.99s-14.81-12.18-14.81-12.18h0Zm-10.74,10.74s6.72,5.07,4.72,24.05c-1.99,18.98-2.43,28.26,9.79,32.27,12.22,4.01,37.44-3.12,45.76,20,8.32,23.11-3.25,34.5,15.21,52.7,18.46,18.2,89.14,30.6,89.14,30.6,0,0-76.53-26.86-84.41-34.85-7.89-7.99-10.14-24.01-8.93-29.86,1.21-5.85,21.19,1.29,23.92,10.76s-7.67,8.46-7.67,8.46c0,0,2.6-5.53-.74-7.33-3.34-1.79-4.68-.58-4.85,2.81-.17,3.39,2.56,8.93,8.88,10.1,6.33,1.17,15.08-5.54,12.52-11.15,6.24,.62,7.5,5.69,9.14,12.9,1.65,7.21,7.15,12.82,14.86,15.55,7.71,2.73,16.99,2.85,12.83-.82s-7.32-2.38-12-4.72c-4.68-2.34-9.06-9.47-12.09-16.49-3.03-7.02-3.73-12.28-16.34-20.04-12.61-7.76-21.84-7.83-27.34-12.79-5.5-4.95-2.99-5.46-7.24-14.23-4.25-8.77-7.11-17.74-17.51-18.36-10.4-.62-25.05,3.66-30.2-3.08-5.16-6.74-7.19-12.59-2.99-16.37,4.2-3.78,10.31-4.79,13.56,.51,3.25,5.3,1.26,9.82-2.08,9.08-3.34-.74-3.86-7.25-6.28-3.04-2.43,4.21,4.98,9.51,10.44,8.38,5.46-1.13,6.63-15.2-1-19.68-7.63-4.48-10.66-2.42-13.95-3.12-3.29-.7-2.12-1.09-2.99-7.45-.87-6.35-12.18-14.81-12.18-14.81h0Z"/></g><g id="path8429"><path class="cls-3" d="M274.95,27.13s37.35,42.18,33.28,52.58c-4.07,10.41-12.13,10.72-17.51,18.24-5.37,7.52-8.45,11.03-3.25,18.24,5.2,7.21,12.05,18.44,6.59,27.13-5.46,8.69-11.92,13.37-12.22,21.44-.3,8.07,3.68,18.2,5.2,14.77,1.52-3.43-4.77-6.82-1.17-10.06,3.6-3.24,7.89,5.11,6.15,11.34-1.73,6.24-4.51,13.25-8.32,6.78-3.81-6.47-7.41-13.76-6.72-23.7,.69-9.94,5.16-11.89,8.67-21.59,3.51-9.71,1.91-18.71-1.95-17.42-3.86,1.29-1.6,4.68-1.99,9.86-.39,5.18-2.12,10.37-4.2,4.76-2.08-5.61-4.72-24.83-1.99-31.65,2.73-6.82,9.62-13.68,14.73-21.28,5.11-7.6,6.46-12.75,2.69-18.83-3.77-6.08-7.97-9.86-9.01-4.21s4.59,5.96,4.16,10.64c-.43,4.68-3.38,12.79-6.54,8.11s-4.25-5.73-3.9-13.49c.35-7.76,.69-9.63,1.43-16.84,.74-7.21-7.58-20.19-4.12-24.83Zm237.93,237.93s-42.18-37.35-52.58-33.28c-10.41,4.07-10.72,12.13-18.24,17.51-7.52,5.37-11.03,8.45-18.24,3.25-7.21-5.2-18.44-12.05-27.13-6.59s-13.37,11.92-21.44,12.22c-8.07,.3-18.2-3.68-14.77-5.2,3.43-1.52,6.82,4.77,10.06,1.17,3.24-3.6-5.11-7.89-11.34-6.15-6.24,1.73-13.25,4.51-6.78,8.32,6.47,3.81,13.76,7.41,23.7,6.72,9.94-.69,11.89-5.16,21.59-8.67,9.71-3.51,18.71-1.91,17.42,1.95-1.29,3.86-4.68,1.6-9.86,1.99-5.18,.39-10.37,2.12-4.76,4.2,5.61,2.08,24.83,4.72,31.65,1.99,6.82-2.73,13.68-9.62,21.28-14.73,7.6-5.11,12.75-6.46,18.83-2.69s9.86,7.97,4.21,9.01-5.96-4.59-10.64-4.16c-4.68,.43-12.79,3.38-8.11,6.54,4.68,3.16,5.73,4.25,13.49,3.9,7.76-.35,9.63-.69,16.84-1.43,7.21-.74,20.19,7.58,24.83,4.12h0Zm-485.75,0s42.18-37.35,52.58-33.28,10.72,12.13,18.24,17.51c7.52,5.37,11.03,8.45,18.24,3.25,7.21-5.2,18.44-12.05,27.13-6.59s13.37,11.92,21.44,12.22c8.07,.3,18.2-3.68,14.77-5.2-3.43-1.52-6.82,4.77-10.06,1.17-3.24-3.6,5.11-7.89,11.34-6.15,6.24,1.73,13.25,4.51,6.78,8.32-6.47,3.81-13.76,7.41-23.7,6.72-9.94-.69-11.89-5.16-21.59-8.67-9.71-3.51-18.71-1.91-17.42,1.95,1.29,3.86,4.68,1.6,9.86,1.99s10.37,2.12,4.76,4.2c-5.61,2.08-24.83,4.72-31.65,1.99-6.82-2.73-13.68-9.62-21.28-14.73s-12.75-6.46-18.83-2.69c-6.08,3.77-9.86,7.97-4.21,9.01s5.96-4.59,10.64-4.16c4.68,.43,12.79,3.38,8.11,6.54-4.68,3.16-5.73,4.25-13.49,3.9-7.76-.35-9.63-.69-16.84-1.43-7.21-.74-20.19,7.58-24.83,4.12h0ZM265.06,27.13s-37.35,42.18-33.28,52.58c4.07,10.41,12.13,10.72,17.51,18.24,5.37,7.52,8.45,11.03,3.25,18.24s-12.05,18.44-6.59,27.13c5.46,8.69,11.92,13.37,12.22,21.44,.3,8.07-3.68,18.2-5.2,14.77-1.52-3.43,4.77-6.82,1.17-10.06-3.6-3.24-7.89,5.11-6.15,11.34,1.73,6.24,4.51,13.25,8.32,6.78,3.81-6.47,7.41-13.76,6.72-23.7-.69-9.94-5.16-11.89-8.67-21.59-3.51-9.71-1.91-18.71,1.95-17.42,3.86,1.29,1.6,4.68,1.99,9.86,.39,5.18,2.12,10.37,4.2,4.76,2.08-5.61,4.72-24.83,1.99-31.65-2.73-6.82-9.62-13.68-14.73-21.28-5.11-7.6-6.46-12.75-2.69-18.83,3.77-6.08,7.97-9.86,9.01-4.21,1.04,5.65-4.59,5.96-4.16,10.64,.43,4.68,3.38,12.79,6.54,8.11s4.25-5.73,3.9-13.49c-.35-7.76-.69-9.63-1.43-16.84-.74-7.21,7.58-20.19,4.12-24.83Zm0,485.75s-37.35-42.18-33.28-52.58c4.07-10.41,12.13-10.72,17.51-18.24,5.37-7.52,8.45-11.03,3.25-18.24-5.2-7.21-12.05-18.44-6.59-27.13,5.46-8.69,11.92-13.37,12.22-21.44,.3-8.07-3.68-18.2-5.2-14.77-1.52,3.43,4.77,6.82,1.17,10.06-3.6,3.24-7.89-5.11-6.15-11.34,1.73-6.24,4.51-13.25,8.32-6.78,3.81,6.47,7.41,13.76,6.72,23.7-.69,9.94-5.16,11.89-8.67,21.59-3.51,9.71-1.91,18.71,1.95,17.42,3.86-1.29,1.6-4.68,1.99-9.86,.39-5.18,2.12-10.37,4.2-4.76,2.08,5.61,4.72,24.83,1.99,31.65-2.73,6.82-9.62,13.68-14.73,21.28-5.11,7.6-6.46,12.75-2.69,18.83,3.77,6.08,7.97,9.86,9.01,4.21,1.04-5.65-4.59-5.96-4.16-10.64,.43-4.68,3.38-12.79,6.54-8.11,3.16,4.68,4.25,5.73,3.9,13.49-.35,7.76-.69,9.63-1.43,16.84-.74,7.21,7.58,20.19,4.12,24.83h0ZM27.13,274.95s42.18,37.35,52.58,33.28c10.41-4.07,10.72-12.13,18.24-17.51,7.52-5.37,11.03-8.45,18.24-3.25s18.44,12.05,27.13,6.59c8.69-5.46,13.37-11.92,21.44-12.22,8.07-.3,18.2,3.68,14.77,5.2-3.43,1.52-6.82-4.77-10.06-1.17-3.24,3.6,5.11,7.89,11.34,6.15,6.24-1.73,13.25-4.51,6.78-8.32-6.47-3.81-13.76-7.41-23.7-6.72-9.94,.69-11.89,5.16-21.59,8.67-9.71,3.51-18.71,1.91-17.42-1.95,1.29-3.86,4.68-1.6,9.86-1.99,5.18-.39,10.37-2.12,4.76-4.2-5.61-2.08-24.83-4.72-31.65-1.99-6.82,2.73-13.68,9.62-21.28,14.73-7.6,5.11-12.75,6.46-18.83,2.69s-9.86-7.97-4.21-9.01,5.96,4.59,10.64,4.16c4.68-.43,12.79-3.38,8.11-6.54-4.68-3.16-5.73-4.25-13.49-3.9-7.76,.35-9.63,.69-16.84,1.43-7.21,.74-20.19-7.58-24.83-4.12h0Zm485.75,0s-42.18,37.35-52.58,33.28c-10.41-4.07-10.72-12.13-18.24-17.51-7.52-5.37-11.03-8.45-18.24-3.25-7.21,5.2-18.44,12.05-27.13,6.59s-13.37-11.92-21.44-12.22c-8.07-.3-18.2,3.68-14.77,5.2,3.43,1.52,6.82-4.77,10.06-1.17,3.24,3.6-5.11,7.89-11.34,6.15-6.24-1.73-13.25-4.51-6.78-8.32s13.76-7.41,23.7-6.72c9.94,.69,11.89,5.16,21.59,8.67,9.71,3.51,18.71,1.91,17.42-1.95-1.29-3.86-4.68-1.6-9.86-1.99-5.18-.39-10.37-2.12-4.76-4.2,5.61-2.08,24.83-4.72,31.65-1.99,6.82,2.73,13.68,9.62,21.28,14.73,7.6,5.11,12.75,6.46,18.83,2.69,6.08-3.77,9.86-7.97,4.21-9.01s-5.96,4.59-10.64,4.16c-4.68-.43-12.79-3.38-8.11-6.54,4.68-3.16,5.73-4.25,13.49-3.9,7.76,.35,9.63,.69,16.84,1.43,7.21,.74,20.19-7.58,24.83-4.12h0Zm-237.93,237.93s37.35-42.18,33.28-52.58c-4.07-10.41-12.13-10.72-17.51-18.24-5.37-7.52-8.45-11.03-3.25-18.24,5.2-7.21,12.05-18.44,6.59-27.13-5.46-8.69-11.92-13.37-12.22-21.44-.3-8.07,3.68-18.2,5.2-14.77,1.52,3.43-4.77,6.82-1.17,10.06,3.6,3.24,7.89-5.11,6.15-11.34-1.73-6.24-4.51-13.25-8.32-6.78-3.81,6.47-7.41,13.76-6.72,23.7,.69,9.94,5.16,11.89,8.67,21.59,3.51,9.71,1.91,18.71-1.95,17.42-3.86-1.29-1.6-4.68-1.99-9.86-.39-5.18-2.12-10.37-4.2-4.76-2.08,5.61-4.72,24.83-1.99,31.65,2.73,6.82,9.62,13.68,14.73,21.28,5.11,7.6,6.46,12.75,2.69,18.83-3.77,6.08-7.97,9.86-9.01,4.21s4.59-5.96,4.16-10.64c-.43-4.68-3.38-12.79-6.54-8.11-3.16,4.68-4.25,5.73-3.9,13.49,.35,7.76,.69,9.63,1.43,16.84s-7.58,20.19-4.12,24.83h0Z"/></g><g id="path8431"><path class="cls-3" d="M320.7,69.82c-3.81,1.17-9.36,7.64-2.64,8.73,6.72,1.09,25.09,3.39,26.69,12.79,1.6,9.39,.91,11.38,6.33,9,5.42-2.38,16.08,3.16,18.55,9.78,2.47,6.63,5.81-1.52,2.38-8.77-3.42-7.25-19.37-8.54-19.37-8.54,0,0,10.31,.47,16.29-2.42s5.37-6.67,.82-9.2-18.68,4.79-18.68,4.79c0,0,4.9-9.28,2.43-16.84-2.47-7.56-9.01-8.73-9.97-3.59-.95,5.15,2.77,15.55,2.77,15.55,0,0-14.82-15.01-25.61-11.3h0Zm149.49,149.49c-1.17,3.81-7.64,9.36-8.73,2.64-1.09-6.72-3.39-25.09-12.79-26.69-9.39-1.6-11.38-.91-9-6.33,2.38-5.42-3.16-16.08-9.78-18.55-6.63-2.47,1.52-5.81,8.77-2.38,7.25,3.42,8.54,19.37,8.54,19.37,0,0-.47-10.31,2.42-16.29s6.67-5.37,9.2-.82-4.79,18.68-4.79,18.68c0,0,9.28-4.9,16.84-2.43s8.73,9.01,3.59,9.97c-5.15,.95-15.55-2.77-15.55-2.77,0,0,15.01,14.82,11.3,25.61Zm-400.37,0c1.17,3.81,7.64,9.36,8.73,2.64,1.09-6.72,3.39-25.09,12.79-26.69,9.39-1.6,11.38-.91,9-6.33-2.38-5.42,3.16-16.08,9.78-18.55s-1.52-5.81-8.77-2.38c-7.25,3.42-8.54,19.37-8.54,19.37,0,0,.47-10.31-2.42-16.29-2.88-5.98-6.67-5.37-9.2-.82-2.53,4.55,4.79,18.68,4.79,18.68,0,0-9.28-4.9-16.84-2.43s-8.73,9.01-3.59,9.97c5.15,.95,15.55-2.77,15.55-2.77,0,0-15.01,14.82-11.3,25.61h0ZM219.31,69.82c3.81,1.17,9.36,7.64,2.64,8.73-6.72,1.09-25.09,3.39-26.69,12.79-1.6,9.39-.91,11.38-6.33,9-5.42-2.38-16.08,3.16-18.55,9.78-2.47,6.63-5.81-1.52-2.38-8.77,3.42-7.25,19.37-8.54,19.37-8.54,0,0-10.31,.47-16.29-2.42-5.98-2.88-5.37-6.67-.82-9.2s18.68,4.79,18.68,4.79c0,0-4.9-9.28-2.43-16.84,2.47-7.56,9.01-8.73,9.97-3.59s-2.77,15.55-2.77,15.55c0,0,14.82-15.01,25.61-11.3Zm0,400.37c3.81-1.17,9.36-7.64,2.64-8.73-6.72-1.09-25.09-3.39-26.69-12.79-1.6-9.39-.91-11.38-6.33-9-5.42,2.38-16.08-3.16-18.55-9.78-2.47-6.63-5.81,1.52-2.38,8.77,3.42,7.25,19.37,8.54,19.37,8.54,0,0-10.31-.47-16.29,2.42-5.98,2.88-5.37,6.67-.82,9.2s18.68-4.79,18.68-4.79c0,0-4.9,9.28-2.43,16.84,2.47,7.56,9.01,8.73,9.97,3.59s-2.77-15.55-2.77-15.55c0,0,14.82,15.01,25.61,11.3ZM69.82,320.7c1.17-3.81,7.64-9.36,8.73-2.64,1.09,6.72,3.39,25.09,12.79,26.69,9.39,1.6,11.38,.91,9,6.33-2.38,5.42,3.16,16.08,9.78,18.55,6.63,2.47-1.52,5.81-8.77,2.38-7.25-3.42-8.54-19.37-8.54-19.37,0,0,.47,10.31-2.42,16.29-2.88,5.98-6.67,5.37-9.2,.82-2.53-4.55,4.79-18.68,4.79-18.68,0,0-9.28,4.9-16.84,2.43s-8.73-9.01-3.59-9.97c5.15-.95,15.55,2.77,15.55,2.77,0,0-15.01-14.82-11.3-25.61Zm400.37,0c-1.17-3.81-7.64-9.36-8.73-2.64-1.09,6.72-3.39,25.09-12.79,26.69-9.39,1.6-11.38,.91-9,6.33,2.38,5.42-3.16,16.08-9.78,18.55s1.52,5.81,8.77,2.38,8.54-19.37,8.54-19.37c0,0-.47,10.31,2.42,16.29,2.88,5.98,6.67,5.37,9.2,.82,2.53-4.55-4.79-18.68-4.79-18.68,0,0,9.28,4.9,16.84,2.43s8.73-9.01,3.59-9.97c-5.15-.95-15.55,2.77-15.55,2.77,0,0,15.01-14.82,11.3-25.61h0Zm-149.49,149.49c-3.81-1.17-9.36-7.64-2.64-8.73,6.72-1.09,25.09-3.39,26.69-12.79,1.6-9.39,.91-11.38,6.33-9,5.42,2.38,16.08-3.16,18.55-9.78,2.47-6.63,5.81,1.52,2.38,8.77-3.42,7.25-19.37,8.54-19.37,8.54,0,0,10.31-.47,16.29,2.42,5.98,2.88,5.37,6.67,.82,9.2s-18.68-4.79-18.68-4.79c0,0,4.9,9.28,2.43,16.84-2.47,7.56-9.01,8.73-9.97,3.59-.95-5.15,2.77-15.55,2.77-15.55,0,0-14.82,15.01-25.61,11.3h0Z"/></g><g id="path8433"><path class="cls-3" d="M380.21,72.81s27.95-14.46,43.94-18.09c15.99-3.63,70.07-23.89,88.05-35.94-28.43,23.93-30.55,26.23-46.89,31.65-16.34,5.42-39.48,8.11-54.51,15.47-15.04,7.37-20.97,16.88-26.82,13.88-5.85-3-3.77-6.98-3.77-6.98Zm86.98,86.98s14.46-27.95,18.09-43.94c3.63-15.99,23.89-70.07,35.94-88.05-23.93,28.43-26.23,30.55-31.65,46.89-5.42,16.34-8.11,39.48-15.47,54.51-7.37,15.04-16.88,20.97-13.88,26.82,3,5.85,6.98,3.77,6.98,3.77Zm-394.39,0s-14.46-27.95-18.09-43.94c-3.62-15.99-23.89-70.07-35.94-88.05,23.93,28.43,26.23,30.55,31.65,46.89s8.11,39.48,15.47,54.51c7.37,15.04,16.88,20.97,13.88,26.82-3,5.85-6.98,3.77-6.98,3.77Zm86.98-86.98s-27.95-14.46-43.94-18.09c-15.99-3.63-70.07-23.89-88.05-35.94,28.43,23.93,30.55,26.23,46.89,31.65,16.34,5.42,39.48,8.11,54.51,15.47,15.04,7.37,20.97,16.88,26.82,13.88,5.85-3,3.77-6.98,3.77-6.98Zm0,394.39s-27.95,14.46-43.94,18.09c-15.99,3.62-70.07,23.89-88.05,35.94,28.43-23.93,30.55-26.23,46.89-31.65,16.34-5.42,39.48-8.11,54.51-15.47,15.04-7.37,20.97-16.88,26.82-13.88,5.85,3,3.77,6.98,3.77,6.98Zm-86.98-86.98s-14.46,27.95-18.09,43.94c-3.62,15.99-23.89,70.07-35.94,88.05,23.93-28.43,26.23-30.55,31.65-46.89,5.42-16.34,8.11-39.48,15.47-54.51s16.88-20.97,13.88-26.82c-3-5.85-6.98-3.77-6.98-3.77Zm394.39,0s14.46,27.95,18.09,43.94c3.63,15.99,23.89,70.07,35.94,88.05-23.93-28.43-26.23-30.55-31.65-46.89-5.42-16.34-8.11-39.48-15.47-54.51-7.37-15.04-16.88-20.97-13.88-26.82,3-5.85,6.98-3.77,6.98-3.77Zm-86.98,86.98s27.95,14.46,43.94,18.09c15.99,3.62,70.07,23.89,88.05,35.94-28.43-23.93-30.55-26.23-46.89-31.65-16.34-5.42-39.48-8.11-54.51-15.47-15.04-7.37-20.97-16.88-26.82-13.88-5.85,3-3.77,6.98-3.77,6.98Z"/></g></g></g></svg>