<?xml version="1.0" encoding="UTF-8"?><svg id="Layer_2" xmlns="http://www.w3.org/2000/svg" viewBox="0 0 540 540"><defs><style>.cls-1{fill:#e9e9e2;}.cls-2{fill:#cf962b;}.cls-3{fill:#b2781e;}.cls-4{fill:#62908e;}</style></defs><g id="OBJECTS"><g id="g17492"><path id="path17464" class="cls-1" d="M270.01,270.01L540,0H270s0,270.01,0,270.01Zm0,0L540,0V270s-270.01,0-270.01,0Zm0,0L0,0V270s270.01,0,270.01,0Zm0,0L0,0H270s0,270.01,0,270.01Zm0,0L0,540H270s0-270.01,0-270.01Zm0,0L0,540V270s270.01,0,270.01,0Zm0,0l270.01,270V270s-270.01,0-270.01,0Zm0,0l270,270.01H270s0-270.01,0-270.01Z"/><path id="path17466" class="cls-3" d="M353.34,82.55s-8.93,7.36-10.07,16.68c-1.14,9.32,.41,30.42,10.25,29.78,9.83-.64,15.2-11.32,11.24-20.75-3.96-9.43-15.57-17.86-11.42-25.71Zm104.11,104.11s-7.36,8.93-16.68,10.07c-9.32,1.14-30.42-.41-29.78-10.25s11.32-15.2,20.75-11.24c9.43,3.96,17.86,15.57,25.71,11.42Zm-374.9,0s7.36,8.93,16.68,10.07c9.32,1.14,30.42-.41,29.78-10.25-.64-9.83-11.32-15.2-20.75-11.24-9.43,3.96-17.86,15.57-25.71,11.42Zm104.11-104.11s8.93,7.36,10.07,16.68c1.14,9.32-.41,30.42-10.25,29.78-9.83-.64-15.2-11.32-11.24-20.75s15.57-17.86,11.42-25.71Zm0,374.9s8.93-7.36,10.07-16.68c1.14-9.32-.41-30.42-10.25-29.78-9.83,.64-15.2,11.32-11.24,20.75s15.57,17.86,11.42,25.71Zm-104.11-104.11s7.36-8.93,16.68-10.07c9.32-1.14,30.42,.41,29.78,10.25-.64,9.83-11.32,15.2-20.75,11.24-9.43-3.96-17.86-15.57-25.71-11.42Zm374.9,0s-7.36-8.93-16.68-10.07c-9.32-1.14-30.42,.41-29.78,10.25s11.32,15.2,20.75,11.24c9.43-3.96,17.86-15.57,25.71-11.42Zm-104.11,104.11s-8.93-7.36-10.07-16.68c-1.14-9.32,.41-30.42,10.25-29.78,9.83,.64,15.2,11.32,11.24,20.75-3.96,9.43-15.57,17.86-11.42,25.71Z"/><path id="path17468" class="cls-2" d="M329.02,87.86s6.23,3.48,4.62,12.72c-1.6,9.25-4,19.07,5.12,26.65,9.12,7.58,20.11,2.48,19.97-12.7-.14-15.18-13.44-30.74-29.71-26.68Zm123.13,123.13s-3.48-6.23-12.72-4.62c-9.25,1.6-19.07,4-26.65-5.12-7.58-9.12-2.48-20.11,12.7-19.97,15.18,.14,30.74,13.44,26.68,29.71Zm-364.28,0s3.48-6.23,12.72-4.62c9.25,1.6,19.07,4,26.65-5.12,7.58-9.12,2.48-20.11-12.7-19.97-15.18,.14-30.74,13.44-26.68,29.71Zm123.13-123.13s-6.23,3.48-4.62,12.72c1.6,9.25,4,19.07-5.12,26.65-9.12,7.58-20.11,2.48-19.97-12.7,.14-15.18,13.44-30.74,29.71-26.68Zm0,364.28s-6.23-3.48-4.62-12.72c1.6-9.25,4-19.07-5.12-26.65-9.12-7.58-20.11-2.48-19.97,12.7,.14,15.18,13.44,30.74,29.71,26.68Zm-123.13-123.13s3.48,6.23,12.72,4.62c9.25-1.6,19.07-4,26.65,5.12,7.58,9.12,2.48,20.11-12.7,19.97-15.18-.14-30.74-13.44-26.68-29.71Zm364.28,0s-3.48,6.23-12.72,4.62c-9.25-1.6-19.07-4-26.65,5.12-7.58,9.12-2.48,20.11,12.7,19.97,15.18-.14,30.74-13.44,26.68-29.71Zm-123.13,123.13s6.23-3.48,4.62-12.72c-1.6-9.25-4-19.07,5.12-26.65,9.12-7.58,20.11-2.48,19.97,12.7-.14,15.18-13.44,30.74-29.71,26.68Z"/><path id="path17470" class="cls-4" d="M277.61,49.44s-4.55,31.81,3.77,52.78c8.32,20.97,37.66,49.58,41.21,75,3.55,25.41-52.59,66.54-52.59,66.54v15.34s63.92-48.97,63.48-80.19c-.43-31.22-31.37-54.15-42.16-72.23s-13.08-35.32-13.71-57.22Zm212.95,212.95s-31.81,4.55-52.78-3.77c-20.97-8.32-49.58-37.66-75-41.21-25.41-3.55-66.54,52.59-66.54,52.59h-15.34s48.97-63.92,80.19-63.48c31.22,.43,54.15,31.37,72.23,42.16,18.09,10.79,35.32,13.08,57.22,13.71Zm-441.12,0s31.81,4.55,52.78-3.77c20.97-8.32,49.58-37.66,75-41.21,25.41-3.55,66.54,52.59,66.54,52.59h15.34s-48.97-63.92-80.19-63.48c-31.22,.43-54.15,31.37-72.23,42.16-18.09,10.79-35.32,13.08-57.22,13.71h0ZM262.39,49.44s4.55,31.81-3.77,52.78c-8.32,20.97-37.66,49.58-41.21,75-3.55,25.41,52.59,66.54,52.59,66.54v15.34s-63.92-48.97-63.48-80.19c.43-31.22,31.37-54.15,42.16-72.23,10.79-18.09,13.08-35.32,13.71-57.22Zm0,441.12s4.55-31.81-3.77-52.78c-8.32-20.97-37.66-49.58-41.21-75-3.55-25.41,52.59-66.54,52.59-66.54v-15.34s-63.92,48.97-63.48,80.19c.43,31.22,31.37,54.15,42.16,72.23,10.79,18.09,13.08,35.32,13.71,57.22ZM49.44,277.61s31.81-4.55,52.78,3.77,49.58,37.66,75,41.21c25.41,3.55,66.54-52.59,66.54-52.59h15.34s-48.97,63.92-80.19,63.48c-31.22-.43-54.15-31.37-72.23-42.16-18.09-10.79-35.32-13.08-57.22-13.71Zm441.12,0s-31.81-4.55-52.78,3.77c-20.97,8.32-49.58,37.66-75,41.21-25.41,3.55-66.54-52.59-66.54-52.59h-15.34s48.97,63.92,80.19,63.48c31.22-.43,54.15-31.37,72.23-42.16,18.09-10.79,35.32-13.08,57.22-13.71Zm-212.95,212.95s-4.55-31.81,3.77-52.78c8.32-20.97,37.66-49.58,41.21-75,3.55-25.41-52.59-66.54-52.59-66.54v-15.34s63.92,48.97,63.48,80.19c-.43,31.22-31.37,54.15-42.16,72.23-10.79,18.09-13.08,35.32-13.71,57.22h0Z"/><path id="path17472" class="cls-4" d="M277.43,244.06s-5.12-33.07,12.38-49.14c17.5-16.07,54.45-16.95,71.15-35.72,16.7-18.77,27.2-45.56,11.82-72.65-15.38-27.09-41.82-16.87-41.82-16.87,0,0,12.75-11.6,35.24,.99,22.49,12.6,25.8,48.4,14.98,74.36-10.82,25.96-25.86,34.26-48.9,42.12-23.04,7.86-36.06,13.01-40.78,23.07-4.72,10.06-1.38,23.32-1.38,23.32l-12.68,10.52Zm18.52,18.52s33.07,5.12,49.14-12.38c16.07-17.5,16.95-54.45,35.72-71.15,18.77-16.7,45.56-27.2,72.65-11.82,27.09,15.38,16.87,41.82,16.87,41.82,0,0,11.6-12.75-.99-35.24-12.6-22.49-48.4-25.8-74.36-14.98-25.96,10.82-34.26,25.86-42.12,48.9-7.86,23.04-13.01,36.06-23.07,40.78-10.06,4.72-23.32,1.38-23.32,1.38l-10.52,12.68Zm-51.89,0s-33.07,5.12-49.14-12.38c-16.07-17.5-16.95-54.45-35.72-71.15-18.77-16.7-45.56-27.2-72.65-11.82-27.09,15.38-16.87,41.82-16.87,41.82,0,0-11.6-12.75,.99-35.24,12.6-22.49,48.4-25.8,74.36-14.98,25.96,10.82,34.26,25.86,42.12,48.9,7.86,23.04,13.01,36.06,23.07,40.78,10.06,4.72,23.32,1.38,23.32,1.38l10.52,12.68Zm18.52-18.52s5.12-33.07-12.38-49.14c-17.5-16.07-54.45-16.95-71.15-35.72-16.7-18.77-27.2-45.56-11.82-72.65,15.38-27.09,41.82-16.87,41.82-16.87,0,0-12.75-11.6-35.24,.99-22.49,12.6-25.8,48.4-14.98,74.36,10.82,25.96,25.86,34.26,48.9,42.12,23.04,7.86,36.06,13.01,40.78,23.07,4.72,10.06,1.38,23.32,1.38,23.32l12.68,10.52Zm0,51.89s5.12,33.07-12.38,49.14c-17.5,16.07-54.45,16.95-71.15,35.72-16.7,18.77-27.2,45.56-11.82,72.65,15.38,27.09,41.82,16.87,41.82,16.87,0,0-12.75,11.6-35.24-.99-22.49-12.6-25.8-48.4-14.98-74.36,10.82-25.96,25.86-34.26,48.9-42.12,23.04-7.86,36.06-13.01,40.78-23.07,4.72-10.06,1.38-23.32,1.38-23.32l12.68-10.52Zm-18.52-18.52s-33.07-5.12-49.14,12.38c-16.07,17.5-16.95,54.45-35.72,71.15-18.77,16.7-45.56,27.2-72.65,11.82-27.09-15.38-16.87-41.82-16.87-41.82,0,0-11.6,12.75,.99,35.24s48.4,25.8,74.36,14.98c25.96-10.82,34.26-25.86,42.12-48.9,7.86-23.04,13.01-36.06,23.07-40.78,10.06-4.72,23.32-1.38,23.32-1.38l10.52-12.68Zm51.89,0s33.07-5.12,49.14,12.38c16.07,17.5,16.95,54.45,35.72,71.15,18.77,16.7,45.56,27.2,72.65,11.82,27.09-15.38,16.87-41.82,16.87-41.82,0,0,11.6,12.75-.99,35.24s-48.4,25.8-74.36,14.98c-25.96-10.82-34.26-25.86-42.12-48.9-7.86-23.04-13.01-36.06-23.07-40.78-10.06-4.72-23.32-1.38-23.32-1.38l-10.52-12.68Zm-18.52,18.52s-5.12,33.07,12.38,49.14c17.5,16.07,54.45,16.95,71.15,35.72,16.7,18.77,27.2,45.56,11.82,72.65-15.38,27.09-41.82,16.87-41.82,16.87,0,0,12.75,11.6,35.24-.99,22.49-12.6,25.8-48.4,14.98-74.36-10.82-25.96-25.86-34.26-48.9-42.12-23.04-7.86-36.06-13.01-40.78-23.07-4.72-10.06-1.38-23.32-1.38-23.32l-12.68-10.52Z"/><path id="path17474" class="cls-3" d="M281.17,118.58s-5.52,3.09-7.27,12.05c-1.74,8.97-2.86,38.8-2.86,38.8,0,0,7.97,1.73,15.06-5.98,7.08-7.72,6.59-18.74,1.35-28.9-5.23-10.16-7.67-14.07-6.28-15.97h0Zm140.25,140.25s-3.09,5.52-12.05,7.27c-8.97,1.74-38.8,2.86-38.8,2.86,0,0-1.73-7.97,5.98-15.06,7.72-7.08,18.74-6.59,28.9-1.35,10.16,5.23,14.07,7.67,15.97,6.28Zm-302.85,0s3.09,5.52,12.05,7.27c8.97,1.74,38.8,2.86,38.8,2.86,0,0,1.73-7.97-5.98-15.06-7.72-7.08-18.74-6.59-28.9-1.35-10.16,5.23-14.07,7.67-15.97,6.28ZM258.83,118.58s5.52,3.09,7.27,12.05c1.74,8.97,2.86,38.8,2.86,38.8,0,0-7.97,1.73-15.06-5.98-7.08-7.72-6.59-18.74-1.35-28.9,5.23-10.16,7.67-14.07,6.28-15.97Zm0,302.85s5.52-3.09,7.27-12.05c1.74-8.97,2.86-38.8,2.86-38.8,0,0-7.97-1.73-15.06,5.98-7.08,7.72-6.59,18.74-1.35,28.9,5.23,10.16,7.67,14.07,6.28,15.97ZM118.58,281.17s3.09-5.52,12.05-7.27c8.97-1.74,38.8-2.86,38.8-2.86,0,0,1.73,7.97-5.98,15.06s-18.74,6.59-28.9,1.35c-10.16-5.23-14.07-7.67-15.97-6.28Zm302.85,0s-3.09-5.52-12.05-7.27c-8.97-1.74-38.8-2.86-38.8-2.86,0,0-1.73,7.97,5.98,15.06,7.72,7.08,18.74,6.59,28.9,1.35,10.16-5.23,14.07-7.67,15.97-6.28Zm-140.25,140.25s-5.52-3.09-7.27-12.05c-1.74-8.97-2.86-38.8-2.86-38.8,0,0,7.97-1.73,15.06,5.98,7.08,7.72,6.59,18.74,1.35,28.9-5.23,10.16-7.67,14.07-6.28,15.97Z"/><path id="path17476" class="cls-2" d="M270,115.38v54.67s15.53-1.57,15.81-16.14c.18-9.3-13.67-28.33-7.37-38.2-3.17,.89-8.45-.91-8.45-.33Zm154.63,154.63h-54.67s1.57-15.53,16.14-15.81c9.3-.18,28.33,13.67,38.2,7.37-.89,3.17,.91,8.45,.33,8.45Zm-309.25,0h54.67s-1.57-15.53-16.14-15.81c-9.3-.18-28.33,13.67-38.2,7.37,.89,3.17-.91,8.45-.33,8.45ZM270.01,115.38v54.67s-15.53-1.57-15.81-16.14c-.18-9.3,13.67-28.33,7.37-38.2,3.17,.89,8.45-.91,8.45-.33h0Zm0,309.25v-54.67s-15.53,1.57-15.81,16.14c-.18,9.3,13.67,28.33,7.37,38.2,3.17-.89,8.45,.91,8.45,.33ZM115.38,270h54.67s-1.57,15.53-16.14,15.81c-9.3,.18-28.33-13.67-38.2-7.37,.89-3.17-.91-8.45-.33-8.45Zm309.25,0h-54.67s1.57,15.53,16.14,15.81c9.3,.18,28.33-13.67,38.2-7.37-.89-3.17,.91-8.45,.33-8.45Zm-154.63,154.63v-54.67s15.53,1.57,15.81,16.14c.18,9.3-13.67,28.33-7.37,38.2-3.17-.89-8.45,.91-8.45,.33Z"/><path id="path17478" class="cls-4" d="M270,165.27s9.14,.04,14.12-4.61c-1.59,3.34-5,5.37-5,5.37,0,0,5.3-1.82,8.33-4.57-4.37,7.07-10.23,8.89-13.8,9.96-.83,23.49,5.76,66.07,5.76,66.07l-3.28,7.27-6.13,3.38v-82.87Zm104.73,104.73s-.04-9.14,4.61-14.12c-3.34,1.59-5.37,5-5.37,5,0,0,1.82-5.3,4.57-8.33-7.07,4.37-8.89,10.23-9.96,13.8-23.49,.83-66.07-5.76-66.07-5.76l-7.27,3.28-3.38,6.13h82.87Zm-209.46,0s.04-9.14-4.61-14.12c3.34,1.59,5.37,5,5.37,5,0,0-1.82-5.3-4.57-8.33,7.07,4.37,8.89,10.23,9.96,13.8,23.49,.83,66.07-5.76,66.07-5.76l7.27,3.28,3.38,6.13h-82.87Zm104.73-104.73s-9.14,.04-14.12-4.61c1.59,3.34,5,5.37,5,5.37,0,0-5.3-1.82-8.33-4.57,4.37,7.07,10.23,8.89,13.8,9.96,.83,23.49-5.76,66.07-5.76,66.07l3.28,7.27,6.13,3.38v-82.87Zm0,209.46s-9.14-.04-14.12,4.61c1.59-3.34,5-5.37,5-5.37,0,0-5.3,1.82-8.33,4.57,4.37-7.07,10.23-8.89,13.8-9.96,.83-23.49-5.76-66.07-5.76-66.07l3.28-7.27,6.13-3.38v82.87Zm-104.73-104.73s.04,9.14-4.61,14.12c3.34-1.59,5.37-5,5.37-5,0,0-1.82,5.3-4.57,8.33,7.07-4.37,8.89-10.23,9.96-13.8,23.49-.83,66.07,5.76,66.07,5.76l7.27-3.28,3.38-6.13h-82.87Zm209.46,0s-.04,9.14,4.61,14.12c-3.34-1.59-5.37-5-5.37-5,0,0,1.82,5.3,4.57,8.33-7.07-4.37-8.89-10.23-9.96-13.8-23.49-.83-66.07,5.76-66.07,5.76l-7.27-3.28-3.38-6.13h82.87Zm-104.73,104.73s9.14-.04,14.12,4.61c-1.59-3.34-5-5.37-5-5.37,0,0,5.3,1.82,8.33,4.57-4.37-7.07-10.23-8.89-13.8-9.96-.83-23.49,5.76-66.07,5.76-66.07l-3.28-7.27-6.13-3.38v82.87Z"/><path id="path17480" class="cls-2" d="M281.12,193.35s-3.73-11.3,6.98-19.76c10.7-8.46,15.75-16.37,14.08-26.21,7.99,21.17,5.05,27.09-1.91,33-6.96,5.91-16.08,3.8-19.15,12.98h0Zm65.53,65.53s11.3,3.73,19.76-6.98c8.46-10.7,16.37-15.75,26.21-14.08-21.17-7.99-27.09-5.05-33,1.91-5.91,6.96-3.8,16.08-12.98,19.15h0Zm-153.31,0s-11.3,3.73-19.76-6.98c-8.46-10.7-16.37-15.75-26.21-14.08,21.17-7.99,27.09-5.05,33,1.91,5.91,6.96,3.8,16.08,12.98,19.15h0Zm65.53-65.53s3.73-11.3-6.98-19.76c-10.7-8.46-15.75-16.37-14.08-26.21-7.99,21.17-5.05,27.09,1.91,33,6.96,5.91,16.08,3.8,19.15,12.98h0Zm0,153.31s3.73,11.3-6.98,19.76c-10.7,8.46-15.75,16.37-14.08,26.21-7.99-21.17-5.05-27.09,1.91-33,6.96-5.91,16.08-3.8,19.15-12.98h0Zm-65.53-65.53s-11.3-3.73-19.76,6.98c-8.46,10.7-16.37,15.75-26.21,14.08,21.17,7.99,27.09,5.05,33-1.91,5.91-6.96,3.8-16.08,12.98-19.15h0Zm153.31,0s11.3-3.73,19.76,6.98c8.46,10.7,16.37,15.75,26.21,14.08-21.17,7.99-27.09,5.05-33-1.91-5.91-6.96-3.8-16.08-12.98-19.15Zm-65.53,65.53s-3.73,11.3,6.98,19.76c10.7,8.46,15.75,16.37,14.08,26.21,7.99-21.17,5.05-27.09-1.91-33-6.96-5.91-16.08-3.8-19.15-12.98Z"/><path id="path17482" class="cls-4" d="M388.73,140.37s8.7-10.72,8.79-25.94c.09-15.21-6.83-37.29,11.37-50.03,18.2-12.73,48.63-2.04,61.96-14.64-12.2,19.27-26.32,13.56-40.63,16.34-14.31,2.78-23.75,7.36-25.19,21.47s13.05,32.17-16.3,52.78Zm10.91,10.91s10.72-8.7,25.94-8.79c15.21-.09,37.29,6.83,50.03-11.37,12.73-18.2,2.04-48.63,14.64-61.96-19.27,12.19-13.56,26.32-16.34,40.63-2.78,14.31-7.36,23.75-21.47,25.19-14.11,1.44-32.17-13.05-52.78,16.3Zm-259.26,0s-10.72-8.7-25.94-8.79c-15.21-.09-37.29,6.83-50.03-11.37-12.73-18.2-2.04-48.63-14.64-61.96,19.27,12.19,13.56,26.32,16.34,40.63,2.78,14.31,7.36,23.75,21.47,25.19s32.17-13.05,52.78,16.3Zm10.9-10.9s-8.7-10.72-8.79-25.94c-.09-15.21,6.83-37.29-11.37-50.03-18.2-12.73-48.63-2.04-61.96-14.64,12.19,19.27,26.32,13.56,40.63,16.34,14.31,2.78,23.75,7.36,25.19,21.47s-13.05,32.17,16.3,52.78Zm0,259.26s-8.7,10.72-8.79,25.94c-.09,15.21,6.83,37.29-11.37,50.03-18.2,12.73-48.63,2.04-61.96,14.64,12.19-19.27,26.32-13.56,40.63-16.34,14.31-2.78,23.75-7.36,25.19-21.47s-13.05-32.17,16.3-52.78Zm-10.9-10.91s-10.72,8.7-25.94,8.79c-15.21,.09-37.29-6.83-50.03,11.37-12.73,18.2-2.04,48.63-14.64,61.96,19.27-12.19,13.56-26.32,16.34-40.63,2.78-14.31,7.36-23.75,21.47-25.19,14.11-1.44,32.17,13.05,52.78-16.3Zm259.26,0s10.72,8.7,25.94,8.79c15.21,.09,37.29-6.83,50.03,11.37,12.73,18.2,2.04,48.63,14.64,61.96-19.27-12.19-13.56-26.32-16.34-40.63-2.78-14.31-7.36-23.75-21.47-25.19-14.11-1.44-32.17,13.05-52.78-16.3Zm-10.91,10.91s8.7,10.72,8.79,25.94c.09,15.21-6.83,37.29,11.37,50.03,18.2,12.73,48.63,2.04,61.96,14.64-12.19-19.27-26.32-13.56-40.63-16.34-14.31-2.78-23.75-7.36-25.19-21.47s13.05-32.17-16.3-52.78Z"/><path id="path17484" class="cls-4" d="M346.77,129.44s3.36,4.56,8.1,3.92,5.05-7.41,5.05-7.41c0,0-6.85-1.73-13.15,3.49Zm63.79,63.79s-4.56-3.36-3.92-8.1c.64-4.74,7.41-5.05,7.41-5.05,0,0,1.73,6.85-3.49,13.15Zm-281.12,0s4.56-3.36,3.92-8.1-7.41-5.05-7.41-5.05c0,0-1.73,6.85,3.49,13.15Zm63.79-63.79s-3.36,4.56-8.1,3.92-5.05-7.41-5.05-7.41c0,0,6.85-1.73,13.15,3.49Zm0,281.12s-3.36-4.56-8.1-3.92-5.05,7.41-5.05,7.41c0,0,6.85,1.73,13.15-3.49Zm-63.79-63.79s4.56,3.36,3.92,8.1-7.41,5.05-7.41,5.05c0,0-1.73-6.85,3.49-13.15Zm281.12,0s-4.56,3.36-3.92,8.1,7.41,5.05,7.41,5.05c0,0,1.73-6.85-3.49-13.15Zm-63.79,63.79s3.36-4.56,8.1-3.92,5.05,7.41,5.05,7.41c0,0-6.85,1.73-13.15-3.49Z"/><path id="path17486" class="cls-4" d="M353.47,131.92s4.18,8.24,3.64,17.33c-.54,9.08-14.1,24.77-14.1,24.77l6.54-.47s8.21-12.86,10.12-20.68c1.91-7.82-3.81-22.61-3.81-22.61l-2.38,1.66Zm54.62,54.62s-8.24-4.18-17.33-3.64c-9.08,.54-24.77,14.1-24.77,14.1l.47-6.54s12.86-8.21,20.68-10.12c7.82-1.91,22.61,3.81,22.61,3.81l-1.66,2.38Zm-276.17,0s8.24-4.18,17.33-3.64c9.08,.54,24.77,14.1,24.77,14.1l-.47-6.54s-12.86-8.21-20.68-10.12c-7.82-1.91-22.61,3.81-22.61,3.81l1.66,2.38Zm54.62-54.62s-4.18,8.24-3.64,17.33c.54,9.08,14.1,24.77,14.1,24.77l-6.54-.47s-8.21-12.86-10.12-20.68c-1.91-7.82,3.81-22.61,3.81-22.61l2.38,1.66Zm0,276.17s-4.18-8.24-3.64-17.33c.54-9.08,14.1-24.77,14.1-24.77l-6.54,.47s-8.21,12.86-10.12,20.68c-1.91,7.82,3.81,22.61,3.81,22.61l2.38-1.66Zm-54.62-54.62s8.24,4.18,17.33,3.64c9.08-.54,24.77-14.1,24.77-14.1l-.47,6.54s-12.86,8.21-20.68,10.12c-7.82,1.91-22.61-3.81-22.61-3.81l1.66-2.38Zm276.17,0s-8.24,4.18-17.33,3.64c-9.08-.54-24.77-14.1-24.77-14.1l.47,6.54s12.86,8.21,20.68,10.12c7.82,1.91,22.61-3.81,22.61-3.81l-1.66-2.38Zm-54.62,54.62s4.18-8.24,3.64-17.33c-.54-9.08-14.1-24.77-14.1-24.77l6.54,.47s8.21,12.86,10.12,20.68c1.91,7.82-3.81,22.61-3.81,22.61l-2.38-1.66Z"/><path id="path17488" class="cls-4" d="M411.42,117.82s5.46-7.99,5-15.32c-.45-7.33-2.99-18.26,6.61-24.85,9.6-6.59,20.95-5.59,23.33-1.05,2.38,4.54-.15,14.48-7.04,12.92-6.89-1.56-8.43-7.89-2.77-9-10.62,.08-13.09,3-11.72,10.47,1.36,7.46-1.84,17.77-13.41,26.84Zm10.76,10.76s7.99-5.46,15.32-5c7.33,.45,18.26,2.99,24.85-6.61,6.59-9.6,5.59-20.95,1.05-23.33-4.54-2.38-14.48,.15-12.92,7.04,1.56,6.89,7.89,8.43,9,2.77-.08,10.62-3,13.09-10.47,11.72-7.46-1.36-17.77,1.84-26.84,13.41Zm-304.36,0s-7.99-5.46-15.32-5c-7.33,.45-18.26,2.99-24.85-6.61-6.59-9.6-5.59-20.95-1.05-23.33,4.54-2.38,14.48,.15,12.92,7.04-1.56,6.89-7.89,8.43-9,2.77,.08,10.62,3,13.09,10.47,11.72,7.46-1.36,17.77,1.84,26.84,13.41Zm10.76-10.76s-5.46-7.99-5-15.32c.45-7.33,2.99-18.26-6.61-24.85-9.6-6.59-20.95-5.59-23.33-1.05-2.38,4.54,.15,14.48,7.04,12.92,6.89-1.56,8.43-7.89,2.77-9,10.62,.08,13.09,3,11.72,10.47-1.36,7.46,1.84,17.77,13.41,26.84Zm0,304.36s-5.46,7.99-5,15.32c.45,7.33,2.99,18.26-6.61,24.85-9.6,6.59-20.95,5.59-23.33,1.05-2.38-4.54,.15-14.48,7.04-12.92,6.89,1.56,8.43,7.89,2.77,9,10.62-.08,13.09-3,11.72-10.47-1.36-7.46,1.84-17.77,13.41-26.84h0Zm-10.76-10.76s-7.99,5.46-15.32,5c-7.33-.45-18.26-2.99-24.85,6.61-6.59,9.6-5.59,20.95-1.05,23.33,4.54,2.38,14.48-.15,12.92-7.04-1.56-6.89-7.89-8.43-9-2.77,.08-10.62,3-13.09,10.47-11.72,7.46,1.36,17.77-1.84,26.84-13.41h0Zm304.36,0s7.99,5.46,15.32,5c7.33-.45,18.26-2.99,24.85,6.61,6.59,9.6,5.59,20.95,1.05,23.33-4.54,2.38-14.48-.15-12.92-7.04,1.56-6.89,7.89-8.43,9-2.77-.08-10.62-3-13.09-10.47-11.72-7.46,1.36-17.77-1.84-26.84-13.41h0Zm-10.76,10.76s5.46,7.99,5,15.32c-.45,7.33-2.99,18.26,6.61,24.85,9.6,6.59,20.95,5.59,23.33,1.05,2.38-4.54-.15-14.48-7.04-12.92s-8.43,7.89-2.77,9c-10.62-.08-13.09-3-11.72-10.47,1.36-7.46-1.84-17.77-13.41-26.84h0Z"/><path id="path17490" class="cls-4" d="M310.77,31.92s-20.65,17.7-14.89,46.75c5.76,29.05,38.55,64.44,38.55,64.44,0,0-40.32-69.46-23.65-111.19Zm197.32,197.32s-17.7,20.65-46.75,14.89c-29.05-5.76-64.44-38.55-64.44-38.55,0,0,69.46,40.32,111.19,23.65Zm-476.17,0s17.7,20.65,46.75,14.89c29.05-5.76,64.44-38.55,64.44-38.55,0,0-69.46,40.32-111.19,23.65ZM229.24,31.92s20.65,17.7,14.89,46.75c-5.76,29.05-38.55,64.44-38.55,64.44,0,0,40.32-69.46,23.65-111.19Zm0,476.17s20.65-17.7,14.89-46.75c-5.76-29.05-38.55-64.44-38.55-64.44,0,0,40.32,69.46,23.65,111.19ZM31.92,310.77s17.7-20.65,46.75-14.89c29.05,5.76,64.44,38.55,64.44,38.55,0,0-69.46-40.32-111.19-23.65Zm476.17,0s-17.7-20.65-46.75-14.89c-29.05,5.76-64.44,38.55-64.44,38.55,0,0,69.46-40.32,111.19-23.65h0Zm-197.32,197.32s-20.65-17.7-14.89-46.75c5.76-29.05,38.55-64.44,38.55-64.44,0,0-40.32,69.46-23.65,111.19h0Z"/></g></g></svg>