<?xml version="1.0" encoding="UTF-8"?><svg id="Layer_2" xmlns="http://www.w3.org/2000/svg" viewBox="0 0 540 540"><defs><style>.cls-1{fill:#e9e9e2;}.cls-2{fill:#cf962b;}.cls-3{fill:#62908e;}</style></defs><g id="OBJECTS"><g id="g18750"><path id="path18714" class="cls-1" d="M270.01,270.01L540,0H270s0,270.01,0,270.01Zm0,0L540,0V270s-270.01,0-270.01,0Zm0,0L0,0V270s270.01,0,270.01,0Zm0,0L0,0H270s0,270.01,0,270.01Zm0,0L0,540H270s0-270.01,0-270.01Zm0,0L0,540V270s270.01,0,270.01,0Zm0,0l270.01,270V270s-270.01,0-270.01,0Zm0,0l270,270.01H270s0-270.01,0-270.01Z"/><path id="path18716" class="cls-2" d="M273.58,231.68s-.8-17.81,11.92-29.14c12.72-11.34,26.16-6.95,35.22-15.41,9.06-8.46,5.48-16.4,.88-20.86,17.67-.82,21.78,27.98,9.82,39.73-11.95,11.75-50.86,6.99-57.83,25.68Zm34.75,34.75s17.81,.8,29.14-11.92c11.34-12.72,6.95-26.16,15.41-35.22s16.4-5.48,20.86-.88c.82-17.67-27.98-21.78-39.73-9.82-11.75,11.95-6.99,50.86-25.68,57.83Zm-76.64,0s-17.81,.8-29.14-11.92c-11.34-12.72-6.95-26.16-15.41-35.22-8.46-9.06-16.4-5.48-20.86-.88-.82-17.67,27.98-21.78,39.73-9.82,11.75,11.95,6.99,50.86,25.69,57.83Zm34.75-34.75s.8-17.81-11.92-29.14c-12.72-11.34-26.16-6.95-35.22-15.41-9.06-8.46-5.48-16.4-.88-20.86-17.67-.82-21.78,27.98-9.82,39.73,11.95,11.75,50.86,6.99,57.83,25.68Zm0,76.64s.8,17.81-11.92,29.14c-12.72,11.34-26.16,6.95-35.22,15.41-9.06,8.46-5.48,16.4-.88,20.86-17.67,.82-21.78-27.98-9.82-39.73,11.95-11.75,50.86-6.99,57.83-25.68Zm-34.75-34.75s-17.81-.8-29.14,11.92c-11.34,12.72-6.95,26.15-15.41,35.22-8.46,9.06-16.4,5.48-20.86,.88-.82,17.67,27.98,21.78,39.73,9.82,11.75-11.95,6.99-50.86,25.69-57.83h0Zm76.64,0s17.81-.8,29.14,11.92c11.34,12.72,6.95,26.15,15.41,35.22,8.46,9.06,16.4,5.48,20.86,.88,.82,17.67-27.98,21.78-39.73,9.82-11.75-11.95-6.99-50.86-25.69-57.83h0Zm-34.75,34.75s-.8,17.81,11.92,29.14,26.16,6.95,35.22,15.41c9.06,8.46,5.48,16.4,.88,20.86,17.67,.82,21.78-27.98,9.82-39.73-11.95-11.75-50.86-6.99-57.83-25.68h0Z"/><path id="path18718" class="cls-3" d="M316.48,216.04s-27.04,2.42-36.01,12.49c-8.97,10.08-5.29,26.55-7.24,34.09,14.52-14.54,14.95-19.92,19.41-25.41,4.46-5.5,19.07-8.79,23.83-21.17Zm7.48,7.48s-2.42,27.04-12.49,36.01c-10.08,8.97-26.54,5.29-34.09,7.24,14.54-14.52,19.92-14.95,25.41-19.41,5.5-4.46,8.79-19.07,21.17-23.83h0Zm-107.92,0s2.42,27.04,12.49,36.01c10.08,8.97,26.54,5.29,34.09,7.24-14.54-14.52-19.92-14.95-25.41-19.41-5.5-4.46-8.79-19.07-21.17-23.83h0Zm7.48-7.48s27.04,2.42,36.01,12.49c8.97,10.08,5.29,26.55,7.24,34.09-14.52-14.54-14.95-19.92-19.41-25.41-4.46-5.5-19.07-8.79-23.83-21.17Zm0,107.92s27.04-2.42,36.01-12.49c8.97-10.08,5.29-26.54,7.24-34.09-14.52,14.54-14.95,19.92-19.41,25.41-4.46,5.5-19.07,8.79-23.83,21.17h0Zm-7.48-7.48s2.42-27.04,12.49-36.01c10.08-8.97,26.54-5.29,34.09-7.24-14.54,14.52-19.92,14.95-25.41,19.41-5.5,4.46-8.79,19.07-21.17,23.83h0Zm107.92,0s-2.42-27.04-12.49-36.01c-10.08-8.97-26.54-5.29-34.09-7.24,14.54,14.52,19.92,14.95,25.41,19.41,5.5,4.46,8.79,19.07,21.17,23.83Zm-7.48,7.48s-27.04-2.42-36.01-12.49c-8.97-10.08-5.29-26.54-7.24-34.09,14.52,14.54,14.95,19.92,19.41,25.41,4.46,5.5,19.07,8.79,23.83,21.17h0Z"/><path id="path18720" class="cls-3" d="M342.54,188.42s6.37-12.29,.37-28.94c-6.01-16.65-36.4-39.3-53.87-60.14-17.47-20.84-14.89-60.8,10.66-63.5,25.55-2.7,27.58,17.81,27.94,27.12-5.12-14.1-14.65-22.93-29.11-19.51-14.46,3.42-14.89,25.96-7.23,42.83,7.66,16.87,44.55,44.27,55.03,59.48,10.48,15.21,4.23,33.52-3.8,42.67Zm9.04,9.04s12.29-6.37,28.94-.37c16.65,6.01,39.3,36.4,60.14,53.87s60.8,14.89,63.5-10.66c2.7-25.55-17.81-27.58-27.12-27.94,14.1,5.12,22.93,14.65,19.51,29.11-3.42,14.46-25.96,14.89-42.83,7.23-16.87-7.66-44.27-44.55-59.48-55.03-15.21-10.48-33.52-4.23-42.67,3.8h0Zm-163.17,0s-12.29-6.37-28.94-.37c-16.65,6.01-39.3,36.4-60.14,53.87-20.84,17.47-60.8,14.89-63.5-10.66-2.7-25.55,17.81-27.58,27.12-27.94-14.1,5.12-22.93,14.65-19.51,29.11,3.42,14.46,25.96,14.89,42.83,7.23,16.87-7.66,44.27-44.55,59.48-55.03,15.21-10.48,33.52-4.23,42.67,3.8h0Zm9.04-9.04s-6.37-12.29-.37-28.94c6.01-16.65,36.4-39.3,53.87-60.14,17.47-20.84,14.89-60.8-10.66-63.5-25.55-2.7-27.58,17.81-27.94,27.12,5.12-14.1,14.65-22.93,29.11-19.51,14.46,3.42,14.89,25.96,7.23,42.83-7.66,16.87-44.55,44.27-55.03,59.48-10.48,15.21-4.23,33.52,3.8,42.67Zm0,163.17s-6.37,12.29-.37,28.94c6.01,16.65,36.4,39.3,53.87,60.14,17.47,20.84,14.89,60.8-10.66,63.5-25.55,2.7-27.58-17.81-27.94-27.12,5.12,14.1,14.65,22.93,29.11,19.51,14.46-3.42,14.89-25.96,7.23-42.83-7.66-16.87-44.55-44.27-55.03-59.48-10.48-15.21-4.23-33.52,3.8-42.67h0Zm-9.04-9.04s-12.29,6.37-28.94,.37c-16.65-6.01-39.3-36.4-60.14-53.87-20.84-17.47-60.8-14.89-63.5,10.66-2.7,25.55,17.81,27.58,27.12,27.94-14.1-5.12-22.93-14.65-19.51-29.11,3.42-14.46,25.96-14.89,42.83-7.23,16.87,7.66,44.27,44.55,59.48,55.03,15.21,10.48,33.52,4.23,42.67-3.8h0Zm163.17,0s12.29,6.37,28.94,.37c16.65-6.01,39.3-36.4,60.14-53.87,20.84-17.47,60.8-14.89,63.5,10.66,2.7,25.55-17.81,27.58-27.12,27.94,14.1-5.12,22.93-14.65,19.51-29.11-3.42-14.46-25.96-14.89-42.83-7.23-16.87,7.66-44.27,44.55-59.48,55.03-15.21,10.48-33.52,4.23-42.67-3.8h0Zm-9.04,9.04s6.37,12.29,.37,28.94c-6.01,16.65-36.4,39.3-53.87,60.14-17.47,20.84-14.89,60.8,10.66,63.5,25.55,2.7,27.58-17.81,27.94-27.12-5.12,14.1-14.65,22.93-29.11,19.51-14.46-3.42-14.89-25.96-7.23-42.83,7.66-16.87,44.55-44.27,55.03-59.48,10.48-15.21,4.23-33.52-3.8-42.67h0Z"/><path id="path18722" class="cls-3" d="M276.03,209.44s3.22-14.28,14.06-18.03c10.85-3.75,19.33-5.35,21.6-19.13,2.27-13.78-18.2-24.39-25.22-34.09-7.02-9.7-9.04-26.27-5.88-34.95-7.78,7.83-8.33,26.4-.89,37.02,7.45,10.61,22.98,17.92,24.14,27.37s-1.16,13.23-7.87,14.83c-6.71,1.6-15.11,8.71-15.11,8.71,0,0,8.49-18.27-3.68-34.67,3.74,14.19,3.8,23.62-.55,32.52-4.35,8.9-.61,20.42-.61,20.42Zm54.54,54.54s14.28-3.22,18.03-14.06c3.75-10.85,5.35-19.33,19.13-21.6,13.78-2.27,24.39,18.2,34.1,25.22,9.7,7.02,26.27,9.04,34.95,5.88-7.83,7.78-26.4,8.33-37.02,.89-10.61-7.45-17.92-22.98-27.37-24.14s-13.23,1.16-14.83,7.87c-1.6,6.71-8.71,15.11-8.71,15.11,0,0,18.27-8.49,34.67,3.68-14.19-3.74-23.62-3.8-32.52,.55-8.9,4.35-20.42,.61-20.42,.61h0Zm-121.13,0s-14.28-3.22-18.03-14.06-5.35-19.33-19.13-21.6c-13.78-2.27-24.39,18.2-34.09,25.22-9.7,7.02-26.27,9.04-34.95,5.88,7.83,7.78,26.41,8.33,37.02,.89,10.61-7.45,17.92-22.98,27.37-24.15,9.45-1.16,13.23,1.16,14.83,7.87,1.6,6.71,8.71,15.11,8.71,15.11,0,0-18.27-8.49-34.67,3.68,14.19-3.74,23.62-3.8,32.52,.55,8.9,4.35,20.42,.61,20.42,.61Zm54.54-54.54s-3.22-14.28-14.06-18.03c-10.85-3.75-19.33-5.35-21.6-19.13-2.27-13.78,18.2-24.39,25.22-34.09,7.02-9.7,9.04-26.27,5.88-34.95,7.78,7.83,8.33,26.4,.89,37.02-7.45,10.61-22.98,17.92-24.15,27.37s1.16,13.23,7.87,14.83c6.71,1.6,15.11,8.71,15.11,8.71,0,0-8.49-18.27,3.68-34.67-3.74,14.19-3.8,23.62,.55,32.52,4.35,8.9,.61,20.42,.61,20.42h0Zm0,121.13s-3.22,14.28-14.06,18.03c-10.85,3.75-19.33,5.35-21.6,19.13-2.27,13.78,18.2,24.39,25.22,34.09,7.02,9.7,9.04,26.27,5.88,34.95,7.78-7.83,8.33-26.4,.89-37.02-7.45-10.61-22.98-17.92-24.15-27.37s1.16-13.23,7.87-14.83c6.71-1.6,15.11-8.71,15.11-8.71,0,0-8.49,18.27,3.68,34.67-3.74-14.19-3.8-23.62,.55-32.52,4.35-8.9,.61-20.42,.61-20.42h0Zm-54.54-54.54s-14.28,3.22-18.03,14.06-5.35,19.33-19.13,21.6c-13.78,2.27-24.39-18.2-34.09-25.22-9.7-7.02-26.27-9.04-34.95-5.88,7.83-7.78,26.4-8.33,37.02-.89,10.61,7.45,17.92,22.98,27.37,24.15,9.45,1.16,13.23-1.16,14.83-7.87,1.6-6.71,8.71-15.11,8.71-15.11,0,0-18.27,8.49-34.67-3.68,14.19,3.74,23.62,3.8,32.52-.55,8.9-4.35,20.42-.61,20.42-.61Zm121.13,0s14.28,3.22,18.03,14.06c3.75,10.85,5.35,19.33,19.13,21.6,13.78,2.27,24.39-18.2,34.1-25.22,9.7-7.02,26.27-9.04,34.95-5.88-7.83-7.78-26.4-8.33-37.02-.89-10.61,7.45-17.92,22.98-27.37,24.15-9.45,1.16-13.23-1.16-14.83-7.87-1.6-6.71-8.71-15.11-8.71-15.11,0,0,18.27,8.49,34.67-3.68-14.19,3.74-23.62,3.8-32.52-.55-8.9-4.35-20.42-.61-20.42-.61h0Zm-54.54,54.54s3.22,14.28,14.06,18.03c10.85,3.75,19.33,5.35,21.6,19.13,2.27,13.78-18.2,24.39-25.22,34.09-7.02,9.7-9.04,26.27-5.88,34.95-7.78-7.83-8.33-26.4-.89-37.02,7.45-10.61,22.98-17.92,24.14-27.37s-1.16-13.23-7.87-14.83c-6.71-1.6-15.11-8.71-15.11-8.71,0,0,8.49,18.27-3.68,34.67,3.74-14.19,3.8-23.62-.55-32.52-4.35-8.9-.61-20.42-.61-20.42Z"/><path id="path18724" class="cls-3" d="M289.94,186.71s2.67-5.29,.6-15.06-9.21-17.94-14.54-24.74c11.87,8.09,17.16,16.1,19.18,23.79,2.02,7.69,1.24,14.66,1.24,14.66l-6.48,1.35Zm63.36,63.36s5.29-2.67,15.06-.6c9.77,2.07,17.94,9.21,24.74,14.54-8.09-11.87-16.1-17.16-23.79-19.18-7.69-2.02-14.66-1.24-14.66-1.24l-1.35,6.48Zm-166.58,0s-5.29-2.67-15.06-.6c-9.77,2.07-17.94,9.21-24.74,14.54,8.09-11.87,16.1-17.16,23.79-19.18,7.69-2.02,14.66-1.24,14.66-1.24l1.35,6.48Zm63.36-63.36s-2.67-5.29-.6-15.06c2.07-9.77,9.21-17.94,14.54-24.74-11.87,8.09-17.16,16.1-19.18,23.79-2.02,7.69-1.24,14.66-1.24,14.66l6.48,1.35Zm0,166.58s-2.67,5.29-.6,15.06c2.07,9.77,9.21,17.94,14.54,24.74-11.87-8.09-17.16-16.1-19.18-23.79-2.02-7.69-1.24-14.66-1.24-14.66l6.48-1.35Zm-63.36-63.36s-5.29,2.67-15.06,.6c-9.77-2.07-17.94-9.21-24.74-14.54,8.09,11.87,16.1,17.16,23.79,19.18,7.69,2.02,14.66,1.24,14.66,1.24l1.35-6.48Zm166.58,0s5.29,2.67,15.06,.6c9.77-2.07,17.94-9.21,24.74-14.54-8.09,11.87-16.1,17.16-23.79,19.18s-14.66,1.24-14.66,1.24l-1.35-6.48Zm-63.36,63.36s2.67,5.29,.6,15.06-9.21,17.94-14.54,24.74c11.87-8.09,17.16-16.1,19.18-23.79s1.24-14.66,1.24-14.66l-6.48-1.35Z"/><path id="path18726" class="cls-3" d="M287.07,109.94s-2.51,13.51,5.64,23.84c8.15,10.34,20.65,15.9,31.77,23.21,11.12,7.3,13.48,10.09,15.04,17.23-.52-14.42-10.26-20.97-20.74-28.55-10.48-7.58-29.63-18.66-31.71-35.72h0Zm143,143s-13.51,2.51-23.84-5.64-15.9-20.65-23.21-31.77c-7.3-11.12-10.09-13.48-17.23-15.04,14.42,.52,20.98,10.26,28.55,20.74,7.58,10.48,18.66,29.63,35.72,31.71Zm-320.13,0s13.51,2.51,23.84-5.64c10.34-8.15,15.9-20.65,23.21-31.77,7.3-11.12,10.09-13.48,17.23-15.04-14.42,.52-20.98,10.26-28.55,20.74-7.58,10.48-18.66,29.63-35.72,31.71ZM252.94,109.94s2.51,13.51-5.64,23.84c-8.15,10.34-20.65,15.9-31.77,23.21-11.12,7.3-13.48,10.09-15.04,17.23,.52-14.42,10.26-20.97,20.74-28.55,10.48-7.58,29.63-18.66,31.71-35.72Zm0,320.12s2.51-13.51-5.64-23.84c-8.15-10.34-20.65-15.9-31.77-23.21-11.12-7.3-13.48-10.09-15.04-17.23,.52,14.42,10.26,20.98,20.74,28.55,10.48,7.58,29.63,18.66,31.71,35.72h0ZM109.94,287.07s13.51-2.51,23.84,5.64c10.34,8.15,15.9,20.65,23.21,31.77,7.3,11.12,10.09,13.48,17.23,15.04-14.42-.52-20.98-10.26-28.55-20.74-7.58-10.48-18.66-29.63-35.72-31.71h0Zm320.13,0s-13.51-2.51-23.84,5.64c-10.34,8.15-15.9,20.65-23.21,31.77-7.3,11.12-10.09,13.48-17.23,15.04,14.42-.52,20.98-10.26,28.56-20.74,7.58-10.48,18.66-29.63,35.72-31.71h0Zm-143,143s-2.51-13.51,5.64-23.84c8.15-10.34,20.65-15.9,31.77-23.21,11.12-7.3,13.48-10.09,15.04-17.23-.52,14.42-10.26,20.98-20.74,28.55-10.48,7.58-29.63,18.66-31.71,35.72h0Z"/><path id="path18728" class="cls-3" d="M340.25,146.19s-8.85-12.65-8.86-26.71c0-14.06,4.47-27.42,26.04-29.6,21.57-2.18,46.42,9.12,56.44-9.26,1.78,13.53-12.35,15.32-24.48,15.77-12.13,.44-28.8-.19-38.36,4.24-9.56,4.44-12.44,7.41-11.89,18.8,.55,11.38,4.66,29.55,4.66,29.55l-3.55-2.78Zm53.56,53.56s12.65,8.86,26.71,8.86,27.42-4.47,29.6-26.04c2.18-21.57-9.12-46.42,9.26-56.44-13.53-1.78-15.32,12.35-15.77,24.48-.44,12.13,.19,28.8-4.24,38.36-4.44,9.56-7.41,12.44-18.8,11.89-11.38-.55-29.55-4.66-29.55-4.66l2.78,3.55Zm-247.62,0s-12.65,8.86-26.71,8.86-27.42-4.47-29.6-26.04c-2.18-21.57,9.12-46.42-9.26-56.44,13.53-1.78,15.32,12.35,15.77,24.48,.44,12.13-.19,28.8,4.24,38.36,4.44,9.56,7.41,12.44,18.8,11.89,11.38-.55,29.55-4.66,29.55-4.66l-2.78,3.55Zm53.56-53.56s8.86-12.65,8.86-26.71-4.47-27.42-26.04-29.6c-21.57-2.18-46.42,9.12-56.44-9.26-1.78,13.53,12.35,15.32,24.48,15.77,12.13,.44,28.8-.19,38.36,4.24,9.56,4.44,12.44,7.41,11.89,18.8s-4.66,29.55-4.66,29.55l3.55-2.78Zm0,247.62s8.86,12.65,8.86,26.71-4.47,27.42-26.04,29.6c-21.57,2.18-46.42-9.12-56.44,9.26-1.78-13.53,12.35-15.32,24.48-15.77,12.13-.44,28.8,.19,38.36-4.24,9.56-4.44,12.44-7.41,11.89-18.8-.55-11.38-4.66-29.55-4.66-29.55l3.55,2.78Zm-53.56-53.56s-12.65-8.86-26.71-8.86-27.42,4.47-29.6,26.04c-2.18,21.57,9.12,46.42-9.26,56.44,13.53,1.78,15.32-12.35,15.77-24.48,.44-12.13-.19-28.8,4.24-38.36,4.44-9.56,7.41-12.44,18.8-11.89,11.38,.55,29.55,4.66,29.55,4.66l-2.78-3.55Zm247.62,0s12.65-8.86,26.71-8.86,27.42,4.47,29.6,26.04c2.18,21.57-9.12,46.42,9.26,56.44-13.53,1.78-15.32-12.35-15.77-24.48-.44-12.13,.19-28.8-4.24-38.36-4.44-9.56-7.41-12.44-18.8-11.89-11.38,.55-29.55,4.66-29.55,4.66l2.78-3.55Zm-53.56,53.56s-8.86,12.65-8.86,26.71,4.47,27.42,26.04,29.6c21.57,2.18,46.42-9.12,56.44,9.26,1.78-13.53-12.35-15.32-24.48-15.77-12.13-.44-28.8,.19-38.36-4.24-9.56-4.44-12.44-7.41-11.89-18.8,.55-11.38,4.66-29.55,4.66-29.55l-3.55,2.78Z"/><path id="path18730" class="cls-3" d="M336.27,122.38s9.04-11.91,23.47-11.91,31.1,11.25,41.95,2.29c-12.69,21.28-34.72,25.41-44.83,22.11-10.11-3.31-19.58-8.13-19.58-8.13l-1.01-4.35Zm81.36,81.36s11.91-9.04,11.91-23.47-11.25-31.1-2.29-41.95c-21.28,12.69-25.41,34.72-22.11,44.83,3.31,10.11,8.13,19.58,8.13,19.58l4.35,1.01Zm-295.24,0s-11.91-9.04-11.91-23.47,11.25-31.1,2.29-41.95c21.28,12.69,25.41,34.72,22.11,44.83-3.31,10.11-8.13,19.58-8.13,19.58l-4.35,1.01Zm81.36-81.36s-9.04-11.91-23.47-11.91-31.1,11.25-41.95,2.29c12.69,21.28,34.72,25.41,44.83,22.1,10.11-3.31,19.58-8.13,19.58-8.13l1.01-4.35Zm0,295.24s-9.04,11.91-23.47,11.91-31.1-11.25-41.95-2.29c12.69-21.28,34.72-25.41,44.83-22.11,10.11,3.31,19.58,8.13,19.58,8.13l1.01,4.35Zm-81.36-81.36s-11.91,9.04-11.91,23.47,11.25,31.1,2.29,41.95c21.28-12.69,25.41-34.72,22.11-44.83-3.31-10.11-8.13-19.58-8.13-19.58l-4.35-1.01Zm295.24,0s11.91,9.04,11.91,23.47-11.25,31.1-2.29,41.95c-21.28-12.69-25.41-34.72-22.11-44.83,3.31-10.11,8.13-19.58,8.13-19.58l4.35-1.01Zm-81.36,81.36s9.04,11.91,23.47,11.91,31.1-11.25,41.95-2.29c-12.69-21.28-34.72-25.41-44.83-22.11-10.11,3.31-19.58,8.13-19.58,8.13l-1.01,4.35Z"/><path id="path18732" class="cls-3" d="M335.07,105.62s-9.71-14.44-5.58-26.54,11.09-22.66,32.76-26.96c-11.12,13.92-10.85,23.24-10.3,31.06,.55,7.83-9.87,15.77-9.87,15.77l-7.02,6.67Zm99.31,99.31s14.44,9.71,26.54,5.58c12.1-4.14,22.66-11.09,26.96-32.76-13.92,11.12-23.24,10.85-31.06,10.3-7.83-.55-15.77,9.87-15.77,9.87l-6.67,7.02Zm-328.76,0s-14.44,9.71-26.54,5.58c-12.1-4.14-22.66-11.09-26.96-32.76,13.92,11.12,23.24,10.85,31.06,10.3,7.83-.55,15.77,9.87,15.77,9.87l6.67,7.02Zm99.31-99.31s9.71-14.44,5.58-26.54c-4.14-12.1-11.09-22.66-32.76-26.96,11.12,13.92,10.85,23.24,10.3,31.06-.55,7.83,9.87,15.77,9.87,15.77l7.02,6.67Zm0,328.76s9.71,14.44,5.58,26.54c-4.14,12.1-11.09,22.66-32.75,26.96,11.12-13.92,10.85-23.24,10.3-31.06-.55-7.83,9.87-15.77,9.87-15.77l7.02-6.67Zm-99.31-99.31s-14.44-9.71-26.54-5.58c-12.1,4.14-22.66,11.09-26.96,32.76,13.92-11.12,23.24-10.85,31.06-10.3,7.83,.55,15.77-9.87,15.77-9.87l6.67-7.02Zm328.76,0s14.44-9.71,26.54-5.58c12.1,4.14,22.66,11.09,26.96,32.76-13.92-11.12-23.24-10.85-31.06-10.3-7.83,.55-15.77-9.87-15.77-9.87l-6.67-7.02Zm-99.31,99.31s-9.71,14.44-5.58,26.54,11.09,22.66,32.76,26.96c-11.12-13.92-10.85-23.24-10.3-31.06,.55-7.83-9.87-15.77-9.87-15.77l-7.02-6.67Z"/><path id="path18734" class="cls-3" d="M300.14,101.49s-4.11-15.08,2.82-24.92c6.92-9.84,4.72-16.32,3.22-22.41,14.58,15.43,17.19,24.34,14.62,36.08-2.57,11.74-16.09,17.7-16.09,17.7l-4.57-6.45Zm138.38,138.38s15.08,4.11,24.92-2.82c9.84-6.92,16.32-4.72,22.41-3.22-15.43-14.59-24.34-17.19-36.08-14.62-11.74,2.57-17.7,16.09-17.7,16.09l6.45,4.57Zm-337.03,0s-15.08,4.11-24.92-2.82c-9.84-6.92-16.32-4.72-22.41-3.22,15.44-14.59,24.34-17.19,36.08-14.62,11.74,2.57,17.7,16.09,17.7,16.09l-6.45,4.57ZM239.86,101.49s4.11-15.08-2.82-24.92c-6.92-9.84-4.72-16.32-3.22-22.41-14.59,15.44-17.19,24.34-14.62,36.08,2.57,11.74,16.09,17.7,16.09,17.7l4.57-6.45Zm0,337.03s4.11,15.08-2.82,24.92c-6.92,9.84-4.72,16.32-3.22,22.41-14.59-15.44-17.19-24.34-14.62-36.08,2.57-11.74,16.09-17.7,16.09-17.7l4.57,6.45ZM101.49,300.14s-15.08-4.11-24.92,2.82c-9.84,6.92-16.32,4.72-22.41,3.22,15.44,14.59,24.34,17.19,36.08,14.62,11.74-2.57,17.7-16.09,17.7-16.09l-6.45-4.57Zm337.03,0s15.08-4.11,24.92,2.82c9.84,6.92,16.32,4.72,22.41,3.22-15.43,14.59-24.34,17.19-36.08,14.62-11.74-2.57-17.7-16.09-17.7-16.09l6.45-4.57Zm-138.38,138.38s-4.11,15.08,2.82,24.92c6.92,9.84,4.72,16.32,3.22,22.41,14.59-15.44,17.19-24.34,14.62-36.08-2.57-11.74-16.09-17.7-16.09-17.7l-4.57,6.45Z"/><path id="path18736" class="cls-2" d="M413.62,73.67s1.59-11.05-2.65-18.19c-4.24-7.14-11.69-9.22-18.77-5.57-7.08,3.65-11.69,11.4-9.5,16.17,2.19,4.77,6.07,6.64,9.01,2.94s6.65-9.19,10.42-8.46,5.12,1.32,6.43,4.53,1.35,10.13,1.35,10.13l3.71-1.54Zm52.71,52.71s11.05-1.59,18.19,2.65c7.14,4.24,9.22,11.69,5.57,18.77s-11.4,11.69-16.17,9.5c-4.77-2.19-6.64-6.07-2.94-9.01s9.19-6.65,8.46-10.42-1.32-5.12-4.53-6.43c-3.21-1.32-10.13-1.35-10.13-1.35l1.54-3.71Zm-392.66,0s-11.05-1.59-18.19,2.65c-7.14,4.24-9.22,11.69-5.57,18.77s11.4,11.69,16.17,9.5c4.77-2.19,6.64-6.07,2.94-9.01s-9.19-6.65-8.46-10.42,1.32-5.12,4.53-6.43c3.21-1.32,10.13-1.35,10.13-1.35l-1.54-3.71Zm52.71-52.71s-1.59-11.05,2.65-18.19c4.24-7.14,11.69-9.22,18.77-5.57,7.08,3.65,11.69,11.4,9.5,16.17-2.19,4.77-6.07,6.64-9.01,2.94-2.94-3.71-6.65-9.19-10.42-8.46-3.77,.73-5.12,1.32-6.43,4.53-1.32,3.21-1.35,10.13-1.35,10.13l-3.71-1.54Zm0,392.66s-1.59,11.05,2.65,18.19c4.24,7.14,11.69,9.22,18.77,5.57,7.08-3.65,11.69-11.4,9.5-16.17-2.19-4.77-6.07-6.64-9.01-2.94-2.94,3.71-6.65,9.19-10.42,8.46-3.77-.73-5.12-1.32-6.43-4.53-1.32-3.21-1.35-10.13-1.35-10.13l-3.71,1.54Zm-52.71-52.71s-11.05,1.59-18.19-2.65c-7.14-4.24-9.22-11.69-5.57-18.77s11.4-11.69,16.17-9.5,6.64,6.07,2.94,9.01c-3.71,2.94-9.19,6.65-8.46,10.42,.73,3.77,1.32,5.12,4.53,6.43,3.21,1.32,10.13,1.35,10.13,1.35l-1.54,3.71Zm392.66,0s11.05,1.59,18.19-2.65c7.14-4.24,9.22-11.69,5.57-18.77s-11.4-11.69-16.17-9.5c-4.77,2.19-6.64,6.07-2.94,9.01s9.19,6.65,8.46,10.42-1.32,5.12-4.53,6.43c-3.21,1.32-10.13,1.35-10.13,1.35l1.54,3.71Zm-52.71,52.71s1.59,11.05-2.65,18.19c-4.24,7.14-11.69,9.22-18.77,5.57-7.08-3.65-11.69-11.4-9.5-16.17,2.19-4.77,6.07-6.64,9.01-2.94s6.65,9.19,10.42,8.46,5.12-1.32,6.43-4.53c1.32-3.21,1.35-10.13,1.35-10.13l3.71,1.54Z"/><path id="path18738" class="cls-2" d="M418.48,75.06s1.53-14.37,9.53-19.54c8-5.17,14.92-4.81,20.65,1.25,5.73,6.06,5.65,15.12,1.16,17.86s-7.42,1.02-8.4-3.16c-.98-4.18-3.79-7.05-8.35-6.23-5.1,.92-8.29,3.97-9.48,6.27-1.19,2.3-2.28,4.86-2.28,4.86l-2.83-1.32Zm46.46,46.46s14.37-1.53,19.54-9.53c5.17-8,4.81-14.92-1.25-20.65-6.06-5.73-15.12-5.65-17.86-1.16-2.74,4.49-1.02,7.42,3.16,8.4,4.18,.98,7.05,3.79,6.23,8.35-.92,5.1-3.97,8.29-6.27,9.48-2.3,1.2-4.86,2.28-4.86,2.28l1.32,2.83Zm-389.88,0s-14.37-1.53-19.54-9.53c-5.17-8-4.81-14.92,1.25-20.65,6.06-5.73,15.12-5.65,17.86-1.16s1.02,7.42-3.16,8.4-7.05,3.79-6.23,8.35c.92,5.1,3.97,8.29,6.27,9.48,2.3,1.2,4.86,2.28,4.86,2.28l-1.32,2.83Zm46.46-46.46s-1.53-14.37-9.53-19.54c-8-5.17-14.92-4.81-20.65,1.25-5.73,6.06-5.65,15.12-1.16,17.86,4.49,2.74,7.41,1.02,8.4-3.16,.98-4.18,3.79-7.05,8.35-6.23,5.1,.92,8.29,3.97,9.48,6.27,1.19,2.3,2.28,4.86,2.28,4.86l2.83-1.32Zm0,389.88s-1.53,14.37-9.53,19.54c-8,5.17-14.92,4.81-20.65-1.25-5.73-6.06-5.65-15.12-1.16-17.86,4.49-2.74,7.41-1.02,8.4,3.16,.98,4.18,3.79,7.05,8.35,6.23,5.1-.92,8.29-3.97,9.48-6.27,1.19-2.3,2.28-4.86,2.28-4.86l2.83,1.32Zm-46.46-46.46s-14.37,1.53-19.54,9.53c-5.17,8-4.81,14.92,1.25,20.65,6.06,5.73,15.12,5.65,17.86,1.16s1.02-7.41-3.16-8.4c-4.18-.98-7.05-3.79-6.23-8.35,.92-5.1,3.97-8.29,6.27-9.48,2.3-1.2,4.86-2.28,4.86-2.28l-1.32-2.83Zm389.88,0s14.37,1.53,19.54,9.53c5.17,8,4.81,14.92-1.25,20.65-6.06,5.73-15.12,5.65-17.86,1.16-2.74-4.49-1.02-7.41,3.16-8.4,4.18-.98,7.05-3.79,6.23-8.35-.92-5.1-3.97-8.29-6.27-9.48-2.3-1.2-4.86-2.28-4.86-2.28l1.32-2.83Zm-46.46,46.46s1.53,14.37,9.53,19.54,14.92,4.81,20.65-1.25c5.73-6.06,5.65-15.12,1.16-17.86s-7.42-1.02-8.4,3.16-3.79,7.05-8.35,6.23c-5.1-.92-8.29-3.97-9.48-6.27-1.2-2.3-2.28-4.86-2.28-4.86l-2.83,1.32Z"/><path id="path18740" class="cls-2" d="M414.47,74.21s1.24-5.99,.09-12.72c-1.15-6.73-4.04-9.56-5.18-15.42-1.13-5.86-.6-10.57,5.44-11.73,6.04-1.16,13.1-1.23,14.59,4.6,1.49,5.83-1.47,9.34-4.49,13.35-3.02,4.01-5.38,10.86-5.88,14.73-.51,3.87-1.73,8.17-1.73,8.17l-2.83-.99Zm51.33,51.33s5.99-1.24,12.72-.09c6.73,1.15,9.56,4.04,15.42,5.18,5.86,1.13,10.57,.6,11.73-5.44,1.16-6.04,1.23-13.1-4.6-14.59-5.83-1.49-9.34,1.47-13.35,4.49-4.01,3.02-10.86,5.38-14.73,5.88s-8.17,1.73-8.17,1.73l.99,2.83Zm-391.58,0s-6-1.24-12.72-.09c-6.73,1.15-9.56,4.04-15.42,5.18-5.86,1.13-10.57,.6-11.73-5.44-1.16-6.04-1.23-13.1,4.6-14.59,5.83-1.49,9.34,1.47,13.35,4.49,4.01,3.02,10.86,5.38,14.73,5.88,3.87,.51,8.17,1.73,8.17,1.73l-.99,2.83Zm51.33-51.33s-1.24-5.99-.09-12.72c1.15-6.73,4.04-9.56,5.18-15.42,1.13-5.86,.6-10.57-5.44-11.73-6.04-1.16-13.1-1.23-14.59,4.6-1.49,5.83,1.47,9.34,4.49,13.35,3.02,4.01,5.38,10.86,5.88,14.73,.51,3.87,1.73,8.17,1.73,8.17l2.83-.99Zm0,391.58s-1.24,5.99-.09,12.72c1.15,6.73,4.04,9.56,5.18,15.42,1.13,5.86,.6,10.57-5.44,11.73-6.04,1.16-13.1,1.23-14.59-4.6-1.49-5.83,1.47-9.34,4.49-13.35,3.02-4.01,5.38-10.86,5.88-14.73,.51-3.87,1.73-8.17,1.73-8.17l2.83,.99Zm-51.33-51.33s-5.99,1.24-12.72,.09c-6.73-1.15-9.56-4.04-15.42-5.18-5.86-1.13-10.57-.6-11.73,5.44-1.16,6.04-1.23,13.1,4.6,14.59,5.83,1.49,9.34-1.47,13.35-4.49,4.01-3.02,10.86-5.38,14.73-5.88,3.87-.51,8.17-1.73,8.17-1.73l-.99-2.83Zm391.58,0s5.99,1.24,12.72,.09c6.73-1.15,9.56-4.04,15.42-5.18,5.86-1.13,10.57-.6,11.73,5.44,1.16,6.04,1.23,13.1-4.6,14.59-5.83,1.49-9.34-1.47-13.35-4.49-4.01-3.02-10.86-5.38-14.73-5.88s-8.17-1.73-8.17-1.73l.99-2.83Zm-51.33,51.33s1.24,5.99,.09,12.72c-1.15,6.73-4.04,9.56-5.18,15.42-1.13,5.86-.6,10.57,5.44,11.73,6.04,1.16,13.1,1.23,14.59-4.6,1.49-5.83-1.47-9.34-4.49-13.35-3.02-4.01-5.38-10.86-5.88-14.73-.51-3.87-1.73-8.17-1.73-8.17l-2.83,.99Z"/><path id="path18742" class="cls-3" d="M408.4,73.58s-3.49,13.17,4.5,12.87c8-.3,9.99-11.14,9.99-11.14,0,0-6.8-5.26-14.49-1.74Zm58.03,58.03s-13.17,3.49-12.87-4.5,11.14-9.99,11.14-9.99c0,0,5.26,6.8,1.74,14.49Zm-392.84,0s13.17,3.49,12.87-4.5-11.14-9.99-11.14-9.99c0,0-5.26,6.8-1.74,14.49Zm58.02-58.03s3.49,13.17-4.5,12.87c-8-.3-9.99-11.14-9.99-11.14,0,0,6.8-5.26,14.49-1.74Zm0,392.84s3.49-13.17-4.5-12.87c-8,.3-9.99,11.14-9.99,11.14,0,0,6.8,5.26,14.49,1.74Zm-58.02-58.03s13.17-3.49,12.87,4.5-11.14,9.99-11.14,9.99c0,0-5.26-6.8-1.74-14.49Zm392.84,0s-13.17-3.49-12.87,4.5,11.14,9.99,11.14,9.99c0,0,5.26-6.8,1.74-14.49Zm-58.03,58.03s-3.49-13.17,4.5-12.87c8,.3,9.99,11.14,9.99,11.14,0,0-6.8,5.26-14.49,1.74Z"/><path id="path18744" class="cls-1" d="M340.38,122.57s11.94-5.85,20.99-2.63c9.06,3.22,23.25,2.49,30.48-1.38-13,7.04-22.79,8.26-32.28,4.27-9.49-4-19.2-.25-19.2-.25h0Zm77.05,77.05s5.85-11.94,2.63-20.99c-3.22-9.06-2.49-23.25,1.38-30.48-7.04,13-8.26,22.79-4.27,32.28,4,9.49,.25,19.2,.25,19.2h0Zm-294.87,0s-5.85-11.94-2.63-20.99c3.22-9.06,2.49-23.25-1.38-30.48,7.04,13,8.26,22.79,4.27,32.28-4,9.49-.25,19.2-.25,19.2h0Zm77.05-77.05s-11.94-5.85-20.99-2.63c-9.06,3.22-23.25,2.49-30.48-1.38,13,7.04,22.79,8.26,32.28,4.27,9.49-4,19.2-.25,19.2-.25h0Zm0,294.87s-11.94,5.85-20.99,2.63c-9.06-3.22-23.25-2.49-30.48,1.38,13-7.04,22.79-8.26,32.28-4.27,9.49,4,19.2,.25,19.2,.25h0Zm-77.05-77.05s-5.85,11.94-2.63,20.99c3.22,9.06,2.49,23.25-1.38,30.48,7.04-13,8.26-22.79,4.27-32.28-4-9.49-.25-19.2-.25-19.2h0Zm294.87,0s5.85,11.94,2.63,20.99c-3.22,9.06-2.49,23.25,1.38,30.48-7.04-13-8.26-22.79-4.27-32.28,4-9.49,.25-19.2,.25-19.2h0Zm-77.05,77.05s11.94,5.85,20.99,2.63c9.06-3.22,23.25-2.49,30.48,1.38-13-7.04-22.79-8.26-32.28-4.27-9.49,4-19.2,.25-19.2,.25h0Z"/><path id="path18746" class="cls-1" d="M352.65,56.73s-20.13,19.29-15.19,36.23c2.51-12.34,14.39-34.2,15.19-36.23Zm130.62,130.62s-19.29,20.13-36.23,15.19c12.34-2.51,34.2-14.39,36.23-15.19Zm-426.54,0s19.29,20.13,36.23,15.19c-12.34-2.51-34.2-14.39-36.23-15.19ZM187.35,56.73s20.13,19.29,15.19,36.23c-2.51-12.34-14.39-34.2-15.19-36.23Zm0,426.54s20.13-19.29,15.19-36.23c-2.51,12.34-14.39,34.2-15.19,36.23ZM56.73,352.65s19.29-20.13,36.23-15.19c-12.34,2.51-34.2,14.39-36.23,15.19Zm426.54,0s-19.29-20.13-36.23-15.19c12.34,2.51,34.2,14.39,36.23,15.19Zm-130.62,130.62s-20.13-19.29-15.19-36.23c2.51,12.34,14.39,34.2,15.19,36.23Z"/><path id="path18748" class="cls-1" d="M311.47,62.38s2.69,29.9-8.36,38.08c8.23,2.92,15.21-21.93,8.36-38.08Zm166.16,166.16s-29.9-2.69-38.08,8.36c-2.92-8.23,21.93-15.21,38.08-8.36Zm-415.24,0s29.9-2.69,38.08,8.36c2.92-8.23-21.93-15.21-38.08-8.36ZM228.54,62.38s-2.69,29.9,8.36,38.08c-8.23,2.92-15.21-21.93-8.36-38.08Zm0,415.24s-2.69-29.9,8.36-38.08c-8.23-2.92-15.21,21.93-8.36,38.08ZM62.38,311.47s29.9,2.69,38.08-8.36c2.92,8.23-21.93,15.21-38.08,8.36Zm415.24,0s-29.9,2.69-38.08-8.36c-2.92,8.23,21.93,15.21,38.08,8.36Zm-166.16,166.16s2.69-29.9-8.36-38.08c8.23-2.92,15.21,21.93,8.36,38.08Z"/></g></g></svg>