<?xml version="1.0" encoding="UTF-8"?><svg id="Layer_2" xmlns="http://www.w3.org/2000/svg" viewBox="0 0 540 540"><defs><style>.cls-1{fill:#e9e9e2;}.cls-2{fill:#cf962b;}.cls-3{fill:#51475e;}</style></defs><g id="OBJECTS"><g id="g23370"><g id="path23338"><path class="cls-1" d="M270,270.01L540,0H270s0,270.01,0,270.01Zm0,0L540,0V270s-270,0-270,0Zm0,0L0,0V270s270,0,270,0Zm0,0L0,0H270s0,270.01,0,270.01Zm0,0L0,540H270s0-270,0-270Zm0,0L0,540V270s270,0,270,0Zm0,0l270,270V270s-270,0-270,0Zm0,0l270,270H270s0-270,0-270Z"/></g><g id="path23340"><path class="cls-2" d="M320.27,90.75c.28-3.53,.17-7.08-.02-10.61-.42-7.92-.39-17.17-6.44-23.25-6.7-6.73-20.09-5.88-19.15,5.73,.57,7.13,13.12,8.71,16.9,14.26,1.97,2.89,3.11,20.22,8.72,13.88h0Zm128.98,128.98c3.53-.28,7.08-.17,10.61,.02,7.92,.42,17.17,.39,23.25,6.44,6.73,6.7,5.88,20.09-5.73,19.15-7.13-.57-8.71-13.12-14.26-16.9-2.89-1.97-20.22-3.11-13.88-8.72h0Zm-358.5,0c-3.53-.28-7.08-.17-10.61,.02-7.92,.42-17.17,.39-23.25,6.44-6.73,6.7-5.88,20.09,5.73,19.15,7.13-.57,8.71-13.12,14.26-16.9,2.89-1.97,20.22-3.11,13.88-8.72h0ZM219.73,90.75c-.28-3.53-.17-7.08,.02-10.61,.42-7.92,.39-17.17,6.44-23.25,6.7-6.73,20.09-5.88,19.15,5.73-.57,7.13-13.12,8.71-16.9,14.26-1.97,2.89-3.11,20.22-8.72,13.88h0Zm0,358.5c-.28,3.53-.17,7.08,.02,10.61,.42,7.92,.39,17.17,6.44,23.25,6.7,6.73,20.09,5.88,19.15-5.73-.57-7.13-13.12-8.71-16.9-14.26-1.97-2.89-3.11-20.22-8.72-13.88h0ZM90.75,320.27c-3.53,.28-7.08,.17-10.61-.02-7.92-.42-17.17-.39-23.25-6.44-6.73-6.7-5.88-20.09,5.73-19.15,7.13,.57,8.71,13.12,14.26,16.9,2.89,1.97,20.22,3.11,13.88,8.72h0Zm358.5,0c3.53,.28,7.08,.17,10.61-.02,7.92-.42,17.17-.39,23.25-6.44,6.73-6.7,5.88-20.09-5.73-19.15-7.13,.57-8.71,13.12-14.26,16.9-2.89,1.97-20.22,3.11-13.88,8.72h0Zm-128.98,128.98c.28,3.53,.17,7.08-.02,10.61-.42,7.92-.39,17.17-6.44,23.25-6.7,6.73-20.09,5.88-19.15-5.73,.57-7.13,13.12-8.71,16.9-14.26,1.97-2.89,3.11-20.22,8.72-13.88h0Z"/></g><g id="path23342"><path class="cls-2" d="M325.42,92.08c1.33-4.38,1.44-9,2.56-13.4,1.45-5.68,3.36-11.09,7.36-15.53,4.46-4.95,20.09-11.17,21.26-.07,1.33,12.7-12.05,7.96-17.66,14.03-4.22,4.57-5.33,21.03-13.52,14.96h0Zm122.51,122.51c4.38-1.33,9-1.44,13.4-2.56,5.68-1.45,11.08-3.36,15.53-7.36,4.95-4.46,11.17-20.09,.07-21.26-12.7-1.33-7.96,12.05-14.03,17.66-4.57,4.22-21.03,5.33-14.96,13.52h0Zm-355.85,0c-4.38-1.33-9-1.44-13.4-2.56-5.68-1.45-11.09-3.36-15.53-7.36-4.95-4.46-11.17-20.09-.07-21.26,12.7-1.33,7.96,12.05,14.03,17.66,4.57,4.22,21.03,5.33,14.96,13.52h0Zm122.51-122.51c-1.33-4.38-1.44-9-2.56-13.4-1.45-5.68-3.36-11.09-7.36-15.53-4.46-4.95-20.09-11.17-21.26-.07-1.33,12.7,12.05,7.96,17.66,14.03,4.22,4.57,5.33,21.03,13.52,14.96h0Zm0,355.85c-1.33,4.38-1.44,9-2.56,13.4-1.45,5.68-3.36,11.09-7.36,15.53-4.46,4.95-20.09,11.17-21.26,.07-1.33-12.7,12.05-7.96,17.66-14.03,4.22-4.57,5.33-21.03,13.52-14.96h0Zm-122.51-122.51c-4.38,1.33-9,1.44-13.4,2.56-5.68,1.45-11.09,3.36-15.53,7.36-4.95,4.46-11.17,20.09-.07,21.26,12.7,1.33,7.96-12.05,14.03-17.66,4.57-4.22,21.03-5.33,14.96-13.52h0Zm355.85,0c4.38,1.33,9,1.44,13.4,2.56,5.68,1.45,11.08,3.36,15.53,7.36,4.95,4.46,11.17,20.09,.07,21.26-12.7,1.33-7.96-12.05-14.03-17.66-4.57-4.22-21.03-5.33-14.96-13.52h0Zm-122.51,122.51c1.33,4.38,1.44,9,2.56,13.4,1.45,5.68,3.36,11.09,7.36,15.53,4.46,4.95,20.09,11.17,21.26,.07,1.33-12.7-12.05-7.96-17.66-14.03-4.22-4.57-5.33-21.03-13.52-14.96h0Z"/></g><g id="path23344"><path class="cls-3" d="M274.34,256.82s.32-39.01,24.44-54.28c24.11-15.27,41.42-6.37,46.66-38.71,5.24-32.34-24.44-57.15-42.71-49.03s-15.63,25.1-7.62,29.33c8,4.23,10.54-10.17,17.73-4.52,7.19,5.64,8.16,22.81-7.3,19.31-15.46-3.5-29.74-19.16-21.25-37.94,8.49-18.77,35.69-20.77,50.5-10.46s16.71,26.94,16.71,26.94c0,0,5.14-9.92,16.33-4.47,11.19,5.45-2.16,45.09-28.55,58.61s-49.2,20.87-54.01,35.41c13.57-3.26,8.11,11.67-10.92,29.81Zm8.84,8.84s39.01-.32,54.28-24.44c15.27-24.11,6.37-41.42,38.71-46.66,32.34-5.24,57.15,24.44,49.03,42.71-8.12,18.28-25.1,15.63-29.33,7.62-4.23-8,10.17-10.54,4.52-17.73-5.64-7.19-22.81-8.16-19.31,7.3,3.5,15.46,19.16,29.74,37.94,21.25,18.77-8.49,20.77-35.69,10.46-50.5-10.31-14.81-26.94-16.71-26.94-16.71,0,0,9.92-5.14,4.47-16.33-5.45-11.19-45.09,2.16-58.61,28.55-13.52,26.39-20.87,49.2-35.41,54.01,3.26-13.57-11.67-8.11-29.81,10.92Zm-26.36,0s-39.01-.32-54.28-24.44c-15.27-24.11-6.37-41.42-38.71-46.66-32.34-5.24-57.15,24.44-49.03,42.71s25.1,15.63,29.33,7.62c4.23-8-10.17-10.54-4.52-17.73,5.64-7.19,22.81-8.16,19.31,7.3-3.5,15.46-19.16,29.74-37.94,21.25-18.77-8.49-20.77-35.69-10.46-50.5,10.31-14.81,26.94-16.71,26.94-16.71,0,0-9.92-5.14-4.47-16.33,5.45-11.19,45.09,2.16,58.61,28.55,13.52,26.39,20.87,49.2,35.41,54.01-3.26-13.57,11.67-8.11,29.81,10.92Zm8.84-8.84s-.32-39.01-24.44-54.28c-24.11-15.27-41.42-6.37-46.66-38.71-5.24-32.34,24.44-57.15,42.71-49.03s15.63,25.1,7.62,29.33c-8,4.23-10.54-10.17-17.73-4.52-7.19,5.64-8.16,22.81,7.3,19.31,15.46-3.5,29.74-19.16,21.25-37.94-8.49-18.77-35.69-20.77-50.5-10.46-14.81,10.31-16.71,26.94-16.71,26.94,0,0-5.14-9.92-16.33-4.47-11.19,5.45,2.16,45.09,28.55,58.61,26.39,13.52,49.2,20.87,54.01,35.41-13.57-3.26-8.11,11.67,10.92,29.81Zm0,26.36s-.32,39.01-24.44,54.28c-24.11,15.27-41.42,6.37-46.66,38.71-5.24,32.34,24.44,57.15,42.71,49.03,18.28-8.12,15.63-25.1,7.62-29.33-8-4.23-10.54,10.17-17.73,4.52-7.19-5.64-8.16-22.81,7.3-19.31,15.46,3.5,29.74,19.16,21.25,37.94-8.49,18.77-35.69,20.77-50.5,10.46-14.81-10.31-16.71-26.94-16.71-26.94,0,0-5.14,9.92-16.33,4.47-11.19-5.45,2.16-45.09,28.55-58.61,26.39-13.52,49.2-20.87,54.01-35.41-13.57,3.26-8.11-11.67,10.92-29.81h0Zm-8.84-8.84s-39.01,.32-54.28,24.44c-15.27,24.11-6.37,41.42-38.71,46.66-32.34,5.24-57.15-24.44-49.03-42.71s25.1-15.63,29.33-7.62c4.23,8-10.17,10.54-4.52,17.73,5.64,7.19,22.81,8.16,19.31-7.3-3.5-15.46-19.16-29.74-37.94-21.25-18.77,8.49-20.77,35.69-10.46,50.5,10.31,14.81,26.94,16.71,26.94,16.71,0,0-9.92,5.14-4.47,16.33,5.45,11.19,45.09-2.16,58.61-28.55,13.52-26.39,20.87-49.2,35.41-54.01-3.26,13.57,11.67,8.11,29.81-10.92Zm26.36,0s39.01,.32,54.28,24.44c15.27,24.11,6.37,41.42,38.71,46.66,32.34,5.24,57.15-24.44,49.03-42.71-8.12-18.28-25.1-15.63-29.33-7.62-4.23,8,10.16,10.54,4.52,17.73-5.64,7.19-22.81,8.16-19.31-7.3,3.5-15.46,19.16-29.74,37.94-21.25,18.77,8.49,20.77,35.69,10.46,50.5-10.31,14.81-26.94,16.71-26.94,16.71,0,0,9.92,5.14,4.47,16.33-5.45,11.19-45.09-2.16-58.61-28.55-13.52-26.39-20.87-49.2-35.41-54.01,3.26,13.57-11.67,8.11-29.81-10.92h0Zm-8.84,8.84s.32,39.01,24.44,54.28c24.11,15.27,41.42,6.37,46.66,38.71,5.24,32.34-24.44,57.15-42.71,49.03-18.28-8.12-15.63-25.1-7.62-29.33,8-4.23,10.54,10.17,17.73,4.52,7.19-5.64,8.16-22.81-7.3-19.31-15.46,3.5-29.74,19.16-21.25,37.94,8.49,18.77,35.69,20.77,50.5,10.46s16.71-26.94,16.71-26.94c0,0,5.14,9.92,16.33,4.47,11.19-5.45-2.16-45.09-28.55-58.61-26.39-13.52-49.2-20.87-54.01-35.41,13.57,3.26,8.11-11.67-10.92-29.81h0Z"/></g><g id="path23346"><path class="cls-2" d="M321.12,90.86c2.01-7.93-6.91-48.98,6.1-46.82,16.05,2.66,4.28,18.58,1.32,26.88-1.61,4.52-2.53,9.16-3.38,13.84-.24,1.32,0,8.41-1.84,8.96-1.07,.32-1.96-2.44-2.2-2.85Zm128.03,128.03c7.93-2.01,48.98,6.91,46.82-6.1-2.66-16.05-18.58-4.28-26.88-1.32-4.52,1.61-9.16,2.53-13.84,3.38-1.32,.24-8.41,0-8.96,1.84-.32,1.07,2.44,1.96,2.85,2.2Zm-358.29,0c-7.93-2.01-48.98,6.91-46.82-6.1,2.66-16.05,18.58-4.28,26.88-1.32,4.52,1.61,9.16,2.53,13.84,3.38,1.32,.24,8.41,0,8.96,1.84,.32,1.07-2.44,1.96-2.85,2.2ZM218.89,90.86c-2.01-7.93,6.91-48.98-6.1-46.82-16.05,2.66-4.28,18.58-1.32,26.88,1.61,4.52,2.53,9.16,3.38,13.84,.24,1.32,0,8.41,1.84,8.96,1.07,.32,1.96-2.44,2.2-2.85Zm0,358.29c-2.01,7.93,6.91,48.98-6.1,46.82-16.05-2.66-4.28-18.58-1.32-26.88,1.61-4.52,2.53-9.16,3.38-13.84,.24-1.32,0-8.41,1.84-8.96,1.07-.32,1.96,2.44,2.2,2.85ZM90.86,321.12c-7.93,2.01-48.98-6.91-46.82,6.1,2.66,16.05,18.58,4.28,26.88,1.32,4.52-1.61,9.16-2.53,13.84-3.38,1.32-.24,8.41,0,8.96-1.84,.32-1.07-2.44-1.96-2.85-2.2Zm358.29,0c7.93,2.01,48.98-6.91,46.82,6.1-2.66,16.05-18.58,4.28-26.88,1.32-4.52-1.61-9.16-2.53-13.84-3.38-1.32-.24-8.41,0-8.96-1.84-.32-1.07,2.44-1.96,2.85-2.2Zm-128.03,128.03c2.01,7.93-6.91,48.98,6.1,46.82,16.05-2.66,4.28-18.58,1.32-26.88-1.61-4.52-2.53-9.16-3.38-13.84-.24-1.32,0-8.41-1.84-8.96-1.07-.32-1.96,2.44-2.2,2.85Z"/></g><g id="path23348"><path class="cls-3" d="M352.16,128.4c3.75-12.2,18.7-18.62,29.98-21.5,11.56-2.95,23.32-2.94,34.79-5.59,1.12-.26,13.25-4.01,13.41-3.19,1.12,5.7-9.97,9.07-13.49,10.65-1.2,.54,1.39,7.25-4.11,8.58-1.98,.48-11.44-2.28-11.6-2.07-2.11,2.85,1.74,7.07-3.19,9.73-6.05,3.27-13.23-6.44-17.06-4.72-.56,.25,.95,6.26-1.41,7.78-5.51,3.57-18.46-5.59-16.9,.27,1.63,6.11-9.67,7.87-12.65,13.23-.03,.06-.42-6.95,2.22-13.18h0Zm59.45,59.45c12.2-3.75,18.62-18.7,21.5-29.98,2.95-11.56,2.94-23.32,5.59-34.79,.26-1.12,4.01-13.25,3.19-13.41-5.7-1.12-9.07,9.97-10.65,13.49-.54,1.2-7.25-1.39-8.58,4.11-.48,1.98,2.28,11.44,2.07,11.6-2.84,2.11-7.07-1.74-9.73,3.19-3.27,6.05,6.44,13.23,4.72,17.06-.25,.56-6.26-.95-7.78,1.41-3.57,5.51,5.59,18.46-.27,16.9-6.11-1.63-7.87,9.67-13.23,12.65-.06,.03,6.95,.42,13.18-2.22h0Zm-283.21,0c-12.2-3.75-18.62-18.7-21.5-29.98-2.95-11.56-2.94-23.32-5.59-34.79-.26-1.12-4.01-13.25-3.19-13.41,5.7-1.12,9.07,9.97,10.65,13.49,.54,1.2,7.25-1.39,8.58,4.11,.48,1.98-2.28,11.44-2.07,11.6,2.85,2.11,7.07-1.74,9.73,3.19,3.27,6.05-6.44,13.23-4.72,17.06,.25,.56,6.26-.95,7.78,1.41,3.57,5.51-5.59,18.46,.27,16.9,6.11-1.63,7.87,9.67,13.23,12.65,.06,.03-6.95,.42-13.18-2.22h0Zm59.45-59.45c-3.75-12.2-18.7-18.62-29.98-21.5-11.56-2.95-23.32-2.94-34.79-5.59-1.12-.26-13.25-4.01-13.41-3.19-1.12,5.7,9.97,9.07,13.49,10.65,1.2,.54-1.39,7.25,4.11,8.58,1.98,.48,11.44-2.28,11.6-2.07,2.11,2.85-1.74,7.07,3.19,9.73,6.05,3.27,13.23-6.44,17.06-4.72,.56,.25-.95,6.26,1.41,7.78,5.51,3.57,18.46-5.59,16.9,.27-1.63,6.11,9.67,7.87,12.65,13.23,.03,.06,.42-6.95-2.22-13.18h0Zm0,283.21c-3.75,12.2-18.7,18.62-29.98,21.5-11.56,2.95-23.32,2.94-34.79,5.59-1.12,.26-13.25,4.01-13.41,3.19-1.12-5.7,9.97-9.07,13.49-10.65,1.2-.54-1.4-7.25,4.11-8.58,1.98-.48,11.44,2.28,11.6,2.07,2.11-2.85-1.74-7.07,3.19-9.73,6.05-3.27,13.23,6.44,17.06,4.72,.56-.25-.95-6.26,1.41-7.78,5.51-3.57,18.46,5.59,16.9-.27-1.63-6.11,9.67-7.87,12.65-13.23,.03-.06,.42,6.95-2.22,13.18h0Zm-59.45-59.45c-12.2,3.75-18.62,18.7-21.5,29.98-2.95,11.56-2.94,23.32-5.59,34.79-.26,1.12-4.01,13.25-3.19,13.41,5.7,1.12,9.07-9.97,10.65-13.49,.54-1.2,7.25,1.39,8.58-4.11,.48-1.98-2.28-11.44-2.07-11.6,2.85-2.11,7.07,1.74,9.73-3.19,3.27-6.05-6.44-13.23-4.72-17.06,.25-.56,6.26,.95,7.78-1.41,3.57-5.51-5.59-18.46,.27-16.9,6.11,1.63,7.87-9.67,13.23-12.65,.06-.03-6.95-.42-13.18,2.22h0Zm283.21,0c12.2,3.75,18.62,18.7,21.5,29.98,2.95,11.56,2.94,23.32,5.59,34.79,.26,1.12,4.01,13.25,3.19,13.41-5.7,1.12-9.07-9.97-10.65-13.49-.54-1.2-7.25,1.39-8.58-4.11-.48-1.98,2.28-11.44,2.07-11.6-2.84-2.11-7.07,1.74-9.73-3.19-3.27-6.05,6.44-13.23,4.72-17.06-.25-.56-6.26,.95-7.78-1.41-3.57-5.51,5.59-18.46-.27-16.9-6.11,1.63-7.87-9.67-13.23-12.65-.06-.03,6.95-.42,13.18,2.22h0Zm-59.45,59.45c3.75,12.2,18.7,18.62,29.98,21.5,11.56,2.95,23.32,2.94,34.79,5.59,1.12,.26,13.25,4.01,13.41,3.19,1.12-5.7-9.97-9.07-13.49-10.65-1.2-.54,1.39-7.25-4.11-8.58-1.98-.48-11.44,2.28-11.6,2.07-2.11-2.85,1.74-7.07-3.19-9.73-6.05-3.27-13.23,6.44-17.06,4.72-.56-.25,.95-6.26-1.41-7.78-5.51-3.57-18.46,5.59-16.9-.27,1.63-6.11-9.67-7.87-12.65-13.23-.03-.06-.42,6.95,2.22,13.18h0Z"/></g><g id="path23350"><path class="cls-3" d="M351.51,135.74c.76-24.93,15.49-40.23,33.94-55.26,2.6-2.12,7.66-3.1,9.01-6.55,4.31-11-15.48,2.82-19.45,4-1.19,.35-4.13-5.75-8.56-4.97-8.6,1.51-10.82,20.18-11.23,20.15-4.8-.4-5.45-8.85-12.27-.4-3.48,4.31,4.09,12.66,4.69,18.11,.1,.93-14.52-2.74-7.14,8.51,1.69,2.57,8.35,8.52,5.49,7.4-4.16-1.63-.32,10.12,5.53,9.01Zm52.75,52.75c24.93-.76,40.23-15.49,55.26-33.94,2.12-2.6,3.1-7.66,6.55-9.01,11.01-4.31-2.82,15.48-4,19.45-.35,1.19,5.75,4.13,4.97,8.56-1.51,8.6-20.18,10.82-20.15,11.23,.4,4.8,8.85,5.45,.39,12.27-4.31,3.48-12.66-4.09-18.11-4.69-.93-.1,2.74,14.52-8.51,7.14-2.57-1.69-8.52-8.35-7.4-5.49,1.63,4.16-10.12,.32-9.01-5.53Zm-268.52,0c-24.93-.76-40.23-15.49-55.26-33.94-2.12-2.6-3.1-7.66-6.55-9.01-11-4.31,2.82,15.48,4,19.45,.35,1.19-5.75,4.13-4.97,8.56,1.51,8.6,20.18,10.82,20.15,11.23-.4,4.8-8.85,5.45-.4,12.27,4.31,3.48,12.67-4.09,18.11-4.69,.93-.1-2.74,14.52,8.51,7.14,2.57-1.69,8.52-8.35,7.4-5.49-1.63,4.16,10.12,.32,9.01-5.53h0Zm52.75-52.75c-.76-24.93-15.49-40.23-33.94-55.26-2.6-2.12-7.66-3.1-9.01-6.55-4.31-11,15.48,2.82,19.45,4,1.19,.35,4.13-5.75,8.56-4.97,8.6,1.51,10.82,20.18,11.23,20.15,4.8-.4,5.45-8.85,12.27-.4,3.48,4.31-4.09,12.66-4.69,18.11-.1,.93,14.52-2.74,7.14,8.51-1.69,2.57-8.35,8.52-5.49,7.4,4.16-1.63,.32,10.12-5.53,9.01h0Zm0,268.52c-.76,24.93-15.49,40.23-33.94,55.26-2.6,2.12-7.66,3.1-9.01,6.55-4.31,11,15.48-2.82,19.45-4,1.19-.35,4.13,5.75,8.56,4.97,8.6-1.51,10.82-20.18,11.23-20.15,4.8,.4,5.45,8.85,12.27,.4,3.48-4.31-4.09-12.67-4.69-18.11-.1-.93,14.52,2.74,7.14-8.51-1.69-2.57-8.35-8.52-5.49-7.4,4.16,1.63,.32-10.12-5.53-9.01h0Zm-52.75-52.75c-24.93,.76-40.23,15.49-55.26,33.94-2.12,2.6-3.1,7.66-6.55,9.01-11,4.31,2.82-15.48,4-19.45,.35-1.19-5.75-4.13-4.97-8.56,1.51-8.6,20.18-10.82,20.15-11.23-.4-4.8-8.85-5.45-.39-12.27,4.31-3.48,12.66,4.09,18.11,4.69,.93,.1-2.74-14.52,8.51-7.14,2.57,1.69,8.52,8.35,7.4,5.49-1.63-4.16,10.12-.32,9.01,5.53h0Zm268.52,0c24.93,.76,40.23,15.49,55.26,33.94,2.12,2.6,3.1,7.66,6.55,9.01,11.01,4.31-2.82-15.48-4-19.45-.35-1.19,5.75-4.13,4.97-8.56-1.51-8.6-20.18-10.82-20.15-11.23,.4-4.8,8.85-5.45,.39-12.27-4.31-3.48-12.66,4.09-18.11,4.69-.93,.1,2.74-14.52-8.51-7.14-2.57,1.69-8.52,8.35-7.4,5.49,1.63-4.16-10.12-.32-9.01,5.53h0Zm-52.75,52.75c.76,24.93,15.49,40.23,33.94,55.26,2.6,2.12,7.66,3.1,9.01,6.55,4.31,11-15.48-2.82-19.45-4-1.19-.35-4.13,5.75-8.56,4.97-8.6-1.51-10.82-20.18-11.23-20.15-4.8,.4-5.45,8.85-12.27,.4-3.48-4.31,4.09-12.66,4.69-18.11,.1-.93-14.52,2.74-7.14-8.51,1.69-2.57,8.35-8.52,5.49-7.4-4.16,1.63-.32-10.12,5.53-9.01h0Z"/></g><g id="path23352"><path class="cls-2" d="M315.09,171.67c8.93-4.05,5.75-31.55,12.65-28.08,11.85,5.95-3.11,26.41-10.25,30.47-2.81,1.6-5.9,.57-2.41-2.39h0Zm53.24,53.24c4.05-8.93,31.55-5.75,28.08-12.65-5.95-11.85-26.41,3.11-30.47,10.25-1.6,2.81-.57,5.9,2.39,2.41h0Zm-196.66,0c-4.05-8.93-31.55-5.75-28.08-12.65,5.95-11.85,26.41,3.11,30.47,10.25,1.6,2.81,.57,5.9-2.39,2.41h0Zm53.24-53.24c-8.93-4.05-5.75-31.55-12.66-28.08-11.85,5.95,3.11,26.41,10.25,30.47,2.81,1.6,5.9,.57,2.41-2.39h0Zm0,196.66c-8.93,4.05-5.75,31.55-12.66,28.08-11.85-5.95,3.11-26.41,10.25-30.47,2.81-1.6,5.9-.57,2.41,2.39h0Zm-53.24-53.24c-4.05,8.93-31.55,5.75-28.08,12.65,5.95,11.85,26.41-3.11,30.47-10.25,1.6-2.81,.57-5.9-2.39-2.41h0Zm196.66,0c4.05,8.93,31.55,5.75,28.08,12.65-5.95,11.85-26.41-3.11-30.47-10.25-1.6-2.81-.57-5.9,2.39-2.41h0Zm-53.24,53.24c8.93,4.05,5.75,31.55,12.65,28.08,11.85-5.95-3.11-26.41-10.25-30.47-2.81-1.6-5.9-.57-2.41,2.39h0Z"/></g><g id="path23354"><path class="cls-2" d="M317.39,177.52c4.95-2.13,19.4-23.34,21.66-21.75,.59,.42,.52,2.41,.67,3.1,2.4,11.36-23.08,25.49-22.33,18.66h0Zm45.1,45.1c2.13-4.95,23.34-19.4,21.75-21.66-.42-.59-2.41-.52-3.1-.67-11.36-2.4-25.49,23.08-18.66,22.33h0Zm-184.97,0c-2.13-4.95-23.34-19.4-21.75-21.66,.42-.59,2.41-.52,3.1-.67,11.36-2.4,25.49,23.08,18.66,22.33h0Zm45.1-45.1c-4.95-2.13-19.4-23.34-21.66-21.75-.59,.42-.52,2.41-.67,3.1-2.4,11.36,23.08,25.49,22.33,18.66h0Zm0,184.97c-4.95,2.13-19.4,23.34-21.66,21.75-.59-.42-.52-2.41-.67-3.1-2.4-11.36,23.08-25.49,22.33-18.66h0Zm-45.1-45.1c-2.13,4.95-23.34,19.4-21.75,21.66,.42,.59,2.41,.52,3.1,.67,11.36,2.4,25.49-23.08,18.66-22.33h0Zm184.97,0c2.13,4.95,23.34,19.4,21.75,21.66-.42,.59-2.41,.52-3.1,.67-11.36,2.4-25.49-23.08-18.66-22.33h0Zm-45.1,45.1c4.95,2.13,19.4,23.34,21.66,21.75,.59-.42,.52-2.41,.67-3.1,2.4-11.36-23.08-25.49-22.33-18.66h0Z"/></g><g id="path23356"><path class="cls-2" d="M319.34,181.82c2.95-.71,5.82-1.5,8.47-3.03,4.1-2.36,13.49-3.74,7.4,3.16-2.48,2.81-15.3,4.41-15.87-.14h0Zm38.85,38.85c.71-2.95,1.5-5.82,3.03-8.47,2.36-4.1,3.74-13.49-3.16-7.4-2.81,2.48-4.41,15.3,.14,15.87h0Zm-176.37,0c-.71-2.95-1.5-5.82-3.03-8.47-2.36-4.1-3.74-13.49,3.16-7.4,2.81,2.48,4.41,15.3-.14,15.87h0Zm38.85-38.85c-2.95-.71-5.82-1.5-8.47-3.03-4.1-2.36-13.49-3.74-7.4,3.16,2.48,2.81,15.3,4.41,15.87-.14h0Zm0,176.37c-2.95,.71-5.82,1.5-8.47,3.03-4.1,2.36-13.49,3.74-7.4-3.16,2.48-2.81,15.3-4.41,15.87,.14h0Zm-38.85-38.85c-.71,2.95-1.5,5.82-3.03,8.47-2.36,4.1-3.74,13.49,3.16,7.4,2.81-2.48,4.41-15.3-.14-15.87h0Zm176.37,0c.71,2.95,1.5,5.82,3.03,8.47,2.36,4.1,3.74,13.49-3.16,7.4-2.81-2.48-4.41-15.3,.14-15.87h0Zm-38.85,38.85c2.95,.71,5.82,1.5,8.47,3.03,4.1,2.36,13.49,3.74,7.4-3.16-2.48-2.81-15.3-4.41-15.87,.14h0Z"/></g><g id="path23358"><path class="cls-3" d="M311.94,171.26c2.28-.04,4.35,1.3,6.02,2.79,11.15,9.87-5.89,15.93-12.65,12.98-6.93-3.02,4.16-15.69,6.63-15.77Zm56.81,56.81c.04-2.28-1.3-4.35-2.79-6.02-9.87-11.15-15.93,5.89-12.98,12.65,3.02,6.93,15.69-4.16,15.77-6.63Zm-197.49,0c-.04-2.28,1.3-4.35,2.79-6.02,9.87-11.15,15.93,5.89,12.98,12.65-3.02,6.93-15.69-4.16-15.77-6.63Zm56.81-56.81c-2.28-.04-4.35,1.3-6.02,2.79-11.15,9.87,5.89,15.93,12.65,12.98,6.93-3.02-4.16-15.69-6.63-15.77Zm0,197.49c-2.28,.04-4.35-1.3-6.02-2.79-11.15-9.87,5.89-15.93,12.65-12.98,6.93,3.02-4.16,15.69-6.63,15.77Zm-56.81-56.81c-.04,2.28,1.3,4.35,2.79,6.02,9.87,11.15,15.93-5.89,12.98-12.65-3.02-6.93-15.69,4.16-15.77,6.63Zm197.49,0c.04,2.28-1.3,4.35-2.79,6.02-9.87,11.15-15.93-5.89-12.98-12.65,3.02-6.93,15.69,4.16,15.77,6.63h0Zm-56.81,56.81c2.28,.04,4.35-1.3,6.02-2.79,11.15-9.87-5.89-15.93-12.65-12.98-6.93,3.02,4.16,15.69,6.63,15.77h0Z"/></g><g id="path23360"><path class="cls-3" d="M307.72,179.81c-4.96,4.07-11.56,5.27-17.07,8.55-15.86,9.42-11.93,42.99-3.5,29.71,.51-.8-1.37-1.32-1.89-2.1-1.26-1.88-2.11-4.19-2.37-6.45-.61-5.33,2.89-12.82,6.33-16.66,4.81-5.39,18.99-4.56,18.5-13.05h0Zm52.47,52.47c-4.07,4.96-5.27,11.56-8.55,17.07-9.42,15.86-42.99,11.93-29.71,3.5,.8-.51,1.32,1.37,2.1,1.89,1.88,1.26,4.19,2.11,6.45,2.37,5.33,.61,12.82-2.89,16.66-6.33,5.39-4.81,4.56-18.99,13.05-18.5h0Zm-180.38,0c4.07,4.96,5.27,11.56,8.55,17.07,9.42,15.86,42.99,11.93,29.71,3.5-.8-.51-1.32,1.37-2.1,1.89-1.88,1.26-4.19,2.11-6.45,2.37-5.33,.61-12.82-2.89-16.66-6.33-5.39-4.81-4.56-18.99-13.05-18.5h0Zm52.47-52.47c4.96,4.07,11.56,5.27,17.07,8.55,15.86,9.42,11.93,42.99,3.5,29.71-.51-.8,1.37-1.32,1.89-2.1,1.26-1.88,2.11-4.19,2.37-6.45,.61-5.33-2.89-12.82-6.33-16.66-4.81-5.39-18.99-4.56-18.5-13.05h0Zm0,180.38c4.96-4.07,11.56-5.27,17.07-8.55,15.86-9.42,11.93-42.99,3.5-29.71-.51,.8,1.37,1.32,1.89,2.1,1.26,1.88,2.11,4.19,2.37,6.45,.61,5.33-2.89,12.82-6.33,16.66-4.81,5.39-18.99,4.56-18.5,13.05Zm-52.47-52.47c4.07-4.96,5.27-11.56,8.55-17.07,9.42-15.86,42.99-11.93,29.71-3.5-.8,.51-1.32-1.37-2.1-1.89-1.88-1.26-4.19-2.11-6.45-2.37-5.33-.61-12.82,2.89-16.66,6.33-5.39,4.81-4.56,18.99-13.05,18.5Zm180.38,0c-4.07-4.96-5.27-11.56-8.55-17.07-9.42-15.86-42.99-11.93-29.71-3.5,.8,.51,1.32-1.37,2.1-1.89,1.88-1.26,4.19-2.11,6.45-2.37,5.33-.61,12.82,2.89,16.66,6.33,5.39,4.81,4.56,18.99,13.05,18.5Zm-52.47,52.47c-4.96-4.07-11.56-5.27-17.07-8.55-15.86-9.42-11.93-42.99-3.5-29.71,.51,.8-1.37,1.32-1.89,2.1-1.26,1.88-2.11,4.19-2.37,6.45-.61,5.33,2.89,12.82,6.33,16.66,4.81,5.39,18.99,4.56,18.5,13.05Z"/></g><g id="path23362"><path class="cls-3" d="M348.47,132.47s3.33-24.31,21.03-34.12c17.7-9.8,54.4-14.86,73.71-24.25,19.31-9.39,68.4-47.22,68.4-47.22,0,0-34.49,30.26-47.18,40.55-12.69,10.28-32.77,20.19-46.91,23.28-14.15,3.1-22.63,1.07-37.24,10.18-14.6,9.11-19.12,12.69-21.75,20.22-2.64,7.53-6,19.64-6,19.64,0,0-3.78,3.13-3.56-.1s-.5-8.19-.5-8.19h0Zm59.07,59.07s24.31-3.33,34.12-21.03c9.8-17.7,14.86-54.4,24.25-73.71,9.39-19.31,47.22-68.4,47.22-68.4,0,0-30.26,34.49-40.55,47.18-10.28,12.69-20.19,32.77-23.28,46.91s-1.07,22.63-10.18,37.24c-9.11,14.6-12.69,19.12-20.22,21.75-7.53,2.64-19.64,6-19.64,6,0,0-3.13,3.78,.1,3.56,3.23-.23,8.18,.5,8.18,.5h0Zm-275.07,0s-24.31-3.33-34.12-21.03-14.86-54.4-24.25-73.71C64.72,77.49,26.89,28.4,26.89,28.4c0,0,30.26,34.49,40.55,47.18,10.28,12.69,20.19,32.77,23.28,46.91s1.07,22.63,10.18,37.24c9.11,14.6,12.69,19.12,20.22,21.75,7.53,2.64,19.64,6,19.64,6,0,0,3.13,3.78-.1,3.56s-8.19,.5-8.19,.5h0Zm59.07-59.07s-3.33-24.31-21.03-34.12c-17.7-9.8-54.4-14.86-73.71-24.25C77.49,64.72,28.4,26.89,28.4,26.89c0,0,34.49,30.26,47.18,40.55,12.69,10.28,32.77,20.19,46.91,23.28s22.63,1.07,37.24,10.18c14.6,9.11,19.12,12.69,21.75,20.22,2.64,7.53,6,19.64,6,19.64,0,0,3.79,3.13,3.56-.1-.23-3.23,.5-8.19,.5-8.19h0Zm0,275.07s-3.33,24.31-21.03,34.12c-17.7,9.8-54.4,14.86-73.71,24.25-19.31,9.39-68.4,47.22-68.4,47.22,0,0,34.49-30.26,47.18-40.55,12.69-10.28,32.76-20.19,46.91-23.28s22.63-1.07,37.24-10.18c14.6-9.11,19.12-12.69,21.75-20.22,2.64-7.53,6-19.64,6-19.64,0,0,3.79-3.13,3.56,.1-.23,3.23,.5,8.19,.5,8.19h0Zm-59.07-59.07s-24.31,3.33-34.12,21.03-14.86,54.4-24.25,73.71c-9.39,19.31-47.22,68.4-47.22,68.4,0,0,30.26-34.49,40.55-47.18,10.28-12.69,20.19-32.77,23.28-46.91s1.07-22.63,10.18-37.24c9.11-14.6,12.69-19.12,20.22-21.75,7.53-2.64,19.64-6,19.64-6,0,0,3.13-3.79-.1-3.56-3.23,.23-8.19-.5-8.19-.5h0Zm275.07,0s24.31,3.33,34.12,21.03c9.8,17.7,14.86,54.4,24.25,73.71,9.39,19.31,47.22,68.4,47.22,68.4,0,0-30.26-34.49-40.55-47.18-10.28-12.69-20.19-32.77-23.28-46.91s-1.07-22.63-10.18-37.24c-9.11-14.6-12.69-19.12-20.22-21.75s-19.64-6-19.64-6c0,0-3.13-3.79,.1-3.56,3.23,.23,8.18-.5,8.18-.5h0Zm-59.07,59.07s3.33,24.31,21.03,34.12c17.7,9.8,54.4,14.86,73.71,24.25,19.31,9.39,68.4,47.22,68.4,47.22,0,0-34.49-30.26-47.18-40.55-12.69-10.28-32.77-20.19-46.91-23.28s-22.63-1.07-37.24-10.18c-14.6-9.11-19.12-12.69-21.75-20.22-2.64-7.53-6-19.64-6-19.64,0,0-3.78-3.13-3.56,.1s-.5,8.19-.5,8.19h0Z"/></g><g id="path23364"><path class="cls-3" d="M319.43,88.51s-.11-3.68,3.98-3.11c4.09,.57,4,3.85,4,3.85,0,0,2.31-2.13,5.01,0,2.7,2.13-1.07,6.67-7.03,7.98-5.96,1.31-9.62-.38-11.58-4.2-1.97-3.82,3.31-7.31,5.64-4.52Zm132.06,132.06s3.68,.11,3.11-3.98c-.57-4.09-3.85-4-3.85-4,0,0,2.13-2.31,0-5.01-2.13-2.7-6.67,1.07-7.98,7.03-1.31,5.96,.38,9.62,4.2,11.58,3.82,1.97,7.31-3.31,4.52-5.64h0Zm-362.99,0s-3.68,.11-3.11-3.98c.57-4.09,3.85-4,3.85-4,0,0-2.13-2.31,0-5.01,2.13-2.7,6.67,1.07,7.98,7.03,1.31,5.96-.38,9.62-4.2,11.58-3.82,1.97-7.31-3.31-4.52-5.64h0ZM220.57,88.51s.11-3.68-3.98-3.11c-4.09,.57-4,3.85-4,3.85,0,0-2.31-2.13-5.01,0-2.7,2.13,1.07,6.67,7.03,7.98,5.96,1.31,9.62-.38,11.58-4.2,1.97-3.82-3.31-7.31-5.64-4.52Zm0,362.99s.11,3.68-3.98,3.11c-4.09-.57-4-3.85-4-3.85,0,0-2.31,2.13-5.01,0-2.7-2.13,1.07-6.67,7.03-7.98,5.96-1.31,9.62,.38,11.58,4.2,1.97,3.82-3.31,7.31-5.64,4.52h0ZM88.51,319.43s-3.68-.11-3.11,3.98c.57,4.09,3.85,4,3.85,4,0,0-2.13,2.31,0,5.01,2.13,2.7,6.67-1.07,7.98-7.04,1.31-5.96-.38-9.62-4.2-11.58-3.82-1.97-7.31,3.31-4.52,5.64h0Zm362.99,0s3.68-.11,3.11,3.98-3.85,4-3.85,4c0,0,2.13,2.31,0,5.01-2.13,2.7-6.67-1.07-7.98-7.03-1.31-5.96,.38-9.62,4.2-11.58,3.82-1.97,7.31,3.31,4.52,5.64h0Zm-132.06,132.06s-.11,3.68,3.98,3.11c4.09-.57,4-3.85,4-3.85,0,0,2.31,2.13,5.01,0,2.7-2.13-1.07-6.67-7.03-7.98-5.96-1.31-9.62,.38-11.58,4.2-1.97,3.82,3.31,7.31,5.64,4.52h0Z"/></g><g id="path23366"><path class="cls-3" d="M320.54,93.81s-.99,12.67,2.54,16.59c4.66,3.2,4.84,.03,4.84,.03,0,0-4.56-7.08-2.5-17.95-.52-.52-4.88,1.32-4.88,1.32h0Zm125.66,125.66s-12.67,.99-16.59-2.54c-3.2-4.66-.03-4.84-.03-4.84,0,0,7.08,4.56,17.95,2.5,.52,.52-1.32,4.88-1.32,4.88h0Zm-352.39,0s12.67,.99,16.59-2.54c3.2-4.66,.03-4.84,.03-4.84,0,0-7.08,4.56-17.95,2.5-.52,.52,1.32,4.88,1.32,4.88h0Zm125.66-125.66s.99,12.67-2.54,16.59c-4.66,3.2-4.84,.03-4.84,.03,0,0,4.56-7.08,2.5-17.95,.52-.52,4.88,1.32,4.88,1.32h0Zm0,352.39s.99-12.67-2.54-16.59c-4.66-3.2-4.84-.03-4.84-.03,0,0,4.56,7.08,2.5,17.95,.52,.52,4.88-1.32,4.88-1.32h0Zm-125.66-125.66s12.67-.99,16.59,2.54c3.2,4.66,.03,4.84,.03,4.84,0,0-7.08-4.56-17.95-2.5-.52-.52,1.32-4.88,1.32-4.88h0Zm352.39,0s-12.67-.99-16.59,2.54c-3.2,4.66-.03,4.84-.03,4.84,0,0,7.08-4.56,17.95-2.5,.52-.52-1.32-4.88-1.32-4.88h0Zm-125.66,125.66s-.99-12.67,2.54-16.59c4.66-3.2,4.84-.03,4.84-.03,0,0-4.56,7.08-2.5,17.95-.52,.52-4.88-1.32-4.88-1.32h0Z"/></g><g id="path23368"><path class="cls-3" d="M273.03,27.72s4.51,35.18,18.12,43.64c13.61,8.46,15.83,21.43,7.42,27.03-8.41,5.61-18.35,3.34-17.78-3.06s6.73-10.66,8.83-5.5,6.38,6.33,6.73,.45c.34-5.88-.04-8.29-6.84-12.55-6.81-4.26-19.19-12.62-16.48-50.01Zm239.25,239.25s-35.18-4.51-43.64-18.12c-8.46-13.61-21.43-15.83-27.03-7.42-5.61,8.41-3.34,18.35,3.06,17.78,6.4-.57,10.66-6.73,5.5-8.83-5.16-2.1-6.33-6.38-.45-6.73,5.88-.34,8.29,.04,12.55,6.84,4.26,6.81,12.62,19.19,50,16.48h0Zm-484.56,0s35.18-4.51,43.64-18.12c8.46-13.61,21.43-15.83,27.03-7.42,5.61,8.41,3.34,18.35-3.06,17.78-6.4-.57-10.66-6.73-5.5-8.83s6.33-6.38,.45-6.73c-5.88-.34-8.29,.04-12.55,6.84-4.26,6.81-12.62,19.19-50.01,16.48ZM266.97,27.72s-4.51,35.18-18.12,43.64c-13.61,8.46-15.83,21.43-7.42,27.03,8.41,5.61,18.35,3.34,17.78-3.06-.57-6.4-6.73-10.66-8.83-5.5s-6.38,6.33-6.73,.45c-.34-5.88,.04-8.29,6.84-12.55,6.81-4.26,19.19-12.62,16.48-50.01Zm0,484.56s-4.51-35.18-18.12-43.64c-13.61-8.46-15.83-21.43-7.42-27.03,8.41-5.61,18.35-3.34,17.78,3.06-.57,6.4-6.73,10.66-8.83,5.5-2.1-5.16-6.38-6.33-6.73-.45-.34,5.88,.04,8.29,6.84,12.55,6.81,4.26,19.19,12.62,16.48,50h0ZM27.72,273.03s35.18,4.51,43.64,18.12c8.46,13.61,21.43,15.83,27.03,7.42,5.61-8.41,3.34-18.35-3.06-17.78-6.4,.57-10.66,6.73-5.5,8.83s6.33,6.38,.45,6.73c-5.88,.34-8.29-.04-12.55-6.84-4.26-6.81-12.62-19.19-50.01-16.48h0Zm484.56,0s-35.18,4.51-43.64,18.12c-8.46,13.61-21.43,15.83-27.03,7.42-5.61-8.41-3.34-18.35,3.06-17.78,6.4,.57,10.66,6.73,5.5,8.83-5.16,2.1-6.33,6.38-.45,6.73,5.88,.34,8.29-.04,12.55-6.84,4.26-6.81,12.62-19.19,50-16.48h0Zm-239.25,239.25s4.51-35.18,18.12-43.64c13.61-8.46,15.83-21.43,7.42-27.03-8.41-5.61-18.35-3.34-17.78,3.06s6.73,10.66,8.83,5.5,6.38-6.33,6.73-.45c.34,5.88-.04,8.29-6.84,12.55-6.81,4.26-19.19,12.62-16.48,50h0Z"/></g></g></g></svg>