<?xml version="1.0" encoding="UTF-8"?><svg id="Layer_2" xmlns="http://www.w3.org/2000/svg" viewBox="0 0 540 540"><defs><style>.cls-1{fill:#e9e9e2;}.cls-2{fill:#b87e20;}.cls-3{fill:#cf962b;}.cls-4{fill:#51475e;}</style></defs><g id="OBJECTS"><g id="g23960"><g id="path23928"><path class="cls-1" d="M270,270.01L540,0H270s0,270.01,0,270.01Zm0,0L540,0V270s-270.01,0-270.01,0Zm0,0L0,0V270s270,0,270,0Zm0,0L0,0H270s0,270.01,0,270.01Zm0,0L0,540H270s0-270,0-270Zm0,0L0,540V270s270,0,270,0Zm0,0l270.01,270V270s-270.01,0-270.01,0Zm0,0l270,270H270s0-270,0-270Z"/></g><g id="path23930"><path class="cls-4" d="M270,270L512.91,27.09s-43.49,35.28-50.38,43.11c-6.89,7.83-178.62,177.18-182.35,181.37s-5.44-3.03-3.42-14.77c2.02-11.74-6.76-220.14-6.76-220.14v253.34Zm0,0L512.91,27.09s-35.28,43.49-43.11,50.38c-7.83,6.89-177.17,178.62-181.37,182.35s3.03,5.44,14.77,3.42,220.14,6.76,220.14,6.76h-253.34Zm0,0L27.09,27.09s35.28,43.49,43.11,50.38c7.83,6.89,177.17,178.62,181.37,182.35s-3.03,5.44-14.77,3.42-220.14,6.76-220.14,6.76h253.34Zm0,0L27.09,27.09s43.49,35.28,50.38,43.11c6.89,7.83,178.62,177.18,182.35,181.37s5.44-3.03,3.42-14.77c-2.02-11.74,6.76-220.14,6.76-220.14v253.34Zm0,0L27.09,512.91s43.49-35.28,50.38-43.11c6.89-7.83,178.62-177.18,182.35-181.37s5.44,3.03,3.42,14.77,6.76,220.14,6.76,220.14v-253.34Zm0,0L27.09,512.91s35.28-43.49,43.11-50.38c7.83-6.89,177.17-178.62,181.37-182.35s-3.03-5.44-14.77-3.42-220.14-6.76-220.14-6.76h253.34Zm0,0l242.91,242.91s-35.28-43.49-43.11-50.38c-7.83-6.89-177.17-178.62-181.37-182.35s3.03-5.44,14.77-3.42,220.14-6.76,220.14-6.76h-253.34Zm0,0l242.91,242.91s-43.49-35.28-50.38-43.11c-6.89-7.83-178.62-177.18-182.35-181.37s-5.44,3.03-3.42,14.77c2.02,11.74-6.76,220.14-6.76,220.14v-253.34Z"/></g><g id="path23932"><path class="cls-4" d="M298.65,235.89c3.21-25.68-3.79-38.71,11.98-62.9,4.57-7.01-5.05,42.06,3.7,45.01,7.92,2.67,6.95-17.11,6.81-20.43-.87-21.55-3.49-38.45,14.51-54.27,.92-.81,5.37-5.96,6.78-5.54,.9,.27-.83,1.7-1.32,2.5-2.76,4.61-4.95,9.74-6.56,14.86-1.34,4.27-1.4,42.54,3.74,40.83,17.92-5.97,7.55-49.15,15.13-63.6,1.61-3.07,19.8-24.06,21.94-20.2,1.25,2.26-23.8,54.64-7.03,52.76,17.43-1.96,10.56-50.68,16.89-61.32,4.44-7.47,10.38-12.35,17.62-17,1.22-.78,3.33-4.25,3.33-2.8,0,4.26-13.01,32.79-14.25,46.17-1.87,20.15,14.84-2.38,16.52-9.95,2.37-10.66,10.94-58.52,27.33-58.52,1.8,0-15.39,34.8-5.27,39.34,10.98,4.94,16.48-40.65,20.29-45.6,5.18-6.72,10.59-10.71,17.55-15.49,1.41-.97,4.1-4.81,4.1-3.1,0,5.65-12.91,14.95-14.84,21.62-.38,1.32-2.66,16.42,2.67,13.28,12.02-7.08,8.58-28.34,18.13-34.37,5.82-3.67,12.76-6.29,19.34-8.3,2.65-.81,10.18-4.32,7.77-2.97-20.39,11.46-25.3,30.28-40,47.09-11.38,13.01-24.33,23.57-35.13,37.33-14.43,18.39-37.57,31.2-52.82,49.23-24.02,28.38-51.75,51.34-78.9,76.35h0Zm5.46,5.46c25.68-3.21,38.71,3.79,62.9-11.98,7.01-4.57-42.06,5.05-45.01-3.7-2.67-7.92,17.11-6.95,20.43-6.81,21.55,.87,38.45,3.49,54.27-14.51,.81-.92,5.96-5.37,5.54-6.78-.27-.9-1.7,.83-2.5,1.32-4.61,2.76-9.74,4.95-14.86,6.56-4.27,1.34-42.54,1.4-40.83-3.74,5.97-17.92,49.15-7.55,63.6-15.13,3.07-1.61,24.06-19.8,20.2-21.94-2.26-1.25-54.64,23.8-52.76,7.03,1.96-17.43,50.68-10.56,61.32-16.89,7.47-4.44,12.35-10.38,17-17.62,.78-1.22,4.25-3.33,2.8-3.33-4.26,0-32.79,13.01-46.17,14.25-20.15,1.87,2.38-14.84,9.95-16.52,10.66-2.37,58.52-10.94,58.52-27.33,0-1.8-34.8,15.39-39.34,5.27-4.94-10.98,40.65-16.48,45.6-20.29,6.72-5.18,10.71-10.59,15.49-17.55,.97-1.41,4.81-4.1,3.1-4.1-5.65,0-14.95,12.91-21.62,14.84-1.32,.38-16.42,2.66-13.28-2.67,7.08-12.02,28.34-8.58,34.37-18.13,3.67-5.82,6.29-12.76,8.3-19.34,.81-2.65,4.32-10.18,2.97-7.77-11.46,20.39-30.28,25.3-47.09,40-13.01,11.38-23.57,24.33-37.33,35.13-18.39,14.43-31.2,37.57-49.23,52.82-28.38,24.02-51.34,51.75-76.35,78.9h0Zm-68.22,0c-25.68-3.21-38.71,3.79-62.9-11.98-7.01-4.57,42.06,5.05,45.01-3.7,2.67-7.92-17.11-6.95-20.43-6.81-21.55,.87-38.45,3.49-54.27-14.51-.81-.92-5.96-5.37-5.54-6.78,.27-.9,1.7,.83,2.5,1.32,4.61,2.76,9.74,4.95,14.86,6.56,4.27,1.34,42.54,1.4,40.83-3.74-5.97-17.92-49.15-7.55-63.6-15.13-3.07-1.61-24.06-19.8-20.2-21.94,2.26-1.25,54.64,23.8,52.76,7.03-1.96-17.43-50.68-10.56-61.32-16.89-7.47-4.44-12.35-10.38-17-17.62-.78-1.22-4.25-3.33-2.8-3.33,4.26,0,32.79,13.01,46.17,14.25,20.15,1.87-2.38-14.84-9.95-16.52-10.66-2.37-58.52-10.94-58.52-27.33,0-1.8,34.8,15.39,39.34,5.27,4.94-10.98-40.65-16.48-45.6-20.29-6.72-5.18-10.71-10.59-15.49-17.55-.97-1.41-4.81-4.1-3.1-4.1,5.65,0,14.95,12.91,21.62,14.84,1.32,.38,16.42,2.66,13.28-2.67-7.08-12.02-28.34-8.58-34.37-18.13-3.67-5.82-6.29-12.76-8.3-19.34-.81-2.65-4.32-10.18-2.97-7.77,11.46,20.39,30.28,25.3,47.09,40,13.01,11.38,23.57,24.33,37.33,35.13,18.39,14.43,31.2,37.57,49.23,52.82,28.38,24.02,51.34,51.75,76.35,78.9h0Zm5.46-5.46c-3.21-25.68,3.79-38.71-11.98-62.9-4.57-7.01,5.05,42.06-3.7,45.01-7.92,2.67-6.95-17.11-6.81-20.43,.87-21.55,3.49-38.45-14.51-54.27-.92-.81-5.37-5.96-6.78-5.54-.9,.27,.83,1.7,1.32,2.5,2.76,4.61,4.95,9.74,6.56,14.86,1.34,4.27,1.4,42.54-3.74,40.83-17.92-5.97-7.55-49.15-15.13-63.6-1.61-3.07-19.8-24.06-21.94-20.2-1.25,2.26,23.8,54.64,7.03,52.76-17.43-1.96-10.56-50.68-16.89-61.32-4.44-7.47-10.38-12.35-17.62-17-1.22-.78-3.33-4.25-3.33-2.8,0,4.26,13.01,32.79,14.25,46.17,1.87,20.15-14.84-2.38-16.52-9.95-2.37-10.66-10.94-58.52-27.33-58.52-1.8,0,15.39,34.8,5.27,39.34-10.98,4.94-16.48-40.65-20.29-45.6-5.18-6.72-10.59-10.71-17.55-15.49-1.41-.97-4.1-4.81-4.1-3.1,0,5.65,12.91,14.95,14.84,21.62,.38,1.32,2.66,16.42-2.67,13.28-12.02-7.08-8.58-28.34-18.13-34.37-5.82-3.67-12.76-6.29-19.34-8.3-2.65-.81-10.18-4.32-7.77-2.97,20.39,11.46,25.3,30.28,40,47.09,11.38,13.01,24.33,23.57,35.13,37.33,14.43,18.39,37.57,31.2,52.82,49.23,24.02,28.38,51.75,51.34,78.9,76.35h0Zm0,68.22c-3.21,25.68,3.79,38.71-11.98,62.9-4.57,7.01,5.05-42.06-3.7-45.01-7.92-2.67-6.95,17.11-6.81,20.43,.87,21.55,3.49,38.45-14.51,54.27-.92,.81-5.37,5.96-6.78,5.54-.9-.27,.83-1.7,1.32-2.5,2.76-4.61,4.95-9.74,6.56-14.86,1.34-4.27,1.4-42.54-3.74-40.83-17.92,5.97-7.55,49.15-15.13,63.6-1.61,3.07-19.8,24.06-21.94,20.2-1.25-2.26,23.8-54.64,7.03-52.76-17.43,1.96-10.56,50.68-16.89,61.32-4.44,7.47-10.38,12.35-17.62,17-1.22,.78-3.33,4.25-3.33,2.8,0-4.26,13.01-32.79,14.25-46.17,1.87-20.15-14.84,2.38-16.52,9.95-2.37,10.66-10.94,58.52-27.33,58.52-1.8,0,15.39-34.8,5.27-39.34-10.98-4.94-16.48,40.65-20.29,45.6-5.18,6.72-10.59,10.71-17.55,15.49-1.41,.97-4.1,4.81-4.1,3.1,0-5.65,12.91-14.95,14.84-21.62,.38-1.32,2.66-16.42-2.67-13.28-12.02,7.08-8.58,28.34-18.13,34.37-5.82,3.67-12.76,6.29-19.34,8.3-2.65,.81-10.18,4.32-7.77,2.97,20.39-11.46,25.3-30.28,40-47.09,11.38-13.01,24.33-23.57,35.13-37.33,14.43-18.39,37.57-31.2,52.82-49.23,24.02-28.38,51.75-51.34,78.9-76.35h0Zm-5.46-5.46c-25.68,3.21-38.71-3.79-62.9,11.98-7.01,4.57,42.06-5.05,45.01,3.7,2.67,7.92-17.11,6.95-20.43,6.81-21.55-.87-38.45-3.49-54.27,14.51-.81,.92-5.96,5.37-5.54,6.78,.27,.9,1.7-.83,2.5-1.32,4.61-2.76,9.74-4.95,14.86-6.56,4.27-1.34,42.54-1.4,40.83,3.74-5.97,17.92-49.15,7.55-63.6,15.13-3.07,1.61-24.06,19.8-20.2,21.94,2.26,1.25,54.64-23.8,52.76-7.03-1.96,17.43-50.68,10.56-61.32,16.89-7.47,4.44-12.35,10.38-17,17.62-.78,1.22-4.25,3.33-2.8,3.33,4.26,0,32.79-13.01,46.17-14.25,20.15-1.87-2.38,14.84-9.95,16.52-10.66,2.37-58.52,10.94-58.52,27.33,0,1.8,34.8-15.39,39.34-5.27,4.94,10.98-40.65,16.48-45.6,20.29-6.72,5.18-10.71,10.59-15.49,17.55-.97,1.41-4.81,4.1-3.1,4.1,5.65,0,14.95-12.91,21.62-14.84,1.32-.38,16.42-2.66,13.28,2.67-7.08,12.02-28.34,8.58-34.37,18.13-3.67,5.82-6.29,12.76-8.3,19.34-.81,2.65-4.32,10.18-2.97,7.77,11.46-20.39,30.28-25.3,47.09-40,13.01-11.38,23.57-24.33,37.33-35.13,18.39-14.43,31.2-37.57,49.23-52.82,28.38-24.02,51.34-51.75,76.35-78.9h0Zm68.22,0c25.68,3.21,38.71-3.79,62.9,11.98,7.01,4.57-42.06-5.05-45.01,3.7-2.67,7.92,17.11,6.95,20.43,6.81,21.55-.87,38.45-3.49,54.27,14.51,.81,.92,5.96,5.37,5.54,6.78-.27,.9-1.7-.83-2.5-1.32-4.61-2.76-9.74-4.95-14.86-6.56-4.27-1.34-42.54-1.4-40.83,3.74,5.97,17.92,49.15,7.55,63.6,15.13,3.07,1.61,24.06,19.8,20.2,21.94-2.26,1.25-54.64-23.8-52.76-7.03,1.96,17.43,50.68,10.56,61.32,16.89,7.47,4.44,12.35,10.38,17,17.62,.78,1.22,4.25,3.33,2.8,3.33-4.26,0-32.79-13.01-46.17-14.25-20.15-1.87,2.38,14.84,9.95,16.52,10.66,2.37,58.52,10.94,58.52,27.33,0,1.8-34.8-15.39-39.34-5.27-4.94,10.98,40.65,16.48,45.6,20.29,6.72,5.18,10.71,10.59,15.49,17.55,.97,1.41,4.81,4.1,3.1,4.1-5.65,0-14.95-12.91-21.62-14.84-1.32-.38-16.42-2.66-13.28,2.67,7.08,12.02,28.34,8.58,34.37,18.13,3.67,5.82,6.29,12.76,8.3,19.34,.81,2.65,4.32,10.18,2.97,7.77-11.46-20.39-30.28-25.3-47.09-40-13.01-11.38-23.57-24.33-37.33-35.13-18.39-14.43-31.2-37.57-49.23-52.82-28.38-24.02-51.34-51.75-76.35-78.9h0Zm-5.46,5.46c3.21,25.68-3.79,38.71,11.98,62.9,4.57,7.01-5.05-42.06,3.7-45.01,7.92-2.67,6.95,17.11,6.81,20.43-.87,21.55-3.49,38.45,14.51,54.27,.92,.81,5.37,5.96,6.78,5.54,.9-.27-.83-1.7-1.32-2.5-2.76-4.61-4.95-9.74-6.56-14.86-1.34-4.27-1.4-42.54,3.74-40.83,17.92,5.97,7.55,49.15,15.13,63.6,1.61,3.07,19.8,24.06,21.94,20.2,1.25-2.26-23.8-54.64-7.03-52.76,17.43,1.96,10.56,50.68,16.89,61.32,4.44,7.47,10.38,12.35,17.62,17,1.22,.78,3.33,4.25,3.33,2.8,0-4.26-13.01-32.79-14.25-46.17-1.87-20.15,14.84,2.38,16.52,9.95,2.37,10.66,10.94,58.52,27.33,58.52,1.8,0-15.39-34.8-5.27-39.34,10.98-4.94,16.48,40.65,20.29,45.6,5.18,6.72,10.59,10.71,17.55,15.49,1.41,.97,4.1,4.81,4.1,3.1,0-5.65-12.91-14.95-14.84-21.62-.38-1.32-2.66-16.42,2.67-13.28,12.02,7.08,8.58,28.34,18.13,34.37,5.82,3.67,12.76,6.29,19.34,8.3,2.65,.81,10.18,4.32,7.77,2.97-20.39-11.46-25.3-30.28-40-47.09-11.38-13.01-24.33-23.57-35.13-37.33-14.43-18.39-37.57-31.2-52.82-49.23-24.02-28.38-51.75-51.34-78.9-76.35h0Z"/></g><g id="path23934"><path class="cls-4" d="M274.76,236.29c15.64-18.1,23.41-50.33,23.41-74.54,0-4.5-2.96,8.51-4.65,12.69-.62,1.54-16.32,56.56-19.63,38.98-2.95-15.67,28.98-80.84,15.68-86.83-3.96-1.78-.15,8.72-.95,12.98-.22,1.15-12.43,37.82-14.91,30.64-6.14-17.75,12.27-39.31,12.42-57.86,0-.63-.44-17-1.32-16.74-.45,.14-10.64,50.51-13.37,32.49-1.06-6.96,17.96-56.52,6.92-61.49-1.8-.81-.1,3.94-.29,5.9-.13,1.29-5.14,17.22-5.27,17.1-2.57-2.31-.51-6.4,.33-8.77,2.83-7.99,9.23-27.71,1.25-34.9-.07-.06-1.06,3.46-1.06,3.46-1.58,6.17-2.93,14.07-2.93,20.36,0,16.4,2.8,34.85,1.61,50.91-1.21,16.38-3.83,106.4,2.78,115.59h0Zm28.96,28.96c18.1-15.64,50.33-23.41,74.54-23.41,4.5,0-8.51,2.96-12.69,4.65-1.54,.62-56.56,16.32-38.98,19.63,15.67,2.95,80.84-28.98,86.83-15.68,1.78,3.96-8.72,.15-12.98,.95-1.15,.22-37.82,12.43-30.64,14.91,17.75,6.14,39.31-12.28,57.86-12.42,.63,0,17,.44,16.74,1.32-.14,.45-50.51,10.64-32.49,13.37,6.96,1.06,56.52-17.96,61.49-6.92,.81,1.8-3.94,.1-5.9,.29-1.29,.13-17.22,5.14-17.1,5.28,2.31,2.57,6.4,.51,8.76-.33,7.99-2.83,27.71-9.23,34.9-1.25,.06,.07-3.45,1.06-3.46,1.06-6.17,1.58-14.07,2.93-20.36,2.93-16.4,0-34.85-2.8-50.91-1.61-16.38,1.21-106.4,3.83-115.59-2.78h0Zm-67.42,0c-18.1-15.64-50.33-23.41-74.54-23.41-4.5,0,8.51,2.96,12.69,4.65,1.54,.62,56.56,16.32,38.98,19.63-15.67,2.95-80.84-28.98-86.83-15.68-1.78,3.96,8.72,.15,12.98,.95,1.15,.22,37.82,12.43,30.64,14.91-17.75,6.14-39.31-12.27-57.86-12.42-.63,0-17,.44-16.74,1.32,.14,.45,50.51,10.64,32.49,13.37-6.96,1.06-56.52-17.96-61.49-6.92-.81,1.8,3.94,.1,5.9,.29,1.29,.13,17.22,5.14,17.1,5.27-2.31,2.57-6.4,.51-8.77-.33-7.99-2.83-27.71-9.23-34.9-1.25-.06,.07,3.45,1.06,3.46,1.06,6.17,1.58,14.07,2.93,20.36,2.93,16.4,0,34.85-2.8,50.91-1.61,16.38,1.21,106.4,3.83,115.59-2.78h0Zm28.96-28.96c-15.64-18.1-23.41-50.33-23.41-74.54,0-4.5,2.96,8.51,4.65,12.69,.62,1.54,16.32,56.56,19.63,38.98,2.95-15.67-28.98-80.84-15.68-86.83,3.96-1.78,.15,8.72,.95,12.98,.22,1.15,12.43,37.82,14.91,30.64,6.14-17.75-12.28-39.31-12.42-57.86,0-.63,.44-17,1.32-16.74,.45,.14,10.64,50.51,13.37,32.49,1.05-6.96-17.96-56.52-6.92-61.49,1.8-.81,.1,3.94,.29,5.9,.13,1.29,5.14,17.22,5.28,17.1,2.57-2.31,.51-6.4-.33-8.76-2.83-7.99-9.23-27.71-1.25-34.9,.07-.06,1.06,3.46,1.06,3.46,1.58,6.17,2.93,14.07,2.93,20.36,0,16.4-2.8,34.85-1.61,50.91,1.21,16.38,3.83,106.4-2.78,115.59h0Zm0,67.42c-15.64,18.1-23.41,50.33-23.41,74.54,0,4.5,2.96-8.51,4.65-12.69,.62-1.54,16.32-56.56,19.63-38.98,2.95,15.67-28.98,80.84-15.68,86.83,3.96,1.78,.15-8.72,.95-12.98,.22-1.15,12.43-37.82,14.91-30.64,6.14,17.75-12.27,39.31-12.42,57.86,0,.63,.44,17,1.32,16.74,.45-.14,10.64-50.51,13.37-32.49,1.06,6.96-17.96,56.52-6.92,61.49,1.8,.81,.1-3.94,.29-5.9,.13-1.29,5.14-17.22,5.28-17.1,2.57,2.31,.51,6.4-.33,8.77-2.83,7.99-9.23,27.71-1.25,34.9,.07,.06,1.06-3.45,1.06-3.46,1.58-6.17,2.93-14.07,2.93-20.36,0-16.4-2.8-34.85-1.61-50.91,1.21-16.38,3.83-106.4-2.78-115.59h0Zm-28.96-28.96c-18.1,15.64-50.33,23.41-74.54,23.41-4.5,0,8.51-2.96,12.69-4.65,1.54-.62,56.56-16.32,38.98-19.63-15.67-2.95-80.84,28.98-86.83,15.68-1.78-3.96,8.72-.15,12.98-.95,1.15-.22,37.82-12.43,30.65-14.91-17.75-6.14-39.31,12.27-57.86,12.42-.63,0-17-.44-16.74-1.32,.14-.45,50.51-10.64,32.49-13.37-6.96-1.06-56.52,17.96-61.49,6.92-.81-1.8,3.94-.1,5.9-.29,1.29-.13,17.22-5.14,17.1-5.28-2.31-2.57-6.4-.51-8.77,.33-7.99,2.83-27.71,9.23-34.9,1.25-.06-.07,3.45-1.06,3.46-1.06,6.17-1.58,14.07-2.93,20.36-2.93,16.4,0,34.85,2.8,50.91,1.61,16.38-1.21,106.4-3.83,115.59,2.78h0Zm67.42,0c18.1,15.64,50.33,23.41,74.54,23.41,4.5,0-8.51-2.96-12.69-4.65-1.54-.62-56.56-16.32-38.98-19.63,15.67-2.95,80.84,28.98,86.83,15.68,1.78-3.96-8.72-.15-12.98-.95-1.15-.22-37.82-12.43-30.64-14.91,17.75-6.14,39.31,12.27,57.86,12.42,.63,0,17-.44,16.74-1.32-.14-.45-50.51-10.64-32.49-13.37,6.96-1.06,56.52,17.96,61.49,6.92,.81-1.8-3.94-.1-5.9-.29-1.29-.13-17.22-5.14-17.1-5.28,2.31-2.57,6.4-.51,8.77,.33,7.99,2.83,27.71,9.23,34.9,1.25,.06-.07-3.45-1.06-3.46-1.06-6.17-1.58-14.07-2.93-20.36-2.93-16.4,0-34.85,2.8-50.91,1.61-16.38-1.21-106.4-3.83-115.59,2.78h0Zm-28.96,28.96c15.64,18.1,23.41,50.33,23.41,74.54,0,4.5-2.96-8.51-4.65-12.69-.62-1.54-16.32-56.56-19.63-38.98-2.95,15.67,28.98,80.84,15.68,86.83-3.96,1.78-.15-8.72-.95-12.98-.22-1.15-12.43-37.82-14.91-30.64-6.14,17.75,12.27,39.31,12.42,57.86,0,.63-.44,17-1.32,16.74-.45-.14-10.64-50.51-13.37-32.49-1.06,6.96,17.96,56.52,6.92,61.49-1.8,.81-.1-3.94-.29-5.9-.13-1.29-5.14-17.22-5.28-17.1-2.57,2.31-.51,6.4,.33,8.77,2.83,7.99,9.23,27.71,1.25,34.9-.07,.06-1.06-3.45-1.06-3.46-1.58-6.17-2.93-14.07-2.93-20.36,0-16.4,2.8-34.85,1.61-50.91-1.21-16.38-3.83-106.4,2.78-115.59h0Z"/></g><g id="path23936"><path class="cls-4" d="M273.43,248.06c16.47,1.52,30.48-85.35,32.9-99.45,1.16-6.8,5.71-18.68,4.73-25.21-.16-1.05-4-15.22-.18-14.37,.94,.21,16.93,10.38,16.89,11.17-.08,1.48-13.66,10.35-15.86,18.65-6.75,25.52-15.63,95-27.99,112.6-5.39,7.67-9.22,4.01-10.48-3.39h0Zm18.51,18.51c-1.52-16.47,85.35-30.48,99.45-32.9,6.8-1.16,18.68-5.71,25.21-4.73,1.05,.16,15.22,4,14.37,.18-.21-.94-10.38-16.93-11.17-16.89-1.48,.08-10.35,13.67-18.65,15.86-25.52,6.75-95,15.63-112.6,27.99-7.67,5.39-4.01,9.22,3.39,10.48h0Zm-43.88,0c1.52-16.47-85.35-30.48-99.45-32.9-6.8-1.16-18.68-5.71-25.21-4.73-1.05,.16-15.23,4-14.37,.18,.21-.94,10.38-16.93,11.17-16.89,1.48,.08,10.35,13.66,18.65,15.86,25.52,6.75,95,15.63,112.6,27.99,7.67,5.39,4.01,9.22-3.39,10.48h0Zm18.51-18.51c-16.46,1.52-30.48-85.35-32.9-99.45-1.16-6.8-5.71-18.68-4.73-25.21,.16-1.05,4-15.22,.18-14.37-.94,.21-16.93,10.38-16.89,11.17,.08,1.48,13.67,10.35,15.86,18.65,6.75,25.52,15.63,95,27.99,112.6,5.39,7.67,9.22,4.01,10.48-3.39h0Zm0,43.88c-16.46-1.52-30.48,85.35-32.9,99.45-1.16,6.8-5.71,18.68-4.73,25.21,.16,1.05,4,15.23,.18,14.37-.94-.21-16.93-10.38-16.89-11.17,.08-1.48,13.67-10.35,15.86-18.65,6.75-25.52,15.63-95,27.99-112.6,5.39-7.67,9.22-4.01,10.48,3.39h0Zm-18.51-18.51c1.52,16.46-85.35,30.48-99.45,32.9-6.8,1.16-18.68,5.71-25.21,4.73-1.05-.16-15.23-4-14.37-.18,.21,.94,10.38,16.93,11.17,16.89,1.48-.08,10.35-13.67,18.65-15.86,25.52-6.75,95-15.63,112.6-27.99,7.67-5.39,4.01-9.22-3.39-10.48h0Zm43.88,0c-1.52,16.46,85.35,30.48,99.45,32.9,6.8,1.16,18.68,5.71,25.21,4.73,1.05-.16,15.22-4,14.37-.18-.21,.94-10.38,16.93-11.17,16.89-1.48-.08-10.35-13.67-18.65-15.86-25.52-6.75-95-15.63-112.6-27.99-7.67-5.39-4.01-9.22,3.39-10.48h0Zm-18.51,18.51c16.47-1.52,30.48,85.35,32.9,99.45,1.16,6.8,5.71,18.68,4.73,25.21-.16,1.05-4,15.23-.18,14.37,.94-.21,16.93-10.38,16.89-11.17-.08-1.48-13.66-10.35-15.86-18.65-6.75-25.52-15.63-95-27.99-112.6-5.39-7.67-9.22-4.01-10.48,3.39h0Z"/></g><g id="path23938"><path class="cls-3" d="M311.87,113.52c-8.25-9.67-1.93-20.66-2.36-31.57-.19-4.77-4.14-8.68-3.11-13.58,1.89-9.03,11.69-2.24,14.01,1.93,5.38-5.85,10.95-2.43,11.4,4.31,6.38-5.71,9.46-.65,10.21,5.59,6.77-3.73,11.8-1.21,10.46,6.55,7.47-2.66,14.6,1.62,11.89,9.58,4.22,.38,5.37,5.09,3.39,8.53-3.49,6.07-11.73,2.84-17.02,4.61-15.42,5.18-24.07,22.05-38.88,4.05Zm114.62,114.62c9.67,8.25,20.66,1.93,31.57,2.36,4.77,.19,8.68,4.14,13.58,3.11,9.03-1.89,2.24-11.69-1.93-14.01,5.85-5.38,2.43-10.95-4.31-11.4,5.71-6.38,.65-9.46-5.59-10.21,3.73-6.77,1.21-11.8-6.55-10.46,2.66-7.47-1.62-14.6-9.58-11.89-.38-4.22-5.09-5.37-8.53-3.39-6.07,3.48-2.84,11.73-4.61,17.02-5.18,15.42-22.05,24.07-4.05,38.88h0Zm-312.97,0c-9.67,8.25-20.66,1.93-31.57,2.36-4.77,.19-8.68,4.14-13.58,3.11-9.03-1.89-2.24-11.69,1.93-14.01-5.85-5.38-2.43-10.95,4.31-11.4-5.71-6.38-.65-9.46,5.59-10.21-3.73-6.77-1.21-11.8,6.55-10.46-2.66-7.47,1.62-14.6,9.58-11.89,.38-4.22,5.09-5.37,8.53-3.39,6.07,3.49,2.84,11.73,4.61,17.02,5.18,15.42,22.05,24.07,4.05,38.88Zm114.62-114.62c8.25-9.67,1.93-20.66,2.36-31.57,.19-4.77,4.14-8.68,3.11-13.58-1.89-9.03-11.69-2.24-14.01,1.93-5.38-5.85-10.95-2.43-11.4,4.31-6.38-5.71-9.46-.65-10.21,5.59-6.77-3.73-11.8-1.21-10.46,6.55-7.47-2.66-14.6,1.62-11.89,9.58-4.21,.38-5.37,5.09-3.39,8.53,3.49,6.07,11.73,2.84,17.02,4.61,15.42,5.18,24.07,22.05,38.88,4.05Zm0,312.97c8.25,9.67,1.93,20.66,2.36,31.57,.19,4.77,4.14,8.68,3.11,13.58-1.89,9.03-11.69,2.24-14.01-1.93-5.38,5.85-10.95,2.43-11.4-4.31-6.38,5.71-9.46,.65-10.21-5.59-6.77,3.73-11.8,1.21-10.46-6.55-7.47,2.66-14.6-1.62-11.89-9.58-4.21-.38-5.37-5.09-3.39-8.53,3.49-6.07,11.73-2.84,17.02-4.61,15.42-5.18,24.07-22.05,38.88-4.05h0Zm-114.62-114.62c-9.67-8.25-20.66-1.93-31.57-2.36-4.77-.19-8.68-4.14-13.58-3.11-9.03,1.89-2.24,11.69,1.93,14.01-5.85,5.38-2.43,10.95,4.31,11.4-5.71,6.38-.65,9.46,5.59,10.21-3.73,6.77-1.21,11.8,6.55,10.46-2.66,7.47,1.62,14.6,9.58,11.89,.38,4.21,5.09,5.37,8.53,3.39,6.07-3.49,2.84-11.73,4.61-17.02,5.18-15.42,22.05-24.07,4.05-38.88Zm312.97,0c9.67-8.25,20.66-1.93,31.57-2.36,4.77-.19,8.68-4.14,13.58-3.11,9.03,1.89,2.24,11.69-1.93,14.01,5.85,5.38,2.43,10.95-4.31,11.4,5.71,6.38,.65,9.46-5.59,10.21,3.73,6.77,1.21,11.8-6.55,10.46,2.66,7.47-1.62,14.6-9.58,11.89-.38,4.21-5.09,5.37-8.53,3.39-6.07-3.49-2.84-11.73-4.61-17.02-5.18-15.42-22.05-24.07-4.05-38.88Zm-114.62,114.62c-8.25,9.67-1.93,20.66-2.36,31.57-.19,4.77-4.14,8.68-3.11,13.58,1.89,9.03,11.69,2.24,14.01-1.93,5.38,5.85,10.95,2.43,11.4-4.31,6.38,5.71,9.46,.65,10.21-5.59,6.77,3.73,11.8,1.21,10.46-6.55,7.47,2.66,14.6-1.62,11.89-9.58,4.22-.38,5.37-5.09,3.39-8.53-3.48-6.07-11.73-2.84-17.02-4.61-15.42-5.18-24.07-22.05-38.88-4.05Z"/></g><g id="path23940"><path class="cls-2" d="M311.69,63.99c1.01,.52,1.92,1.16,2.5,2.14,1.01,1.72,2.36,11.72,4.02,12.21,2.39,.72,5.48-2.59,8.31,1.08,1.38,1.79,1.1,6.46,2.49,7.53,.65,.5,6.42-.38,8.48,1.04,1.83,1.26,2.51,6.8,3.19,7.1,1.84,.83,5.39-1.43,8.11,.26,1.38,.86,2.02,2.44,2.57,3.88,.92,2.39,5.52,.45,8.66,1.04,.66,.12,2.37,2.31,2.58,2.28,1.86-.24,3.96-1.88,5.92-2.52-.44-1.93-1.8-3.49-4.14-3.7,2.71-7.96-4.42-12.24-11.89-9.58,1.33-7.76-3.7-10.28-10.47-6.54-.75-6.24-3.82-11.3-10.2-5.59-.45-6.74-6.02-10.16-11.4-4.31-1.37-2.46-5.32-5.79-8.73-6.3h0Zm164.32,164.32c-.52-1.01-1.16-1.92-2.14-2.5-1.72-1.01-11.72-2.36-12.21-4.02-.72-2.39,2.59-5.48-1.08-8.31-1.79-1.38-6.46-1.1-7.53-2.49-.5-.65,.38-6.42-1.04-8.48-1.26-1.83-6.8-2.51-7.1-3.19-.83-1.84,1.43-5.39-.26-8.11-.86-1.38-2.44-2.02-3.88-2.57-2.39-.92-.45-5.52-1.04-8.66-.12-.66-2.31-2.37-2.28-2.58,.24-1.86,1.88-3.96,2.52-5.92,1.93,.44,3.49,1.8,3.7,4.14,7.96-2.71,12.24,4.42,9.58,11.89,7.76-1.33,10.28,3.7,6.54,10.47,6.24,.75,11.3,3.82,5.59,10.2,6.74,.45,10.16,6.02,4.31,11.4,2.46,1.37,5.79,5.32,6.3,8.73h0Zm-412.02,0c.52-1.01,1.16-1.92,2.14-2.5,1.72-1.01,11.72-2.36,12.21-4.02,.72-2.39-2.59-5.48,1.08-8.31,1.79-1.38,6.46-1.1,7.53-2.49,.5-.65-.38-6.42,1.04-8.48,1.26-1.83,6.8-2.51,7.1-3.19,.83-1.84-1.43-5.39,.26-8.11,.86-1.38,2.44-2.02,3.88-2.57,2.39-.92,.45-5.52,1.04-8.66,.12-.66,2.31-2.37,2.28-2.58-.24-1.86-1.88-3.96-2.52-5.92-1.93,.44-3.49,1.8-3.7,4.14-7.96-2.71-12.24,4.42-9.58,11.89-7.76-1.33-10.28,3.7-6.54,10.47-6.24,.75-11.3,3.82-5.59,10.2-6.74,.45-10.16,6.02-4.31,11.4-2.46,1.37-5.79,5.32-6.3,8.72ZM228.31,63.99c-1.01,.52-1.92,1.16-2.5,2.14-1.01,1.72-2.36,11.72-4.02,12.21-2.39,.72-5.48-2.59-8.31,1.08-1.38,1.79-1.1,6.46-2.49,7.53-.65,.5-6.42-.38-8.48,1.04-1.83,1.26-2.51,6.8-3.19,7.1-1.84,.83-5.39-1.43-8.11,.26-1.38,.86-2.02,2.44-2.57,3.88-.92,2.39-5.52,.45-8.66,1.04-.66,.12-2.37,2.31-2.58,2.28-1.86-.24-3.96-1.88-5.92-2.52,.44-1.93,1.8-3.49,4.14-3.7-2.71-7.96,4.42-12.24,11.89-9.58-1.33-7.76,3.7-10.28,10.46-6.54,.75-6.24,3.82-11.3,10.2-5.59,.45-6.74,6.02-10.16,11.4-4.31,1.37-2.46,5.32-5.79,8.72-6.3Zm0,412.02c-1.01-.52-1.92-1.16-2.5-2.14-1.01-1.72-2.36-11.72-4.02-12.21-2.39-.72-5.48,2.59-8.31-1.08-1.38-1.79-1.1-6.46-2.49-7.53-.65-.5-6.42,.38-8.48-1.04-1.83-1.26-2.51-6.8-3.19-7.1-1.84-.83-5.39,1.43-8.11-.26-1.38-.86-2.02-2.44-2.57-3.88-.92-2.39-5.52-.45-8.66-1.04-.66-.12-2.37-2.31-2.58-2.28-1.86,.24-3.96,1.88-5.92,2.52,.44,1.93,1.8,3.49,4.14,3.7-2.71,7.96,4.42,12.24,11.89,9.58-1.33,7.76,3.7,10.28,10.47,6.54,.75,6.24,3.82,11.3,10.2,5.59,.45,6.74,6.02,10.16,11.4,4.31,1.37,2.46,5.32,5.79,8.72,6.3h0ZM63.99,311.69c.52,1.01,1.16,1.92,2.14,2.5,1.72,1.01,11.72,2.36,12.21,4.02,.72,2.39-2.59,5.48,1.08,8.31,1.79,1.38,6.46,1.1,7.53,2.49,.5,.65-.38,6.42,1.04,8.48,1.26,1.83,6.8,2.51,7.1,3.19,.83,1.84-1.43,5.39,.26,8.11,.86,1.38,2.44,2.02,3.88,2.57,2.39,.92,.45,5.52,1.04,8.66,.12,.66,2.31,2.37,2.28,2.58-.24,1.86-1.88,3.96-2.52,5.92-1.93-.44-3.49-1.8-3.7-4.14-7.96,2.71-12.24-4.42-9.58-11.89-7.76,1.33-10.28-3.7-6.54-10.47-6.24-.75-11.3-3.82-5.59-10.2-6.74-.45-10.16-6.02-4.31-11.4-2.46-1.37-5.79-5.32-6.3-8.72Zm412.02,0c-.52,1.01-1.16,1.92-2.14,2.5-1.72,1.01-11.72,2.36-12.21,4.02-.72,2.39,2.59,5.48-1.08,8.31-1.79,1.38-6.46,1.1-7.53,2.49-.5,.65,.38,6.42-1.04,8.48-1.26,1.83-6.8,2.51-7.1,3.19-.83,1.84,1.43,5.39-.26,8.11-.86,1.38-2.44,2.02-3.88,2.57-2.39,.92-.45,5.52-1.04,8.66-.12,.66-2.31,2.37-2.28,2.58,.24,1.86,1.88,3.96,2.52,5.92,1.93-.44,3.49-1.8,3.7-4.14,7.96,2.71,12.24-4.42,9.58-11.89,7.76,1.33,10.28-3.7,6.54-10.47,6.24-.75,11.3-3.82,5.59-10.2,6.74-.45,10.16-6.02,4.31-11.4,2.46-1.37,5.79-5.32,6.3-8.72Zm-164.32,164.32c1.01-.52,1.92-1.16,2.5-2.14,1.01-1.72,2.36-11.72,4.02-12.21,2.39-.72,5.48,2.59,8.31-1.08,1.38-1.79,1.1-6.46,2.49-7.53,.65-.5,6.42,.38,8.48-1.04,1.83-1.26,2.51-6.8,3.19-7.1,1.84-.83,5.39,1.43,8.11-.26,1.38-.86,2.02-2.44,2.57-3.88,.92-2.39,5.52-.45,8.66-1.04,.66-.12,2.37-2.31,2.58-2.28,1.86,.24,3.96,1.88,5.92,2.52-.44,1.93-1.8,3.49-4.14,3.7,2.71,7.96-4.42,12.24-11.89,9.58,1.33,7.76-3.7,10.28-10.47,6.54-.75,6.24-3.82,11.3-10.2,5.59-.45,6.74-6.02,10.16-11.4,4.31-1.37,2.46-5.32,5.79-8.73,6.3Z"/></g><g id="circle23942"><path class="cls-4" d="M330.49,54c0,1.96-1.59,3.55-3.55,3.55s-3.55-1.59-3.55-3.55,1.59-3.55,3.55-3.55,3.55,1.59,3.55,3.55Zm155.51,155.51c-1.96,0-3.55,1.59-3.55,3.55s1.59,3.55,3.55,3.55,3.55-1.59,3.55-3.55-1.59-3.55-3.55-3.55Zm-431.99,0c1.96,0,3.55,1.59,3.55,3.55s-1.59,3.55-3.55,3.55-3.55-1.59-3.55-3.55,1.59-3.55,3.55-3.55ZM209.51,54c0,1.96,1.59,3.55,3.55,3.55s3.55-1.59,3.55-3.55-1.59-3.55-3.55-3.55-3.55,1.59-3.55,3.55Zm0,431.99c0-1.96,1.59-3.55,3.55-3.55s3.55,1.59,3.55,3.55-1.59,3.55-3.55,3.55-3.55-1.59-3.55-3.55ZM54,330.49c1.96,0,3.55-1.59,3.55-3.55s-1.59-3.55-3.55-3.55-3.55,1.59-3.55,3.55,1.59,3.55,3.55,3.55Zm431.99,0c-1.96,0-3.55-1.59-3.55-3.55s1.59-3.55,3.55-3.55,3.55,1.59,3.55,3.55-1.59,3.55-3.55,3.55Zm-155.51,155.51c0-1.96-1.59-3.55-3.55-3.55s-3.55,1.59-3.55,3.55,1.59,3.55,3.55,3.55,3.55-1.59,3.55-3.55Z"/></g><g id="circle23944"><path class="cls-4" d="M355.33,49.6c0,1.96-1.59,3.55-3.55,3.55s-3.55-1.59-3.55-3.55,1.59-3.55,3.55-3.55,3.55,1.59,3.55,3.55Zm135.07,135.07c-1.96,0-3.55,1.59-3.55,3.55s1.59,3.55,3.55,3.55,3.55-1.59,3.55-3.55-1.59-3.55-3.55-3.55Zm-440.8,0c1.96,0,3.55,1.59,3.55,3.55s-1.59,3.55-3.55,3.55-3.55-1.59-3.55-3.55,1.59-3.55,3.55-3.55ZM184.67,49.6c0,1.96,1.59,3.55,3.55,3.55s3.55-1.59,3.55-3.55-1.59-3.55-3.55-3.55-3.55,1.59-3.55,3.55Zm0,440.8c0-1.96,1.59-3.55,3.55-3.55s3.55,1.59,3.55,3.55-1.59,3.55-3.55,3.55-3.55-1.59-3.55-3.55ZM49.6,355.33c1.96,0,3.55-1.59,3.55-3.55s-1.59-3.55-3.55-3.55-3.55,1.59-3.55,3.55,1.59,3.55,3.55,3.55Zm440.8,0c-1.96,0-3.55-1.59-3.55-3.55s1.59-3.55,3.55-3.55,3.55,1.59,3.55,3.55-1.59,3.55-3.55,3.55Zm-135.07,135.07c0-1.96-1.59-3.55-3.55-3.55s-3.55,1.59-3.55,3.55,1.59,3.55,3.55,3.55,3.55-1.59,3.55-3.55Z"/></g><g id="circle23946"><path class="cls-4" d="M358.73,68.36c0,1.96-1.59,3.55-3.55,3.55s-3.55-1.59-3.55-3.55,1.59-3.55,3.55-3.55,3.55,1.59,3.55,3.55Zm112.92,112.92c-1.96,0-3.55,1.59-3.55,3.55s1.59,3.55,3.55,3.55,3.55-1.59,3.55-3.55-1.59-3.55-3.55-3.55Zm-403.29,0c1.96,0,3.55,1.59,3.55,3.55s-1.59,3.55-3.55,3.55-3.55-1.59-3.55-3.55,1.59-3.55,3.55-3.55Zm112.92-112.92c0,1.96,1.59,3.55,3.55,3.55s3.55-1.59,3.55-3.55-1.59-3.55-3.55-3.55-3.55,1.59-3.55,3.55Zm0,403.29c0-1.96,1.59-3.55,3.55-3.55s3.55,1.59,3.55,3.55-1.59,3.55-3.55,3.55-3.55-1.59-3.55-3.55Zm-112.92-112.92c1.96,0,3.55-1.59,3.55-3.55s-1.59-3.55-3.55-3.55-3.55,1.59-3.55,3.55,1.59,3.55,3.55,3.55Zm403.29,0c-1.96,0-3.55-1.59-3.55-3.55s1.59-3.55,3.55-3.55,3.55,1.59,3.55,3.55-1.59,3.55-3.55,3.55Zm-112.92,112.92c0-1.96-1.59-3.55-3.55-3.55s-3.55,1.59-3.55,3.55,1.59,3.55,3.55,3.55,3.55-1.59,3.55-3.55Z"/></g><g id="circle23948"><path class="cls-4" d="M394.84,62.35c0,1.96-1.59,3.55-3.55,3.55s-3.55-1.59-3.55-3.55,1.59-3.55,3.55-3.55,3.55,1.59,3.55,3.55Zm82.82,82.82c-1.96,0-3.55,1.59-3.55,3.55s1.59,3.55,3.55,3.55,3.55-1.59,3.55-3.55-1.59-3.55-3.55-3.55Zm-415.31,0c1.96,0,3.55,1.59,3.55,3.55s-1.59,3.55-3.55,3.55-3.55-1.59-3.55-3.55,1.59-3.55,3.55-3.55ZM145.17,62.35c0,1.96,1.59,3.55,3.55,3.55s3.55-1.59,3.55-3.55-1.59-3.55-3.55-3.55-3.55,1.59-3.55,3.55Zm0,415.31c0-1.96,1.59-3.55,3.55-3.55s3.55,1.59,3.55,3.55-1.59,3.55-3.55,3.55-3.55-1.59-3.55-3.55Zm-82.82-82.82c1.96,0,3.55-1.59,3.55-3.55s-1.59-3.55-3.55-3.55-3.55,1.59-3.55,3.55,1.59,3.55,3.55,3.55Zm415.31,0c-1.96,0-3.55-1.59-3.55-3.55s1.59-3.55,3.55-3.55,3.55,1.59,3.55,3.55-1.59,3.55-3.55,3.55Zm-82.82,82.82c0-1.96-1.59-3.55-3.55-3.55s-3.55,1.59-3.55,3.55,1.59,3.55,3.55,3.55,3.55-1.59,3.55-3.55Z"/></g><g id="circle23950"><path class="cls-4" d="M376.21,80.62c0,1.51-1.23,2.74-2.74,2.74s-2.74-1.23-2.74-2.74,1.23-2.74,2.74-2.74,2.74,1.23,2.74,2.74Zm83.18,83.18c-1.51,0-2.74,1.23-2.74,2.74s1.23,2.74,2.74,2.74,2.74-1.23,2.74-2.74-1.23-2.74-2.74-2.74Zm-378.77,0c1.51,0,2.74,1.23,2.74,2.74s-1.23,2.74-2.74,2.74-2.74-1.23-2.74-2.74,1.23-2.74,2.74-2.74Zm83.18-83.18c0,1.51,1.23,2.74,2.74,2.74s2.74-1.23,2.74-2.74-1.23-2.74-2.74-2.74-2.74,1.23-2.74,2.74Zm0,378.77c0-1.51,1.23-2.74,2.74-2.74s2.74,1.23,2.74,2.74-1.23,2.74-2.74,2.74-2.74-1.23-2.74-2.74Zm-83.18-83.18c1.51,0,2.74-1.23,2.74-2.74s-1.23-2.74-2.74-2.74-2.74,1.23-2.74,2.74,1.23,2.74,2.74,2.74Zm378.77,0c-1.51,0-2.74-1.23-2.74-2.74s1.23-2.74,2.74-2.74,2.74,1.23,2.74,2.74-1.23,2.74-2.74,2.74Zm-83.18,83.18c0-1.51-1.23-2.74-2.74-2.74s-2.74,1.23-2.74,2.74,1.23,2.74,2.74,2.74,2.74-1.23,2.74-2.74Z"/></g><g id="circle23952"><path class="cls-4" d="M342.73,60.83c0,1.17-.95,2.11-2.11,2.11s-2.11-.95-2.11-2.11,.95-2.11,2.11-2.11,2.11,.95,2.11,2.11Zm136.44,136.44c-1.17,0-2.11,.95-2.11,2.11s.95,2.11,2.11,2.11,2.11-.95,2.11-2.11-.95-2.11-2.11-2.11Zm-418.34,0c1.17,0,2.11,.95,2.11,2.11s-.95,2.11-2.11,2.11-2.11-.95-2.11-2.11,.95-2.11,2.11-2.11ZM197.27,60.83c0,1.17,.95,2.11,2.11,2.11s2.11-.95,2.11-2.11-.95-2.11-2.11-2.11-2.11,.95-2.11,2.11Zm0,418.34c0-1.17,.95-2.11,2.11-2.11s2.11,.95,2.11,2.11-.95,2.11-2.11,2.11-2.11-.95-2.11-2.11ZM60.83,342.73c1.17,0,2.11-.95,2.11-2.11s-.95-2.11-2.11-2.11-2.11,.95-2.11,2.11,.95,2.11,2.11,2.11Zm418.34,0c-1.17,0-2.11-.95-2.11-2.11s.95-2.11,2.11-2.11,2.11,.95,2.11,2.11-.95,2.11-2.11,2.11Zm-136.44,136.44c0-1.17-.95-2.11-2.11-2.11s-2.11,.95-2.11,2.11,.95,2.11,2.11,2.11,2.11-.95,2.11-2.11Z"/></g><g id="circle23954"><path class="cls-4" d="M375.6,51.35c0,1.17-.95,2.11-2.11,2.11s-2.11-.95-2.11-2.11,.95-2.11,2.11-2.11,2.11,.95,2.11,2.11Zm113.06,113.06c-1.17,0-2.11,.95-2.11,2.11s.95,2.11,2.11,2.11,2.11-.95,2.11-2.11-.95-2.11-2.11-2.11Zm-437.31,0c1.17,0,2.11,.95,2.11,2.11s-.95,2.11-2.11,2.11-2.11-.95-2.11-2.11,.95-2.11,2.11-2.11ZM164.4,51.35c0,1.17,.95,2.11,2.11,2.11s2.11-.95,2.11-2.11-.95-2.11-2.11-2.11-2.11,.95-2.11,2.11Zm0,437.31c0-1.17,.95-2.11,2.11-2.11s2.11,.95,2.11,2.11-.95,2.11-2.11,2.11-2.11-.95-2.11-2.11Zm-113.06-113.06c1.17,0,2.11-.95,2.11-2.11s-.95-2.11-2.11-2.11-2.11,.95-2.11,2.11,.95,2.11,2.11,2.11Zm437.31,0c-1.17,0-2.11-.95-2.11-2.11s.95-2.11,2.11-2.11,2.11,.95,2.11,2.11-.95,2.11-2.11,2.11Zm-113.06,113.06c0-1.17-.95-2.11-2.11-2.11s-2.11,.95-2.11,2.11,.95,2.11,2.11,2.11,2.11-.95,2.11-2.11Z"/></g><g id="circle23956"><path class="cls-4" d="M322.42,31.05c0,1.17-.95,2.11-2.11,2.11s-2.11-.95-2.11-2.11,.95-2.11,2.11-2.11,2.11,.95,2.11,2.11Zm186.53,186.53c-1.17,0-2.11,.95-2.11,2.11s.95,2.11,2.11,2.11,2.11-.95,2.11-2.11-.95-2.11-2.11-2.11Zm-477.9,0c1.17,0,2.11,.95,2.11,2.11s-.95,2.11-2.11,2.11-2.11-.95-2.11-2.11,.95-2.11,2.11-2.11ZM217.58,31.05c0,1.17,.95,2.11,2.11,2.11s2.11-.95,2.11-2.11-.95-2.11-2.11-2.11-2.11,.95-2.11,2.11Zm0,477.9c0-1.17,.95-2.11,2.11-2.11s2.11,.95,2.11,2.11-.95,2.11-2.11,2.11-2.11-.95-2.11-2.11ZM31.05,322.42c1.17,0,2.11-.95,2.11-2.11s-.95-2.11-2.11-2.11-2.11,.95-2.11,2.11,.95,2.11,2.11,2.11Zm477.9,0c-1.17,0-2.11-.95-2.11-2.11s.95-2.11,2.11-2.11,2.11,.95,2.11,2.11-.95,2.11-2.11,2.11Zm-186.53,186.53c0-1.17-.95-2.11-2.11-2.11s-2.11,.95-2.11,2.11,.95,2.11,2.11,2.11,2.11-.95,2.11-2.11Z"/></g><g id="circle23958"><path class="cls-4" d="M295.25,45.08c0,1.17-.95,2.11-2.11,2.11s-2.11-.95-2.11-2.11,.95-2.11,2.11-2.11,2.11,.95,2.11,2.11Zm199.67,199.67c-1.17,0-2.11,.95-2.11,2.11s.95,2.11,2.11,2.11,2.11-.95,2.11-2.11-.95-2.11-2.11-2.11Zm-449.84,0c1.17,0,2.11,.95,2.11,2.11s-.95,2.11-2.11,2.11-2.11-.95-2.11-2.11,.95-2.11,2.11-2.11ZM244.75,45.08c0,1.17,.95,2.11,2.11,2.11s2.11-.95,2.11-2.11-.95-2.11-2.11-2.11-2.11,.95-2.11,2.11Zm0,449.84c0-1.17,.95-2.11,2.11-2.11s2.11,.95,2.11,2.11-.95,2.11-2.11,2.11-2.11-.95-2.11-2.11ZM45.08,295.25c1.17,0,2.11-.95,2.11-2.11s-.95-2.11-2.11-2.11-2.11,.95-2.11,2.11,.95,2.11,2.11,2.11Zm449.84,0c-1.17,0-2.11-.95-2.11-2.11s.95-2.11,2.11-2.11,2.11,.95,2.11,2.11-.95,2.11-2.11,2.11Zm-199.67,199.67c0-1.17-.95-2.11-2.11-2.11s-2.11,.95-2.11,2.11,.95,2.11,2.11,2.11,2.11-.95,2.11-2.11Z"/></g></g></g></svg>