<?xml version="1.0" encoding="UTF-8"?><svg id="Layer_2" xmlns="http://www.w3.org/2000/svg" viewBox="0 0 540 540"><defs><style>.cls-1{fill:#e9e9e2;}.cls-2{fill:#b77d20;}.cls-3{fill:#cf962b;}.cls-4{fill:#955910;}.cls-5{fill:#51475e;}</style></defs><g id="OBJECTS"><g id="g26068"><g id="path26034"><path class="cls-1" d="M270,270.01L540,0H270s0,270.01,0,270.01Zm0,0L540,0V270s-270.01,0-270.01,0Zm0,0L0,0V270s270,0,270,0Zm0,0L0,0H270s0,270.01,0,270.01Zm0,0L0,540H270s0-270,0-270Zm0,0L0,540V270s270,0,270,0Zm0,0l270.01,270V270s-270.01,0-270.01,0Zm0,0l270,270H270s0-270,0-270Z"/></g><g id="path26036"><path class="cls-5" d="M270,270L504.22,35.78s-25.74,14.42-36.54,13.8c-10.81-.63-29.71,16.57-32.16,24.85-2.45,8.27-8.97,13.44-9.67,5.01-.7-8.44,9.08-20.63,16.52-23.63-27.29,3.69-34.43,10.45-37.22,24.09-2.78,13.64-.15,27.65-7.51,25.21-7.36-2.44-.84-31.04,2.67-34.93-23.88,4.71-38.98,16.61-47.55,24.29-3.92,26.59,4.65,42.28-4.98,47.61s-6.12-38.78-6.12-38.78c0,0-15.97,17.7-21.8,27.02-5.82,9.33-13.88,31.86-5.97,45.6s28.1,14.56,28.1,14.56c0,0-42.31,47.09-49.45,47.78-7.14,.69-13.59-8.14-14.98-22.97-1.39-14.83,5.75-21.22,11.8-17.66,6.04,3.56,2.2,4.78-1.36,8.2-3.55,3.43-4.43,9.26,.84,10.64,5.28,1.38,13.44-1.52,12.97-14.24-.48-12.72-9.74-17.86-17.4-16.71-7.66,1.15-14.41,8.74-14.41,17.34v67.12h0Zm0,0L504.22,35.78s-14.42,25.74-13.8,36.54c.63,10.81-16.57,29.71-24.85,32.16-8.27,2.45-13.44,8.97-5.01,9.67,8.44,.7,20.63-9.08,23.63-16.52-3.69,27.29-10.45,34.43-24.09,37.22-13.64,2.78-27.65,.15-25.21,7.51,2.44,7.36,31.04,.84,34.93-2.67-4.71,23.88-16.61,38.98-24.29,47.55-26.59,3.92-42.28-4.65-47.61,4.98-5.34,9.63,38.78,6.12,38.78,6.12,0,0-17.7,15.97-27.02,21.8-9.33,5.82-31.86,13.88-45.6,5.97-13.74-7.91-14.56-28.1-14.56-28.1,0,0-47.09,42.31-47.78,49.45s8.14,13.59,22.97,14.98,21.22-5.75,17.66-11.8c-3.56-6.04-4.78-2.2-8.2,1.36s-9.26,4.43-10.64-.84c-1.38-5.28,1.52-13.44,14.23-12.97,12.72,.48,17.86,9.74,16.71,17.4s-8.74,14.41-17.34,14.41h-67.12Zm0,0L35.78,35.78s14.42,25.74,13.8,36.54c-.63,10.81,16.57,29.71,24.85,32.16,8.27,2.45,13.44,8.97,5.01,9.67-8.44,.7-20.63-9.08-23.63-16.52,3.69,27.29,10.45,34.43,24.09,37.22s27.65,.15,25.21,7.51-31.04,.84-34.93-2.67c4.71,23.88,16.61,38.98,24.29,47.55,26.59,3.92,42.28-4.65,47.61,4.98,5.34,9.63-38.78,6.12-38.78,6.12,0,0,17.69,15.97,27.02,21.8,9.33,5.82,31.86,13.88,45.6,5.97,13.74-7.91,14.56-28.1,14.56-28.1,0,0,47.09,42.31,47.78,49.45,.69,7.14-8.14,13.59-22.97,14.98-14.83,1.39-21.22-5.75-17.66-11.8,3.56-6.04,4.78-2.2,8.2,1.36,3.43,3.55,9.26,4.43,10.64-.84s-1.52-13.44-14.23-12.97c-12.72,.48-17.86,9.74-16.71,17.4s8.74,14.41,17.34,14.41h67.12Zm0,0L35.78,35.78s25.74,14.42,36.54,13.8c10.81-.63,29.71,16.57,32.16,24.85,2.45,8.27,8.97,13.44,9.67,5.01,.7-8.44-9.08-20.63-16.52-23.63,27.29,3.69,34.43,10.45,37.22,24.09,2.78,13.64,.15,27.65,7.51,25.21,7.36-2.44,.84-31.04-2.67-34.93,23.88,4.71,38.98,16.61,47.55,24.29,3.92,26.59-4.65,42.28,4.98,47.62,9.63,5.34,6.12-38.78,6.12-38.78,0,0,15.97,17.69,21.8,27.02,5.82,9.33,13.88,31.86,5.97,45.61-7.91,13.74-28.1,14.56-28.1,14.56,0,0,42.31,47.09,49.45,47.78s13.59-8.14,14.98-22.97c1.39-14.83-5.75-21.22-11.8-17.66-6.04,3.56-2.2,4.78,1.36,8.21,3.55,3.43,4.43,9.26-.84,10.64-5.28,1.38-13.44-1.52-12.97-14.24,.48-12.72,9.74-17.86,17.4-16.71,7.66,1.15,14.41,8.74,14.41,17.34v67.12h0Zm0,0L35.78,504.22s25.74-14.42,36.54-13.8c10.81,.63,29.71-16.57,32.16-24.85,2.45-8.27,8.97-13.44,9.67-5.01s-9.08,20.63-16.52,23.63c27.29-3.69,34.43-10.45,37.22-24.09,2.78-13.64,.15-27.65,7.51-25.21,7.36,2.44,.84,31.04-2.67,34.93,23.88-4.71,38.98-16.61,47.55-24.29,3.92-26.59-4.65-42.28,4.98-47.62,9.63-5.34,6.12,38.78,6.12,38.78,0,0,15.97-17.69,21.8-27.02,5.82-9.33,13.88-31.86,5.97-45.61s-28.1-14.56-28.1-14.56c0,0,42.31-47.09,49.45-47.78,7.14-.69,13.59,8.14,14.98,22.97,1.39,14.83-5.75,21.22-11.8,17.66s-2.2-4.78,1.36-8.21c3.55-3.43,4.43-9.26-.84-10.64-5.28-1.38-13.44,1.52-12.97,14.24,.48,12.72,9.74,17.86,17.4,16.71,7.66-1.15,14.41-8.74,14.41-17.34v-67.12h0Zm0,0L35.78,504.23s14.42-25.74,13.8-36.54,16.57-29.71,24.85-32.16c8.27-2.45,13.44-8.97,5.01-9.67-8.44-.7-20.63,9.08-23.63,16.52,3.69-27.29,10.45-34.43,24.09-37.22,13.64-2.78,27.65-.15,25.21-7.51-2.44-7.36-31.04-.84-34.93,2.67,4.71-23.88,16.61-38.98,24.29-47.55,26.59-3.92,42.28,4.65,47.62-4.98,5.34-9.63-38.78-6.12-38.78-6.12,0,0,17.69-15.97,27.02-21.8,9.33-5.82,31.86-13.88,45.61-5.97,13.74,7.91,14.56,28.1,14.56,28.1,0,0,47.09-42.31,47.78-49.45,.69-7.14-8.14-13.59-22.97-14.98-14.83-1.39-21.22,5.75-17.66,11.8,3.56,6.04,4.78,2.2,8.2-1.36,3.43-3.55,9.26-4.43,10.64,.84,1.38,5.27-1.52,13.44-14.23,12.97-12.72-.48-17.86-9.74-16.71-17.4s8.74-14.41,17.34-14.41c34.7,0,67.12,0,67.12,0h0Zm0,0l234.22,234.23s-14.42-25.74-13.8-36.54c.63-10.81-16.57-29.71-24.85-32.16-8.27-2.45-13.44-8.97-5.01-9.67,8.44-.7,20.63,9.08,23.63,16.52-3.69-27.29-10.45-34.43-24.09-37.22s-27.65-.15-25.21-7.51,31.04-.84,34.93,2.67c-4.71-23.88-16.61-38.98-24.29-47.55-26.59-3.92-42.28,4.65-47.62-4.98-5.34-9.63,38.78-6.12,38.78-6.12,0,0-17.69-15.97-27.02-21.8-9.33-5.82-31.86-13.88-45.6-5.97-13.74,7.91-14.56,28.1-14.56,28.1,0,0-47.09-42.31-47.78-49.45-.69-7.14,8.14-13.59,22.97-14.98,14.83-1.39,21.22,5.75,17.66,11.8-3.56,6.04-4.78,2.2-8.2-1.36-3.43-3.55-9.26-4.43-10.64,.84-1.38,5.27,1.52,13.44,14.24,12.97,12.72-.48,17.86-9.74,16.71-17.4-1.15-7.66-8.74-14.41-17.34-14.41h-67.12Zm0,0l234.23,234.22s-25.74-14.42-36.54-13.8c-10.81,.63-29.71-16.57-32.16-24.85-2.45-8.27-8.97-13.44-9.67-5.01s9.08,20.63,16.52,23.63c-27.29-3.69-34.43-10.45-37.22-24.09-2.78-13.64-.15-27.65-7.51-25.21-7.36,2.44-.84,31.04,2.67,34.93-23.88-4.71-38.98-16.61-47.55-24.29-3.92-26.59,4.65-42.28-4.98-47.61-9.63-5.34-6.12,38.78-6.12,38.78,0,0-15.97-17.7-21.8-27.02-5.82-9.33-13.88-31.86-5.97-45.6,7.91-13.74,28.1-14.56,28.1-14.56,0,0-42.31-47.09-49.45-47.78-7.14-.69-13.59,8.14-14.98,22.97-1.39,14.83,5.75,21.22,11.8,17.66s2.2-4.78-1.36-8.2c-3.55-3.43-4.43-9.26,.84-10.64,5.27-1.38,13.44,1.52,12.97,14.24-.48,12.72-9.74,17.86-17.4,16.71-7.66-1.15-14.41-8.74-14.41-17.34v-67.12h0Z"/></g><g id="path26038"><path class="cls-1" d="M377.97,93.08s-16.07,16.73-6.15,40.96c8.79-17.73,6.15-40.96,6.15-40.96Zm68.96,68.96s-16.73,16.07-40.96,6.15c17.73-8.79,40.96-6.15,40.96-6.15Zm-353.84,0s16.73,16.07,40.96,6.15c-17.73-8.79-40.96-6.15-40.96-6.15Zm68.96-68.96s16.07,16.73,6.15,40.96c-8.79-17.73-6.15-40.96-6.15-40.96Zm0,353.84s16.07-16.73,6.15-40.96c-8.79,17.73-6.15,40.96-6.15,40.96Zm-68.96-68.96s16.73-16.07,40.96-6.15c-17.73,8.79-40.96,6.15-40.96,6.15Zm353.84,0s-16.73-16.07-40.96-6.15c17.73,8.79,40.96,6.15,40.96,6.15Zm-68.96,68.96s-16.07-16.73-6.15-40.96c8.79,17.73,6.15,40.96,6.15,40.96Z"/></g><g id="path26040"><path class="cls-5" d="M277.61,238.72s27-6.95,30.81-28.11c3.81-21.15-8.32-23.16-18.83-51.96-10.51-28.8,4.91-68.51,4.91-68.51l7.14,1.15s-12.78,29.92-10.73,50.48c2.05,20.56,15.42,40.56,21.17,49.86s4.07,40.96-24.84,48.7c-7.18,1.48-9.63-1.61-9.63-1.61h0Zm23.67,23.67s6.95-27,28.11-30.81c21.15-3.81,23.16,8.32,51.96,18.83,28.8,10.51,68.51-4.91,68.51-4.91l-1.15-7.14s-29.92,12.78-50.48,10.73c-20.56-2.05-40.56-15.42-49.86-21.17s-40.96-4.07-48.7,24.84c-1.48,7.18,1.61,9.63,1.61,9.63h0Zm-62.57,0s-6.95-27-28.11-30.81c-21.15-3.81-23.16,8.32-51.96,18.83-28.8,10.51-68.51-4.91-68.51-4.91l1.15-7.14s29.92,12.78,50.48,10.73c20.56-2.05,40.56-15.42,49.86-21.17s40.96-4.07,48.7,24.84c1.48,7.18-1.61,9.63-1.61,9.63h0Zm23.67-23.67s-27-6.95-30.81-28.11,8.32-23.16,18.83-51.96c10.51-28.8-4.91-68.51-4.91-68.51l-7.14,1.15s12.78,29.92,10.73,50.48c-2.05,20.56-15.42,40.56-21.17,49.86s-4.07,40.96,24.84,48.7c7.18,1.48,9.63-1.61,9.63-1.61h0Zm0,62.57s-27,6.95-30.81,28.11,8.32,23.16,18.83,51.96c10.51,28.8-4.91,68.51-4.91,68.51l-7.14-1.15s12.78-29.92,10.73-50.48c-2.05-20.56-15.42-40.56-21.17-49.86-5.75-9.29-4.07-40.96,24.84-48.7,7.18-1.48,9.63,1.61,9.63,1.61h0Zm-23.67-23.67s-6.95,27-28.11,30.81c-21.15,3.81-23.16-8.32-51.96-18.83-28.8-10.51-68.51,4.91-68.51,4.91l1.15,7.14s29.92-12.78,50.48-10.73c20.56,2.05,40.56,15.42,49.86,21.17,9.29,5.75,40.96,4.07,48.7-24.84,1.48-7.18-1.61-9.63-1.61-9.63h0Zm62.57,0s6.95,27,28.11,30.81c21.15,3.81,23.16-8.32,51.96-18.83,28.8-10.51,68.51,4.91,68.51,4.91l-1.15,7.14s-29.92-12.78-50.48-10.73c-20.56,2.05-40.56,15.42-49.86,21.17-9.29,5.75-40.96,4.07-48.7-24.84-1.48-7.18,1.61-9.63,1.61-9.63h0Zm-23.67,23.67s27,6.95,30.81,28.11c3.81,21.15-8.32,23.16-18.83,51.96-10.51,28.8,4.91,68.51,4.91,68.51l7.14-1.15s-12.78-29.92-10.73-50.48c2.05-20.56,15.42-40.56,21.17-49.86,5.75-9.29,4.07-40.96-24.84-48.7-7.18-1.48-9.63,1.61-9.63,1.61h0Z"/></g><g id="path26042"><path class="cls-5" d="M290.22,150.28s5.96-16.08,11.37-21.3c-6.66-3.38-10.21-13.02,3.19-20.85,13.39-7.83,37.69-17.41,37.69-17.41,0,0-22.69,24.93-27.3,37.19s-11.24,3.8-11.24,3.8c0,0-11.6,12.28-10.8,27.68-1.24-6.2-2.9-9.11-2.9-9.11Zm99.51,99.51s16.08-5.96,21.3-11.37c3.38,6.66,13.02,10.21,20.85-3.19s17.41-37.69,17.41-37.69c0,0-24.93,22.69-37.19,27.3-12.26,4.61-3.8,11.24-3.8,11.24,0,0-12.28,11.6-27.68,10.8,6.2,1.24,9.11,2.9,9.11,2.9Zm-239.45,0s-16.08-5.96-21.3-11.37c-3.38,6.66-13.02,10.21-20.85-3.19-7.83-13.39-17.41-37.69-17.41-37.69,0,0,24.93,22.69,37.19,27.3,12.26,4.61,3.8,11.24,3.8,11.24,0,0,12.28,11.6,27.68,10.8-6.2,1.24-9.11,2.9-9.11,2.9Zm99.51-99.51s-5.96-16.08-11.37-21.3c6.66-3.38,10.21-13.02-3.19-20.85-13.39-7.83-37.69-17.41-37.69-17.41,0,0,22.69,24.93,27.3,37.19,4.61,12.26,11.24,3.8,11.24,3.8,0,0,11.6,12.28,10.8,27.68,1.24-6.2,2.9-9.11,2.9-9.11Zm0,239.45s-5.96,16.08-11.37,21.3c6.66,3.38,10.21,13.02-3.19,20.85-13.39,7.83-37.69,17.41-37.69,17.41,0,0,22.69-24.93,27.3-37.19,4.61-12.26,11.24-3.8,11.24-3.8,0,0,11.6-12.28,10.8-27.68,1.24,6.2,2.9,9.11,2.9,9.11h0Zm-99.51-99.51s-16.08,5.96-21.3,11.37c-3.38-6.66-13.02-10.21-20.85,3.19-7.83,13.39-17.41,37.69-17.41,37.69,0,0,24.93-22.69,37.19-27.3,12.26-4.61,3.8-11.24,3.8-11.24,0,0,12.28-11.6,27.68-10.8-6.2-1.24-9.11-2.9-9.11-2.9h0Zm239.45,0s16.08,5.96,21.3,11.37c3.38-6.66,13.02-10.21,20.85,3.19s17.41,37.69,17.41,37.69c0,0-24.93-22.69-37.19-27.3-12.26-4.61-3.8-11.24-3.8-11.24,0,0-12.28-11.6-27.68-10.8,6.2-1.24,9.11-2.9,9.11-2.9h0Zm-99.51,99.51s5.96,16.08,11.37,21.3c-6.66,3.38-10.21,13.02,3.19,20.85,13.39,7.83,37.69,17.41,37.69,17.41,0,0-22.69-24.93-27.3-37.19s-11.24-3.8-11.24-3.8c0,0-11.6-12.28-10.8-27.68-1.24,6.2-2.9,9.11-2.9,9.11h0Z"/></g><g id="path26044"><path class="cls-4" d="M323.99,45.31c5.92-7.32,38.3-.63,34.86,11.25-2.47,8.54-30.94,4.73-34.86-11.25Zm170.7,170.7c7.32-5.92,.63-38.3-11.25-34.86-8.54,2.47-4.73,30.94,11.25,34.86Zm-449.38,0c-7.32-5.92-.63-38.3,11.25-34.86,8.54,2.47,4.73,30.94-11.25,34.86ZM216.01,45.31c-5.92-7.32-38.3-.63-34.86,11.25,2.47,8.54,30.94,4.73,34.86-11.25Zm0,449.38c-5.92,7.32-38.3,.63-34.86-11.25,2.47-8.54,30.94-4.73,34.86,11.25ZM45.31,323.99c-7.32,5.92-.63,38.3,11.25,34.86,8.54-2.47,4.73-30.94-11.25-34.86Zm449.38,0c7.32,5.92,.63,38.3-11.25,34.86-8.54-2.47-4.73-30.94,11.25-34.86Zm-170.7,170.7c5.92,7.32,38.3,.63,34.86-11.25-2.47-8.54-30.94-4.73-34.86,11.25Z"/></g><g id="path26046"><path class="cls-5" d="M306.16,188.36s-12.8-9.27-17.02-17.06c6.16,.51,7.25-6.38,3.45-10.97-3.81-4.59-15.88-13.82-17.17-24.7-.91,28.61-2.2,36.07,3.21,41.26s8.16-4.26,8.16-4.26c0,0,12.2,17.13,21.01,20.74-.54-3.49-4.38-8.5-4.38-8.5l2.75,3.5Zm45.48,45.48s9.27,12.8,17.06,17.02c-.51-6.16,6.38-7.25,10.97-3.45,4.59,3.81,13.82,15.88,24.7,17.17-28.61,.91-36.07,2.2-41.26-3.21s4.26-8.16,4.26-8.16c0,0-17.13-12.2-20.74-21.01,3.49,.54,8.5,4.38,8.5,4.38l-3.49-2.75Zm-163.29,0s-9.27,12.8-17.06,17.02c.51-6.16-6.38-7.25-10.97-3.45-4.59,3.81-13.82,15.88-24.7,17.17,28.61,.91,36.07,2.2,41.26-3.21,5.2-5.41-4.26-8.16-4.26-8.16,0,0,17.13-12.2,20.74-21.01-3.5,.54-8.5,4.38-8.5,4.38l3.5-2.75Zm45.48-45.48s12.8-9.27,17.02-17.06c-6.16,.51-7.25-6.38-3.45-10.97,3.81-4.59,15.88-13.82,17.17-24.7,.91,28.61,2.2,36.07-3.21,41.26s-8.16-4.26-8.16-4.26c0,0-12.2,17.13-21.01,20.74,.54-3.49,4.38-8.5,4.38-8.5l-2.75,3.5Zm0,163.29s12.8,9.27,17.02,17.06c-6.16-.51-7.25,6.38-3.45,10.97,3.81,4.59,15.88,13.82,17.17,24.7,.91-28.61,2.2-36.07-3.21-41.26-5.41-5.2-8.16,4.26-8.16,4.26,0,0-12.2-17.13-21.01-20.74,.54,3.5,4.38,8.5,4.38,8.5l-2.75-3.5Zm-45.48-45.48s-9.27-12.8-17.06-17.02c.51,6.16-6.38,7.25-10.97,3.45-4.59-3.81-13.82-15.88-24.7-17.17,28.61-.91,36.07-2.2,41.26,3.21,5.2,5.41-4.26,8.16-4.26,8.16,0,0,17.13,12.2,20.74,21.01-3.5-.54-8.5-4.38-8.5-4.38l3.5,2.75Zm163.29,0s9.27-12.8,17.06-17.02c-.51,6.16,6.38,7.25,10.97,3.45,4.59-3.81,13.82-15.88,24.7-17.17-28.61-.91-36.07-2.2-41.26,3.21s4.26,8.16,4.26,8.16c0,0-17.13,12.2-20.74,21.01,3.49-.54,8.5-4.38,8.5-4.38l-3.49,2.75Zm-45.48,45.48s-12.8,9.27-17.02,17.06c6.16-.51,7.25,6.38,3.45,10.97-3.81,4.59-15.88,13.82-17.17,24.7-.91-28.61-2.2-36.07,3.21-41.26s8.16,4.26,8.16,4.26c0,0,12.2-17.13,21.01-20.74-.54,3.49-4.38,8.5-4.38,8.5l2.75-3.5Z"/></g><g id="path26048"><path class="cls-2" d="M328.74,51.83s13.52-6.11,18.98-3.62c5.46,2.49,.24,5.35,3.63,6.89,3.39,1.53,9.58-2.45,9.71,3.08,.13,5.54-3.64,8.96-17.02,11.91-13.37,2.95-36.05,16.06-36.05,16.06l-7.29,.25s22.4-33.43,28.04-34.57h0Zm159.43,159.43s6.11-13.52,3.62-18.98c-2.49-5.46-5.35-.24-6.89-3.63-1.53-3.39,2.45-9.58-3.08-9.71-5.54-.13-8.96,3.64-11.91,17.02-2.95,13.37-16.06,36.05-16.06,36.05l-.25,7.29s33.43-22.4,34.57-28.04h0Zm-436.34,0s-6.11-13.52-3.62-18.98c2.49-5.46,5.35-.24,6.89-3.63,1.53-3.39-2.45-9.58,3.08-9.71,5.54-.13,8.96,3.64,11.91,17.02,2.95,13.37,16.06,36.05,16.06,36.05l.25,7.29s-33.43-22.4-34.57-28.04h0ZM211.26,51.83s-13.52-6.11-18.98-3.62c-5.46,2.49-.24,5.35-3.63,6.89-3.39,1.53-9.58-2.45-9.71,3.08-.13,5.54,3.64,8.96,17.02,11.91,13.37,2.95,36.05,16.06,36.05,16.06l7.29,.25s-22.4-33.43-28.04-34.57h0Zm0,436.34s-13.52,6.11-18.98,3.62c-5.46-2.49-.24-5.35-3.63-6.89-3.39-1.53-9.58,2.46-9.71-3.08s3.64-8.96,17.02-11.91c13.37-2.95,36.05-16.06,36.05-16.06l7.29-.25s-22.4,33.43-28.04,34.57h0ZM51.83,328.74s-6.11,13.52-3.62,18.98c2.49,5.46,5.35,.24,6.89,3.63,1.53,3.39-2.45,9.58,3.08,9.71,5.54,.13,8.96-3.64,11.91-17.02,2.95-13.37,16.06-36.05,16.06-36.05l.25-7.29s-33.43,22.4-34.57,28.04h0Zm436.34,0s6.11,13.52,3.62,18.98c-2.49,5.46-5.35,.24-6.89,3.63-1.53,3.39,2.46,9.58-3.08,9.71-5.54,.13-8.96-3.64-11.91-17.02-2.95-13.37-16.06-36.05-16.06-36.05l-.25-7.29s33.43,22.4,34.57,28.04h0Zm-159.43,159.43s13.52,6.11,18.98,3.62c5.46-2.49,.24-5.35,3.63-6.89,3.39-1.53,9.58,2.46,9.71-3.08,.13-5.54-3.64-8.96-17.02-11.91-13.37-2.95-36.05-16.06-36.05-16.06l-7.29-.25s22.4,33.43,28.04,34.57h0Z"/></g><g id="path26050"><path class="cls-4" d="M284.08,34.15c6.21-12.02,14.98-1.42,22.09,1,4.42,1.51,20.07,.23,16.73,8.99-5.11,13.42-37.67,3.06-38.83-10Zm221.78,221.78c12.02-6.21,1.42-14.98-1-22.09-1.51-4.42-.23-20.07-8.99-16.73-13.42,5.11-3.06,37.67,10,38.83Zm-471.7,0c-12.02-6.21-1.42-14.98,1-22.09,1.51-4.42,.23-20.07,8.99-16.73,13.42,5.11,3.06,37.67-10,38.83ZM255.93,34.15c-6.21-12.02-14.98-1.42-22.09,1-4.42,1.51-20.07,.23-16.73,8.99,5.11,13.42,37.67,3.06,38.83-10Zm0,471.7c-6.21,12.02-14.98,1.42-22.09-1-4.42-1.51-20.07-.23-16.73-8.99,5.11-13.42,37.67-3.06,38.83,10ZM34.15,284.08c-12.02,6.21-1.42,14.98,1,22.1,1.51,4.42,.23,20.07,8.99,16.73,13.42-5.11,3.06-37.67-10-38.83Zm471.7,0c12.02,6.21,1.42,14.98-1,22.09-1.51,4.42-.23,20.07-8.99,16.73-13.42-5.11-3.06-37.67,10-38.83Zm-221.78,221.78c6.21,12.02,14.98,1.42,22.09-1,4.42-1.51,20.07-.23,16.73-8.99-5.11-13.42-37.67-3.06-38.83,10Z"/></g><g id="path26052"><path class="cls-2" d="M303.93,44.85s.16-7.25-4.08-10.28c-4.25-3.03-6.01,.12-10.4-.86-4.4-.97-3.9-5.06-8.32-4.45s-6.28,2.52-5.37,7.61c.92,5.09,9.45,9.62,12.12,19.11,2.67,9.49,3.26,23.99,4.54,27.15,1.28,3.16,5.24,5.29,5.24,5.29,0,0,7.36-32.94,6.26-43.58Zm191.23,191.23s7.25-.16,10.28,4.08c3.03,4.25-.12,6.01,.86,10.4,.97,4.4,5.06,3.9,4.45,8.32s-2.52,6.28-7.61,5.37c-5.09-.92-9.62-9.45-19.11-12.12-9.49-2.67-23.99-3.26-27.15-4.54-3.16-1.28-5.29-5.24-5.29-5.24,0,0,32.94-7.36,43.58-6.26Zm-450.31,0s-7.25-.16-10.28,4.08c-3.03,4.25,.12,6.01-.86,10.4-.97,4.4-5.06,3.9-4.45,8.32,.61,4.41,2.52,6.28,7.61,5.37,5.09-.92,9.62-9.45,19.11-12.12,9.49-2.67,23.99-3.26,27.15-4.54,3.16-1.28,5.29-5.24,5.29-5.24,0,0-32.94-7.36-43.58-6.26ZM236.08,44.85s-.16-7.25,4.08-10.28c4.25-3.03,6.01,.12,10.4-.86,4.4-.97,3.9-5.06,8.32-4.45s6.28,2.52,5.37,7.61c-.92,5.09-9.45,9.62-12.12,19.11-2.67,9.49-3.26,23.99-4.54,27.15-1.28,3.16-5.24,5.29-5.24,5.29,0,0-7.36-32.94-6.26-43.58Zm0,450.31s-.16,7.25,4.08,10.28c4.25,3.03,6.01-.12,10.4,.86,4.4,.97,3.9,5.06,8.32,4.45s6.28-2.52,5.37-7.61c-.92-5.09-9.45-9.62-12.12-19.11-2.67-9.49-3.26-23.99-4.54-27.15s-5.24-5.29-5.24-5.29c0,0-7.36,32.94-6.26,43.58h0ZM44.85,303.93s-7.25,.16-10.28-4.08c-3.03-4.25,.12-6.01-.86-10.4-.97-4.4-5.06-3.9-4.45-8.32,.61-4.41,2.52-6.28,7.61-5.37,5.09,.92,9.62,9.45,19.11,12.12,9.49,2.67,23.99,3.26,27.15,4.54,3.16,1.28,5.29,5.24,5.29,5.24,0,0-32.93,7.36-43.58,6.26h0Zm450.31,0s7.25,.16,10.28-4.08c3.03-4.25-.12-6.01,.86-10.4,.97-4.4,5.06-3.9,4.45-8.32-.61-4.41-2.52-6.28-7.61-5.37-5.09,.92-9.62,9.45-19.11,12.12-9.49,2.67-23.99,3.26-27.15,4.54s-5.29,5.24-5.29,5.24c0,0,32.94,7.36,43.58,6.26h0Zm-191.23,191.23s.16,7.25-4.08,10.28c-4.25,3.03-6.01-.12-10.4,.86-4.4,.97-3.9,5.06-8.32,4.45s-6.28-2.52-5.37-7.61c.92-5.09,9.45-9.62,12.12-19.11,2.67-9.49,3.26-23.99,4.54-27.15,1.28-3.16,5.24-5.29,5.24-5.29,0,0,7.36,32.93,6.26,43.58h0Z"/></g><g id="path26054"><path class="cls-5" d="M311.62,518.75c-.05,0-.1,0-.15-.01-.55-.08-.93-.6-.85-1.15,.02-.16,2.39-16.37-4.16-24.14-.36-.43-.31-1.07,.12-1.43,.43-.36,1.07-.31,1.43,.12,7.14,8.47,4.73,25.04,4.62,25.75-.07,.5-.51,.86-1,.86Zm-83.24,0c-.49,0-.93-.36-1-.86-.11-.7-2.53-17.28,4.62-25.75,.36-.43,1-.48,1.43-.12,.43,.36,.48,1,.12,1.43-6.55,7.77-4.19,23.97-4.16,24.14,.09,.55-.3,1.07-.85,1.15-.05,0-.1,.01-.15,.01Zm282.26-205.65c-5.71,0-13.51-.89-18.49-5.1-.43-.36-.48-1-.12-1.43s1-.48,1.43-.12c7.76,6.55,23.98,4.18,24.14,4.16,.56-.09,1.07,.3,1.15,.85,.09,.55-.3,1.07-.85,1.15-.29,.04-3.27,.48-7.25,.48Zm-481.28,0c-3.99,0-6.96-.44-7.25-.48-.55-.08-.93-.6-.85-1.15,.08-.55,.61-.95,1.15-.85,.16,.02,16.37,2.38,24.14-4.16,.43-.36,1.06-.31,1.43,.12,.36,.43,.31,1.07-.12,1.43-4.98,4.21-12.78,5.1-18.49,5.1Zm463.44-79.32c-.29,0-.57-.12-.77-.36-.36-.43-.31-1.07,.12-1.43,8.47-7.15,25.04-4.72,25.75-4.62,.55,.08,.93,.6,.85,1.15-.08,.55-.6,.92-1.15,.85-.16-.02-16.38-2.38-24.14,4.16-.19,.16-.42,.24-.65,.24Zm-445.6,0c-.23,0-.46-.08-.65-.24-7.76-6.55-23.98-4.18-24.14-4.16-.54,.07-1.07-.3-1.15-.85-.09-.55,.3-1.07,.85-1.15,.7-.11,17.28-2.53,25.75,4.62,.43,.36,.48,1,.12,1.43-.2,.24-.48,.36-.77,.36ZM232.77,48.21c-.29,0-.57-.12-.77-.36-7.14-8.46-4.73-25.04-4.62-25.75,.08-.55,.61-.95,1.15-.85,.55,.08,.93,.6,.85,1.15-.02,.16-2.39,16.38,4.16,24.14,.36,.43,.31,1.07-.12,1.43-.19,.16-.42,.24-.65,.24Zm74.46,0c-.23,0-.46-.08-.65-.24-.43-.36-.48-1-.12-1.43,6.55-7.77,4.19-23.97,4.16-24.14-.09-.55,.3-1.07,.85-1.15,.56-.1,1.07,.3,1.15,.85,.11,.7,2.53,17.28-4.62,25.75-.2,.24-.48,.36-.77,.36Z"/></g><g id="path26056"><path class="cls-5" d="M337.29,511.05c-.22,0-.44-.07-.62-.21-7.22-5.69-12.98-14.18-15.02-22.14-.14-.54,.19-1.09,.73-1.23,.54-.16,1.09,.19,1.23,.73,1.93,7.56,7.42,15.62,14.3,21.05,.44,.35,.52,.98,.17,1.42-.2,.25-.5,.39-.8,.39Zm-134.57,0c-.3,0-.59-.13-.8-.39-.34-.44-.27-1.07,.17-1.42,6.89-5.43,12.38-13.5,14.3-21.05,.14-.54,.7-.88,1.23-.73,.54,.14,.87,.69,.73,1.23-2.04,7.96-7.79,16.45-15.02,22.14-.18,.14-.41,.21-.62,.21Zm307.33-172.75c-.3,0-.59-.13-.8-.39-5.43-6.89-13.49-12.37-21.05-14.3-.54-.14-.87-.69-.73-1.23s.7-.88,1.23-.73c7.97,2.04,16.45,7.79,22.14,15.02,.34,.44,.27,1.07-.17,1.42-.18,.14-.41,.21-.62,.21Zm-480.08,0c-.22,0-.44-.07-.62-.21-.44-.35-.52-.98-.17-1.42,5.69-7.22,14.18-12.98,22.15-15.02,.53-.15,1.09,.19,1.23,.73,.14,.54-.19,1.09-.73,1.23-7.56,1.93-15.63,7.42-21.05,14.3-.2,.25-.5,.39-.8,.39Zm21.6-119.91c-.08,0-.17,0-.25-.03-7.97-2.04-16.45-7.79-22.15-15.02-.34-.44-.27-1.07,.17-1.42,.44-.34,1.07-.27,1.42,.17,5.43,6.89,13.5,12.38,21.05,14.3,.54,.14,.87,.69,.73,1.23-.12,.46-.53,.76-.98,.76Zm436.88,0c-.45,0-.86-.3-.98-.76-.14-.54,.19-1.09,.73-1.23,7.55-1.93,15.62-7.41,21.05-14.3,.35-.44,.98-.52,1.42-.17,.44,.35,.52,.98,.17,1.42-5.7,7.23-14.18,12.98-22.14,15.02-.08,.02-.17,.03-.25,.03ZM217.38,52.57c-.45,0-.86-.3-.98-.76-1.93-7.56-7.41-15.62-14.3-21.05-.44-.35-.52-.98-.17-1.42,.35-.44,.98-.52,1.42-.17,7.23,5.7,12.98,14.18,15.02,22.15,.14,.54-.19,1.09-.73,1.23-.08,.02-.17,.03-.25,.03Zm105.25,0c-.08,0-.17,0-.25-.03-.54-.14-.87-.69-.73-1.23,2.04-7.97,7.79-16.46,15.02-22.15,.43-.34,1.07-.27,1.42,.17,.34,.44,.27,1.07-.17,1.42-6.89,5.43-12.37,13.49-14.3,21.05-.12,.46-.53,.76-.98,.76Z"/></g><g id="path26058"><path class="cls-3" d="M296.01,83.88s-2.64-15.72,.95-29.46,7.36-17.48,12.93-17.56,4.16,5.57,10,5.12c5.84-.44,10.51-.07,12.29,4.38,1.78,4.45-.2,8.78-5.09,12.34-4.89,3.56-21.04,25.44-23.19,27.6-2.14,2.16-7.97,.35-7.89-2.42Zm160.11,160.11s15.72,2.64,29.46-.95,17.48-7.36,17.56-12.93-5.57-4.16-5.12-10,.07-10.51-4.38-12.29c-4.45-1.78-8.78,.2-12.34,5.09s-25.44,21.04-27.6,23.19c-2.16,2.14-.35,7.97,2.42,7.89Zm-372.25,0s-15.72,2.64-29.46-.95c-13.74-3.59-17.48-7.36-17.56-12.93-.08-5.57,5.57-4.16,5.12-10s-.07-10.51,4.38-12.29c4.45-1.78,8.78,.2,12.34,5.09s25.44,21.04,27.6,23.19c2.16,2.14,.35,7.97-2.42,7.89ZM243.99,83.88s2.64-15.72-.95-29.46c-3.59-13.74-7.36-17.48-12.93-17.56-5.57-.08-4.16,5.57-10,5.12-5.84-.44-10.51-.07-12.29,4.38-1.78,4.45,.2,8.78,5.09,12.34s21.04,25.44,23.19,27.6c2.14,2.16,7.97,.35,7.89-2.42Zm0,372.25s2.64,15.72-.95,29.46c-3.59,13.74-7.36,17.48-12.93,17.56s-4.16-5.57-10-5.12c-5.84,.44-10.51,.07-12.29-4.38-1.78-4.45,.2-8.78,5.09-12.34s21.04-25.44,23.19-27.6c2.14-2.16,7.97-.35,7.89,2.42h0ZM83.88,296.01s-15.72-2.64-29.46,.95c-13.74,3.59-17.48,7.36-17.56,12.93-.08,5.57,5.57,4.16,5.12,10s-.07,10.51,4.38,12.29c4.45,1.78,8.78-.2,12.34-5.09,3.56-4.89,25.44-21.04,27.6-23.19,2.16-2.14,.35-7.97-2.42-7.89h0Zm372.25,0s15.72-2.64,29.46,.95,17.48,7.36,17.56,12.93-5.57,4.16-5.12,10,.07,10.51-4.38,12.29c-4.45,1.78-8.78-.2-12.34-5.09s-25.44-21.04-27.6-23.19c-2.16-2.14-.35-7.97,2.42-7.89h0Zm-160.11,160.11s-2.64,15.72,.95,29.46,7.36,17.48,12.93,17.56,4.16-5.57,10-5.12c5.84,.44,10.51,.07,12.29-4.38,1.78-4.45-.2-8.78-5.09-12.34-4.89-3.56-21.04-25.44-23.19-27.6-2.14-2.16-7.97-.35-7.89,2.42h0Z"/></g><g id="path26060"><path class="cls-5" d="M290.68,78.92s.82,9.23,3.41,13c2.58,3.77,6.17,4.02,9.45,.68,3.28-3.34,5.37-6.15,7.77-6.77-.86-4.48-7.49-2.14-7.49-2.14,0,0-3.28-5.85-6.26-1.75-2.44-4.88-6.87-3.02-6.87-3.02Zm170.4,170.4s-9.23-.82-13-3.41c-3.77-2.58-4.02-6.17-.68-9.45,3.34-3.28,6.15-5.37,6.77-7.77,4.48,.86,2.14,7.49,2.14,7.49,0,0,5.85,3.28,1.75,6.26,4.88,2.44,3.02,6.87,3.02,6.87Zm-382.16,0s9.23-.82,13-3.41c3.77-2.58,4.02-6.17,.68-9.45-3.34-3.28-6.15-5.37-6.77-7.77-4.48,.86-2.14,7.49-2.14,7.49,0,0-5.85,3.28-1.75,6.26-4.88,2.44-3.02,6.87-3.02,6.87ZM249.32,78.92s-.82,9.23-3.41,13c-2.58,3.77-6.17,4.02-9.45,.68-3.28-3.34-5.37-6.15-7.77-6.77,.86-4.48,7.49-2.14,7.49-2.14,0,0,3.28-5.85,6.26-1.75,2.44-4.88,6.87-3.02,6.87-3.02Zm0,382.16s-.82-9.23-3.41-13c-2.58-3.77-6.17-4.02-9.45-.68-3.28,3.34-5.37,6.15-7.77,6.77,.86,4.48,7.49,2.14,7.49,2.14,0,0,3.28,5.85,6.26,1.75,2.44,4.88,6.87,3.02,6.87,3.02ZM78.92,290.68s9.23,.82,13,3.41c3.77,2.58,4.02,6.17,.68,9.45-3.34,3.28-6.15,5.37-6.77,7.77-4.48-.86-2.14-7.49-2.14-7.49,0,0-5.85-3.28-1.75-6.26-4.88-2.44-3.02-6.87-3.02-6.87Zm382.16,0s-9.23,.82-13,3.41c-3.77,2.58-4.02,6.17-.68,9.45,3.34,3.28,6.15,5.37,6.77,7.77,4.48-.86,2.14-7.49,2.14-7.49,0,0,5.85-3.28,1.75-6.26,4.88-2.44,3.02-6.87,3.02-6.87Zm-170.4,170.4s.82-9.23,3.41-13c2.58-3.77,6.17-4.02,9.45-.68,3.28,3.34,5.37,6.15,7.77,6.77-.86,4.48-7.49,2.14-7.49,2.14,0,0-3.28,5.85-6.26,1.75-2.44,4.88-6.87,3.02-6.87,3.02Z"/></g><g id="circle26062"><path class="cls-5" d="M340.47,28.95c0,1.97-1.59,3.56-3.56,3.56s-3.56-1.59-3.56-3.56,1.59-3.56,3.56-3.56,3.56,1.59,3.56,3.56Zm170.59,170.59c-1.97,0-3.56,1.59-3.56,3.56s1.59,3.56,3.56,3.56,3.56-1.59,3.56-3.56-1.59-3.56-3.56-3.56Zm-482.1,0c1.97,0,3.56,1.59,3.56,3.56s-1.59,3.56-3.56,3.56-3.56-1.59-3.56-3.56,1.59-3.56,3.56-3.56ZM199.54,28.95c0,1.97,1.59,3.56,3.56,3.56s3.56-1.59,3.56-3.56-1.59-3.56-3.56-3.56-3.56,1.59-3.56,3.56Zm0,482.1c0-1.97,1.59-3.56,3.56-3.56s3.56,1.59,3.56,3.56-1.59,3.56-3.56,3.56-3.56-1.59-3.56-3.56ZM28.95,340.47c1.97,0,3.56-1.59,3.56-3.56s-1.59-3.56-3.56-3.56-3.56,1.59-3.56,3.56,1.59,3.56,3.56,3.56Zm482.1,0c-1.97,0-3.56-1.59-3.56-3.56s1.59-3.56,3.56-3.56,3.56,1.59,3.56,3.56-1.59,3.56-3.56,3.56Zm-170.59,170.59c0-1.97-1.59-3.56-3.56-3.56s-3.56,1.59-3.56,3.56,1.59,3.56,3.56,3.56,3.56-1.59,3.56-3.56Z"/></g><g id="circle26064"><path class="cls-5" d="M315.47,21.32c0,1.97-1.59,3.56-3.56,3.56s-3.56-1.59-3.56-3.56,1.59-3.56,3.56-3.56,3.56,1.59,3.56,3.56Zm203.22,203.22c-1.97,0-3.56,1.59-3.56,3.56s1.59,3.56,3.56,3.56,3.56-1.59,3.56-3.56-1.59-3.56-3.56-3.56Zm-497.36,0c1.97,0,3.56,1.59,3.56,3.56s-1.59,3.56-3.56,3.56-3.56-1.59-3.56-3.56,1.59-3.56,3.56-3.56ZM224.54,21.32c0,1.97,1.59,3.56,3.56,3.56s3.56-1.59,3.56-3.56-1.59-3.56-3.56-3.56-3.56,1.59-3.56,3.56Zm0,497.36c0-1.97,1.59-3.56,3.56-3.56s3.56,1.59,3.56,3.56-1.59,3.56-3.56,3.56-3.56-1.59-3.56-3.56ZM21.32,315.47c1.97,0,3.56-1.59,3.56-3.56s-1.59-3.56-3.56-3.56-3.56,1.59-3.56,3.56,1.59,3.56,3.56,3.56Zm497.36,0c-1.97,0-3.56-1.59-3.56-3.56s1.59-3.56,3.56-3.56,3.56,1.59,3.56,3.56-1.59,3.56-3.56,3.56Zm-203.22,203.22c0-1.97-1.59-3.56-3.56-3.56s-3.56,1.59-3.56,3.56,1.59,3.56,3.56,3.56,3.56-1.59,3.56-3.56Z"/></g><g id="path26066"><path class="cls-1" d="M328.06,136.81s-11.72,20.89-2.56,32.69c9.16,11.8,20.26,1.45,19.52-6.1s-18.35-19.08-16.96-26.59Zm75.14,75.14s-20.89,11.72-32.69,2.56-1.45-20.26,6.1-19.52c7.55,.73,19.08,18.35,26.59,16.96Zm-266.39,0s20.89,11.72,32.69,2.56c11.8-9.16,1.45-20.26-6.1-19.52-7.55,.73-19.08,18.35-26.59,16.96Zm75.14-75.14s11.72,20.89,2.56,32.69c-9.16,11.8-20.26,1.45-19.52-6.1,.73-7.55,18.35-19.08,16.96-26.59Zm0,266.39s11.72-20.89,2.56-32.69c-9.16-11.8-20.26-1.45-19.52,6.1,.73,7.55,18.35,19.08,16.96,26.59Zm-75.14-75.14s20.89-11.72,32.69-2.56c11.8,9.16,1.45,20.26-6.1,19.52-7.55-.73-19.08-18.35-26.59-16.96Zm266.39,0s-20.89-11.72-32.69-2.56-1.45,20.26,6.1,19.52c7.55-.73,19.08-18.35,26.59-16.96Zm-75.14,75.14s-11.72-20.89-2.56-32.69c9.16-11.8,20.26-1.45,19.52,6.1s-18.35,19.08-16.96,26.59Z"/></g></g></g></svg>