<?xml version="1.0" encoding="UTF-8"?><svg id="Layer_2" xmlns="http://www.w3.org/2000/svg" viewBox="0 0 540 540"><defs><style>.cls-1{fill:#e9e9e2;}.cls-2{fill:#cf962b;}.cls-3{fill:#62908e;}.cls-4{fill:#605277;}</style></defs><g id="OBJECTS"><g id="g28197"><g id="path28137"><path class="cls-1" d="M270,270L540,0H270s0,270,0,270Zm0,0L540,0V270s-270,0-270,0Zm0,0L0,0V270s270,0,270,0Zm0,0L0,0H270s0,270,0,270Zm0,0L0,540H270s0-270,0-270Zm0,0L0,540V270s270,0,270,0Zm0,0l270,270V270s-270,0-270,0Zm0,0l270,270H270s0-270,0-270Z"/></g><g id="circle28139"><path class="cls-3" d="M308.47,185.21c0,3.09-2.51,5.6-5.6,5.6s-5.6-2.51-5.6-5.6,2.51-5.6,5.6-5.6,5.6,2.51,5.6,5.6Zm46.33,46.33c-3.09,0-5.6,2.51-5.6,5.6s2.51,5.6,5.6,5.6,5.6-2.51,5.6-5.6-2.51-5.6-5.6-5.6Zm-169.59,0c3.09,0,5.6,2.51,5.6,5.6s-2.51,5.6-5.6,5.6-5.6-2.51-5.6-5.6,2.51-5.6,5.6-5.6Zm46.33-46.33c0,3.09,2.51,5.6,5.6,5.6s5.6-2.51,5.6-5.6-2.51-5.6-5.6-5.6-5.6,2.51-5.6,5.6Zm0,169.59c0-3.09,2.51-5.6,5.6-5.6s5.6,2.51,5.6,5.6-2.51,5.6-5.6,5.6-5.6-2.51-5.6-5.6Zm-46.33-46.33c3.09,0,5.6-2.51,5.6-5.6s-2.51-5.6-5.6-5.6-5.6,2.51-5.6,5.6,2.51,5.6,5.6,5.6Zm169.59,0c-3.09,0-5.6-2.51-5.6-5.6s2.51-5.6,5.6-5.6,5.6,2.51,5.6,5.6-2.51,5.6-5.6,5.6Zm-46.33,46.33c0-3.09-2.51-5.6-5.6-5.6s-5.6,2.51-5.6,5.6,2.51,5.6,5.6,5.6,5.6-2.51,5.6-5.6Z"/></g><g id="path28141"><path class="cls-2" d="M303.07,175.58c-.18-5.79-4.01-15.99,3.1-17.76,7.11-1.77,5.53,8.2,4.6,11.02-.94,2.82-6.4,13.91-7.7,6.75h0Zm61.36,61.36c5.79,.18,15.99,4.01,17.76-3.1,1.77-7.11-8.2-5.53-11.02-4.6-2.82,.94-13.91,6.4-6.75,7.7h0Zm-188.85,0c-5.79,.18-15.99,4.01-17.76-3.1-1.77-7.11,8.2-5.53,11.02-4.6,2.82,.94,13.91,6.4,6.75,7.7h0Zm61.36-61.36c.18-5.79,4.01-15.99-3.1-17.76-7.11-1.77-5.53,8.2-4.6,11.02,.94,2.82,6.4,13.91,7.7,6.75h0Zm0,188.85c.18,5.79,4.01,15.99-3.1,17.76s-5.53-8.2-4.6-11.02c.94-2.82,6.4-13.91,7.7-6.75h0Zm-61.36-61.36c-5.79-.18-15.99-4.01-17.76,3.1-1.77,7.11,8.2,5.53,11.02,4.6,2.82-.94,13.91-6.4,6.75-7.7h0Zm188.85,0c5.79-.18,15.99-4.01,17.76,3.1,1.77,7.11-8.2,5.53-11.02,4.6-2.82-.94-13.91-6.4-6.75-7.7h0Zm-61.36,61.36c-.18,5.79-4.01,15.99,3.1,17.76,7.11,1.77,5.53-8.2,4.6-11.02-.94-2.82-6.4-13.91-7.7-6.75h0Z"/></g><g id="path28143"><path class="cls-2" d="M308.97,178.35c2.1-2.08,8.01-13.71,14.17-13.37,6.16,.34,5.58,6.89,4.28,9.69-1.31,2.81-16.04,5.91-17.16,5.63-1.12-.27-2.09-1-1.28-1.96Zm52.68,52.68c2.08-2.1,13.71-8.01,13.37-14.17-.34-6.16-6.89-5.58-9.69-4.28-2.81,1.31-5.91,16.04-5.63,17.16,.27,1.12,1,2.09,1.96,1.28Zm-183.29,0c-2.08-2.1-13.71-8.01-13.37-14.17,.34-6.16,6.89-5.58,9.69-4.28,2.81,1.31,5.91,16.04,5.63,17.16-.27,1.12-1,2.09-1.96,1.28Zm52.68-52.68c-2.1-2.08-8.01-13.71-14.17-13.37-6.16,.34-5.58,6.89-4.28,9.69,1.3,2.81,16.04,5.91,17.16,5.63,1.12-.27,2.09-1,1.28-1.96Zm0,183.29c-2.1,2.08-8.01,13.71-14.17,13.37-6.16-.34-5.58-6.89-4.28-9.69,1.3-2.81,16.04-5.91,17.16-5.63,1.12,.27,2.09,1,1.28,1.96h0Zm-52.68-52.68c-2.08,2.1-13.71,8.01-13.37,14.17,.34,6.16,6.89,5.58,9.69,4.28,2.81-1.3,5.91-16.04,5.63-17.16-.27-1.12-1-2.09-1.96-1.28h0Zm183.29,0c2.08,2.1,13.71,8.01,13.37,14.17-.34,6.16-6.89,5.58-9.69,4.28-2.81-1.3-5.91-16.04-5.63-17.16,.27-1.12,1-2.09,1.96-1.28Zm-52.68,52.68c2.1,2.08,8.01,13.71,14.17,13.37,6.16-.34,5.58-6.89,4.28-9.69-1.31-2.81-16.04-5.91-17.16-5.63-1.12,.27-2.09,1-1.28,1.96Z"/></g><g id="path28145"><path class="cls-2" d="M300.23,177.32s-1.23-13.2-3.66-15.76c-2.43-2.55-6.63-.91-7.9,2.14-1.26,3.05,7.77,15.73,9.52,15.65,1.75-.08,1.69-1.27,2.04-2.04h0Zm62.46,62.46s13.2,1.23,15.76,3.66c2.55,2.43,.91,6.63-2.14,7.9s-15.73-7.77-15.65-9.52c.08-1.75,1.27-1.69,2.04-2.04h0Zm-185.37,0s-13.2,1.23-15.76,3.66c-2.55,2.43-.91,6.63,2.14,7.9,3.05,1.26,15.73-7.77,15.65-9.52-.08-1.75-1.27-1.69-2.04-2.04h0Zm62.46-62.46s1.23-13.2,3.66-15.76c2.43-2.55,6.63-.91,7.9,2.14,1.26,3.05-7.77,15.73-9.52,15.65-1.75-.08-1.69-1.27-2.03-2.04h0Zm0,185.37s1.23,13.2,3.66,15.76c2.43,2.55,6.63,.91,7.9-2.14,1.26-3.05-7.77-15.73-9.52-15.65-1.75,.08-1.69,1.27-2.03,2.04h0Zm-62.46-62.46s-13.2-1.23-15.76-3.66c-2.55-2.43-.91-6.63,2.14-7.9s15.73,7.77,15.65,9.52c-.08,1.75-1.27,1.69-2.04,2.03h0Zm185.37,0s13.2-1.23,15.76-3.66c2.55-2.43,.91-6.63-2.14-7.9-3.05-1.26-15.73,7.77-15.65,9.52,.08,1.75,1.27,1.69,2.04,2.03h0Zm-62.46,62.46s-1.23,13.2-3.66,15.76c-2.43,2.55-6.63,.91-7.9-2.14-1.26-3.05,7.77-15.73,9.52-15.65,1.75,.08,1.69,1.27,2.04,2.04h0Z"/></g><g id="path28147"><path class="cls-2" d="M312.63,183.09c-1.27,.41-2.24,2.68-1.57,3.99,.67,1.31,16.11,3.13,17.29,1.57,1.18-1.56,1.66-4.72-.07-6.99-1.73-2.27-14.48,1.09-15.65,1.43Zm44.28,44.28c-.41,1.27-2.68,2.24-3.99,1.57-1.31-.67-3.13-16.11-1.57-17.29,1.56-1.18,4.72-1.66,6.99,.07,2.27,1.73-1.09,14.48-1.43,15.65Zm-173.83,0c.41,1.27,2.68,2.24,3.99,1.57,1.31-.67,3.13-16.11,1.57-17.29-1.56-1.18-4.73-1.66-6.99,.07-2.27,1.73,1.09,14.48,1.42,15.65Zm44.28-44.28c1.27,.41,2.24,2.68,1.57,3.99-.67,1.31-16.11,3.13-17.29,1.57-1.18-1.56-1.66-4.72,.07-6.99,1.73-2.27,14.48,1.09,15.65,1.43Zm0,173.83c1.27-.41,2.24-2.68,1.57-3.99-.67-1.31-16.11-3.13-17.29-1.57-1.18,1.56-1.66,4.73,.07,6.99,1.73,2.27,14.48-1.09,15.65-1.42Zm-44.28-44.28c.41-1.27,2.68-2.24,3.99-1.57,1.31,.67,3.13,16.11,1.57,17.29-1.56,1.18-4.73,1.66-6.99-.07-2.27-1.73,1.09-14.48,1.42-15.65Zm173.83,0c-.41-1.27-2.68-2.24-3.99-1.57-1.31,.67-3.13,16.11-1.57,17.29,1.56,1.18,4.72,1.66,6.99-.07,2.27-1.73-1.09-14.48-1.43-15.65Zm-44.28,44.28c-1.27-.41-2.24-2.68-1.57-3.99,.67-1.31,16.11-3.13,17.29-1.57,1.18,1.56,1.66,4.73-.07,6.99-1.73,2.27-14.48-1.09-15.65-1.42Z"/></g><g id="path28149"><path class="cls-2" d="M300.82,192.33c-1.92,.04-2.66,.24-3.92,2.07-1.26,1.82-4.02,11.36-1.55,13.95,2.47,2.59,6.38,2.69,7.81,.35s.68-16.59-2.33-16.36Zm46.86,46.86c-.04,1.92-.24,2.66-2.07,3.92s-11.36,4.02-13.95,1.55c-2.59-2.47-2.69-6.38-.35-7.81s16.59-.68,16.36,2.33Zm-155.34,0c.04,1.92,.24,2.66,2.07,3.92s11.35,4.02,13.95,1.55c2.59-2.47,2.69-6.38,.35-7.81s-16.59-.68-16.36,2.33Zm46.86-46.86c1.92,.04,2.66,.24,3.92,2.07,1.26,1.82,4.02,11.36,1.55,13.95-2.47,2.59-6.38,2.69-7.81,.35s-.68-16.59,2.33-16.36Zm0,155.34c1.92-.04,2.66-.24,3.92-2.07,1.26-1.82,4.02-11.35,1.55-13.95-2.47-2.59-6.38-2.69-7.81-.35s-.68,16.59,2.33,16.36Zm-46.86-46.86c.04-1.92,.24-2.66,2.07-3.92,1.82-1.26,11.35-4.02,13.95-1.55,2.59,2.47,2.69,6.38,.35,7.81-2.34,1.43-16.59,.68-16.36-2.33Zm155.34,0c-.04-1.92-.24-2.66-2.07-3.92-1.82-1.26-11.36-4.02-13.95-1.55-2.59,2.47-2.69,6.38-.35,7.81,2.34,1.43,16.59,.68,16.36-2.33Zm-46.86,46.86c-1.92-.04-2.66-.24-3.92-2.07-1.26-1.82-4.02-11.35-1.55-13.95,2.47-2.59,6.38-2.69,7.81-.35s.68,16.59-2.33,16.36Z"/></g><g id="path28151"><path class="cls-2" d="M307.04,191.99s-2.13,.63-1.93,3.42c.2,2.79,.99,13.98,4.67,14.33,3.68,.35,5.77,.03,6.49-2.71,.72-2.74-6.33-15.05-9.23-15.04Zm40.97,40.97s-.63,2.13-3.42,1.93c-2.79-.2-13.98-.99-14.33-4.67-.35-3.68-.03-5.77,2.71-6.49,2.74-.72,15.05,6.33,15.04,9.23Zm-156.02,0s.63,2.13,3.42,1.93c2.79-.2,13.98-.99,14.33-4.67,.35-3.68,.03-5.77-2.71-6.49-2.74-.72-15.05,6.33-15.04,9.23Zm40.97-40.97s2.13,.63,1.93,3.42c-.2,2.79-.99,13.98-4.67,14.33-3.68,.35-5.77,.03-6.49-2.71-.72-2.74,6.33-15.05,9.23-15.04Zm0,156.02s2.13-.63,1.93-3.42c-.2-2.79-.99-13.98-4.67-14.33s-5.77-.03-6.49,2.71c-.72,2.74,6.33,15.05,9.23,15.04Zm-40.97-40.97s.63-2.13,3.42-1.93c2.79,.2,13.98,.99,14.33,4.67s.03,5.77-2.71,6.49c-2.74,.72-15.05-6.33-15.04-9.23Zm156.02,0s-.63-2.13-3.42-1.93c-2.79,.2-13.98,.99-14.33,4.67s-.03,5.77,2.71,6.49c2.74,.72,15.05-6.33,15.04-9.23Zm-40.97,40.97s-2.13-.63-1.93-3.42c.2-2.79,.99-13.98,4.67-14.33,3.68-.35,5.77-.03,6.49,2.71,.72,2.74-6.33,15.05-9.23,15.04Z"/></g><g id="path28153"><path class="cls-2" d="M310.56,189.31s-2.11,.56-1.08,2.14,9.32,11.84,11.85,10.88c2.53-.95,5.96-4.98,4.47-7.51-1.49-2.52-13.41-5.51-15.24-5.51h0Zm40.14,40.14s-.56,2.11-2.14,1.08-11.84-9.32-10.88-11.85c.95-2.53,4.98-5.96,7.51-4.47,2.52,1.49,5.51,13.41,5.51,15.24h0Zm-161.39,0s.56,2.11,2.14,1.08,11.83-9.32,10.88-11.85c-.95-2.53-4.98-5.96-7.51-4.47-2.53,1.49-5.52,13.41-5.52,15.24h0Zm40.14-40.14s2.11,.56,1.08,2.14-9.32,11.84-11.85,10.88-5.96-4.98-4.47-7.51c1.49-2.52,13.41-5.51,15.24-5.51h0Zm0,161.39s2.11-.56,1.08-2.14-9.32-11.83-11.85-10.88-5.96,4.98-4.47,7.51c1.49,2.53,13.41,5.52,15.24,5.52h0Zm-40.14-40.14s.56-2.11,2.14-1.08,11.83,9.32,10.88,11.85-4.98,5.96-7.51,4.47c-2.53-1.49-5.52-13.41-5.52-15.24h0Zm161.39,0s-.56-2.11-2.14-1.08-11.84,9.32-10.88,11.85,4.98,5.96,7.51,4.47c2.52-1.49,5.51-13.41,5.51-15.24Zm-40.14,40.14s-2.11-.56-1.08-2.14,9.32-11.83,11.85-10.88c2.53,.95,5.96,4.98,4.47,7.51-1.49,2.53-13.41,5.52-15.24,5.52Z"/></g><g id="path28155"><path class="cls-2" d="M294.89,187.91c-2.13-.27-13.49,5.15-14.65,7.51-1.16,2.36,.84,8.05,4.37,8.62,3.53,.57,5.81-2.09,6.85-4.13,1.03-2.05,4.72-7.63,4.85-9.15,.13-1.52-.72-2.18-1.41-2.84Zm57.2,57.2c.27,2.13-5.15,13.49-7.51,14.65-2.36,1.16-8.05-.84-8.62-4.37s2.09-5.81,4.13-6.85,7.63-4.72,9.15-4.85c1.52-.13,2.18,.72,2.84,1.41Zm-164.18,0c-.27,2.13,5.15,13.49,7.51,14.65,2.36,1.16,8.05-.84,8.62-4.37,.57-3.53-2.09-5.81-4.13-6.85-2.05-1.03-7.63-4.72-9.16-4.85-1.52-.13-2.18,.72-2.83,1.41Zm57.2-57.2c2.13-.27,13.49,5.15,14.65,7.51,1.16,2.36-.84,8.05-4.37,8.62-3.53,.57-5.81-2.09-6.84-4.13-1.03-2.05-4.72-7.63-4.85-9.15-.13-1.52,.72-2.18,1.41-2.84Zm0,164.18c2.13,.27,13.49-5.15,14.65-7.51,1.16-2.36-.84-8.05-4.37-8.62-3.53-.57-5.81,2.09-6.84,4.13-1.03,2.05-4.72,7.63-4.85,9.16-.13,1.52,.72,2.18,1.41,2.83Zm-57.2-57.2c-.27-2.13,5.15-13.49,7.51-14.65s8.05,.84,8.62,4.37c.57,3.53-2.09,5.81-4.13,6.84-2.05,1.03-7.63,4.72-9.16,4.85-1.52,.13-2.18-.72-2.83-1.41Zm164.18,0c.27-2.13-5.15-13.49-7.51-14.65s-8.05,.84-8.62,4.37c-.57,3.53,2.09,5.81,4.13,6.84,2.05,1.03,7.63,4.72,9.15,4.85,1.52,.13,2.18-.72,2.84-1.41Zm-57.2,57.2c-2.13,.27-13.49-5.15-14.65-7.51s.84-8.05,4.37-8.62c3.53-.57,5.81,2.09,6.85,4.13,1.03,2.05,4.72,7.63,4.85,9.16,.13,1.52-.72,2.18-1.41,2.83Z"/></g><g id="path28157"><path class="cls-2" d="M295.48,181.29s-.32,2.26-.99,3.51c-.66,1.25-12.44,3.63-14.46,3.05s-4.3-10.02-.22-13.37,14.4,5.61,15.67,6.81Zm63.24,63.24s-2.26,.32-3.51,.99c-1.25,.66-3.63,12.44-3.05,14.46,.58,2.02,10.02,4.3,13.37,.22s-5.61-14.4-6.81-15.67Zm-177.43,0s2.26,.32,3.51,.99c1.25,.66,3.63,12.44,3.05,14.46-.58,2.02-10.02,4.3-13.37,.22s5.61-14.4,6.81-15.67Zm63.24-63.24s.32,2.26,.98,3.51c.66,1.25,12.44,3.63,14.46,3.05,2.02-.58,4.3-10.02,.22-13.37s-14.4,5.61-15.67,6.81Zm0,177.43s.32-2.26,.98-3.51c.66-1.25,12.44-3.63,14.46-3.05,2.02,.58,4.3,10.02,.22,13.37s-14.4-5.61-15.67-6.81Zm-63.24-63.24s2.26-.32,3.51-.98c1.25-.66,3.63-12.44,3.05-14.46s-10.02-4.3-13.37-.22c-3.35,4.08,5.61,14.4,6.81,15.67Zm177.43,0s-2.26-.32-3.51-.98c-1.25-.66-3.63-12.44-3.05-14.46,.58-2.02,10.02-4.3,13.37-.22,3.35,4.08-5.61,14.4-6.81,15.67Zm-63.24,63.24s-.32-2.26-.98-3.51c-.67-1.25-12.44-3.63-14.46-3.05-2.02,.58-4.3,10.02-.22,13.37s14.4-5.61,15.67-6.81Z"/></g><g id="path28159"><path class="cls-4" d="M277.32,201.04s4.07,9.31,12.03,6.23c-9.25,13.35-16.26,53.48-16.26,53.48,0,0,19.41-35.42,23.65-47.55,3.81,6.49,15.51,.03,15.51,.03,0,0-31.41,43.23-40.04,51.75-.77-23.13,3.46-57.62,5.11-63.94h0Zm61.65,61.65s-9.31-4.07-6.23-12.03c-13.35,9.25-53.48,16.26-53.48,16.26,0,0,35.42-19.41,47.55-23.65-6.49-3.81-.03-15.51-.03-15.51,0,0-43.23,31.41-51.75,40.04,23.13,.77,57.62-3.46,63.94-5.11h0Zm-137.93,0s9.31-4.07,6.23-12.03c13.35,9.25,53.48,16.26,53.48,16.26,0,0-35.42-19.41-47.55-23.65,6.49-3.81,.03-15.51,.03-15.51,0,0,43.23,31.41,51.75,40.04-23.13,.77-57.62-3.46-63.94-5.11h0Zm61.65-61.65s-4.07,9.31-12.03,6.23c9.25,13.35,16.26,53.48,16.26,53.48,0,0-19.41-35.42-23.65-47.55-3.81,6.49-15.51,.03-15.51,.03,0,0,31.41,43.23,40.04,51.75,.77-23.13-3.46-57.62-5.11-63.94h0Zm0,137.93s-4.07-9.31-12.03-6.23c9.25-13.35,16.26-53.48,16.26-53.48,0,0-19.41,35.42-23.65,47.55-3.81-6.49-15.51-.03-15.51-.03,0,0,31.41-43.23,40.04-51.75,.77,23.13-3.46,57.62-5.11,63.94h0Zm-61.65-61.65s9.31,4.07,6.23,12.03c13.35-9.25,53.48-16.26,53.48-16.26,0,0-35.42,19.41-47.55,23.65,6.49,3.81,.03,15.51,.03,15.51,0,0,43.23-31.41,51.75-40.04-23.13-.77-57.62,3.46-63.94,5.11h0Zm137.93,0s-9.31,4.07-6.23,12.03c-13.35-9.25-53.48-16.26-53.48-16.26,0,0,35.42,19.41,47.55,23.65-6.49,3.81-.03,15.51-.03,15.51,0,0-43.23-31.41-51.75-40.04,23.13-.77,57.62,3.46,63.94,5.11h0Zm-61.65,61.65s4.07-9.31,12.03-6.23c-9.25-13.35-16.26-53.48-16.26-53.48,0,0,19.41,35.42,23.65,47.55,3.81-6.49,15.51-.03,15.51-.03,0,0-31.41-43.23-40.04-51.75-.77,23.13,3.46,57.62,5.11,63.94h0Z"/></g><g id="path28161"><path class="cls-4" d="M283.35,162.74s1.06-22.77,12.93-34.04c11.87-11.27,36.19-21.85,68.25-16.48,32.05,5.37,54.69-.66,58.87-16.44,4.18-15.78-10.92-35.19-36.49-24.68,9.49-9.03,31.91-12.03,43.15,9.13,11.25,21.16-8.83,48.01-45.57,42.87-36.74-5.14-89.42-5.31-101.14,39.64h0Zm93.91,93.91s22.77-1.06,34.04-12.93c11.27-11.87,21.85-36.19,16.48-68.25-5.37-32.05,.66-54.69,16.44-58.87,15.78-4.18,35.19,10.92,24.68,36.49,9.03-9.49,12.03-31.91-9.13-43.15-21.16-11.25-48.01,8.83-42.87,45.57,5.14,36.74,5.31,89.42-39.64,101.14Zm-214.52,0s-22.77-1.06-34.04-12.93c-11.27-11.87-21.85-36.19-16.48-68.24,5.37-32.05-.66-54.69-16.44-58.87-15.78-4.18-35.19,10.92-24.68,36.49-9.03-9.49-12.03-31.91,9.13-43.15s48.01,8.83,42.87,45.57c-5.14,36.74-5.31,89.42,39.64,101.14h0Zm93.91-93.91s-1.06-22.77-12.93-34.04c-11.87-11.27-36.19-21.85-68.24-16.48-32.05,5.37-54.69-.66-58.87-16.44-4.18-15.78,10.92-35.19,36.49-24.68-9.49-9.03-31.91-12.03-43.15,9.13-11.25,21.16,8.83,48.01,45.57,42.87,36.74-5.14,89.42-5.31,101.14,39.64h0Zm0,214.52s-1.06,22.77-12.93,34.04c-11.87,11.27-36.19,21.85-68.24,16.48-32.05-5.37-54.69,.66-58.87,16.44-4.18,15.78,10.92,35.19,36.49,24.68-9.49,9.03-31.91,12.03-43.15-9.13-11.25-21.15,8.83-48.01,45.57-42.87,36.74,5.14,89.42,5.31,101.14-39.64Zm-93.91-93.91s-22.77,1.06-34.04,12.93-21.85,36.19-16.48,68.24c5.37,32.05-.66,54.69-16.44,58.87-15.78,4.18-35.19-10.92-24.68-36.49-9.03,9.49-12.03,31.91,9.13,43.15,21.15,11.25,48.01-8.83,42.87-45.57-5.14-36.74-5.31-89.42,39.64-101.14h0Zm214.52,0s22.77,1.06,34.04,12.93c11.27,11.87,21.85,36.19,16.48,68.24-5.37,32.05,.66,54.69,16.44,58.87,15.78,4.18,35.19-10.92,24.68-36.49,9.03,9.49,12.03,31.91-9.13,43.15-21.15,11.25-48.01-8.83-42.87-45.57,5.14-36.74,5.31-89.42-39.64-101.14Zm-93.91,93.91s1.06,22.77,12.93,34.04c11.87,11.27,36.19,21.85,68.25,16.48s54.69,.66,58.87,16.44c4.18,15.78-10.92,35.19-36.49,24.68,9.49,9.03,31.91,12.03,43.15-9.13,11.25-21.15-8.83-48.01-45.57-42.87-36.74,5.14-89.42,5.31-101.14-39.64Z"/></g><g id="path28163"><path class="cls-4" d="M427.88,100.43s8.83-4.31,10.85-14.24c2.02-9.93-7.18-22.88,4.58-41.78,11.76-18.9,70.84-23.49,70.84-23.49,0,0-51.49,15.42-61.34,24.05-9.84,8.62-8.99,22.55-8.03,31.06,.96,8.5,8.6-.09,8.47-9.11s1.84-16.31,11.11-18.76c9.27-2.45,16.99-2.56,16.99-2.56,0,0-14.87,3.19-18.05,10.28-3.19,7.08-.98,14.45-9.82,25.33s-21.45,24.51-31.13,28.96c2.69-5.83,5.52-9.74,5.52-9.74Zm11.7,11.7s4.31-8.83,14.24-10.85,22.88,7.18,41.78-4.58c18.9-11.76,23.49-70.84,23.49-70.84,0,0-15.42,51.49-24.05,61.34-8.62,9.84-22.55,8.99-31.06,8.03-8.5-.96,.09-8.6,9.11-8.47,9.02,.13,16.31-1.84,18.76-11.11,2.45-9.27,2.56-16.99,2.56-16.99,0,0-3.19,14.87-10.28,18.05-7.08,3.19-14.45,.98-25.33,9.82-10.88,8.83-24.51,21.45-28.96,31.13,5.83-2.69,9.74-5.52,9.74-5.52Zm-339.14,0s-4.31-8.83-14.24-10.85c-9.93-2.02-22.88,7.18-41.78-4.58C25.52,84.93,20.93,25.85,20.93,25.85c0,0,15.42,51.49,24.05,61.34,8.62,9.84,22.55,8.99,31.06,8.03,8.5-.96-.09-8.6-9.11-8.47-9.02,.13-16.31-1.84-18.76-11.11-2.45-9.27-2.56-16.99-2.56-16.99,0,0,3.19,14.87,10.28,18.05s14.45,.98,25.33,9.82c10.88,8.83,24.51,21.45,28.96,31.13-5.82-2.69-9.74-5.52-9.74-5.52h0Zm11.7-11.7s-8.83-4.31-10.85-14.24c-2.02-9.93,7.17-22.88-4.58-41.78C84.93,25.52,25.85,20.93,25.85,20.93c0,0,51.49,15.42,61.34,24.05,9.84,8.62,8.99,22.55,8.03,31.06-.96,8.5-8.6-.09-8.47-9.11,.13-9.02-1.84-16.31-11.11-18.76s-16.99-2.56-16.99-2.56c0,0,14.87,3.19,18.05,10.28,3.19,7.08,.98,14.45,9.82,25.33,8.83,10.88,21.45,24.51,31.13,28.96-2.69-5.83-5.52-9.74-5.52-9.74Zm0,339.14s-8.83,4.31-10.85,14.24c-2.02,9.93,7.17,22.88-4.58,41.78-11.76,18.9-70.84,23.49-70.84,23.49,0,0,51.49-15.42,61.34-24.05,9.84-8.62,8.99-22.55,8.03-31.06-.96-8.5-8.6,.09-8.47,9.11,.13,9.02-1.84,16.31-11.11,18.76-9.27,2.45-16.99,2.56-16.99,2.56,0,0,14.87-3.19,18.05-10.28s.98-14.45,9.82-25.33c8.83-10.88,21.45-24.51,31.13-28.96-2.69,5.83-5.52,9.74-5.52,9.74Zm-11.7-11.7s-4.31,8.83-14.24,10.85c-9.93,2.02-22.88-7.17-41.78,4.58-18.9,11.76-23.49,70.84-23.49,70.84,0,0,15.42-51.49,24.05-61.34,8.62-9.84,22.55-8.99,31.06-8.03,8.5,.96-.09,8.6-9.11,8.47-9.02-.13-16.31,1.84-18.76,11.11-2.45,9.27-2.56,16.99-2.56,16.99,0,0,3.19-14.87,10.28-18.05s14.45-.98,25.33-9.82c10.88-8.83,24.51-21.45,28.96-31.14-5.82,2.69-9.74,5.52-9.74,5.52Zm339.14,0s4.31,8.83,14.24,10.85c9.93,2.02,22.88-7.17,41.78,4.58,18.9,11.76,23.49,70.84,23.49,70.84,0,0-15.42-51.49-24.05-61.34-8.62-9.84-22.55-8.99-31.06-8.03-8.5,.96,.09,8.6,9.11,8.47,9.02-.13,16.31,1.84,18.76,11.11,2.45,9.27,2.56,16.99,2.56,16.99,0,0-3.19-14.87-10.28-18.05-7.08-3.19-14.45-.98-25.33-9.82-10.88-8.83-24.51-21.45-28.96-31.14,5.83,2.69,9.74,5.52,9.74,5.52h0Zm-11.7,11.7s8.83,4.31,10.85,14.24c2.02,9.93-7.18,22.88,4.58,41.78,11.76,18.9,70.84,23.49,70.84,23.49,0,0-51.49-15.42-61.34-24.05-9.84-8.62-8.99-22.55-8.03-31.06,.96-8.5,8.6,.09,8.47,9.11s1.84,16.31,11.11,18.76c9.27,2.45,16.99,2.56,16.99,2.56,0,0-14.87-3.19-18.05-10.28-3.19-7.08-.98-14.45-9.82-25.33-8.83-10.88-21.45-24.51-31.13-28.96,2.69,5.83,5.52,9.74,5.52,9.74h0Z"/></g><g id="path28165"><path class="cls-4" d="M299.62,155.7s.95-16.34,21.69-23.76c20.73-7.41,47.88-3.3,52.71,8.04,4.84,11.34-.4,24.88-16.92,26.69-16.52,1.81-22.53-7.18-20.33-14.07,2.2-6.89,9.12-11.93,14.18-6.33,5.06,5.6-3.92,10.87-3.92,10.87,0,0,5.31,5.04,13.08,1.38,7.77-3.66,11.43-8.9,5.16-15.55-6.26-6.66-47.29-17.66-65.64,12.72h0Zm84.68,84.68s16.34-.95,23.76-21.69c7.41-20.73,3.3-47.88-8.04-52.71-11.34-4.84-24.88,.4-26.69,16.92-1.81,16.52,7.18,22.53,14.07,20.33,6.89-2.2,11.93-9.12,6.33-14.18-5.6-5.06-10.87,3.92-10.87,3.92,0,0-5.04-5.31-1.38-13.08,3.66-7.77,8.9-11.43,15.55-5.16,6.66,6.26,17.66,47.29-12.72,65.64h0Zm-228.6,0s-16.34-.95-23.76-21.69c-7.41-20.73-3.3-47.88,8.04-52.71,11.34-4.84,24.88,.4,26.69,16.92,1.81,16.52-7.18,22.53-14.07,20.33-6.89-2.2-11.93-9.12-6.33-14.18,5.6-5.06,10.87,3.92,10.87,3.92,0,0,5.04-5.31,1.38-13.08s-8.9-11.43-15.55-5.16c-6.66,6.26-17.66,47.29,12.72,65.64h0Zm84.68-84.68s-.95-16.34-21.69-23.76c-20.73-7.41-47.88-3.3-52.71,8.04-4.84,11.34,.4,24.88,16.92,26.69,16.52,1.81,22.53-7.18,20.33-14.07-2.2-6.89-9.12-11.93-14.18-6.33-5.06,5.6,3.92,10.87,3.92,10.87,0,0-5.31,5.04-13.08,1.38-7.77-3.66-11.43-8.9-5.17-15.55,6.26-6.66,47.29-17.66,65.64,12.72h0Zm0,228.6s-.95,16.34-21.69,23.76c-20.73,7.41-47.88,3.3-52.71-8.04-4.84-11.34,.4-24.88,16.92-26.69,16.52-1.81,22.53,7.18,20.33,14.07-2.2,6.89-9.12,11.93-14.18,6.33-5.06-5.6,3.92-10.87,3.92-10.87,0,0-5.31-5.04-13.08-1.38-7.77,3.66-11.43,8.9-5.17,15.55,6.26,6.66,47.29,17.66,65.64-12.72h0Zm-84.68-84.68s-16.34,.95-23.76,21.69c-7.41,20.73-3.3,47.88,8.04,52.71,11.34,4.84,24.88-.4,26.69-16.92s-7.18-22.53-14.07-20.33c-6.89,2.2-11.93,9.12-6.33,14.18,5.6,5.06,10.87-3.92,10.87-3.92,0,0,5.04,5.31,1.38,13.08-3.66,7.77-8.9,11.43-15.55,5.17-6.66-6.26-17.66-47.29,12.72-65.64h0Zm228.6,0s16.34,.95,23.76,21.69c7.41,20.73,3.3,47.88-8.04,52.71-11.34,4.84-24.88-.4-26.69-16.92-1.81-16.52,7.18-22.53,14.07-20.33,6.89,2.2,11.93,9.12,6.33,14.18-5.6,5.06-10.87-3.92-10.87-3.92,0,0-5.04,5.31-1.38,13.08,3.66,7.77,8.9,11.43,15.55,5.17,6.66-6.26,17.66-47.29-12.72-65.64Zm-84.68,84.68s.95,16.34,21.69,23.76c20.73,7.41,47.88,3.3,52.71-8.04,4.84-11.34-.4-24.88-16.92-26.69-16.52-1.81-22.53,7.18-20.33,14.07,2.2,6.89,9.12,11.93,14.18,6.33,5.06-5.6-3.92-10.87-3.92-10.87,0,0,5.31-5.04,13.08-1.38,7.77,3.66,11.43,8.9,5.16,15.55-6.26,6.66-47.29,17.66-65.64-12.72Z"/></g><g id="path28167"><path class="cls-4" d="M371.78,127.63s10.88,6.26,7.73,19.47c8.86-2.7,6.78-12.82,6.78-12.82,0,0,9.71,3.76,15.68-5.01-9.96,.59-22.24-.33-30.18-1.65Zm40.59,40.59s-6.26-10.88-19.47-7.73c2.7-8.86,12.82-6.78,12.82-6.78,0,0-3.76-9.71,5.01-15.68-.59,9.96,.33,22.24,1.65,30.18Zm-284.75,0s6.26-10.88,19.47-7.73c-2.7-8.86-12.82-6.78-12.82-6.78,0,0,3.76-9.71-5.01-15.68,.59,9.96-.33,22.24-1.65,30.18Zm40.59-40.59s-10.88,6.26-7.73,19.47c-8.86-2.7-6.78-12.82-6.78-12.82,0,0-9.71,3.76-15.68-5.01,9.96,.59,22.24-.33,30.18-1.65Zm0,284.75s-10.88-6.26-7.73-19.47c-8.87,2.7-6.78,12.82-6.78,12.82,0,0-9.71-3.76-15.68,5.01,9.96-.59,22.24,.33,30.18,1.65h0Zm-40.59-40.59s6.26,10.88,19.47,7.73c-2.7,8.86-12.82,6.78-12.82,6.78,0,0,3.76,9.71-5.01,15.68,.59-9.96-.33-22.24-1.65-30.18h0Zm284.75,0s-6.26,10.88-19.47,7.73c2.7,8.86,12.82,6.78,12.82,6.78,0,0-3.76,9.71,5.01,15.68-.59-9.96,.33-22.24,1.65-30.18h0Zm-40.59,40.59s10.88-6.26,7.73-19.47c8.86,2.7,6.78,12.82,6.78,12.82,0,0,9.71-3.76,15.68,5.01-9.96-.59-22.24,.33-30.18,1.65h0Z"/></g><g id="path28169"><path class="cls-4" d="M274.61,18.95s-.99,17,9.63,25.64c10.62,8.63,40.15,17.33,49.89,35.52,9.74,18.19-8.9,20.27-15.68,18.39-6.78-1.88-6.81-11.73-2.53-12.85,4.29-1.12,5.93-4.75,2.86-9.19-3.08-4.45-12.45-4.38-15.75,4.81-3.3,9.19,7.47,27.51,25.61,26.79,18.13-.72,18.5-20.17,16.15-25.64,13.74,9.65,6.85,22.67,6.85,22.67l11.17,.92s2.53-14.07-6.48-25.21c-9.01-11.14-27.4-19.34-51.03-32.33-23.63-12.98-25.79-17.76-30.7-29.52Zm246.45,246.45s-17,.99-25.64-9.63c-8.63-10.62-17.33-40.15-35.52-49.89-18.19-9.74-20.27,8.9-18.39,15.68,1.88,6.78,11.73,6.81,12.85,2.53,1.12-4.29,4.75-5.93,9.19-2.86s4.38,12.45-4.81,15.75c-9.19,3.3-27.51-7.47-26.79-25.61,.72-18.13,20.17-18.5,25.64-16.15-9.65-13.74-22.67-6.85-22.67-6.85l-.92-11.17s14.07-2.53,25.21,6.48c11.14,9.01,19.34,27.4,32.33,51.03,12.98,23.63,17.76,25.79,29.52,30.7Zm-502.1,0s17,.99,25.64-9.63c8.63-10.62,17.33-40.15,35.52-49.89,18.19-9.74,20.27,8.9,18.39,15.68-1.88,6.78-11.73,6.81-12.85,2.53-1.12-4.29-4.74-5.93-9.19-2.86-4.45,3.08-4.38,12.45,4.81,15.75,9.19,3.3,27.51-7.47,26.79-25.61-.73-18.13-20.17-18.5-25.64-16.15,9.65-13.74,22.67-6.85,22.67-6.85l.92-11.17s-14.07-2.53-25.21,6.48c-11.14,9.01-19.34,27.4-32.33,51.03-12.98,23.63-17.76,25.79-29.52,30.7ZM265.4,18.95s.99,17-9.63,25.64c-10.62,8.63-40.15,17.33-49.89,35.52-9.74,18.19,8.9,20.27,15.68,18.39,6.78-1.88,6.81-11.73,2.53-12.85-4.29-1.12-5.93-4.75-2.86-9.19,3.08-4.45,12.45-4.38,15.75,4.81,3.3,9.19-7.47,27.51-25.61,26.79-18.13-.72-18.5-20.17-16.15-25.64-13.74,9.66-6.85,22.67-6.85,22.67l-11.17,.92s-2.53-14.07,6.48-25.21c9.01-11.14,27.4-19.34,51.03-32.33,23.63-12.98,25.79-17.76,30.7-29.52Zm0,502.1s.99-17-9.63-25.64c-10.62-8.63-40.15-17.33-49.89-35.52-9.74-18.19,8.9-20.27,15.68-18.39s6.81,11.73,2.53,12.85-5.93,4.74-2.86,9.19c3.08,4.45,12.45,4.38,15.75-4.81,3.3-9.19-7.47-27.51-25.61-26.79-18.13,.73-18.5,20.17-16.15,25.64-13.74-9.65-6.85-22.67-6.85-22.67l-11.17-.92s-2.53,14.07,6.48,25.21c9.01,11.14,27.4,19.34,51.03,32.33,23.63,12.98,25.79,17.76,30.7,29.52ZM18.95,274.61s17-.99,25.64,9.63c8.63,10.62,17.33,40.15,35.52,49.89,18.19,9.74,20.27-8.9,18.39-15.68-1.88-6.78-11.73-6.81-12.85-2.53s-4.74,5.93-9.19,2.86c-4.45-3.08-4.38-12.45,4.81-15.75,9.19-3.3,27.51,7.47,26.79,25.61-.73,18.13-20.17,18.5-25.64,16.15,9.65,13.74,22.67,6.85,22.67,6.85l.92,11.17s-14.07,2.53-25.21-6.48c-11.14-9.01-19.34-27.4-32.33-51.03-12.98-23.63-17.76-25.79-29.52-30.7Zm502.1,0s-17-.99-25.64,9.63c-8.63,10.62-17.33,40.15-35.52,49.89-18.19,9.74-20.27-8.9-18.39-15.68,1.88-6.78,11.73-6.81,12.85-2.53,1.12,4.29,4.75,5.93,9.19,2.86,4.45-3.08,4.38-12.45-4.81-15.75-9.19-3.3-27.51,7.47-26.79,25.61,.72,18.13,20.17,18.5,25.64,16.15-9.65,13.74-22.67,6.85-22.67,6.85l-.92,11.17s14.07,2.53,25.21-6.48c11.14-9.01,19.34-27.4,32.33-51.03,12.98-23.63,17.76-25.79,29.52-30.7Zm-246.45,246.45s-.99-17,9.63-25.64c10.62-8.63,40.15-17.33,49.89-35.52,9.74-18.19-8.9-20.27-15.68-18.39-6.78,1.88-6.81,11.73-2.53,12.85,4.29,1.12,5.93,4.74,2.86,9.19-3.08,4.45-12.45,4.38-15.75-4.81-3.3-9.19,7.47-27.51,25.61-26.79,18.13,.73,18.5,20.17,16.15,25.64,13.74-9.65,6.85-22.67,6.85-22.67l11.17-.92s2.53,14.07-6.48,25.21c-9.01,11.14-27.4,19.34-51.03,32.33-23.63,12.98-25.79,17.76-30.7,29.52Z"/></g><g id="path28171"><path class="cls-4" d="M270,41.08v123.07s17.72-28.8,20.94-51.9c3.22-23.1-5.11-50.84-20.94-71.18h0Zm228.92,228.92h-123.07s28.8-17.72,51.9-20.94c23.1-3.22,50.84,5.11,71.18,20.94h0Zm-457.84,0h123.07s-28.8-17.72-51.9-20.94c-23.1-3.22-50.84,5.11-71.18,20.94h0ZM270,41.08v123.07s-17.72-28.8-20.94-51.9c-3.22-23.1,5.11-50.84,20.94-71.18h0Zm0,457.84v-123.07s-17.72,28.8-20.94,51.9c-3.22,23.1,5.11,50.84,20.94,71.18h0ZM41.08,270h123.07s-28.8,17.72-51.9,20.94c-23.1,3.22-50.84-5.11-71.18-20.94h0Zm457.84,0h-123.07s28.8,17.72,51.9,20.94c23.1,3.22,50.84-5.11,71.18-20.94h0Zm-228.92,228.92v-123.07s17.72,28.8,20.94,51.9c3.22,23.1-5.11,50.84-20.94,71.18h0Z"/></g><g id="path28173"><path class="cls-1" d="M270,49.4v104.32s6.31-61.12,0-104.32Zm220.6,220.6h-104.32s61.12-6.31,104.32,0Zm-441.2,0h104.32s-61.12-6.31-104.32,0ZM270,49.4v104.32s-6.31-61.12,0-104.32Zm0,441.2v-104.32s-6.31,61.12,0,104.32ZM49.4,270h104.32s-61.12,6.31-104.32,0Zm441.2,0h-104.32s61.12,6.31,104.32,0Zm-220.6,220.6v-104.32s6.31,61.12,0,104.32Z"/></g><g id="path28175"><path class="cls-1" d="M271.05,72.6s4.95-6.68,5.76-12.99c1.39,7.28-5.75,16.93-5.75,16.93v-3.94Zm196.33,196.35s6.68-4.95,12.99-5.76c-7.28-1.39-16.93,5.75-16.93,5.75h3.94Zm-394.8,.01s-6.68-4.95-12.99-5.76c7.28-1.39,16.93,5.75,16.93,5.75h-3.94ZM268.95,72.6s-4.95-6.68-5.76-12.99c-1.39,7.28,5.75,16.93,5.75,16.93v-3.94Zm.01,394.8s-4.95,6.68-5.76,12.99c-1.39-7.28,5.75-16.93,5.75-16.93v3.94ZM72.6,271.05s-6.68,4.95-12.99,5.76c7.28,1.39,16.93-5.75,16.93-5.75h-3.94Zm394.8-.01s6.68,4.95,12.99,5.76c-7.28,1.39-16.93-5.75-16.93-5.75h3.94Zm-196.35,196.33s4.95,6.68,5.76,12.99c1.39-7.28-5.75-16.93-5.75-16.93v3.94Z"/></g><g id="path28177"><path class="cls-1" d="M272.04,88.38s9.78-9.74,11.11-16.43c1.32,7.21-11.54,20.13-11.54,20.13l.43-3.7Zm179.59,179.59s9.74-9.78,16.43-11.11c-7.21-1.32-20.13,11.54-20.13,11.54l3.7-.43Zm-363.25,0s-9.74-9.78-16.43-11.11c7.21-1.32,20.13,11.54,20.13,11.54l-3.7-.43ZM267.97,88.38s-9.78-9.74-11.11-16.43c-1.32,7.21,11.54,20.13,11.54,20.13l-.43-3.7Zm0,363.25s-9.78,9.74-11.11,16.43c-1.32-7.21,11.54-20.13,11.54-20.13l-.43,3.7ZM88.38,272.04s-9.74,9.78-16.43,11.11c7.21,1.32,20.13-11.54,20.13-11.54l-3.7,.43Zm363.25,0s9.74,9.78,16.43,11.11c-7.21,1.32-20.13-11.54-20.13-11.54l3.7,.43Zm-179.59,179.59s9.78,9.74,11.11,16.43c1.32-7.21-11.54-20.13-11.54-20.13l.43,3.7Z"/></g><g id="path28179"><path class="cls-1" d="M271.78,106.04s12.81-10.9,15.45-17.89c.01,5.29-9.43,17.73-15.72,20.4,.29-.69,.27-2.5,.27-2.5h0Zm162.19,162.19s10.9-12.81,17.89-15.45c-5.29-.01-17.73,9.43-20.4,15.72,.69-.29,2.5-.27,2.5-.27h0Zm-327.93,0s-10.9-12.81-17.89-15.45c5.29-.01,17.73,9.43,20.4,15.72-.69-.29-2.5-.27-2.5-.27h0ZM268.22,106.04s-12.81-10.9-15.45-17.89c-.01,5.29,9.43,17.73,15.72,20.4-.29-.69-.27-2.5-.27-2.5h0Zm0,327.93s-12.81,10.9-15.45,17.89c-.01-5.29,9.43-17.73,15.72-20.4-.29,.69-.27,2.5-.27,2.5h0ZM106.04,271.78s-10.9,12.81-17.89,15.45c5.29,.01,17.73-9.43,20.4-15.72-.69,.29-2.5,.27-2.5,.27h0Zm327.93,0s10.9,12.81,17.89,15.45c-5.29,.01-17.73-9.43-20.4-15.72,.69,.29,2.5,.27,2.5,.27h0Zm-162.19,162.19s12.81,10.9,15.45,17.89c.01-5.29-9.43-17.73-15.72-20.4,.29,.69,.27,2.5,.27,2.5h0Z"/></g><g id="path28181"><path class="cls-1" d="M271.33,121.84s13.64-4.31,18.58-14.16c-1.79,6.82-12.91,15.44-18.64,16.23,0-.01,.05-2.07,.05-2.07h0Zm146.84,146.84s4.31-13.64,14.15-18.59c-6.82,1.79-15.44,12.91-16.23,18.64,.01,0,2.07-.05,2.07-.05Zm-296.33,0s-4.31-13.64-14.15-18.59c6.82,1.79,15.44,12.91,16.23,18.64-.01,0-2.07-.05-2.07-.05ZM268.68,121.84s-13.64-4.31-18.59-14.16c1.79,6.82,12.91,15.44,18.64,16.23,0-.01-.05-2.07-.05-2.07h0Zm0,296.33s-13.64,4.31-18.59,14.15c1.79-6.82,12.91-15.44,18.64-16.23,0,.01-.05,2.07-.05,2.07h0ZM121.84,271.33s-4.31,13.64-14.15,18.59c6.82-1.79,15.44-12.91,16.23-18.64-.01,0-2.07,.05-2.07,.05h0Zm296.33,0s4.31,13.64,14.15,18.59c-6.82-1.79-15.44-12.91-16.23-18.64,.01,0,2.07,.05,2.07,.05h0Zm-146.84,146.84s13.64,4.31,18.58,14.15c-1.79-6.82-12.91-15.44-18.64-16.23,0,.01,.05,2.07,.05,2.07h0Z"/></g><g id="path28183"><path class="cls-1" d="M270.62,137.45s9.93-3.05,14.1-8.52c-1.58,4.52-10.17,9.49-14.14,10.01-.4-.4,.04-1.49,.04-1.49h0Zm131.93,131.93s3.05-9.93,8.52-14.1c-4.52,1.58-9.49,10.17-10.01,14.14,.4,.4,1.49-.04,1.49-.04h0Zm-265.1,0s-3.05-9.93-8.52-14.1c4.52,1.58,9.49,10.17,10.01,14.14-.4,.4-1.49-.04-1.49-.04h0Zm131.93-131.93s-9.93-3.05-14.1-8.52c1.58,4.52,10.17,9.5,14.14,10.01,.4-.4-.04-1.49-.04-1.49h0Zm0,265.1s-9.93,3.05-14.1,8.52c1.58-4.52,10.17-9.49,14.14-10.01,.4,.4-.04,1.49-.04,1.49h0Zm-131.93-131.93s-3.05,9.93-8.52,14.1c4.52-1.58,9.49-10.17,10.01-14.14-.4-.4-1.49,.04-1.49,.04h0Zm265.1,0s3.05,9.93,8.52,14.1c-4.52-1.58-9.49-10.17-10.01-14.14,.4-.4,1.49,.04,1.49,.04h0Zm-131.93,131.93s9.93,3.05,14.1,8.52c-1.58-4.52-10.17-9.49-14.14-10.01-.4,.4,.04,1.49,.04,1.49h0Z"/></g><g id="path28185"><path class="cls-2" d="M306.42,106.25c-5.44-3.03-9.35,1.37-12.07,14.26,10.33-4.57,15.9-7.43,12.07-14.26Zm127.34,127.34c3.03,5.44-1.37,9.35-14.26,12.07,4.57-10.33,7.43-15.9,14.26-12.07Zm-327.51,0c-3.03,5.44,1.37,9.35,14.26,12.07-4.57-10.33-7.43-15.9-14.26-12.07Zm127.34-127.34c5.44-3.03,9.35,1.37,12.07,14.26-10.34-4.57-15.9-7.43-12.07-14.26Zm0,327.51c5.44,3.03,9.35-1.37,12.07-14.26-10.34,4.57-15.9,7.43-12.07,14.26Zm-127.34-127.34c-3.03-5.44,1.37-9.35,14.26-12.07-4.57,10.34-7.43,15.9-14.26,12.07Zm327.51,0c3.03-5.44-1.37-9.35-14.26-12.07,4.57,10.34,7.43,15.9,14.26,12.07Zm-127.34,127.34c-5.44,3.03-9.35-1.37-12.07-14.26,10.33,4.57,15.9,7.43,12.07,14.26Z"/></g><g id="path28187"><path class="cls-2" d="M328.58,87.25s-9.43-1.63-9.3,3.33c.13,4.96,9.95,2.87,9.3-3.33Zm124.17,124.17s1.63,9.43-3.33,9.3c-4.96-.13-2.87-9.95,3.33-9.3Zm-365.5,0s-1.63,9.43,3.33,9.3c4.96-.13,2.87-9.95-3.33-9.3Zm124.17-124.17s9.43-1.63,9.3,3.33c-.13,4.96-9.95,2.87-9.3-3.33Zm0,365.5s9.43,1.63,9.3-3.33c-.13-4.96-9.95-2.87-9.3,3.33Zm-124.17-124.17s-1.63-9.43,3.33-9.3c4.96,.13,2.87,9.95-3.33,9.3Zm365.5,0s1.63-9.43-3.33-9.3c-4.96,.13-2.87,9.95,3.33,9.3Zm-124.17,124.17s-9.43,1.63-9.3-3.33c.13-4.96,9.95-2.87,9.3,3.33Z"/></g><g id="path28189"><path class="cls-2" d="M295.37,76s-10.39-12.82-4.2-15.19c6.19-2.38,4.2,15.19,4.2,15.19Zm168.63,168.63s12.81,10.39,15.19,4.2c2.38-6.19-15.19-4.2-15.19-4.2Zm-388,0s-12.82,10.39-15.19,4.2c-2.38-6.19,15.19-4.2,15.19-4.2ZM244.63,76s10.39-12.82,4.2-15.19c-6.19-2.38-4.2,15.19-4.2,15.19Zm0,388s10.39,12.82,4.2,15.19c-6.19,2.38-4.2-15.19-4.2-15.19ZM76,295.37s-12.82-10.39-15.19-4.2c-2.38,6.19,15.19,4.2,15.19,4.2Zm388,0s12.82-10.39,15.19-4.2c2.38,6.19-15.19,4.2-15.19,4.2Zm-168.63,168.63s-10.39,12.82-4.2,15.19c6.19,2.38,4.2-15.19,4.2-15.19Z"/></g><g id="path28191"><path class="cls-2" d="M299.36,71.69c.34-1.86-.1-12.72,5.62-10,5.72,2.73-5.62,10-5.62,10Zm168.95,168.95c1.86-.34,12.72,.1,10-5.62-2.73-5.72-10,5.62-10,5.62Zm-396.63,0c-1.86-.34-12.72,.1-10-5.62,2.73-5.72,10,5.62,10,5.62ZM240.64,71.69c-.34-1.86,.1-12.72-5.62-10-5.72,2.73,5.62,10,5.62,10Zm0,396.63c-.34,1.86,.1,12.72-5.62,10-5.72-2.73,5.62-10,5.62-10ZM71.69,299.36c-1.86,.34-12.72-.1-10,5.62,2.73,5.72,10-5.62,10-5.62Zm396.63,0c1.86,.34,12.72-.1,10,5.62-2.73,5.72-10-5.62-10-5.62Zm-168.95,168.95c.34,1.86-.1,12.72,5.62,10,5.72-2.73-5.62-10-5.62-10Z"/></g><g id="path28193"><path class="cls-2" d="M400.82,74.73c9.38,1.05,16.04,4.71,15.2,17.53-.84,12.82-11.91,14.63-19.63,14.86s-19.89-9.82-10.88-17.7c9.01-7.88,13.77-1.32,14.43,4.02,.66,5.34,7.91,4.71,9.27-1.45,1.36-6.16-1.14-14.56-8.39-17.27Zm64.45,64.45c-1.05-9.38-4.71-16.04-17.53-15.2-12.82,.84-14.63,11.91-14.86,19.63s9.82,19.89,17.7,10.88c7.88-9.01,1.32-13.77-4.02-14.43-5.34-.66-4.71-7.91,1.45-9.27,6.16-1.36,14.56,1.14,17.27,8.39Zm-390.55,0c1.05-9.38,4.71-16.04,17.53-15.2,12.82,.84,14.63,11.91,14.86,19.63,.23,7.73-9.82,19.89-17.69,10.88-7.88-9.01-1.32-13.77,4.02-14.43s4.71-7.91-1.45-9.27c-6.16-1.36-14.56,1.14-17.27,8.39Zm64.45-64.45c-9.38,1.05-16.04,4.71-15.2,17.53,.84,12.82,11.91,14.63,19.63,14.86,7.73,.23,19.89-9.82,10.88-17.7-9.01-7.88-13.77-1.32-14.43,4.02-.66,5.34-7.91,4.71-9.27-1.45-1.36-6.16,1.14-14.56,8.39-17.27Zm0,390.55c-9.38-1.05-16.04-4.71-15.2-17.53,.84-12.82,11.91-14.63,19.63-14.86,7.73-.23,19.89,9.82,10.88,17.69-9.01,7.88-13.77,1.32-14.43-4.02-.66-5.34-7.91-4.71-9.27,1.45-1.36,6.16,1.14,14.56,8.39,17.27h0Zm-64.45-64.45c1.05,9.38,4.71,16.04,17.53,15.2,12.82-.84,14.63-11.91,14.86-19.63,.23-7.73-9.82-19.89-17.69-10.88-7.88,9.01-1.32,13.77,4.02,14.43,5.34,.66,4.71,7.91-1.45,9.27-6.16,1.36-14.56-1.14-17.27-8.39h0Zm390.55,0c-1.05,9.38-4.71,16.04-17.53,15.2-12.82-.84-14.63-11.91-14.86-19.63-.23-7.73,9.82-19.89,17.7-10.88,7.88,9.01,1.32,13.77-4.02,14.43-5.34,.66-4.71,7.91,1.45,9.27s14.56-1.14,17.27-8.39h0Zm-64.45,64.45c9.38-1.05,16.04-4.71,15.2-17.53-.84-12.82-11.91-14.63-19.63-14.86-7.73-.23-19.89,9.82-10.88,17.69,9.01,7.88,13.77,1.32,14.43-4.02s7.91-4.71,9.27,1.45c1.36,6.16-1.14,14.56-8.39,17.27h0Z"/></g><g id="path28195"><path class="cls-2" d="M405.44,91.47s1.23-10.45-6.25-14.22c-7.47-3.77-19.09-2.8-23.57,3.62-4.49,6.43,2.29,9.24,6.45,5.96,4.16-3.28,6.96-5.52,12.31-5.16,5.35,.36,10.44,5.5,11.06,9.79Zm43.1,43.1s10.45-1.23,14.22,6.25c3.77,7.47,2.8,19.09-3.62,23.57-6.43,4.49-9.24-2.29-5.96-6.45,3.28-4.16,5.52-6.96,5.16-12.31-.36-5.35-5.5-10.44-9.79-11.06Zm-357.07,0s-10.45-1.23-14.22,6.25c-3.77,7.47-2.8,19.09,3.62,23.57,6.43,4.49,9.24-2.29,5.96-6.45s-5.52-6.96-5.16-12.31c.36-5.35,5.5-10.44,9.79-11.06Zm43.1-43.1s-1.23-10.45,6.25-14.22c7.47-3.77,19.09-2.8,23.57,3.62,4.49,6.43-2.29,9.24-6.45,5.96-4.16-3.28-6.96-5.52-12.31-5.16-5.35,.36-10.44,5.5-11.06,9.79Zm0,357.07s-1.23,10.45,6.25,14.22c7.47,3.77,19.09,2.8,23.57-3.62,4.49-6.43-2.29-9.24-6.45-5.96-4.16,3.28-6.96,5.52-12.31,5.16-5.35-.36-10.44-5.5-11.06-9.79Zm-43.1-43.1s-10.45,1.23-14.22-6.25c-3.77-7.47-2.8-19.09,3.62-23.57,6.43-4.49,9.24,2.29,5.96,6.45-3.28,4.16-5.52,6.96-5.16,12.31,.36,5.35,5.5,10.44,9.79,11.06Zm357.07,0s10.45,1.23,14.22-6.25c3.77-7.47,2.8-19.09-3.62-23.57-6.43-4.49-9.24,2.29-5.96,6.45,3.28,4.16,5.52,6.96,5.16,12.31-.36,5.35-5.5,10.44-9.79,11.06Zm-43.1,43.1s1.23,10.45-6.25,14.22c-7.47,3.77-19.09,2.8-23.57-3.62-4.49-6.43,2.29-9.24,6.45-5.96s6.96,5.52,12.31,5.16c5.35-.36,10.44-5.5,11.06-9.79Z"/></g></g></g></svg>