<?xml version="1.0" encoding="UTF-8"?><svg id="Layer_2" xmlns="http://www.w3.org/2000/svg" viewBox="0 0 540 540"><defs><style>.cls-1{fill:#e9e9e2;}.cls-2{fill:#cf962b;}.cls-3{fill:#605277;}</style></defs><g id="OBJECTS"><g id="g28525"><g id="path28503"><path class="cls-1" d="M270,270L540,0H270s0,270,0,270Zm0,0L540,0V270s-270.01,0-270.01,0Zm0,0L0,0V270s270,0,270,0Zm0,0L0,0H270s0,270,0,270Zm0,0L0,540H270s0-270,0-270Zm0,0L0,540V270s270,0,270,0Zm0,0l270.01,270V270s-270.01,0-270.01,0Zm0,0l270,270H270s0-270,0-270Z"/></g><g id="path28505"><path class="cls-2" d="M274.34,102.93s14.36-59.63,17.57-62.87c3.2-3.23,8.18,.32,7.65,4.93s1.8,4.28,4.14,1.34c2.35-2.94,5.42-4.14,7.21-1.56,1.8,2.58-2.96,7.2-1.4,8.72,1.56,1.52,5.79-4.5,8.16-2.29,2.37,2.21,2.08,6.84-.61,9.72s-28.51,37.18-35,41.82c-6.49,4.64-7.72,.18-7.72,.18h0Zm162.73,162.73s59.63-14.36,62.87-17.57c3.24-3.2-.32-8.18-4.93-7.65-4.62,.53-4.28-1.8-1.34-4.14,2.94-2.35,4.14-5.42,1.56-7.21-2.58-1.8-7.2,2.96-8.72,1.4-1.52-1.56,4.5-5.79,2.29-8.16-2.21-2.37-6.84-2.08-9.72,.61-2.88,2.7-37.18,28.51-41.82,35-4.64,6.49-.18,7.72-.18,7.72h0Zm-334.14,0s-59.63-14.36-62.87-17.57c-3.24-3.2,.32-8.18,4.93-7.65,4.62,.53,4.28-1.8,1.34-4.14-2.94-2.35-4.14-5.42-1.56-7.21,2.58-1.8,7.2,2.96,8.72,1.4,1.52-1.56-4.5-5.79-2.29-8.16s6.84-2.08,9.72,.61c2.88,2.7,37.18,28.51,41.82,35,4.64,6.49,.18,7.72,.18,7.72h0ZM265.66,102.93s-14.36-59.63-17.57-62.87c-3.2-3.24-8.18,.32-7.65,4.93,.53,4.62-1.8,4.28-4.14,1.34s-5.42-4.14-7.21-1.56c-1.8,2.58,2.96,7.2,1.4,8.72-1.56,1.52-5.79-4.5-8.16-2.29-2.37,2.21-2.08,6.84,.61,9.72,2.7,2.88,28.51,37.18,35,41.82,6.49,4.64,7.72,.18,7.72,.18h0Zm0,334.14s-14.36,59.63-17.57,62.87-8.18-.32-7.65-4.93c.53-4.62-1.8-4.28-4.14-1.34s-5.42,4.14-7.21,1.56c-1.8-2.58,2.96-7.2,1.4-8.72-1.56-1.52-5.79,4.5-8.16,2.29-2.37-2.21-2.08-6.85,.61-9.73,2.7-2.88,28.51-37.18,35-41.82,6.49-4.64,7.72-.18,7.72-.18h0ZM102.93,274.34s-59.63,14.36-62.87,17.57c-3.24,3.2,.32,8.18,4.93,7.65,4.62-.53,4.28,1.8,1.34,4.14-2.94,2.35-4.14,5.42-1.56,7.21,2.58,1.8,7.2-2.96,8.72-1.4,1.52,1.56-4.5,5.79-2.29,8.16s6.85,2.08,9.73-.61c2.88-2.7,37.18-28.51,41.82-35,4.64-6.49,.18-7.72,.18-7.72h0Zm334.14,0s59.63,14.36,62.87,17.57c3.24,3.2-.32,8.18-4.93,7.65-4.62-.53-4.28,1.8-1.34,4.14,2.94,2.35,4.14,5.42,1.56,7.21-2.58,1.8-7.2-2.96-8.72-1.4-1.52,1.56,4.5,5.79,2.29,8.16s-6.84,2.08-9.72-.61c-2.88-2.7-37.18-28.51-41.82-35-4.64-6.49-.18-7.72-.18-7.72h0Zm-162.73,162.73s14.36,59.63,17.57,62.87c3.2,3.24,8.18-.32,7.65-4.93s1.8-4.28,4.14-1.34,5.42,4.14,7.21,1.56c1.8-2.58-2.96-7.2-1.4-8.72,1.56-1.52,5.79,4.5,8.16,2.29,2.37-2.21,2.08-6.85-.61-9.73s-28.51-37.18-35-41.82c-6.49-4.64-7.72-.18-7.72-.18h0Z"/></g><g id="path28507"><path class="cls-2" d="M270,105.99V32.87s3.77-.12,4.19,4.68c.42,4.79,2.06,3.29,4.8-.34,2.74-3.63,6.47-2.35,6.56,2.11,.09,4.46-9.81,63.58-15.55,66.67h0Zm164.01,164.01h73.13s.12-3.77-4.68-4.19c-4.79-.42-3.29-2.06,.34-4.8,3.63-2.74,2.35-6.47-2.11-6.56-4.46-.09-63.58,9.81-66.67,15.55h0Zm-328.02,0H32.87s-.12-3.77,4.68-4.19c4.79-.42,3.29-2.06-.34-4.8-3.63-2.74-2.35-6.47,2.11-6.56,4.46-.09,63.58,9.81,66.67,15.55h0ZM270.01,105.99V32.87s-3.77-.12-4.19,4.68c-.42,4.79-2.06,3.29-4.8-.34-2.74-3.63-6.47-2.35-6.56,2.11-.09,4.46,9.81,63.58,15.55,66.67h0Zm0,328.02v73.12s-3.77,.12-4.19-4.67c-.42-4.79-2.06-3.29-4.8,.34s-6.47,2.35-6.56-2.11c-.09-4.46,9.81-63.58,15.55-66.67h0ZM105.99,270H32.87s-.12,3.77,4.67,4.19c4.79,.42,3.29,2.06-.34,4.8-3.63,2.74-2.35,6.47,2.11,6.56,4.46,.09,63.58-9.81,66.67-15.55h0Zm328.02,0h73.12s.12,3.77-4.67,4.19c-4.79,.42-3.29,2.06,.34,4.8,3.63,2.74,2.35,6.47-2.11,6.56-4.46,.09-63.58-9.81-66.67-15.55h0Zm-164.01,164.01v73.12s3.77,.12,4.19-4.68c.42-4.79,2.06-3.29,4.8,.34s6.47,2.35,6.56-2.11c.09-4.46-9.81-63.58-15.55-66.67h0Z"/></g><g id="path28509"><path class="cls-3" d="M507.17,32.84l-237.17,237.17V91.91s5.22-.2,6.22,7.26c2.24-5.68,9.78-5.56,9.78-5.56,0,0,2.46,12.11-10.09,17.71-1.45,25.84-1.97,53.69-1.97,53.69,0,0,3.64-32.75,16.62-39.73,12.98-6.98,45.17-12.51,52.72-34.88-.48,50.1-9.12,74.57-67.76,86.52-1.62,38.78-.13,70.26-.13,70.26,0,0,16.49-10.38,19.12-17.04,2.63-6.67-5.79-40.71,20.92-58.35-3.99,16.92,3.73,35.27-4.47,48.72,27.72-32,37.98-41.9,41.8-61.7,3.82-19.8-5.75-74.49,10.18-97.09,15.92-22.61,47.59-31.88,47.59-31.88,0,0-21.53,33.69-17.54,52.91s-3.33,54.09-29.12,84.43c34.87-34.84,51.7-53.79,56.65-65.83,4.96-12.03,3.86-45.21,13.11-58.55,9.25-13.33,21.58-16.92,42.72-18.27-16.93,12.59-18.07,26.08-18.73,36.97-.66,10.89-5.92,18.98-9.69,24.86,15.96-11.64,18.29-15.35,22.41-27.74,4.12-12.39,9.73-23.3,36.84-25.79h0Zm0,0l-237.17,237.17h178.1s.2-5.22-7.26-6.22c5.68-2.24,5.56-9.78,5.56-9.78,0,0-12.11-2.46-17.71,10.09-25.84,1.45-53.69,1.97-53.69,1.97,0,0,32.75-3.64,39.73-16.62s12.51-45.17,34.88-52.72c-50.1,.48-74.57,9.12-86.52,67.76-38.78,1.62-70.26,.13-70.26,.13,0,0,10.38-16.49,17.04-19.12,6.67-2.63,40.71,5.79,58.35-20.92-16.92,3.99-35.27-3.73-48.72,4.47,32-27.72,41.9-37.98,61.7-41.8,19.8-3.82,74.49,5.75,97.09-10.18,22.61-15.92,31.88-47.59,31.88-47.59,0,0-33.69,21.53-52.91,17.54s-54.09,3.33-84.43,29.12c34.84-34.87,53.79-51.7,65.83-56.65,12.03-4.96,45.21-3.86,58.55-13.11,13.33-9.25,16.92-21.58,18.27-42.72-12.59,16.93-26.08,18.07-36.97,18.73s-18.98,5.92-24.86,9.69c11.64-15.96,15.35-18.29,27.74-22.41,12.39-4.12,23.3-9.73,25.79-36.84Zm-474.33,0l237.17,237.17H91.91s-.2-5.22,7.26-6.22c-5.68-2.24-5.56-9.78-5.56-9.78,0,0,12.11-2.46,17.71,10.09,25.84,1.45,53.69,1.97,53.69,1.97,0,0-32.75-3.64-39.73-16.62-6.98-12.98-12.51-45.17-34.88-52.72,50.1,.48,74.56,9.12,86.52,67.76,38.78,1.62,70.26,.13,70.26,.13,0,0-10.38-16.49-17.04-19.12-6.67-2.63-40.71,5.79-58.35-20.92,16.93,3.99,35.27-3.73,48.72,4.47-32-27.72-41.9-37.98-61.7-41.8-19.81-3.82-74.49,5.75-97.09-10.18-22.61-15.92-31.88-47.59-31.88-47.59,0,0,33.69,21.53,52.91,17.54,19.21-3.99,54.09,3.33,84.43,29.12-34.84-34.87-53.79-51.7-65.83-56.65-12.03-4.96-45.21-3.86-58.55-13.11-13.33-9.25-16.93-21.58-18.27-42.72,12.59,16.93,26.08,18.07,36.97,18.73s18.98,5.92,24.85,9.69c-11.64-15.96-15.35-18.29-27.73-22.41-12.39-4.12-23.3-9.73-25.79-36.84h0Zm0,0l237.17,237.17V91.91s-5.22-.2-6.22,7.26c-2.24-5.68-9.78-5.56-9.78-5.56,0,0-2.46,12.11,10.09,17.71,1.45,25.84,1.97,53.69,1.97,53.69,0,0-3.64-32.75-16.62-39.73-12.98-6.98-45.17-12.51-52.72-34.88,.48,50.1,9.12,74.57,67.76,86.52,1.62,38.78,.13,70.26,.13,70.26,0,0-16.49-10.38-19.12-17.04-2.63-6.67,5.79-40.71-20.92-58.35,3.99,16.92-3.73,35.27,4.47,48.72-27.72-32-37.98-41.9-41.8-61.7-3.82-19.8,5.75-74.49-10.18-97.09-15.92-22.61-47.59-31.88-47.59-31.88,0,0,21.53,33.69,17.54,52.91-3.99,19.21,3.33,54.09,29.12,84.43-34.87-34.84-51.7-53.79-56.65-65.83-4.96-12.03-3.86-45.21-13.11-58.55-9.25-13.33-21.58-16.92-42.72-18.27,16.93,12.59,18.07,26.08,18.73,36.97,.66,10.89,5.92,18.98,9.69,24.86-15.96-11.64-18.29-15.35-22.41-27.74s-9.73-23.3-36.84-25.79h0Zm0,474.33l237.17-237.17v178.1s-5.22,.2-6.22-7.26c-2.24,5.68-9.78,5.56-9.78,5.56,0,0-2.46-12.11,10.09-17.71,1.45-25.84,1.97-53.69,1.97-53.69,0,0-3.64,32.75-16.62,39.73-12.98,6.98-45.17,12.51-52.72,34.88,.48-50.1,9.12-74.56,67.76-86.52,1.62-38.78,.13-70.26,.13-70.26,0,0-16.49,10.38-19.12,17.04-2.63,6.67,5.79,40.71-20.92,58.35,3.99-16.93-3.73-35.27,4.47-48.72-27.72,32-37.98,41.9-41.8,61.7-3.82,19.81,5.75,74.49-10.18,97.09-15.92,22.61-47.59,31.88-47.59,31.88,0,0,21.53-33.69,17.54-52.91-3.99-19.21,3.33-54.09,29.12-84.43-34.87,34.84-51.7,53.79-56.65,65.83-4.96,12.03-3.86,45.21-13.11,58.55-9.25,13.33-21.58,16.93-42.72,18.27,16.93-12.59,18.07-26.08,18.73-36.97,.66-10.89,5.92-18.98,9.69-24.85-15.96,11.64-18.29,15.35-22.41,27.73s-9.73,23.3-36.84,25.79h0Zm0,0l237.17-237.17H91.91s-.2,5.22,7.26,6.22c-5.68,2.24-5.56,9.78-5.56,9.78,0,0,12.11,2.46,17.71-10.09,25.84-1.45,53.69-1.97,53.69-1.97,0,0-32.75,3.64-39.73,16.62-6.98,12.98-12.51,45.17-34.88,52.72,50.1-.48,74.56-9.12,86.52-67.76,38.78-1.62,70.26-.13,70.26-.13,0,0-10.38,16.49-17.04,19.12-6.67,2.63-40.71-5.79-58.35,20.92,16.93-3.99,35.27,3.73,48.72-4.47-32,27.72-41.9,37.98-61.7,41.8-19.81,3.82-74.49-5.75-97.09,10.18-22.61,15.92-31.88,47.59-31.88,47.59,0,0,33.69-21.53,52.91-17.54,19.21,3.99,54.09-3.33,84.43-29.12-34.84,34.87-53.79,51.7-65.83,56.65-12.03,4.96-45.21,3.86-58.55,13.11-13.34,9.25-16.93,21.58-18.27,42.72,12.59-16.93,26.08-18.07,36.97-18.73,10.89-.66,18.98-5.92,24.85-9.69-11.64,15.96-15.35,18.29-27.73,22.41-12.39,4.12-23.3,9.73-25.79,36.84h0Zm474.33,0l-237.17-237.17h178.1s.2,5.22-7.26,6.22c5.68,2.24,5.56,9.78,5.56,9.78,0,0-12.11,2.46-17.71-10.09-25.84-1.45-53.69-1.97-53.69-1.97,0,0,32.75,3.64,39.73,16.62,6.98,12.98,12.51,45.17,34.88,52.72-50.1-.48-74.57-9.12-86.52-67.76-38.78-1.62-70.26-.13-70.26-.13,0,0,10.38,16.49,17.04,19.12,6.67,2.63,40.71-5.79,58.35,20.92-16.92-3.99-35.27,3.73-48.72-4.47,32,27.72,41.9,37.98,61.7,41.8,19.8,3.82,74.49-5.75,97.09,10.18,22.61,15.92,31.88,47.59,31.88,47.59,0,0-33.69-21.53-52.91-17.54-19.21,3.99-54.09-3.33-84.43-29.12,34.84,34.87,53.79,51.7,65.83,56.65,12.03,4.96,45.21,3.86,58.55,13.11,13.33,9.25,16.92,21.58,18.27,42.72-12.59-16.93-26.08-18.07-36.97-18.73-10.89-.66-18.98-5.92-24.86-9.69,11.64,15.96,15.35,18.29,27.74,22.41,12.39,4.12,23.3,9.73,25.79,36.84h0Zm0,0l-237.17-237.17v178.1s5.22,.2,6.22-7.26c2.24,5.68,9.78,5.56,9.78,5.56,0,0,2.46-12.11-10.09-17.71-1.45-25.84-1.97-53.69-1.97-53.69,0,0,3.64,32.75,16.62,39.73,12.98,6.98,45.17,12.51,52.72,34.88-.48-50.1-9.12-74.56-67.76-86.52-1.62-38.78-.13-70.26-.13-70.26,0,0,16.49,10.38,19.12,17.04,2.63,6.67-5.79,40.71,20.92,58.35-3.99-16.93,3.73-35.27-4.47-48.72,27.72,32,37.98,41.9,41.8,61.7,3.82,19.81-5.75,74.49,10.18,97.09,15.92,22.61,47.59,31.88,47.59,31.88,0,0-21.53-33.69-17.54-52.91,3.99-19.21-3.33-54.09-29.12-84.43,34.87,34.84,51.7,53.79,56.65,65.83,4.96,12.03,3.86,45.21,13.11,58.55,9.25,13.33,21.58,16.93,42.72,18.27-16.93-12.59-18.07-26.08-18.73-36.97-.66-10.89-5.92-18.98-9.69-24.85,15.96,11.64,18.29,15.35,22.41,27.73,4.12,12.39,9.73,23.3,36.84,25.79Z"/></g><g id="path28511"><path class="cls-1" d="M361.31,164.11s9.21-28.6,8.55-47.42c-.66-18.82,.7-58.47,29.12-75.08-20.79,26.79-24.08,37.91-24.6,59.02-.53,21.11-1.01,51.68-13.07,63.48Zm14.58,14.58s28.6-9.21,47.42-8.55c18.82,.66,58.47-.7,75.08-29.12-26.79,20.79-37.91,24.08-59.02,24.6-21.11,.53-51.68,1.01-63.48,13.07Zm-211.78,0s-28.6-9.21-47.42-8.55c-18.82,.66-58.47-.7-75.08-29.12,26.79,20.79,37.91,24.08,59.02,24.6,21.11,.53,51.68,1.01,63.48,13.07Zm14.58-14.58s-9.21-28.6-8.55-47.42c.66-18.82-.7-58.47-29.12-75.08,20.79,26.79,24.08,37.91,24.6,59.02,.53,21.11,1.01,51.68,13.07,63.48Zm0,211.78s-9.21,28.6-8.55,47.42c.66,18.82-.7,58.47-29.12,75.08,20.79-26.79,24.08-37.91,24.6-59.02,.53-21.11,1.01-51.68,13.07-63.48h0Zm-14.58-14.58s-28.6,9.21-47.42,8.55-58.47,.7-75.08,29.12c26.79-20.79,37.91-24.08,59.02-24.6,21.11-.53,51.68-1.01,63.48-13.07h0Zm211.78,0s28.6,9.21,47.42,8.55,58.47,.7,75.08,29.12c-26.79-20.79-37.91-24.08-59.02-24.6-21.11-.53-51.68-1.01-63.48-13.07h0Zm-14.58,14.58s9.21,28.6,8.55,47.42c-.66,18.82,.7,58.47,29.12,75.08-20.79-26.79-24.08-37.91-24.6-59.02-.53-21.11-1.01-51.68-13.07-63.48h0Z"/></g><g id="path28513"><path class="cls-1" d="M467.14,26.57s-20.09,9.31-24.91,21.3c-4.82,11.99-1.75,36.1-9.52,50.7,8.9-12.35,9.21-31.6,10.22-40.16,1.01-8.56,11.58-26.83,24.21-31.84Zm46.3,46.3s-9.31,20.09-21.3,24.91c-11.99,4.82-36.1,1.75-50.7,9.52,12.35-8.9,31.6-9.21,40.16-10.22,8.56-1.01,26.83-11.58,31.84-24.21Zm-486.86,0s9.31,20.09,21.3,24.91,36.1,1.75,50.7,9.52c-12.35-8.9-31.6-9.21-40.16-10.22-8.56-1.01-26.83-11.58-31.84-24.21ZM72.87,26.57s20.09,9.31,24.91,21.3c4.82,11.99,1.75,36.1,9.52,50.7-8.9-12.35-9.21-31.6-10.22-40.16-1.01-8.56-11.58-26.83-24.21-31.84Zm0,486.86s20.09-9.31,24.91-21.3c4.82-11.99,1.75-36.1,9.52-50.7-8.9,12.35-9.21,31.6-10.22,40.16s-11.58,26.83-24.21,31.84h0Zm-46.3-46.3s9.31-20.09,21.3-24.91,36.1-1.75,50.7-9.52c-12.35,8.9-31.6,9.21-40.16,10.22-8.56,1.01-26.83,11.58-31.84,24.21h0Zm486.86,0s-9.31-20.09-21.3-24.91c-11.99-4.82-36.1-1.75-50.7-9.52,12.35,8.9,31.6,9.21,40.16,10.22,8.56,1.01,26.83,11.58,31.84,24.21h0Zm-46.3,46.3s-20.09-9.31-24.91-21.3c-4.82-11.99-1.75-36.1-9.52-50.7,8.9,12.35,9.21,31.6,10.22,40.16s11.58,26.83,24.21,31.84h0Z"/></g><g id="path28515"><path class="cls-2" d="M404.09,73.11s-5.89-20.25,9.12-27.4c5.46,13.98-.15,29.38-.15,29.38l-8.96-1.98Zm62.81,62.81s20.25,5.89,27.4-9.12c-13.98-5.46-29.38,.16-29.38,.16l1.98,8.96Zm-393.79,0s-20.25,5.89-27.39-9.12c13.98-5.46,29.38,.15,29.38,.15l-1.98,8.96Zm62.81-62.81s5.89-20.25-9.12-27.4c-5.46,13.98,.16,29.38,.16,29.38l8.96-1.98Zm0,393.79s5.89,20.25-9.12,27.39c-5.46-13.98,.16-29.38,.16-29.38l8.96,1.98Zm-62.81-62.81s-20.25-5.89-27.39,9.12c13.98,5.46,29.38-.16,29.38-.16l-1.98-8.96Zm393.79,0s20.25-5.89,27.4,9.12c-13.98,5.46-29.38-.16-29.38-.16l1.98-8.96Zm-62.81,62.81s-5.89,20.25,9.12,27.39c5.46-13.98-.15-29.38-.15-29.38l-8.96,1.98Z"/></g><g id="path28517"><path class="cls-1" d="M277.23,169.27s6.18-16.25,18.42-25.92,31.8-22.69,41.1-37.12c-3.38,14.32-25.13,31.48-33.95,37.72-8.82,6.23-21.49,16.65-25.57,25.33h0Zm93.5,93.5s16.25-6.18,25.92-18.42c9.67-12.24,22.69-31.8,37.12-41.1-14.32,3.38-31.48,25.13-37.72,33.95-6.23,8.82-16.65,21.49-25.33,25.57h0Zm-201.46,0s-16.25-6.18-25.92-18.42c-9.67-12.24-22.68-31.8-37.12-41.1,14.32,3.38,31.48,25.13,37.72,33.95,6.23,8.82,16.65,21.49,25.33,25.57h0Zm93.5-93.5s-6.18-16.25-18.42-25.92-31.8-22.69-41.1-37.12c3.38,14.32,25.13,31.48,33.95,37.72,8.82,6.23,21.49,16.65,25.57,25.33h0Zm0,201.46s-6.18,16.25-18.42,25.92c-12.24,9.67-31.8,22.68-41.1,37.12,3.38-14.32,25.13-31.48,33.95-37.72,8.82-6.23,21.49-16.65,25.57-25.33h0Zm-93.5-93.5s-16.25,6.18-25.92,18.42c-9.67,12.24-22.68,31.8-37.12,41.1,14.32-3.38,31.48-25.13,37.72-33.95,6.23-8.82,16.65-21.49,25.33-25.57h0Zm201.46,0s16.25,6.18,25.92,18.42c9.67,12.24,22.69,31.8,37.12,41.1-14.32-3.38-31.48-25.13-37.72-33.95-6.23-8.82-16.65-21.49-25.33-25.57h0Zm-93.5,93.5s6.18,16.25,18.42,25.92c12.24,9.67,31.8,22.68,41.1,37.12-3.38-14.32-25.13-31.48-33.95-37.72-8.82-6.23-21.49-16.65-25.57-25.33h0Z"/></g><g id="path28519"><path class="cls-3" d="M406.76,79.55s.53,39.06-10.2,55.63c6.67-6.47,8.62-7.89,8.62-7.89,0,0,5.43-34.68,4.99-47.54,4.43-.08,5.33-7.42,5.33-7.42,0,0-7.04-2.59-11.2-1.51-4.16,1.12-1.12,4.99,2.45,8.73Zm53.7,53.7s-39.06-.53-55.63,10.2c6.47-6.67,7.89-8.62,7.89-8.62,0,0,34.68-5.43,47.54-4.99,.08-4.43,7.42-5.33,7.42-5.33,0,0,2.59,7.04,1.51,11.2-1.12,4.16-4.99,1.12-8.73-2.45Zm-380.9,0s39.06-.53,55.63,10.2c-6.47-6.67-7.89-8.62-7.89-8.62,0,0-34.68-5.43-47.54-4.99-.08-4.43-7.42-5.33-7.42-5.33,0,0-2.59,7.04-1.51,11.2,1.12,4.16,4.99,1.12,8.73-2.45Zm53.7-53.7s-.53,39.06,10.2,55.63c-6.67-6.47-8.62-7.89-8.62-7.89,0,0-5.43-34.68-4.99-47.54-4.43-.08-5.33-7.42-5.33-7.42,0,0,7.04-2.59,11.2-1.51,4.16,1.12,1.12,4.99-2.45,8.73Zm0,380.9s-.53-39.06,10.2-55.63c-6.67,6.47-8.62,7.89-8.62,7.89,0,0-5.43,34.68-4.99,47.54-4.43,.08-5.33,7.42-5.33,7.42,0,0,7.04,2.59,11.2,1.51,4.16-1.12,1.12-4.99-2.45-8.73h0Zm-53.7-53.7s39.06,.53,55.63-10.2c-6.47,6.67-7.89,8.62-7.89,8.62,0,0-34.68,5.43-47.54,4.99-.08,4.43-7.42,5.33-7.42,5.33,0,0-2.59-7.04-1.51-11.2,1.12-4.16,4.99-1.12,8.73,2.45h0Zm380.9,0s-39.06,.53-55.63-10.2c6.47,6.67,7.89,8.62,7.89,8.62,0,0,34.68,5.43,47.54,4.99,.08,4.43,7.42,5.33,7.42,5.33,0,0,2.59-7.04,1.51-11.2-1.12-4.16-4.99-1.12-8.73,2.45h0Zm-53.7,53.7s.53-39.06-10.2-55.63c6.67,6.47,8.62,7.89,8.62,7.89,0,0,5.43,34.68,4.99,47.54,4.43,.08,5.33,7.42,5.33,7.42,0,0-7.04,2.59-11.2,1.51-4.16-1.12-1.12-4.99,2.45-8.73h0Z"/></g><g id="path28521"><path class="cls-2" d="M342.41,149.54s-13.15,6.97-13.58,18.69c-.43,11.72,11.32,6.42,13.18-.25,1.86-6.67,.4-18.44,.4-18.44h0Zm48.05,48.05s-6.97,13.15-18.69,13.58c-11.72,.43-6.42-11.32,.25-13.18,6.67-1.86,18.44-.4,18.44-.4h0Zm-240.92,0s6.97,13.15,18.69,13.58c11.72,.43,6.42-11.32-.25-13.18-6.67-1.86-18.44-.4-18.44-.4h0Zm48.05-48.05s13.15,6.97,13.58,18.69c.43,11.72-11.32,6.42-13.18-.25-1.86-6.67-.4-18.44-.4-18.44h0Zm0,240.92s13.15-6.97,13.58-18.69c.43-11.72-11.32-6.42-13.18,.25-1.86,6.67-.4,18.44-.4,18.44h0Zm-48.05-48.05s6.97-13.15,18.69-13.58c11.72-.43,6.42,11.32-.25,13.18-6.67,1.86-18.44,.4-18.44,.4h0Zm240.92,0s-6.97-13.15-18.69-13.58c-11.72-.43-6.42,11.32,.25,13.18,6.67,1.86,18.44,.4,18.44,.4h0Zm-48.05,48.05s-13.15-6.97-13.58-18.69c-.43-11.72,11.32-6.42,13.18,.25,1.86,6.67,.4,18.44,.4,18.44h0Z"/></g><g id="path28523"><path class="cls-3" d="M328.24,169.4s8.09,.06,10.02,5.41c-2.79,3.4-6.2,3.49-6.2,3.49,0,0-7.32,14.84-4.87,26.98-1.92,.7-4.81,3.77-4.81,3.77,0,0-1.64-18.61,6.2-30.83-2.17-3.93-3.81-7.48-.34-8.82h0Zm42.36,42.36s-.06-8.09-5.41-10.02c-3.4,2.79-3.49,6.2-3.49,6.2,0,0-14.84,7.32-26.98,4.87-.7,1.92-3.77,4.81-3.77,4.81,0,0,18.61,1.64,30.83-6.2,3.93,2.17,7.48,3.81,8.82,.34h0Zm-201.2,0s.06-8.09,5.41-10.02c3.4,2.79,3.49,6.2,3.49,6.2,0,0,14.84,7.32,26.98,4.87,.7,1.92,3.77,4.81,3.77,4.81,0,0-18.61,1.64-30.83-6.2-3.93,2.17-7.48,3.81-8.82,.34h0Zm42.36-42.36s-8.09,.06-10.02,5.41c2.79,3.4,6.2,3.49,6.2,3.49,0,0,7.32,14.84,4.87,26.98,1.92,.7,4.81,3.77,4.81,3.77,0,0,1.64-18.61-6.2-30.83,2.17-3.93,3.81-7.48,.34-8.82h0Zm0,201.2s-8.09-.06-10.02-5.41c2.79-3.4,6.2-3.49,6.2-3.49,0,0,7.32-14.84,4.87-26.98,1.92-.7,4.81-3.77,4.81-3.77,0,0,1.64,18.61-6.2,30.83,2.17,3.93,3.81,7.48,.34,8.82h0Zm-42.36-42.36s.06,8.09,5.41,10.02c3.4-2.79,3.49-6.2,3.49-6.2,0,0,14.84-7.32,26.98-4.87,.7-1.92,3.77-4.81,3.77-4.81,0,0-18.61-1.64-30.83,6.2-3.93-2.17-7.48-3.81-8.82-.34h0Zm201.2,0s-.06,8.09-5.41,10.02c-3.4-2.79-3.49-6.2-3.49-6.2,0,0-14.84-7.32-26.98-4.87-.7-1.92-3.77-4.81-3.77-4.81,0,0,18.61-1.64,30.83,6.2,3.93-2.17,7.48-3.81,8.82-.34h0Zm-42.36,42.36s8.09-.06,10.02-5.41c-2.79-3.4-6.2-3.49-6.2-3.49,0,0-7.32-14.84-4.87-26.98-1.92-.7-4.81-3.77-4.81-3.77,0,0-1.64,18.61,6.2,30.83-2.17,3.93-3.81,7.48-.34,8.82h0Z"/></g></g></g></svg>