<?xml version="1.0" encoding="UTF-8"?><svg id="Layer_2" xmlns="http://www.w3.org/2000/svg" viewBox="0 0 540 540"><defs><style>.cls-1{fill:#e9e9e2;}.cls-2{fill:#cf962b;}.cls-3{fill:#b0761e;}.cls-4{fill:#605277;}</style></defs><g id="OBJECTS"><g id="g30109"><g id="path30055"><path class="cls-1" d="M270,270L540,0H270s0,270,0,270Zm0,0L540,0V270s-270.01,0-270.01,0Zm0,0L0,0V270s270,0,270,0Zm0,0L0,0H270s0,270,0,270Zm0,0L0,540H270s0-270,0-270Zm0,0L0,540V270s270,0,270,0Zm0,0l270.01,270V270s-270.01,0-270.01,0Zm0,0l270,270H270s0-270,0-270Z"/></g><g id="path30057"><path class="cls-3" d="M402.34,137.66l52.39-52.39s-1.46-13.25-13.06-5.81c.78-10.94-3.54-15.51-11.72-11.19-7.78-9.96-12.44-8.09-16.62-.98-7.72-5.72-13.46,2.46-14.2,7.59-.74,5.13,11.01,17.32,11.44,29.18,.43,11.86-11.99,22.05-8.23,33.59Zm0,0l52.39-52.39s13.25,1.46,5.81,13.06c10.94-.78,15.51,3.54,11.19,11.72,9.96,7.78,8.09,12.44,.98,16.62,5.72,7.72-2.46,13.46-7.59,14.2-5.13,.74-17.32-11.01-29.18-11.44-11.86-.43-22.05,11.99-33.59,8.23Zm-264.68,0l-52.39-52.39s-13.25,1.46-5.81,13.06c-10.94-.78-15.51,3.54-11.19,11.72-9.96,7.78-8.09,12.44-.98,16.62-5.72,7.72,2.45,13.46,7.59,14.2,5.13,.74,17.32-11.01,29.18-11.44,11.86-.43,22.05,11.99,33.59,8.23Zm0,0l-52.39-52.39s1.46-13.25,13.06-5.81c-.78-10.94,3.54-15.51,11.72-11.19,7.78-9.96,12.44-8.09,16.62-.98,7.72-5.72,13.46,2.46,14.2,7.59,.74,5.13-11.01,17.32-11.44,29.18-.43,11.86,11.99,22.05,8.23,33.59Zm0,264.68l-52.39,52.39s1.46,13.25,13.06,5.81c-.78,10.94,3.54,15.51,11.72,11.19,7.78,9.96,12.44,8.09,16.62,.98,7.72,5.72,13.46-2.45,14.2-7.59,.74-5.13-11.01-17.32-11.44-29.18-.43-11.86,11.99-22.05,8.23-33.59h0Zm0,0l-52.39,52.39s-13.25-1.46-5.81-13.06c-10.94,.78-15.51-3.54-11.19-11.72-9.96-7.78-8.09-12.44-.98-16.62-5.72-7.72,2.45-13.46,7.59-14.2,5.13-.74,17.32,11.01,29.18,11.44,11.86,.43,22.05-11.99,33.59-8.23h0Zm264.68,0l52.39,52.39s13.25-1.46,5.81-13.06c10.94,.78,15.51-3.54,11.19-11.72,9.96-7.78,8.09-12.44,.98-16.62,5.72-7.72-2.46-13.46-7.59-14.2-5.13-.74-17.32,11.01-29.18,11.44-11.86,.43-22.05-11.99-33.59-8.23h0Zm0,0l52.39,52.39s-1.46,13.25-13.06,5.81c.78,10.94-3.54,15.51-11.72,11.19-7.78,9.96-12.44,8.09-16.62,.98-7.72,5.72-13.46-2.45-14.2-7.59-.74-5.13,11.01-17.32,11.44-29.18,.43-11.86-11.99-22.05-8.23-33.59h0Z"/></g><g id="path30059"><path class="cls-2" d="M441.09,98.72l-38.75,38.95s-2.75-13.93,3.42-23.08c6.17-9.15-5.18-31.47-5.4-37.35-.22-5.89,8.19-8.73,12.68-4.46,4.5,4.27,2.48,9.76,2.48,9.76,0,0,7.54-3.32,11.07,2.54,3.54,5.86-.74,9.93-.74,9.93,0,0,11.86-11.39,15.23,3.72Zm.2,.2l-38.95,38.75s13.93,2.75,23.08-3.42c9.15-6.17,31.47,5.18,37.35,5.4,5.89,.22,8.73-8.19,4.46-12.68-4.27-4.5-9.76-2.48-9.76-2.48,0,0,3.32-7.54-2.54-11.07-5.86-3.54-9.93,.74-9.93,.74,0,0,11.39-11.86-3.72-15.23Zm-342.57,0l38.95,38.75s-13.93,2.75-23.08-3.42c-9.15-6.17-31.47,5.18-37.35,5.4-5.89,.22-8.73-8.19-4.46-12.68,4.27-4.5,9.76-2.48,9.76-2.48,0,0-3.32-7.54,2.54-11.07,5.86-3.54,9.93,.74,9.93,.74,0,0-11.39-11.86,3.72-15.23h0Zm.2-.2l38.75,38.95s2.75-13.93-3.42-23.08c-6.17-9.15,5.18-31.47,5.4-37.35,.22-5.89-8.19-8.73-12.68-4.46-4.5,4.27-2.48,9.76-2.48,9.76,0,0-7.54-3.32-11.07,2.54-3.54,5.86,.74,9.93,.74,9.93,0,0-11.86-11.39-15.23,3.72Zm0,342.57l38.75-38.95s2.75,13.93-3.42,23.08c-6.17,9.15,5.18,31.47,5.4,37.35,.22,5.89-8.19,8.73-12.68,4.46-4.5-4.27-2.48-9.76-2.48-9.76,0,0-7.54,3.32-11.07-2.54-3.54-5.86,.74-9.93,.74-9.93,0,0-11.86,11.39-15.23-3.72Zm-.2-.2l38.95-38.75s-13.93-2.75-23.08,3.42c-9.15,6.17-31.47-5.18-37.35-5.4-5.89-.22-8.73,8.19-4.46,12.68,4.27,4.5,9.76,2.48,9.76,2.48,0,0-3.32,7.54,2.54,11.07,5.86,3.54,9.93-.74,9.93-.74,0,0-11.39,11.86,3.72,15.23Zm342.57,0l-38.95-38.75s13.93-2.75,23.08,3.42c9.15,6.17,31.47-5.18,37.35-5.4,5.89-.22,8.73,8.19,4.46,12.68s-9.76,2.48-9.76,2.48c0,0,3.32,7.54-2.54,11.07-5.86,3.54-9.93-.74-9.93-.74,0,0,11.39,11.86-3.72,15.23Zm-.2,.2l-38.75-38.95s-2.75,13.93,3.42,23.08c6.17,9.15-5.18,31.47-5.4,37.35-.22,5.89,8.19,8.73,12.68,4.46,4.5-4.27,2.48-9.76,2.48-9.76,0,0,7.54,3.32,11.07-2.54,3.54-5.86-.74-9.93-.74-9.93,0,0,11.86,11.39,15.23-3.72Z"/></g><g id="path30061"><path class="cls-4" d="M410.29,129.75s-3.47-3.6-8.32-3.87c-3.51,6.01-3.53,12.2-3.53,12.2l-35.08,33.06-.12,5.63,47.05-47.01Zm-.04-.04s3.6,3.47,3.87,8.32c-6.01,3.51-12.2,3.53-12.2,3.53l-33.06,35.08-5.63,.12,47.01-47.05Zm-280.5,0s-3.6,3.47-3.87,8.32c6.01,3.51,12.2,3.53,12.2,3.53l33.06,35.08,5.63,.12-47.01-47.05Zm-.04,.04s3.47-3.6,8.32-3.87c3.51,6.01,3.53,12.2,3.53,12.2l35.08,33.06,.12,5.63-47.05-47.01Zm0,280.5s3.47,3.6,8.32,3.87c3.51-6.01,3.53-12.2,3.53-12.2l35.08-33.06,.12-5.63-47.05,47.01Zm.04,.04s-3.6-3.47-3.87-8.32c6.01-3.51,12.2-3.53,12.2-3.53l33.06-35.08,5.63-.12-47.01,47.05Zm280.5,0s3.6-3.47,3.87-8.32c-6.01-3.51-12.2-3.53-12.2-3.53l-33.06-35.08-5.63-.12,47.01,47.05Zm.04-.04s-3.47,3.6-8.32,3.87c-3.51-6.01-3.53-12.2-3.53-12.2l-35.08-33.06-.12-5.63,47.05,47.01Z"/></g><g id="path30063"><path class="cls-4" d="M274.12,258.04s-7.15-105.69,7.54-136.03c14.69-30.34,44.08-54.25,82.45-44.19,38.38,10.06,34.91,46.87,24.52,55.31-10.39,8.44-34.82,3.67-34.56-7.3,.26-10.97,7.11-16.29,15.09-12.74,7.98,3.55-1.18,14.48-1.18,14.48,0,0,8.55,5.21,16.45-3.12,7.89-8.32,1.62-34.95-21.71-40.12-23.33-5.17-51.71,15.54-65.74,35.59-14.03,20.04-24.39,102.38-22.85,138.12h0Zm7.84,7.84s105.69,7.15,136.03-7.54c30.34-14.69,54.25-44.08,44.19-82.45-10.06-38.38-46.87-34.91-55.31-24.52-8.44,10.39-3.67,34.82,7.3,34.56,10.97-.26,16.29-7.11,12.74-15.09-3.55-7.98-14.48,1.18-14.48,1.18,0,0-5.21-8.55,3.12-16.45,8.32-7.89,34.95-1.62,40.12,21.71,5.17,23.33-15.54,51.71-35.59,65.74-20.04,14.03-102.38,24.39-138.12,22.85h0Zm-23.92,0s-105.69,7.15-136.03-7.54c-30.34-14.69-54.25-44.08-44.19-82.45,10.06-38.38,46.87-34.91,55.31-24.52,8.44,10.39,3.67,34.82-7.3,34.56s-16.29-7.11-12.74-15.09c3.55-7.98,14.48,1.18,14.48,1.18,0,0,5.21-8.55-3.12-16.45-8.32-7.89-34.95-1.62-40.12,21.71-5.17,23.33,15.54,51.71,35.59,65.74,20.04,14.03,102.38,24.39,138.12,22.85h0Zm7.84-7.84s7.15-105.69-7.54-136.03c-14.69-30.34-44.08-54.25-82.45-44.19-38.38,10.06-34.91,46.87-24.52,55.31,10.39,8.44,34.82,3.67,34.56-7.3-.26-10.97-7.11-16.29-15.09-12.74-7.98,3.55,1.18,14.48,1.18,14.48,0,0-8.55,5.21-16.45-3.12-7.89-8.32-1.62-34.95,21.71-40.12,23.33-5.17,51.71,15.54,65.74,35.59,14.03,20.04,24.39,102.38,22.85,138.12h0Zm0,23.92s7.15,105.69-7.54,136.03c-14.69,30.34-44.08,54.25-82.45,44.19-38.38-10.06-34.91-46.87-24.52-55.31,10.39-8.44,34.82-3.67,34.56,7.3-.26,10.97-7.11,16.29-15.09,12.74-7.98-3.55,1.18-14.48,1.18-14.48,0,0-8.55-5.21-16.45,3.12-7.89,8.32-1.62,34.95,21.71,40.12,23.33,5.17,51.71-15.54,65.74-35.59,14.03-20.04,24.39-102.38,22.85-138.12Zm-7.84-7.84s-105.69-7.15-136.03,7.54c-30.34,14.69-54.25,44.08-44.19,82.45,10.06,38.38,46.87,34.91,55.31,24.52,8.44-10.39,3.67-34.82-7.3-34.56-10.97,.26-16.29,7.11-12.74,15.09,3.55,7.98,14.48-1.18,14.48-1.18,0,0,5.21,8.55-3.12,16.45s-34.95,1.62-40.12-21.71c-5.17-23.33,15.54-51.71,35.59-65.74,20.04-14.03,102.38-24.39,138.12-22.85h0Zm23.92,0s105.69-7.15,136.03,7.54c30.34,14.69,54.25,44.08,44.19,82.45-10.06,38.38-46.87,34.91-55.31,24.52s-3.67-34.82,7.3-34.56c10.97,.26,16.29,7.11,12.74,15.09-3.55,7.98-14.48-1.18-14.48-1.18,0,0-5.21,8.55,3.12,16.45s34.95,1.62,40.12-21.71c5.17-23.33-15.54-51.71-35.59-65.74-20.04-14.03-102.38-24.39-138.12-22.85h0Zm-7.84,7.84s-7.15,105.69,7.54,136.03c14.69,30.34,44.08,54.25,82.45,44.19,38.38-10.06,34.91-46.87,24.52-55.31-10.39-8.44-34.82-3.67-34.56,7.3,.26,10.97,7.11,16.29,15.09,12.74,7.98-3.55-1.18-14.48-1.18-14.48,0,0,8.55-5.21,16.45,3.12,7.89,8.32,1.62,34.95-21.71,40.12-23.33,5.17-51.71-15.54-65.74-35.59-14.03-20.04-24.39-102.38-22.85-138.12h0Z"/></g><g id="path30065"><path class="cls-2" d="M278.77,248.65s-2.37-53.65,10.75-71.57c13.11-17.91,34.43-23.67,34.43-23.67,0,0-21.05,21.46-19.21,41.39,1.84,19.92-17.02,44.82-25.96,53.85Zm12.58,12.58s53.66,2.37,71.57-10.75c17.91-13.11,23.67-34.43,23.67-34.43,0,0-21.46,21.05-41.39,19.21-19.92-1.84-44.82,17.02-53.85,25.96Zm-42.69,0s-53.66,2.37-71.57-10.75c-17.91-13.11-23.67-34.43-23.67-34.43,0,0,21.46,21.05,41.39,19.21,19.92-1.84,44.82,17.02,53.85,25.96Zm12.58-12.58s2.37-53.65-10.75-71.57c-13.11-17.91-34.43-23.67-34.43-23.67,0,0,21.05,21.46,19.21,41.39-1.84,19.92,17.02,44.82,25.96,53.85Zm0,42.7s2.37,53.66-10.75,71.57c-13.11,17.91-34.43,23.67-34.43,23.67,0,0,21.05-21.46,19.21-41.39-1.84-19.92,17.02-44.82,25.96-53.85Zm-12.58-12.58s-53.66-2.37-71.57,10.75c-17.91,13.11-23.67,34.43-23.67,34.43,0,0,21.46-21.05,41.39-19.21,19.92,1.84,44.82-17.02,53.85-25.96Zm42.69,0s53.66-2.37,71.57,10.75c17.91,13.11,23.67,34.43,23.67,34.43,0,0-21.46-21.05-41.39-19.21-19.92,1.84-44.82-17.02-53.85-25.96h0Zm-12.58,12.58s-2.37,53.66,10.75,71.57c13.11,17.91,34.43,23.67,34.43,23.67,0,0-21.05-21.46-19.21-41.39,1.84-19.92-17.02-44.82-25.96-53.85h0Z"/></g><g id="path30067"><path class="cls-2" d="M369.73,170.28l-85.49,85.48s19.87-22.1,26.34-43.99c6.47-21.9,20.19-54.92,59.15-41.49h0Zm0,0l-85.48,85.49s22.1-19.87,43.99-26.34c21.9-6.47,54.92-20.19,41.49-59.15h0Zm-199.44,0l85.48,85.49s-22.1-19.87-43.99-26.34c-21.9-6.47-54.92-20.19-41.49-59.15h0Zm0,0l85.49,85.48s-19.87-22.1-26.34-43.99c-6.47-21.9-20.19-54.92-59.15-41.49h0Zm0,199.44l85.49-85.48s-19.87,22.1-26.34,43.99c-6.47,21.9-20.19,54.92-59.15,41.49h0Zm0,0l85.48-85.49s-22.1,19.87-43.99,26.34c-21.9,6.47-54.92,20.19-41.49,59.15h0Zm199.44,0l-85.48-85.49s22.1,19.87,43.99,26.34c21.9,6.47,54.92,20.19,41.49,59.15h0Zm0,0l-85.49-85.48s19.87,22.1,26.34,43.99c6.47,21.9,20.19,54.92,59.15,41.49h0Z"/></g><g id="path30069"><path class="cls-4" d="M363.24,176.76l-60.87,60.87s13.54-22.52,20.09-35.66,19.46-29.66,40.77-25.21Zm0,0l-60.87,60.87s22.52-13.54,35.66-20.09,29.66-19.46,25.21-40.77Zm-186.49,0l60.87,60.87s-22.52-13.54-35.66-20.09c-13.14-6.56-29.66-19.46-25.21-40.77h0Zm0,0l60.87,60.87s-13.54-22.52-20.09-35.66c-6.56-13.14-19.46-29.66-40.77-25.21h0Zm0,186.49l60.87-60.87s-13.54,22.52-20.09,35.66c-6.56,13.14-19.46,29.66-40.77,25.21Zm0,0l60.87-60.87s-22.52,13.54-35.66,20.09c-13.14,6.56-29.66,19.46-25.21,40.77Zm186.49,0l-60.87-60.87s22.52,13.54,35.66,20.09c13.14,6.56,29.66,19.46,25.21,40.77Zm0,0l-60.87-60.87s13.54,22.52,20.09,35.66c6.56,13.14,19.46,29.66,40.77,25.21Z"/></g><g id="path30071"><path class="cls-4" d="M308.5,165.3s-16.56,13.1-20.94,24.54c-4.39,11.44-3.33,40.66-5.26,47.36,9.85-18.38,15.66-28.84,17.02-40.42,1.36-11.58,3.33-25.11,9.19-31.48Zm66.21,66.21s-13.1,16.56-24.54,20.94c-11.44,4.39-40.66,3.33-47.36,5.26,18.38-9.85,28.84-15.66,40.42-17.02,11.58-1.36,25.11-3.33,31.48-9.19Zm-209.41,0s13.1,16.56,24.54,20.94c11.44,4.39,40.66,3.33,47.36,5.26-18.38-9.85-28.84-15.66-40.42-17.02-11.58-1.36-25.11-3.33-31.48-9.19Zm66.21-66.21s16.56,13.1,20.94,24.54c4.39,11.44,3.33,40.66,5.26,47.36-9.85-18.38-15.66-28.84-17.02-40.42-1.36-11.58-3.33-25.11-9.19-31.48Zm0,209.41s16.56-13.1,20.94-24.54c4.39-11.44,3.33-40.66,5.26-47.36-9.85,18.38-15.66,28.84-17.02,40.42-1.36,11.58-3.33,25.11-9.19,31.48Zm-66.21-66.21s13.1-16.56,24.54-20.94c11.44-4.39,40.66-3.33,47.36-5.26-18.38,9.85-28.84,15.66-40.42,17.02-11.58,1.36-25.11,3.33-31.48,9.19Zm209.41,0s-13.1-16.56-24.54-20.94c-11.44-4.39-40.66-3.33-47.36-5.26,18.38,9.85,28.84,15.66,40.42,17.02,11.58,1.36,25.11,3.33,31.48,9.19Zm-66.21,66.21s-16.56-13.1-20.94-24.54c-4.39-11.44-3.33-40.66-5.26-47.36,9.85,18.38,15.66,28.84,17.02,40.42,1.36,11.58,3.33,25.11,9.19,31.48Z"/></g><g id="path30073"><path class="cls-4" d="M275.51,157.15s1.89-55.71,18.55-84.03c16.67-28.33,42.63-44.15,90.04-41.15,47.41,3,115.44-6.59,135.17-15.27-22.67,14.08-74.82,19.84-94.21,20.52-19.39,.67-60.74-3.59-81.97,4.02-21.23,7.61-47.06,20.04-59.56,85.61-5.92,26.75-8.03,30.3-8.03,30.3Zm107.35,107.35s55.71-1.89,84.03-18.55c28.33-16.67,44.15-42.63,41.15-90.04-3-47.41,6.59-115.44,15.27-135.17-14.08,22.68-19.84,74.82-20.52,94.21-.67,19.39,3.59,60.74-4.02,81.97-7.61,21.23-20.04,47.06-85.61,59.56-26.75,5.92-30.3,8.03-30.3,8.03h0Zm-225.71,0s-55.71-1.89-84.03-18.55c-28.33-16.67-44.15-42.63-41.15-90.04,3-47.41-6.59-115.44-15.27-135.17,14.08,22.68,19.84,74.82,20.52,94.21,.67,19.39-3.59,60.74,4.02,81.97,7.61,21.23,20.04,47.06,85.61,59.56,26.75,5.92,30.3,8.03,30.3,8.03Zm107.35-107.35s-1.89-55.71-18.55-84.03c-16.67-28.33-42.63-44.15-90.04-41.15-47.41,3-115.44-6.59-135.17-15.27,22.67,14.08,74.82,19.84,94.21,20.52,19.39,.67,60.74-3.59,81.97,4.02,21.23,7.61,47.06,20.04,59.56,85.61,5.92,26.75,8.03,30.3,8.03,30.3Zm0,225.71s-1.89,55.71-18.55,84.03c-16.67,28.33-42.63,44.15-90.04,41.15-47.41-3-115.44,6.59-135.17,15.27,22.67-14.08,74.82-19.84,94.21-20.52,19.39-.67,60.74,3.59,81.97-4.02,21.23-7.61,47.06-20.04,59.56-85.61,5.92-26.75,8.03-30.3,8.03-30.3Zm-107.35-107.35s-55.71,1.89-84.03,18.55c-28.33,16.67-44.15,42.63-41.15,90.04,3,47.41-6.59,115.44-15.27,135.17,14.08-22.67,19.84-74.82,20.52-94.21,.67-19.39-3.59-60.74,4.02-81.97,7.61-21.23,20.04-47.06,85.61-59.56,26.75-5.92,30.3-8.03,30.3-8.03Zm225.71,0s55.71,1.89,84.03,18.55c28.33,16.67,44.15,42.63,41.15,90.04-3,47.41,6.59,115.44,15.27,135.17-14.08-22.67-19.84-74.82-20.52-94.21-.67-19.39,3.59-60.74-4.02-81.97-7.61-21.23-20.04-47.06-85.61-59.56-26.75-5.92-30.3-8.03-30.3-8.03h0Zm-107.35,107.35s1.89,55.71,18.55,84.03c16.67,28.33,42.63,44.15,90.04,41.15,47.41-3,115.44,6.59,135.17,15.27-22.67-14.08-74.82-19.84-94.21-20.52-19.39-.67-60.74,3.59-81.97-4.02-21.23-7.61-47.06-20.04-59.56-85.61-5.92-26.75-8.03-30.3-8.03-30.3h0Z"/></g><g id="path30075"><path class="cls-4" d="M298.22,74.96s27.19-26.24,47.28-12.23c-18.42,13.24-35.74,15.88-47.28,12.23Zm166.83,166.83s26.24-27.19,12.23-47.28c-13.24,18.42-15.88,35.74-12.23,47.28Zm-390.09,0s-26.24-27.19-12.23-47.28c13.24,18.42,15.88,35.74,12.23,47.28ZM241.78,74.96s-27.19-26.24-47.28-12.23c18.42,13.24,35.74,15.88,47.28,12.23Zm0,390.09s-27.19,26.24-47.28,12.23c18.42-13.24,35.74-15.88,47.28-12.23ZM74.96,298.22s-26.24,27.19-12.23,47.28c13.24-18.42,15.88-35.74,12.23-47.28Zm390.09,0s26.24,27.19,12.23,47.28c-13.24-18.42-15.88-35.74-12.23-47.28Zm-166.83,166.83s27.19,26.24,47.28,12.23c-18.42-13.24-35.74-15.88-47.28-12.23Z"/></g><g id="path30077"><path class="cls-4" d="M327.12,45.37s22.17,14.14,50.46,8.42c-16.93-13.63-36.38-11.62-50.46-8.42Zm167.52,167.52s-14.14-22.17-8.42-50.46c13.63,16.93,11.62,36.38,8.42,50.46Zm-449.27,0s14.14-22.17,8.42-50.46c-13.63,16.93-11.62,36.38-8.42,50.46ZM212.88,45.37s-22.17,14.14-50.46,8.42c16.93-13.63,36.38-11.62,50.46-8.42Zm0,449.27s-22.17-14.14-50.46-8.42c16.93,13.63,36.38,11.62,50.46,8.42ZM45.37,327.12s14.14,22.17,8.42,50.46c-13.63-16.93-11.62-36.38-8.42-50.46Zm449.27,0s-14.14,22.17-8.42,50.46c13.63-16.93,11.62-36.38,8.42-50.46Zm-167.52,167.52s22.17-14.14,50.46-8.42c-16.93,13.63-36.38,11.62-50.46,8.42Z"/></g><g id="path30079"><path class="cls-4" d="M373.31,36.45s4.96,19.41,33.49,21.86c-6.4-17.22-25.75-21.05-33.49-21.86Zm130.25,130.25s-19.41-4.96-21.86-33.49c17.22,6.4,21.05,25.75,21.86,33.49Zm-467.11,0s19.41-4.96,21.86-33.49c-17.22,6.4-21.05,25.74-21.86,33.49ZM166.7,36.45s-4.96,19.41-33.49,21.86c6.4-17.22,25.75-21.05,33.49-21.86Zm0,467.11s-4.96-19.41-33.49-21.86c6.4,17.22,25.74,21.05,33.49,21.86ZM36.45,373.31s19.41,4.96,21.86,33.49c-17.22-6.4-21.05-25.74-21.86-33.49Zm467.11,0s-19.41,4.96-21.86,33.49c17.22-6.4,21.05-25.74,21.86-33.49Zm-130.25,130.25s4.96-19.41,33.49-21.86c-6.4,17.22-25.75,21.05-33.49,21.86Z"/></g><g id="path30081"><path class="cls-4" d="M407.01,34.87s4.76,15.94,26.16,21.25c-3.18-15.5-19.1-19.79-26.16-21.25Zm98.12,98.12s-15.94-4.76-21.25-26.16c15.5,3.18,19.79,19.1,21.25,26.16Zm-470.26,0s15.94-4.76,21.25-26.16c-15.5,3.18-19.79,19.1-21.25,26.16ZM132.99,34.87s-4.76,15.94-26.16,21.25c3.18-15.5,19.1-19.79,26.16-21.25Zm0,470.26s-4.76-15.94-26.16-21.25c3.18,15.5,19.1,19.79,26.16,21.25Zm-98.12-98.12s15.94,4.76,21.25,26.16c-15.5-3.18-19.79-19.1-21.25-26.16Zm470.26,0s-15.94,4.76-21.25,26.16c15.5-3.18,19.79-19.1,21.25-26.16Zm-98.12,98.12s4.76-15.94,26.16-21.25c-3.18,15.5-19.1,19.79-26.16,21.25Z"/></g><g id="path30083"><path class="cls-4" d="M430.3,34.95s13.66,15.39,36.01,15.64c-10.66-14.22-26.12-16.18-36.01-15.64Zm74.75,74.75s-15.39-13.66-15.64-36.01c14.22,10.66,16.18,26.12,15.64,36.01Zm-470.1,0s15.39-13.66,15.64-36.01c-14.22,10.66-16.18,26.12-15.64,36.01ZM109.7,34.95s-13.66,15.39-36.01,15.64c10.66-14.22,26.12-16.18,36.01-15.64Zm0,470.1s-13.66-15.39-36.01-15.64c10.66,14.22,26.12,16.18,36.01,15.64Zm-74.75-74.75s15.39,13.66,15.64,36.01c-14.22-10.66-16.18-26.12-15.64-36.01Zm470.1,0s-15.39,13.66-15.64,36.01c14.22-10.66,16.18-26.12,15.64-36.01Zm-74.75,74.75s13.66-15.39,36.01-15.64c-10.66,14.22-26.12,16.18-36.01,15.64Z"/></g><g id="path30085"><path class="cls-4" d="M456.18,32.36s7.96,11.34,34.76,7.4c-12.5-9.55-28.22-8.6-34.76-7.4Zm51.46,51.46s-11.34-7.96-7.4-34.76c9.55,12.5,8.6,28.22,7.4,34.76Zm-475.28,0s11.34-7.96,7.4-34.76c-9.55,12.5-8.6,28.22-7.4,34.76Zm51.46-51.46s-7.96,11.34-34.76,7.4c12.5-9.55,28.22-8.6,34.76-7.4Zm0,475.28s-7.96-11.34-34.76-7.4c12.5,9.55,28.22,8.6,34.76,7.4Zm-51.46-51.46s11.34,7.96,7.4,34.76c-9.55-12.5-8.6-28.22-7.4-34.76Zm475.28,0s-11.34,7.96-7.4,34.76c9.55-12.5,8.6-28.22,7.4-34.76Zm-51.46,51.46s7.96-11.34,34.76-7.4c-12.5,9.55-28.22,8.6-34.76,7.4Z"/></g><g id="path30087"><path class="cls-4" d="M483.83,28.3s5.86,5.92,20.66,1.05c-4.36-4.26-16.64-2.05-20.66-1.05Zm27.87,27.87s-5.92-5.85-1.05-20.66c4.26,4.36,2.05,16.64,1.05,20.66Zm-483.4,0s5.92-5.85,1.05-20.66c-4.26,4.36-2.05,16.64-1.05,20.66Zm27.87-27.87s-5.86,5.92-20.66,1.05c4.36-4.26,16.64-2.05,20.66-1.05Zm0,483.4s-5.86-5.92-20.66-1.05c4.36,4.26,16.64,2.05,20.66,1.05Zm-27.87-27.87s5.92,5.86,1.05,20.66c-4.26-4.36-2.05-16.64-1.05-20.66Zm483.4,0s-5.92,5.86-1.05,20.66c4.26-4.36,2.05-16.64,1.05-20.66Zm-27.87,27.87s5.86-5.92,20.66-1.05c-4.36,4.26-16.64,2.05-20.66,1.05Z"/></g><g id="path30089"><path class="cls-4" d="M499.84,24s8.73-11.46,21.91-10.55c-3.22,9.35-8.9,10.14-21.91,10.55Zm16.16,16.16s11.46-8.73,10.55-21.91c-9.35,3.22-10.14,8.9-10.55,21.91Zm-492,0s-11.46-8.73-10.55-21.91c9.35,3.22,10.14,8.9,10.55,21.91Zm16.16-16.16s-8.73-11.46-21.91-10.55c3.22,9.35,8.9,10.14,21.91,10.55Zm0,492s-8.73,11.46-21.91,10.55c3.22-9.35,8.9-10.14,21.91-10.55Zm-16.16-16.16s-11.46,8.73-10.55,21.91c9.35-3.22,10.14-8.9,10.55-21.91Zm492,0s11.46,8.73,10.55,21.91c-9.35-3.22-10.14-8.9-10.55-21.91Zm-16.16,16.16s8.73,11.46,21.91,10.55c-3.22-9.35-8.9-10.14-21.91-10.55Z"/></g><g id="path30091"><path class="cls-4" d="M483.96,26.56s2.13-9.25,11.43-10.81c1.49,4.68-5.96,9.78-5.96,9.78l-5.46,1.03Zm29.47,29.47s9.25-2.13,10.81-11.43c-4.68-1.49-9.78,5.96-9.78,5.96l-1.03,5.46Zm-486.87,0s-9.25-2.13-10.81-11.43c4.68-1.49,9.78,5.96,9.78,5.96l1.03,5.46Zm29.47-29.47s-2.13-9.25-11.43-10.81c-1.49,4.68,5.96,9.78,5.96,9.78l5.46,1.03Zm0,486.87s-2.13,9.25-11.43,10.81c-1.49-4.68,5.96-9.78,5.96-9.78l5.46-1.03Zm-29.47-29.47s-9.25,2.13-10.81,11.43c4.68,1.49,9.78-5.96,9.78-5.96l1.03-5.46Zm486.87,0s9.25,2.13,10.81,11.43c-4.68,1.49-9.78-5.96-9.78-5.96l-1.03-5.46Zm-29.47,29.47s2.13,9.25,11.43,10.81c1.49-4.68-5.96-9.78-5.96-9.78l-5.46-1.03Z"/></g><g id="path30093"><path class="cls-4" d="M457.58,30.65s3.53-18.96,25.28-20.02c-7.81,13.2-17.24,19.17-17.24,19.17l-8.05,.85Zm51.77,51.77s18.96-3.53,20.02-25.28c-13.2,7.81-19.17,17.24-19.17,17.24l-.85,8.05Zm-478.71,0s-18.96-3.53-20.02-25.28c13.2,7.81,19.17,17.24,19.17,17.24l.85,8.05ZM82.42,30.65s-3.53-18.96-25.28-20.02c7.81,13.2,17.24,19.17,17.24,19.17l8.05,.85Zm0,478.71s-3.53,18.96-25.28,20.02c7.81-13.2,17.24-19.17,17.24-19.17l8.05-.85Zm-51.77-51.77s-18.96,3.53-20.02,25.28c13.2-7.81,19.17-17.24,19.17-17.24l.85-8.05Zm478.71,0s18.96,3.53,20.02,25.28c-13.2-7.81-19.17-17.24-19.17-17.24l-.85-8.05Zm-51.77,51.77s3.53,18.96,25.28,20.02c-7.81-13.2-17.24-19.17-17.24-19.17l-8.05-.85Z"/></g><g id="path30095"><path class="cls-4" d="M430.39,32.56s1.32-19.51,25.64-21.9c-4.19,13.71-19.71,21.86-19.71,21.86l-5.92,.04Zm77.05,77.05s19.51-1.32,21.9-25.64c-13.71,4.19-21.86,19.71-21.86,19.71l-.04,5.92Zm-474.88,0s-19.51-1.32-21.9-25.64c13.71,4.19,21.86,19.71,21.86,19.71l.04,5.92ZM109.61,32.56s-1.32-19.51-25.64-21.9c4.19,13.71,19.71,21.86,19.71,21.86l5.92,.04Zm0,474.88s-1.32,19.51-25.64,21.9c4.19-13.71,19.71-21.86,19.71-21.86l5.92-.04Zm-77.05-77.05s-19.51,1.32-21.9,25.64c13.71-4.19,21.86-19.71,21.86-19.71l.04-5.92Zm474.88,0s19.51,1.32,21.9,25.64c-13.71-4.19-21.86-19.71-21.86-19.71l-.04-5.92Zm-77.05,77.05s1.32,19.51,25.64,21.9c-4.19-13.71-19.71-21.86-19.71-21.86l-5.92-.04Z"/></g><g id="path30097"><path class="cls-4" d="M403.2,33.8s1.6-21.99,24.87-23.93c-3.51,14.52-17.78,24.3-17.78,24.3l-7.08-.37Zm103,103s21.99-1.6,23.93-24.87c-14.52,3.51-24.3,17.78-24.3,17.78l.37,7.08Zm-472.4,0s-21.99-1.6-23.93-24.87c14.52,3.51,24.3,17.78,24.3,17.78l-.37,7.08ZM136.81,33.8s-1.6-21.99-24.87-23.93c3.51,14.52,17.78,24.3,17.78,24.3l7.08-.37Zm0,472.4s-1.6,21.99-24.87,23.93c3.51-14.52,17.78-24.3,17.78-24.3l7.08,.37Zm-103-103s-21.99,1.6-23.93,24.87c14.52-3.51,24.3-17.78,24.3-17.78l-.37-7.08Zm472.4,0s21.99,1.6,23.93,24.87c-14.52-3.51-24.3-17.78-24.3-17.78l.37-7.08Zm-103,103s1.6,21.99,24.87,23.93c-3.51-14.52-17.78-24.3-17.78-24.3l-7.08,.37Z"/></g><g id="path30099"><path class="cls-4" d="M370.43,32.8s.42-23.24,17.41-26.31,23.25,1.01,23.25,1.01c0,0-21.27,23.42-36.47,25.49-3.42,1.2-4.19-.18-4.19-.18h0Zm136.78,136.78s23.24-.42,26.31-17.41c3.08-17-1.01-23.25-1.01-23.25,0,0-23.41,21.27-25.49,36.47-1.2,3.42,.18,4.19,.18,4.19h0Zm-474.41,0s-23.24-.42-26.31-17.41c-3.08-17,1.01-23.25,1.01-23.25,0,0,23.41,21.27,25.49,36.47,1.2,3.42-.18,4.19-.18,4.19h0ZM169.57,32.8s-.42-23.24-17.41-26.31-23.25,1.01-23.25,1.01c0,0,21.27,23.42,36.47,25.49,3.42,1.2,4.19-.18,4.19-.18h0Zm0,474.41s-.42,23.24-17.41,26.31c-17,3.08-23.25-1.01-23.25-1.01,0,0,21.27-23.41,36.47-25.49,3.42-1.2,4.19,.18,4.19,.18h0ZM32.8,370.43s-23.24,.42-26.31,17.41c-3.08,17,1.01,23.25,1.01,23.25,0,0,23.41-21.27,25.49-36.47,1.2-3.42-.18-4.19-.18-4.19h0Zm474.41,0s23.24,.42,26.31,17.41c3.08,17-1.01,23.24-1.01,23.24,0,0-23.42-21.27-25.49-36.47-1.2-3.42,.18-4.19,.18-4.19h0Zm-136.78,136.78s.42,23.24,17.41,26.31c17,3.08,23.25-1.01,23.25-1.01,0,0-21.27-23.41-36.47-25.49-3.42-1.2-4.19,.18-4.19,.18h0Z"/></g><g id="path30101"><path class="cls-4" d="M326.62,43c.44-2.03-6.1-28.41,9.6-33.97,15.7-5.56,30.61-1.42,30.61-1.42,0,0-16.73,14.77-22.98,19.25s-11.58,14.5-11.58,14.5l-5.66,1.64Zm170.39,170.39c2.03-.44,28.41,6.1,33.97-9.6,5.56-15.7,1.42-30.61,1.42-30.61,0,0-14.77,16.73-19.25,22.98-4.48,6.25-14.5,11.58-14.5,11.58l-1.64,5.66Zm-454.01,0c-2.03-.44-28.41,6.1-33.97-9.61-5.56-15.7-1.42-30.61-1.42-30.61,0,0,14.78,16.73,19.25,22.98,4.48,6.25,14.5,11.58,14.5,11.58l1.64,5.66ZM213.39,43c-.44-2.03,6.1-28.41-9.6-33.97-15.7-5.56-30.61-1.42-30.61-1.42,0,0,16.73,14.77,22.98,19.25,6.25,4.48,11.58,14.5,11.58,14.5l5.66,1.64Zm0,454.01c-.44,2.03,6.1,28.41-9.6,33.97-15.7,5.56-30.61,1.42-30.61,1.42,0,0,16.73-14.77,22.98-19.25,6.25-4.48,11.58-14.5,11.58-14.5l5.66-1.64ZM43,326.61c-2.03,.44-28.41-6.1-33.97,9.61-5.56,15.7-1.42,30.61-1.42,30.61,0,0,14.78-16.73,19.25-22.98,4.48-6.25,14.5-11.58,14.5-11.58l1.64-5.66Zm454.01,0c2.03,.44,28.41-6.1,33.97,9.6,5.56,15.7,1.42,30.61,1.42,30.61,0,0-14.77-16.73-19.25-22.98-4.48-6.25-14.5-11.58-14.5-11.58l-1.64-5.66Zm-170.39,170.39c.44,2.03-6.1,28.41,9.6,33.97,15.7,5.56,30.61,1.42,30.61,1.42,0,0-16.73-14.78-22.98-19.25-6.25-4.48-11.58-14.5-11.58-14.5l-5.66-1.64Z"/></g><g id="path30103"><path class="cls-4" d="M296.52,70.62s-12.21-20.5-6.86-38.27c5.35-17.77,18.88-20.08,26.73-21.3-8.97,18.42-13.27,48.29-14.93,53.18-1.67,4.89-4.93,6.39-4.93,6.39Zm172.87,172.87s20.5,12.21,38.27,6.86c17.77-5.35,20.08-18.88,21.3-26.73-18.42,8.97-48.29,13.27-53.18,14.93-4.89,1.67-6.39,4.93-6.39,4.93Zm-398.77,0s-20.5,12.21-38.27,6.86c-17.77-5.35-20.08-18.88-21.3-26.73,18.42,8.97,48.29,13.27,53.18,14.93,4.89,1.67,6.39,4.93,6.39,4.93ZM243.49,70.62s12.21-20.5,6.86-38.27c-5.35-17.77-18.88-20.08-26.73-21.3,8.97,18.42,13.27,48.29,14.93,53.18,1.67,4.89,4.93,6.39,4.93,6.39Zm0,398.77s12.21,20.5,6.86,38.27c-5.35,17.77-18.88,20.08-26.73,21.3,8.97-18.42,13.27-48.29,14.93-53.18,1.67-4.89,4.93-6.39,4.93-6.39ZM70.62,296.52s-20.5-12.21-38.27-6.86c-17.77,5.35-20.08,18.88-21.3,26.73,18.42-8.97,48.29-13.27,53.18-14.93,4.89-1.67,6.39-4.93,6.39-4.93Zm398.77,0s20.5-12.21,38.27-6.86c17.77,5.35,20.08,18.88,21.3,26.73-18.42-8.97-48.29-13.27-53.18-14.93-4.89-1.67-6.39-4.93-6.39-4.93Zm-172.87,172.87s-12.21,20.5-6.86,38.27c5.35,17.77,18.88,20.08,26.73,21.3-8.97-18.42-13.27-48.29-14.93-53.18-1.67-4.89-4.93-6.39-4.93-6.39Z"/></g><g id="path30105"><path class="cls-4" d="M364.94,97.84c-17.53-6.56-57.18,14.22-65.27,55.01,23.96-13.51,35.3-4.08,38.98-18.03,3.68-13.95-8.46-26.46,26.29-36.99Zm77.23,77.23c6.56,17.53-14.22,57.18-55.01,65.26,13.51-23.96,4.08-35.3,18.03-38.97,13.95-3.68,26.46,8.46,36.99-26.29Zm-344.33,0c-6.56,17.53,14.22,57.18,55.01,65.27-13.51-23.96-4.08-35.3-18.03-38.98-13.95-3.68-26.46,8.46-36.99-26.29Zm77.23-77.23c17.53-6.56,57.18,14.22,65.27,55.01-23.96-13.51-35.3-4.08-38.98-18.03-3.68-13.95,8.46-26.46-26.29-36.99Zm0,344.33c17.53,6.56,57.18-14.22,65.27-55.01-23.96,13.51-35.3,4.08-38.98,18.03-3.68,13.95,8.46,26.46-26.29,36.99h0Zm-77.23-77.23c-6.56-17.53,14.22-57.18,55.01-65.27-13.51,23.96-4.08,35.3-18.03,38.98-13.95,3.68-26.46-8.46-36.99,26.29h0Zm344.33,0c6.56-17.53-14.22-57.18-55.01-65.26,13.51,23.96,4.08,35.3,18.03,38.98,13.95,3.68,26.46-8.46,36.99,26.29h0Zm-77.23,77.23c-17.53,6.56-57.18-14.22-65.27-55.01,23.96,13.51,35.3,4.08,38.98,18.03,3.68,13.95-8.46,26.46,26.29,36.99h0Z"/></g><g id="path30107"><path class="cls-4" d="M332.03,160.52s25.92-25.3,32.66-15.21-32.66,15.21-32.66,15.21Zm47.46,47.46s25.3-25.92,15.21-32.66c-10.09-6.74-15.21,32.66-15.21,32.66Zm-218.97,0s-25.3-25.92-15.21-32.66c10.09-6.74,15.21,32.66,15.21,32.66Zm47.46-47.46s-25.92-25.3-32.66-15.21c-6.74,10.09,32.66,15.21,32.66,15.21Zm0,218.97s-25.92,25.3-32.66,15.21c-6.74-10.09,32.66-15.21,32.66-15.21Zm-47.46-47.46s-25.3,25.92-15.21,32.66c10.09,6.74,15.21-32.66,15.21-32.66Zm218.97,0s25.3,25.92,15.21,32.66c-10.09,6.74-15.21-32.66-15.21-32.66Zm-47.46,47.46s25.92,25.3,32.66,15.21c6.74-10.09-32.66-15.21-32.66-15.21Z"/></g></g></g></svg>